<svg width="289" height="119" viewBox="0 0 289 119" fill="none" xmlns="http://www.w3.org/2000/svg"><path d="M58.77 85.84H5.49V65.68L40.05 5.2h28.8L34.29 65.68h24.48v-21.6h25.92v21.6h10.08v20.16H84.69V106H58.77V85.84zm102.296-53.28c0-5.76-2.88-8.64-8.64-8.64h-15.84c-5.76 0-8.64 2.88-8.64 8.64v46.08c0 5.76 2.88 8.64 8.64 8.64h15.84c5.76 0 8.64-2.88 8.64-8.64V32.56zm25.92 46.08c0 10.08-2.304 17.424-6.912 22.032-4.512 4.512-11.808 6.768-21.888 6.768h-27.36c-10.08 0-17.424-2.256-22.032-6.768-4.512-4.608-6.768-11.952-6.768-22.032V32.56c0-10.08 2.256-17.376 6.768-21.888 4.608-4.608 11.952-6.912 22.032-6.912h27.36c10.08 0 17.376 2.304 21.888 6.912 4.608 4.512 6.912 11.808 6.912 21.888v46.08zm61.908 7.2h-53.28V65.68l34.56-60.48h28.8l-34.56 60.48h24.48v-21.6h25.92v21.6h10.08v20.16h-10.08V106h-25.92V85.84z" fill="#fff"/><path d="M58.77 85.84h5v-5h-5v5zm-53.28 0h-5v5h5v-5zm0-20.16L1.147 63.2.49 64.351v1.328h5zM40.05 5.2v-5h-2.902l-1.44 2.52L40.05 5.2zm28.8 0l4.34 2.48L77.466.2H68.85v5zM34.29 65.68l-4.342-2.48-4.274 7.48h8.615v-5zm24.48 0v5h5v-5h-5zm0-21.6v-5h-5v5h5zm25.92 0h5v-5h-5v5zm0 21.6h-5v5h5v-5zm10.08 0h5v-5h-5v5zm0 20.16v5h5v-5h-5zm-10.08 0v-5h-5v5h5zm0 20.16v5h5v-5h-5zm-25.92 0h-5v5h5v-5zm0-25.16H5.49v10h53.28v-10zm-48.28 5V65.68h-10v20.16h10zm-.66-17.68L44.39 7.68l-8.682-4.96L1.148 63.2l8.683 4.96zM40.05 10.2h28.8V.2h-28.8v10zm24.458-7.48L29.948 63.2l8.683 4.96L73.19 7.68l-8.683-4.96zM34.29 70.68h24.48v-10H34.29v10zm29.48-5v-21.6h-10v21.6h10zm-5-16.6h25.92v-10H58.77v10zm20.92-5v21.6h10v-21.6h-10zm5 26.6h10.08v-10H84.69v10zm5.08-5v20.16h10V65.68h-10zm5 15.16H84.69v10h10.08v-10zm-15.08 5V106h10V85.84h-10zm5 15.16H58.77v10h25.92v-10zm-20.92 5V85.84h-10V106h10zm116.305-5.328l-3.536-3.535 3.536 3.535zm-71.28 0l-3.573 3.498.037.038.038.037 3.498-3.573zm0-90l-3.536-3.536 3.536 3.536zm71.28 0l-3.573 3.498.037.038.038.037 3.498-3.573zM166.066 32.56c0-3.65-.916-7.307-3.625-10.016-2.708-2.708-6.365-3.624-10.015-3.624v10c2.109 0 2.772.524 2.944.695.172.172.696.836.696 2.945h10zm-13.64-13.64h-15.84v10h15.84v-10zm-15.84 0c-3.651 0-7.308.916-10.016 3.624-2.708 2.709-3.624 6.365-3.624 10.016h10c0-2.11.524-2.773.695-2.945.172-.171.835-.695 2.945-.695v-10zm-13.64 13.64v46.08h10V32.56h-10zm0 46.08c0 3.65.916 7.307 3.624 10.016 2.708 2.708 6.365 3.624 10.016 3.624v-10c-2.11 0-2.773-.524-2.945-.695-.171-.172-.695-.836-.695-2.945h-10zm13.64 13.64h15.84v-10h-15.84v10zm15.84 0c3.65 0 7.307-.916 10.015-3.624 2.709-2.709 3.625-6.365 3.625-10.016h-10c0 2.11-.524 2.773-.696 2.945-.172.171-.835.695-2.944.695v10zm13.64-13.64V32.56h-10v46.08h10zm15.92 0c0 9.462-2.181 15.23-5.448 18.496l7.071 7.072c5.949-5.95 8.377-14.87 8.377-25.568h-10zm-5.448 18.496c-3.154 3.155-8.855 5.304-18.352 5.304v10c10.662 0 19.554-2.363 25.423-8.232l-7.071-7.072zm-18.352 5.304h-27.36v10h27.36v-10zm-27.36 0c-9.486 0-15.27-2.144-18.534-5.34l-6.996 7.145c5.951 5.827 14.855 8.195 25.53 8.195v-10zm-18.46-5.266c-3.196-3.265-5.34-9.049-5.34-18.534h-10c0 10.675 2.368 19.579 8.195 25.53l7.145-6.996zm-5.34-18.534V32.56h-10v46.08h10zm0-46.08c0-9.498 2.149-15.198 5.303-18.353l-7.071-7.07c-5.87 5.869-8.232 14.76-8.232 25.423h10zm5.303-18.353c3.267-3.266 9.035-5.447 18.497-5.447v-10c-10.699 0-19.619 2.427-25.568 8.376l7.071 7.071zm18.497-5.447h27.36v-10h-27.36v10zm27.36 0c9.473 0 15.158 2.186 18.315 5.41l7.145-6.996c-5.867-5.992-14.774-8.414-25.46-8.414v10zm18.39 5.485c3.224 3.157 5.41 8.842 5.41 18.315h10c0-10.687-2.423-19.594-8.414-25.46l-6.996 7.145zm5.41 18.315v46.08h10V32.56h-10zm66.908 53.28h5v-5h-5v5zm-53.28 0h-5v5h5v-5zm0-20.16l-4.341-2.48-.659 1.152v1.328h5zm34.56-60.48v-5h-2.901l-1.44 2.52 4.341 2.48zm28.8 0l4.342 2.48L267.59.2h-8.616v5zm-34.56 60.48l-4.341-2.48-4.275 7.48h8.616v-5zm24.48 0v5h5v-5h-5zm0-21.6v-5h-5v5h5zm25.92 0h5v-5h-5v5zm0 21.6h-5v5h5v-5zm10.08 0h5v-5h-5v5zm0 20.16v5h5v-5h-5zm-10.08 0v-5h-5v5h5zm0 20.16v5h5v-5h-5zm-25.92 0h-5v5h5v-5zm0-25.16h-53.28v10h53.28v-10zm-48.28 5V65.68h-10v20.16h10zm-.658-17.68l34.56-60.48-8.683-4.96-34.56 60.48 8.683 4.96zm30.218-57.96h28.8V.2h-28.8v10zm24.459-7.48l-34.56 60.48 8.683 4.96 34.56-60.48-8.683-4.96zm-30.219 67.96h24.48v-10h-24.48v10zm29.48-5v-21.6h-10v21.6h10zm-5-16.6h25.92v-10h-25.92v10zm20.92-5v21.6h10v-21.6h-10zm5 26.6h10.08v-10h-10.08v10zm5.08-5v20.16h10V65.68h-10zm5 15.16h-10.08v10h10.08v-10zm-15.08 5V106h10V85.84h-10zm5 15.16h-25.92v10h25.92v-10zm-20.92 5V85.84h-10V106h10z" fill="#D7D7D8"/></svg>