<svg width="62" height="66" viewBox="0 0 62 66" fill="none" xmlns="http://www.w3.org/2000/svg"><path d="M11.602.692a.923.923 0 00-.91.936v1.846h-3.69C3.443 3.474.539 6.378.539 9.936V62.55c0 1.519 1.25 2.77 2.77 2.77h55.384a2.785 2.785 0 002.77-2.77V9.936c0-3.558-2.905-6.462-6.462-6.462h-3.693V1.628a.922.922 0 00-1.585-.656.924.924 0 00-.26.656v1.846H45.77V1.628a.924.924 0 10-1.846 0v1.846H40.23V1.628a.924.924 0 10-1.846 0v1.846h-3.692V1.628a.922.922 0 00-1.585-.656.923.923 0 00-.261.656v1.846h-3.693V1.628a.924.924 0 10-1.846 0v1.846h-3.692V1.628A.922.922 0 0022.03.972a.924.924 0 00-.261.656v1.846h-3.692V1.628a.924.924 0 10-1.847 0v1.846h-3.69V1.628a.924.924 0 00-.937-.936v0zM7 5.32h3.692v1.847a.924.924 0 101.846 0V5.32h3.692v1.846a.922.922 0 101.846 0V5.32h3.693v1.846a.924.924 0 101.846 0V5.32h3.692v1.846a.924.924 0 101.846 0V5.32h3.693v1.846a.924.924 0 101.846 0V5.32h3.692v1.846a.924.924 0 101.846 0V5.32h3.693v1.846a.92.92 0 00.923.936.923.923 0 00.923-.936V5.32h3.692v1.846a.924.924 0 101.846 0V5.32H55a4.601 4.601 0 014.615 4.615v7.384h-3.23a.46.46 0 100 .924h3.23V62.55a.908.908 0 01-.923.923H3.308a.908.908 0 01-.923-.923V18.244h48.462a.463.463 0 00.432-.64.462.462 0 00-.432-.284H2.385V9.936A4.601 4.601 0 017.001 5.32zm2.307 3.693A2.315 2.315 0 007 11.32a2.315 2.315 0 002.307 2.308 2.315 2.315 0 002.308-2.308 2.315 2.315 0 00-2.308-2.307zm43.385 0a2.315 2.315 0 00-2.308 2.307 2.315 2.315 0 002.308 2.308A2.315 2.315 0 0055 11.32a2.315 2.315 0 00-2.308-2.307zm-43.385.923c.77 0 1.385.614 1.385 1.384 0 .77-.614 1.385-1.385 1.385-.77 0-1.384-.614-1.384-1.385 0-.77.614-1.384 1.384-1.384zm43.385 0c.77 0 1.385.614 1.385 1.384 0 .77-.615 1.385-1.385 1.385s-1.385-.614-1.385-1.385c0-.77.615-1.384 1.385-1.384zm0 7.384a.46.46 0 100 .924h1.846a.463.463 0 00.33-.79.463.463 0 00-.33-.134h-1.846zm-30.445 9.226a.461.461 0 00-.386.19l-5.147 6.863-1.484-2.227a.463.463 0 00-.773-.005.464.464 0 00.005.517l1.846 2.77a.462.462 0 00.753.021L22.6 27.29a.461.461 0 00-.353-.744zm-10.17.928a.462.462 0 00-.462.462v9.23a.461.461 0 00.462.462h9.23a.462.462 0 00.462-.461v-5.539a.461.461 0 10-.923 0v5.077h-8.308v-8.308h6a.461.461 0 100-.923h-6.462zm13.846 2.77a.461.461 0 100 .923h24a.461.461 0 100-.923h-24zm0 3.692a.461.461 0 100 .923h12.923a.463.463 0 00.432-.64.461.461 0 00-.432-.283H25.924zm15.692 0a.461.461 0 100 .923h4.615a.463.463 0 00.331-.79.463.463 0 00-.33-.133h-4.616zM22.248 43.16a.463.463 0 00-.386.19l-5.147 6.863-1.484-2.226a.462.462 0 10-.768.512l1.846 2.769a.463.463 0 00.753.021l5.539-7.384a.461.461 0 00-.353-.745v0zm-10.17.929a.462.462 0 00-.462.461v9.231a.462.462 0 00.462.462h9.23a.462.462 0 00.462-.462v-5.538a.461.461 0 10-.923 0v5.077h-8.308v-8.308h6a.461.461 0 100-.923h-6.462zm13.846 2.769a.461.461 0 100 .923h24a.461.461 0 100-.923h-24zm0 3.692a.461.461 0 100 .923h12.923a.461.461 0 100-.923H25.924zm15.692 0a.461.461 0 100 .923h4.615a.461.461 0 100-.923h-4.615z" fill="#F2994A" stroke="#F2994A"/></svg>