<svg width="74" height="74" viewBox="0 0 74 74" fill="none" xmlns="http://www.w3.org/2000/svg"><path d="M45.169 1.002a1.946 1.946 0 00-1.935 1.318c-1.083 3.136-2.881 4.615-5.711 4.828-1.753.127-3.102-.207-4.208-.975-1.106-.769-2.008-2.016-2.69-3.869V2.3a1.955 1.955 0 00-2.316-1.198 36.5 36.5 0 00-10.796 4.523l-.003.002a1.95 1.95 0 00-.705 2.5c.765 1.627 1.026 3.042.861 4.3-.165 1.262-.75 2.41-1.856 3.537l-.002.002c-1.118 1.141-2.262 1.749-3.527 1.932-1.26.184-2.685-.064-4.337-.82a1.95 1.95 0 00-2.502.75 36.612 36.612 0 00-4.387 10.853 1.947 1.947 0 001.22 2.284c3.315 1.207 4.714 3.037 4.79 6.1.031 1.606-.333 2.856-1.084 3.895-.752 1.04-1.928 1.894-3.631 2.555-.001 0-.003 0-.004.002a1.97 1.97 0 00-1.19 2.28l.002.006a36.437 36.437 0 004.538 10.732l.002.002a1.934 1.934 0 002.439.773c3.216-1.436 5.493-1.09 7.685 1.036 2.255 2.199 2.636 4.497 1.22 7.762l-.003.009a1.983 1.983 0 00.755 2.426l.019.011a36.45 36.45 0 0010.791 4.395c.153.041.31.057.469.049a2.06 2.06 0 001.752-1.121 2.296 2.296 0 00.186-.39 6.453 6.453 0 015.93-4.386.9.9 0 00.1-.009 6.453 6.453 0 016.114 4.242l-.01-.029a2.38 2.38 0 003.04 1.487 36.822 36.822 0 009.79-4.081c.126-.084.236-.155.292-.186a.917.917 0 00.099-.063l.085-.061a1.974 1.974 0 00.72-2.396l-.006-.016c-1.319-2.972-1.088-5.138.719-7.222l.007-.008c1.116-1.31 2.28-2.028 3.582-2.286 1.303-.258 2.8-.052 4.563.702l.018.007a1.98 1.98 0 002.405-.777l.004-.005a36.096 36.096 0 004.474-10.763v-.002a1.949 1.949 0 00-1.206-2.292c-3.257-1.253-4.644-3.08-4.71-6.118-.033-1.598.332-2.846 1.085-3.885.753-1.04 1.932-1.898 3.64-2.56l-.02.007a1.911 1.911 0 001.239-2.028c-.148-1.5-.916-3.735-1.836-5.959-.923-2.23-1.911-4.288-2.863-5.367l-.002-.002a1.959 1.959 0 00-2.29-.468c-1.612.755-3.01 1.005-4.257.83-1.248-.173-2.388-.766-3.51-1.88h-.002c-1.131-1.116-1.733-2.26-1.911-3.53-.179-1.268.074-2.706.842-4.371 0-.002 0-.004.002-.006a1.978 1.978 0 00-.745-2.477 36.008 36.008 0 00-10.86-4.473 1.898 1.898 0 00-.364-.054zm-.081 1.845a34.153 34.153 0 0110.325 4.25c.054.035.07.088.043.149-.87 1.89-1.23 3.696-.99 5.394.239 1.698 1.086 3.246 2.44 4.584h.003v.002c1.342 1.33 2.877 2.162 4.553 2.396 1.678.234 3.453-.125 5.297-.99h.002c.045-.021.087-.011.12.025h.003c.523.595 1.653 2.707 2.54 4.85.887 2.144 1.615 4.47 1.709 5.448l.003.033c.005.032-.008.051-.04.063a.712.712 0 00-.02.009c-1.943.754-3.456 1.805-4.465 3.196-1.008 1.392-1.476 3.096-1.437 5.007v.001c.08 3.665 2.183 6.377 5.906 7.806a.199.199 0 00.011.004c.052.02.07.055.056.108l-.003.017a34.258 34.258 0 01-4.246 10.221h-.002c-.035.055-.09.074-.151.05-1.996-.85-3.882-1.155-5.63-.809-1.753.348-3.31 1.352-4.628 2.901l-.002.002c-2.208 2.552-2.515 5.763-1.015 9.157a.11.11 0 01-.043.144l-.03.02-.1.074-.013.009a6.14 6.14 0 00-.294.182h-.001a34.997 34.997 0 01-9.337 3.88.92.92 0 00-.083.025.505.505 0 01-.669-.327 8.311 8.311 0 00-7.862-5.48 1.277 1.277 0 00-.243.023 8.305 8.305 0 00-7.527 5.61.44.44 0 01-.042.084.933.933 0 00-.04.072.21.21 0 01-.174.111 34.61 34.61 0 01-10.224-4.162c-.055-.037-.073-.094-.047-.155 1.612-3.726 1.064-7.18-1.63-9.808h-.002c-2.635-2.558-6.051-3.039-9.726-1.399l-.002.002c-.042.019-.072.01-.095-.03a34.593 34.593 0 01-4.334-10.227v-.003c-.014-.061.011-.108.07-.131 1.937-.753 3.447-1.802 4.453-3.193 1.007-1.393 1.474-3.1 1.435-5.02v-.005c-.09-3.685-2.219-6.408-6.003-7.786l-.002-.002c-.052-.019-.07-.055-.058-.108a34.765 34.765 0 014.177-10.343c.03-.048.07-.06.12-.036a.44.44 0 00.014.007c1.89.868 3.694 1.224 5.39.978 1.697-.247 3.24-1.105 4.578-2.47 1.327-1.35 2.149-2.9 2.37-4.59.222-1.691-.15-3.48-1.029-5.344a6.461 6.461 0 00-.007-.014c-.025-.05-.013-.09.034-.12a34.663 34.663 0 0110.285-4.304c.056-.015.095.005.116.059.772 2.097 1.877 3.71 3.367 4.745 1.491 1.036 3.329 1.45 5.394 1.3h.004c3.48-.262 6.074-2.453 7.323-6.077l.004-.01c.016-.05.05-.068.1-.055zm-8.023 9.423a24.612 24.612 0 00-2.23.09c-8.865.76-16.94 6.287-20.639 14.886-4.932 11.465-.547 24.815 10.219 31.133 10.766 6.318 24.558 3.634 32.162-6.263 7.604-9.898 6.647-23.92-2.234-32.694a.46.46 0 00-.754.507c.025.056.06.107.105.149 8.554 8.452 9.475 21.942 2.15 31.476-7.324 9.533-20.591 12.114-30.963 6.028-10.37-6.086-14.587-18.926-9.836-29.97 4.752-11.044 16.977-16.82 28.528-13.474a.46.46 0 10.256-.886 24.755 24.755 0 00-6.764-.982zm13.865 4.426a.462.462 0 00-.274.844c.345.242.683.494 1.014.753a.462.462 0 10.57-.726c-.344-.27-.694-.53-1.052-.783a.462.462 0 00-.258-.088zm-15.437 2.816c-.843 0-1.528.715-1.493 1.558l.943 21.671v.002a1.5 1.5 0 001.493 1.42h1.117a1.5 1.5 0 001.493-1.427v-.004l.244-6.784a.462.462 0 00-.923-.034l-.244 6.782a.563.563 0 01-.57.545h-1.117a.564.564 0 01-.57-.543l-.943-21.668a.563.563 0 01.57-.595h3.003c.331 0 .584.265.57.595l-.292 6.701a.462.462 0 00.923.04l.29-6.701a1.5 1.5 0 00-1.49-1.558h-3.004zm3.623 10.813a.461.461 0 00-.474.449l-.092 2.113a.462.462 0 10.922.04l.092-2.113a.46.46 0 00-.447-.489v0zm-2.121 18.073c-.975 0-1.765.383-2.28.961-.514.58-.762 1.334-.762 2.08 0 .748.248 1.5.763 2.08.514.578 1.304.96 2.279.96.975 0 1.764-.382 2.278-.96.515-.58.763-1.332.763-2.08 0-.746-.248-1.5-.763-2.08-.514-.578-1.303-.96-2.278-.96zm0 .924c.744 0 1.244.262 1.59.65.345.389.528.926.528 1.468 0 .542-.183 1.077-.528 1.466-.346.388-.846.65-1.59.65-.745 0-1.245-.262-1.59-.65-.346-.389-.529-.924-.529-1.466 0-.542.183-1.08.529-1.468.345-.388.845-.65 1.59-.65z" fill="#F2994A" stroke="#F2994A"/></svg>