<svg width="67" height="76" viewBox="0 0 67 76" fill="none" xmlns="http://www.w3.org/2000/svg"><path d="M33.57 1.077c-3.387 0-6.153 2.767-6.153 6.154 0 3.228 2.513 5.886 5.68 6.13v3.337a.475.475 0 00.657.444.472.472 0 00.29-.444v-3.337c3.168-.245 5.68-2.902 5.68-6.13 0-3.387-2.766-6.154-6.153-6.154zm0 1.894a4.246 4.246 0 014.261 4.26 4.246 4.246 0 01-4.26 4.26 4.246 4.246 0 01-4.26-4.26 4.246 4.246 0 014.26-4.26zM6.924 16.46c-3.387 0-6.153 2.767-6.153 6.155 0 3.387 2.766 6.154 6.153 6.154 2.1 0 3.96-1.065 5.07-2.68l2.893 1.67a.474.474 0 10.473-.821l-2.894-1.672a6.094 6.094 0 00.612-2.651c0-3.388-2.766-6.154-6.154-6.154zm53.295 0c-3.387 0-6.153 2.767-6.153 6.155 0 .95.224 1.846.612 2.651l-2.894 1.672a.473.473 0 00.473.82l2.892-1.669a6.155 6.155 0 005.07 2.68c3.388 0 6.154-2.767 6.154-6.154 0-3.388-2.766-6.154-6.154-6.154zm-26.655 1.65a.472.472 0 00-.465.48v.948a.475.475 0 00.81.339.473.473 0 00.136-.34v-.946a.473.473 0 00-.48-.48v0zm-26.64.244a4.246 4.246 0 014.26 4.26 4.246 4.246 0 01-4.26 4.261 4.246 4.246 0 01-4.26-4.26 4.246 4.246 0 014.26-4.26zm53.295 0a4.246 4.246 0 014.26 4.26 4.246 4.246 0 01-4.26 4.261 4.246 4.246 0 01-4.26-4.26 4.246 4.246 0 014.26-4.26zm-26.647 4.497c-4.433 0-8.047 3.614-8.047 8.048a8.023 8.023 0 002.733 6.024c-4.873 2.554-8.21 8.423-8.414 15.25a.947.947 0 101.894.055c.2-6.72 3.757-12.236 8.37-14.077a7.975 7.975 0 003.464.795c1.24 0 2.412-.29 3.463-.795 4.613 1.84 8.17 7.356 8.371 14.077a.948.948 0 001.894-.055c-.205-6.827-3.54-12.699-8.414-15.252a8.02 8.02 0 002.733-6.022c0-4.434-3.614-8.048-8.047-8.048zm0 1.894a6.14 6.14 0 016.154 6.154 6.135 6.135 0 01-3.057 5.318l-.004.001a.947.947 0 00-.258.145c-.848.439-1.81.69-2.835.69a6.143 6.143 0 01-2.844-.696.947.947 0 00-.239-.133 6.134 6.134 0 01-3.07-5.325 6.14 6.14 0 016.153-6.154zm-16.845 3.073a.474.474 0 00-.2.888l.82.473a.475.475 0 00.707-.349.473.473 0 00-.233-.472l-.82-.473a.474.474 0 00-.274-.067zm33.627 0a.474.474 0 00-.21.067l-.821.473a.472.472 0 00-.052.786.474.474 0 00.525.035l.821-.473a.474.474 0 00-.263-.888zM17.556 46.754a.473.473 0 00-.21.067l-.82.473a.472.472 0 00-.052.786.474.474 0 00.525.035l.821-.474a.473.473 0 00-.264-.887v0zm31.967 0a.474.474 0 00-.201.888l.82.473a.475.475 0 00.707-.35.474.474 0 00-.233-.471l-.821-.473a.474.474 0 00-.272-.067v0zm-42.6.477c-3.387 0-6.153 2.766-6.153 6.154 0 3.387 2.766 6.154 6.153 6.154 3.388 0 6.154-2.767 6.154-6.154 0-.95-.224-1.847-.612-2.652l2.894-1.671a.474.474 0 10-.473-.821l-2.892 1.67a6.155 6.155 0 00-5.07-2.68zm53.295 0a6.155 6.155 0 00-5.07 2.68l-2.892-1.67a.474.474 0 10-.473.82l2.894 1.672a6.093 6.093 0 00-.612 2.652c0 3.387 2.766 6.154 6.154 6.154 3.387 0 6.153-2.767 6.153-6.154 0-3.388-2.766-6.154-6.154-6.154zM6.923 49.124a4.246 4.246 0 014.26 4.26 4.246 4.246 0 01-4.26 4.261 4.246 4.246 0 01-4.26-4.26 4.246 4.246 0 014.26-4.26zm53.295 0a4.246 4.246 0 014.26 4.26 4.246 4.246 0 01-4.26 4.261 4.246 4.246 0 01-4.26-4.26 4.246 4.246 0 014.26-4.26zm-26.655 6.857a.476.476 0 00-.465.48v.947a.475.475 0 00.81.34.473.473 0 00.136-.34v-.946a.473.473 0 00-.48-.481v0zm0 2.84a.474.474 0 00-.465.481v3.338c-3.168.244-5.68 2.902-5.68 6.13 0 3.387 2.765 6.153 6.153 6.153 3.387 0 6.154-2.766 6.154-6.154 0-3.227-2.514-5.885-5.68-6.13v-3.337a.474.474 0 00-.482-.48v0zm.008 5.688a4.246 4.246 0 014.26 4.26 4.246 4.246 0 01-4.26 4.26 4.246 4.246 0 01-4.26-4.26 4.246 4.246 0 014.26-4.26z" fill="#F2994A" stroke="#F2994A"/></svg>