<svg width="74" height="74" viewBox="0 0 74 74" fill="none" xmlns="http://www.w3.org/2000/svg"><path d="M37.007 1a.94.94 0 00-.705.3L29.53 8.862 19.76 5.81a.945.945 0 00-1.207.696l-2.204 9.829-9.83 2.202a.95.95 0 00-.698 1.205l3.01 9.772-7.52 6.775a.952.952 0 000 1.408l7.52 6.776-3.01 9.77a.949.949 0 00.699 1.205l9.829 2.202 2.202 9.83a.95.95 0 001.209.695l9.766-3.052 6.775 7.562a.945.945 0 001.41-.002l6.774-7.56 9.768 3.05c.25.083.528.05.757-.083a.944.944 0 00.452-.612l2.202-9.828 9.83-2.204a.946.946 0 00.697-1.203l-3.01-9.772 7.52-6.775a.954.954 0 00.002-1.408l-7.521-6.776 3.009-9.77a.949.949 0 00-.698-1.205l-9.827-2.202-2.204-9.83a.947.947 0 00-1.207-.695l-9.768 3.052L37.712 1.3a.94.94 0 00-.705-.3zm0 2.352l6.474 7.225a.946.946 0 00.988.273l9.369-2.926 2.11 9.41c.08.358.358.639.716.718l9.414 2.11-2.885 9.372a.946.946 0 00.272.981l7.186 6.478-7.186 6.475a.949.949 0 00-.27.983l2.885 9.37-9.414 2.112a.944.944 0 00-.718.716l-2.11 9.41-9.367-2.925a.944.944 0 00-.99.272l-6.474 7.227-6.473-7.227a.946.946 0 00-.989-.27l-9.366 2.926-2.11-9.411a.95.95 0 00-.718-.718l-9.415-2.11 2.886-9.372a.944.944 0 00-.272-.98l-7.187-6.478 7.187-6.476a.947.947 0 00.27-.983l-2.885-9.37 9.416-2.112a.942.942 0 00.716-.716l2.11-9.41 9.367 2.925a.946.946 0 00.99-.272l6.473-7.227zm.002 4.494a.477.477 0 00-.353.157l-3.23 3.607a.473.473 0 00.037.668c.194.175.494.16.668-.035l2.876-3.213 5.486 6.124c.121.139.318.19.494.137l8.054-2.519 1.092 4.86a.474.474 0 10.926-.207l-1.203-5.363a.475.475 0 00-.605-.348l-8.255 2.582-5.635-6.293a.474.474 0 00-.352-.157zm-14.437 3.851a.47.47 0 00-.411.367l-1.849 8.235-3.78.85a.473.473 0 00.103.936.66.66 0 00.105-.01l4.074-.917a.473.473 0 00.357-.36l1.803-8.024 8.054 2.519a.483.483 0 00.496-.137l.733-.818a.475.475 0 00-.707-.633l-.53.592-8.256-2.583a.49.49 0 00-.192-.017zm30.542 7.314a.469.469 0 00-.544.568l.274 1.218c.04.18.18.32.359.36l8.045 1.81-2.473 8.05a.472.472 0 00.136.49l.968.874a.472.472 0 00.67-.035.474.474 0 00-.036-.67l-.744-.67 2.536-8.25a.467.467 0 00-.348-.6L53.703 20.3l-.208-.927a.48.48 0 00-.38-.36zm-38.3 2.563a.462.462 0 00-.187.006l-2.567.577a.476.476 0 00-.35.602l2.545 8.247-6.256 5.635a.47.47 0 000 .703l6.256 5.636-.293.947a.474.474 0 00.907.28l.382-1.237a.475.475 0 00-.137-.492l-6.091-5.485 6.09-5.484a.472.472 0 00.136-.492l-2.482-8.047 2.067-.467a.474.474 0 00-.02-.929zm37.895 4.048a2.459 2.459 0 00-1.705.657l-16.39 16.46-9.753-9.868a2.374 2.374 0 00-3.346.16 2.358 2.358 0 00-.613 1.706c.03.632.304 1.213.756 1.623l11.385 11.387a2.367 2.367 0 003.231-.039L54.27 29.714a2.36 2.36 0 00.74-1.657 2.349 2.349 0 00-.646-1.693 2.352 2.352 0 00-1.654-.742zm-.028.95a1.413 1.413 0 011.38 1.46c-.01.38-.167.733-.453 1.003L35.614 47.029c-.524.493-1.417.485-1.916.033L22.311 35.675a1.409 1.409 0 01-.463-.983 1.43 1.43 0 011.429-1.491c.335 0 .668.117.929.353l10.072 10.19c.088.09.209.14.335.14h.001c.126 0 .246-.05.335-.138l16.718-16.788a1.385 1.385 0 011.014-.387zm9.404 6.71a.472.472 0 00-.292.824l.99.893a.468.468 0 00.667-.035.472.472 0 00-.033-.668l-.99-.892a.471.471 0 00-.343-.122zm2.859 2.578a.474.474 0 00-.293.825l.341.308-6.08 5.483a.473.473 0 00-.135.492l2.473 8.05-1.118.25a.474.474 0 10.207.925l1.616-.365a.473.473 0 00.35-.6l-2.536-8.248 6.248-5.636a.472.472 0 000-.703l-.73-.659a.47.47 0 00-.343-.122zm-51.169 9.646a.47.47 0 00-.403.333l-.294.951a.475.475 0 00.907.28l.294-.952a.474.474 0 00-.504-.612zm-.886 2.878a.472.472 0 00-.405.333l-.774 2.511a.475.475 0 00.348.602l8.254 1.858 1.849 8.235a.472.472 0 00.603.348l8.256-2.581 5.634 6.292a.472.472 0 00.705 0l1.46-1.63a.473.473 0 00-.705-.633l-1.107 1.236-5.485-6.122a.478.478 0 00-.494-.137l-8.056 2.519-1.801-8.025a.477.477 0 00-.36-.359l-8.044-1.812.622-2.02a.473.473 0 00-.313-.593.458.458 0 00-.187-.022zm45.518 3.31a.461.461 0 00-.187.004l-5.017 1.131a.472.472 0 00-.36.357l-1.802 8.027-8.054-2.519a.48.48 0 00-.494.137l-1.725 1.925a.475.475 0 00.705.633l1.521-1.7 8.257 2.582c.045.014.093.02.14.02a.473.473 0 00.465-.37l1.847-8.235 4.724-1.064a.474.474 0 00-.02-.927z" fill="#F2994A" stroke="#F2994A"/></svg>