<svg width="68" height="69" viewBox="0 0 68 69" fill="none" xmlns="http://www.w3.org/2000/svg"><path d="M63.1 1c-.436 0-.775.095-.775.095a.407.407 0 00-.007.002L48.416 3.965a.92.92 0 00-.579.392 5.25 5.25 0 00-1.094.713h-.022a.46.46 0 00-.343.178L24.145 27.2H24c-2.204 0-3.972 1.602-4.413 3.68H5.6c-2.53 0-4.6 2.07-4.6 4.6v9.2c0 2.53 2.07 4.6 4.6 4.6h8.28v2.76h-4.6C4.718 52.04 1 55.758 1 60.32c0 4.562 3.718 8.28 8.28 8.28H42.4c4.562 0 8.28-3.718 8.28-8.28 0-4.562-3.718-8.28-8.28-8.28h-4.6v-2.76h8.28c2.215 0 4.077-1.587 4.507-3.68H62.64v4.857l-2.131.71a.92.92 0 10.582 1.746l1.549-.515v3.579l-2.131.71a.92.92 0 10.582 1.746l1.549-.515v3.579l-2.131.71a.92.92 0 10.582 1.746l1.549-.515v2.402a.92.92 0 101.84 0v-3.017l2.131-.71a.921.921 0 00-.582-1.746l-1.549.515v-3.579l2.131-.71a.921.921 0 00-.582-1.746l-1.549.515v-3.579l2.131-.71a.921.921 0 00-.582-1.746l-1.549.515V45.6h.46c1.265 0 2.3-1.035 2.3-2.3v-2.76c0-1.265-1.035-2.3-2.3-2.3h-.46V19.4h.46c.757 0 1.38-.623 1.38-1.38v-.92c0-.757-.623-1.38-1.38-1.38h-.92V7.515l.834-.603-.052.034A3.222 3.222 0 0066.32 4.22 3.234 3.234 0 0063.1 1zm0 1.84c.773 0 1.38.606 1.38 1.38 0 .498-.26.92-.654 1.166a.94.94 0 00-.05.034l-8.115 5.874a.92.92 0 00-.381.746v31.72h-4.6v-2.226a.461.461 0 000-.15V12.598a.922.922 0 000-.23v-.327a.92.92 0 00-.92-.92A2.746 2.746 0 0147 8.36c0-1.226.795-2.237 1.896-2.604a.92.92 0 00.618-1.011l.133.844L62.683 2.9l.007-.002c.015-.001.434-.057.41-.057zm0 5.34v7.54h-5.98v-3.211L63.1 8.18zm-17.931.063c-.001.04-.009.077-.009.117 0 2.067 1.408 3.76 3.294 4.334L32.799 27.2 26 27 45.169 8.243zm3.331 6.98l.34 21.033-9.674-8.184v-.002a3.684 3.684 0 00-2.378-.87h-1.672L48.5 15.222zm8.62 1.417h7.82c.259 0 .46.201.46.46v.92c0 .259-.201.46-.46.46h-1.238a.93.93 0 00-.29 0H57.12v-1.84zm0 2.76h5.52v18.84h-5.52V19.4zM24 29.04h12.788c.436 0 .857.155 1.19.437v-.002l10.212 8.641c.412.35.65.863.65 1.403V41h-11.5a3.213 3.213 0 01-3.22-3.22.46.46 0 10-.92 0c0 2.28 1.86 4.14 4.14 4.14h11.5v2.76a2.746 2.746 0 01-2.76 2.76H5.6a2.746 2.746 0 01-2.76-2.76v-9.2a2.746 2.746 0 012.76-2.76h14.72a.92.92 0 00.92-.92A2.746 2.746 0 0124 29.04zm9.653.913a.461.461 0 00-.453.467v.92a.46.46 0 10.92 0v-.92a.46.46 0 00-.467-.467zm0 3.68a.461.461 0 00-.453.467v1.84a.46.46 0 10.92 0V34.1a.46.46 0 00-.467-.467zM6.06 35.48a.46.46 0 100 .92h9.2a.46.46 0 100-.92h-9.2zm0 2.76a.46.46 0 100 .92h5.52a.46.46 0 100-.92H6.06zm8.28 0a.46.46 0 100 .92h.92a.46.46 0 100-.92h-.92zm42.78.92h6.286c.099.016.2.016.3 0h1.234c.768 0 1.38.612 1.38 1.38v2.76c0 .768-.612 1.38-1.38 1.38h-1.238a.93.93 0 00-.29 0H57.12v-5.52zM6.06 41a.46.46 0 100 .92h9.2a.46.46 0 100-.92h-9.2zm0 2.76a.46.46 0 100 .92H7.9a.46.46 0 100-.92H6.06zm4.6 0a.46.46 0 100 .92h4.6a.46.46 0 100-.92h-4.6zm5.06 5.52h20.24v2.76H15.72v-2.76zm-6.44 4.6H42.4a6.426 6.426 0 016.44 6.44 6.426 6.426 0 01-6.44 6.44H9.28a6.427 6.427 0 01-6.44-6.44 6.427 6.427 0 016.44-6.44zm0 2.76c-1.188 0-2.137.462-2.758 1.16-.621.7-.922 1.613-.922 2.52s.3 1.82.922 2.52c.62.698 1.57 1.16 2.758 1.16s2.137-.462 2.758-1.16c.621-.7.922-1.613.922-2.52s-.3-1.82-.922-2.52c-.62-.698-1.57-1.16-2.758-1.16zm11.04 0c-1.188 0-2.137.462-2.758 1.16-.621.7-.922 1.613-.922 2.52s.3 1.82.922 2.52c.62.698 1.57 1.16 2.758 1.16s2.137-.462 2.758-1.16c.621-.7.922-1.613.922-2.52s-.3-1.82-.922-2.52c-.62-.698-1.57-1.16-2.758-1.16zm11.04 0c-1.188 0-2.137.462-2.758 1.16-.621.7-.922 1.613-.922 2.52s.3 1.82.922 2.52c.62.698 1.57 1.16 2.758 1.16s2.137-.462 2.758-1.16c.621-.7.922-1.613.922-2.52s-.3-1.82-.922-2.52c-.62-.698-1.57-1.16-2.758-1.16zm11.04 0c-1.188 0-2.137.462-2.758 1.16-.621.7-.922 1.613-.922 2.52s.3 1.82.922 2.52c.62.698 1.57 1.16 2.758 1.16s2.137-.462 2.758-1.16c.621-.7.922-1.613.922-2.52s-.3-1.82-.922-2.52c-.62-.698-1.57-1.16-2.758-1.16zm-33.12.92c.958 0 1.62.343 2.072.852.452.509.688 1.205.688 1.908 0 .703-.236 1.4-.688 1.908-.453.51-1.114.852-2.072.852s-1.62-.343-2.072-.852c-.452-.509-.688-1.205-.688-1.908 0-.703.236-1.4.688-1.908.453-.51 1.114-.852 2.072-.852zm11.04 0c.958 0 1.62.343 2.072.852.452.509.688 1.205.688 1.908 0 .703-.236 1.4-.688 1.908-.453.51-1.114.852-2.072.852s-1.62-.343-2.072-.852c-.452-.509-.688-1.205-.688-1.908 0-.703.236-1.4.688-1.908.453-.51 1.114-.852 2.072-.852zm11.04 0c.958 0 1.62.343 2.072.852.452.509.688 1.205.688 1.908 0 .703-.236 1.4-.688 1.908-.453.51-1.114.852-2.072.852s-1.62-.343-2.072-.852c-.452-.509-.688-1.205-.688-1.908 0-.703.236-1.4.688-1.908.453-.51 1.114-.852 2.072-.852zm11.04 0c.958 0 1.62.343 2.072.852.452.509.688 1.205.688 1.908 0 .703-.236 1.4-.688 1.908-.453.51-1.114.852-2.072.852s-1.62-.343-2.072-.852c-.452-.509-.688-1.205-.688-1.908 0-.703.236-1.4.688-1.908.453-.51 1.114-.852 2.072-.852z" fill="#F2994A" stroke="#F2994A" stroke-width=".6"/></svg>