<svg width="70" height="64" viewBox="0 0 70 64" fill="none" xmlns="http://www.w3.org/2000/svg"><path d="M12.687 1.008a.45.45 0 00-.527.534l.736 3.523a.45.45 0 00.88-.184l-.736-3.523a.45.45 0 00-.353-.35zm7.32.41a.451.451 0 00-.391.307l-1.125 3.42a.45.45 0 10.854.28l1.125-3.42a.45.45 0 00-.464-.587zM5.97 4.36a.448.448 0 00-.359.749l2.4 2.684a.45.45 0 10.67-.6L6.28 4.51a.45.45 0 00-.311-.15zm20.334 1.136a.447.447 0 00-.325.114l-2.682 2.4a.45.45 0 00.6.671l2.683-2.4a.45.45 0 00-.276-.785zm-10.787 1.5a8.563 8.563 0 00-1.721.18c-4.614.964-7.584 5.504-6.62 10.118a8.503 8.503 0 002.206 4.173c-2.402.718-4.672 1.517-6.718 2.414a.9.9 0 00-.538.824V55.9c0 3.966 3.234 7.2 7.2 7.2h52.2c3.965 0 7.2-3.234 7.2-7.2V16.3a.9.9 0 00-.9-.9h-16.2a.93.93 0 00-.034 0s-8.047.29-18.167 1.49c-3.121.371-6.442.838-9.787 1.398.477-1.4.6-2.941.276-4.49-.844-4.038-4.424-6.816-8.397-6.802zm.007 1.797a6.76 6.76 0 016.629 5.37 6.711 6.711 0 01-.62 4.48c-3.44.622-6.848 1.376-10.084 2.255a6.715 6.715 0 01-2.51-3.973 6.756 6.756 0 016.585-8.132zM1.829 10.601a.45.45 0 00-.104.875l3.42 1.125a.454.454 0 00.568-.288.45.45 0 00-.288-.568l-3.419-1.123a.453.453 0 00-.177-.021zm27.72 1.557l-3.524.736a.45.45 0 00.184.881l3.523-.735a.45.45 0 10-.183-.882zm22.108 5.041h6.731c-4.588 3.97-21.71 19.986-29.53 44.1H9.326c-.53 0-1.039-.08-1.52-.22a.45.45 0 00.236-.205c15.385-28.206 41.106-42.409 43.46-43.668l.155-.007zm8.125 0h4.451c-.885 1.306-2.571 4.08-4.576 8.86-2.93 6.985-6.522 18.22-9.223 35.24H29.81c8.613-26.246 28.168-42.63 29.97-44.1zm5.546 0h1.598v38.7c0 2.993-2.407 5.4-5.4 5.4H51.348c2.689-16.877 6.25-28.002 9.139-34.892 2.413-5.755 4.255-8.425 4.84-9.208zm-15.828.11c-6.662 3.894-28.57 18.058-42.249 43.134a.45.45 0 00.011.449 5.384 5.384 0 01-3.336-4.993V37.968c10.132-11.282 28.52-18.069 33.27-19.686 5.476-.568 9.846-.842 12.305-.974zm-44.44.003a.445.445 0 00-.178.002l-3.524.736a.45.45 0 00.184.88l3.525-.736a.45.45 0 00-.008-.882zm28.28 1.404c-7.158 2.73-20.777 8.76-29.414 17.912v-11.29c8.008-3.385 19.632-5.448 29.415-6.622z" fill="#F2994A" stroke="#F2994A"/></svg>