<svg width="66" height="61" viewBox="0 0 66 61" fill="none" xmlns="http://www.w3.org/2000/svg"><path d="M33.011 1c-2.157 0-3.903 1.474-4.5 3.44-.364-.09-.705-.24-1.1-.24-2.157 0-3.903 1.474-4.5 3.44-.364-.09-.705-.24-1.1-.24-2.157 0-3.903 1.474-4.5 3.44-.364-.09-.705-.24-1.1-.24-2.368 0-4.342 1.737-4.726 4H5.41a3.612 3.612 0 00-3.6 3.6c0 1.979 1.622 3.6 3.6 3.6h.4v20h-4a.8.8 0 100 1.6h4V45c0 3.084 2.517 5.6 5.6 5.6h1.413a6.739 6.739 0 00-.613 2.8c0 3.746 3.054 6.8 6.8 6.8 3.747 0 6.8-3.054 6.8-6.8 0-.999-.223-1.944-.612-2.8h15.625a6.739 6.739 0 00-.613 2.8c0 3.746 3.054 6.8 6.8 6.8s6.8-3.054 6.8-6.8c0-.999-.223-1.944-.612-2.8h1.412c3.084 0 5.6-2.517 5.6-5.6v-1.6h4a.8.8 0 100-1.6h-4v-20h.4c1.98 0 3.6-1.621 3.6-3.6s-1.62-3.6-3.6-3.6h-6.073c-.384-2.263-2.358-4-4.727-4-.395 0-.735.15-1.1.24-.596-1.966-2.342-3.44-4.5-3.44-.395 0-.735.15-1.1.24-.596-1.966-2.342-3.44-4.5-3.44-.395 0-.735.15-1.1.24C36.915 2.475 35.17 1 33.011 1zm0 1.6c1.655 0 2.984 1.244 3.161 2.85a.8.8 0 00.104.313 4.028 4.028 0 00-1.42 1.903.403.403 0 00.242.511.4.4 0 00.512-.243 3.207 3.207 0 012.262-2.037c.034-.008.066-.018.1-.025a3.067 3.067 0 011.241-.016h.002a3.174 3.174 0 012.221 1.669v.002c.088.17.16.35.218.537v.002c.056.187.096.383.118.584a.8.8 0 001.125.64A3.16 3.16 0 0144.211 9c1.655 0 2.984 1.244 3.161 2.85a.8.8 0 001.125.64 3.16 3.16 0 011.314-.29 3.18 3.18 0 013.09 2.4h-39.78a3.18 3.18 0 013.09-2.4c.466 0 .905.105 1.314.29a.799.799 0 001.125-.64 3.221 3.221 0 01.336-1.123v-.002a3.186 3.186 0 012.223-1.669 3.076 3.076 0 011.269.019c.02.004.039.012.059.017a3.195 3.195 0 012.436 2.753.399.399 0 00.443.353.401.401 0 00.352-.443 4 4 0 00-1.63-2.78.8.8 0 00.111-.325c.178-1.606 1.507-2.85 3.161-2.85.467 0 .906.105 1.314.29a.8.8 0 001.125-.64c.178-1.606 1.507-2.85 3.161-2.85zm2.028 6.394a.4.4 0 00-.385.451c.034.305.098.6.2.888a.399.399 0 00.739.04.398.398 0 00.015-.306 3.197 3.197 0 01-.16-.712.4.4 0 00-.409-.361zM5.411 16.2h55.2c1.114 0 2 .886 2 2 0 1.114-.886 2-2 2h-55.2c-1.114 0-2-.886-2-2 0-1.114.886-2 2-2zm2 4.8h51.2v8.8h-51.2v-4h41.2a.398.398 0 00.375-.554.4.4 0 00-.375-.246h-41.2v-4zm43.6 4a.4.4 0 100 .8h5.6a.398.398 0 00.375-.554.4.4 0 00-.375-.246h-5.6zm-43.6 5.6h51.2v4h-41.2a.4.4 0 100 .8h41.2v4h-51.2v-8.8zm2 4a.4.4 0 100 .8h5.6a.4.4 0 100-.8h-5.6zm-2 5.6h51.2v2.266a.8.8 0 000 .26V44.2h-2.8a.398.398 0 00-.374.554.4.4 0 00.374.246h2.8c0 2.219-1.78 4-4 4h-2.426a6.785 6.785 0 00-5.174-2.4c-2.07 0-3.924.934-5.173 2.4H24.185a6.785 6.785 0 00-5.174-2.4c-2.07 0-3.924.934-5.173 2.4h-2.427c-2.219 0-4-1.781-4-4h35.6a.398.398 0 00.375-.554.4.4 0 00-.375-.246h-35.6v-1.466a.8.8 0 000-.26V40.2zm38 4a.398.398 0 00-.374.554.4.4 0 00.374.246h4.8a.398.398 0 00.375-.554.4.4 0 00-.375-.246h-4.8zm7.2 0a.398.398 0 00-.374.554.4.4 0 00.374.246h.8a.398.398 0 00.375-.554.4.4 0 00-.375-.246h-.8zm-33.6 4c2.882 0 5.2 2.319 5.2 5.2 0 2.881-2.318 5.2-5.2 5.2a5.188 5.188 0 01-5.2-5.2c0-2.881 2.319-5.2 5.2-5.2zm28 0c2.882 0 5.2 2.319 5.2 5.2 0 2.881-2.318 5.2-5.2 5.2a5.188 5.188 0 01-5.2-5.2c0-2.881 2.319-5.2 5.2-5.2zm-28 1.8c-1.1 0-1.975.427-2.548 1.072s-.852 1.49-.852 2.328c0 .839.279 1.683.852 2.328.573.645 1.448 1.072 2.548 1.072s1.976-.427 2.549-1.072.851-1.49.851-2.328c0-.839-.278-1.683-.851-2.328-.573-.645-1.45-1.072-2.55-1.072zm28 0c-1.1 0-1.975.427-2.548 1.072s-.852 1.49-.852 2.328c0 .839.279 1.683.852 2.328.573.645 1.448 1.072 2.548 1.072s1.975-.427 2.549-1.072c.573-.645.851-1.49.851-2.328 0-.839-.278-1.683-.851-2.328-.574-.645-1.45-1.072-2.55-1.072zm-28 .8c.9 0 1.525.323 1.952.803.427.48.648 1.136.648 1.797s-.221 1.317-.648 1.797c-.427.48-1.052.803-1.952.803-.9 0-1.524-.323-1.951-.803-.427-.48-.649-1.136-.649-1.797s.222-1.317.649-1.797c.427-.48 1.051-.803 1.951-.803zm28 0c.9 0 1.525.323 1.952.803.427.48.648 1.136.648 1.797s-.221 1.317-.648 1.797c-.427.48-1.052.803-1.952.803-.9 0-1.525-.323-1.951-.803-.427-.48-.649-1.136-.649-1.797s.222-1.317.649-1.797c.426-.48 1.051-.803 1.951-.803z" fill="#F2994A" stroke="#F2994A" stroke-width=".5"/></svg>