<svg width="69" height="73" viewBox="0 0 69 73" fill="none" xmlns="http://www.w3.org/2000/svg"><path d="M41.006 1c-1.645 0-3 1.355-3 3v1.73l-6.863 11.766a1 1 0 00-.137.504v21.38c-.317.634-.6 1.176-.883 1.718-.77-1.546-2.058-3.603-4.154-7.793a.5.5 0 00-.932.015c-.33.66-.622 1.218-.914 1.78-.77-1.546-2.056-3.6-4.154-7.795a.5.5 0 00-.932.015c-1.63 3.26-2.731 5.151-3.527 6.596a6.283 6.283 0 00-.65-.77c-.931-.93-1.853-1.338-3.428-1.8-1.569-.46-3.852-1.018-7.725-2.307a.501.501 0 00-.66.668c1.288 3.869 1.844 6.151 2.305 7.719.462 1.575.87 2.497 1.8 3.427.238.238.502.45.776.647-1.446.796-3.34 1.899-6.606 3.533a.5.5 0 00.002.936h.002c4.179 2.091 6.234 3.379 7.778 4.148-.575.3-1.144.597-1.82.936a.5.5 0 000 .894c4.211 2.106 6.27 3.397 7.82 4.17-.575.3-1.143.597-1.82.936a.5.5 0 000 .894c4.212 2.107 6.27 3.397 7.82 4.17-.566.294-1.124.586-1.787.918a.5.5 0 00.002.932l.005.002c3.64 1.822 5.71 3.06 7.192 3.855 1.49.8 2.471 1.176 3.79 1.176.234 0 .467-.03.7-.057V71a1 1 0 001 1h35a1 1 0 001-1V18a1 1 0 00-.137-.504L61.006 5.73V4c0-1.645-1.355-3-3-3h-17zm0 2h2v3h-3V4c0-.565.435-1 1-1zm3 0h3v3h-3V3zm4 0h3v3h-3V3zm4 0h3v3h-3V3zm4 0h2c.565 0 1 .435 1 1v2h-3V3zM39.58 7h3.846a.5.5 0 00.162 0h3.838a.5.5 0 00.162 0h3.838a.5.5 0 00.162 0h3.838a.5.5 0 00.162 0h3.11l-5.5 11H33.161L39.58 7zm20.059.354l4.957 8.498-6.803-4.762a.532.532 0 00-.017-.012l1.863-3.724zm-2.317 4.628l8.479 5.936.049.082H54.315l3.007-6.018zM33.006 19h20v51h-6.893l-8.216-8.217c1.633-.093 2.91-.76 3.76-1.73.916-1.047 1.349-2.413 1.349-3.752 0-1.32-.376-2.302-1.176-3.791-.796-1.484-2.03-3.542-3.857-7.194a.5.5 0 00-.936.004c-.33.66-.622 1.218-.914 1.78-.628-1.26-1.636-2.969-3.117-5.793V19zm21 0h12v51h-12V19zm-16.5 2a2.507 2.507 0 00-2.5 2.5v5a.5.5 0 101 0v-5c0-.835.665-1.5 1.5-1.5h10c.835 0 1.5.665 1.5 1.5v27a.5.5 0 101 0v-27c0-1.375-1.125-2.5-2.5-2.5h-10zm19 3a.501.501 0 100 1h7a.501.501 0 100-1h-7zm1 3a.501.501 0 100 1h6a.501.501 0 100-1h-6zm-38.5 2.5v6a.5.5 0 101 0v-5.984c1.75 3.335 3.008 5.454 3.537 6.687-1.027 1.925-1.808 3.273-2.361 4.305-.8 1.49-1.176 2.474-1.176 3.793 0 .369.03.728.086 1.08l-4.21-4.21-.001-.003c-.722-.83-.875-1.688-.875-2.867 0-1.142.279-1.87 1.057-3.32.603-1.126 1.675-3.053 2.943-5.481zm16.492.492a.5.5 0 00-.492.508v2a.5.5 0 101 0v-2a.498.498 0 00-.508-.508zM59.506 30a.501.501 0 100 1h4a.501.501 0 100-1h-4zm-54.236.557c2.598.812 4.693 1.401 5.88 1.75 1.532.45 2.192.736 3.002 1.546.322.322.59.691.815 1.08-.64 1.252-.961 2.185-.961 3.368 0 .696.095 1.36.299 1.998A6.516 6.516 0 0012.307 40c-1.185 0-2.119.323-3.373.965a5.2 5.2 0 01-1.075-.819c-.81-.81-1.097-1.47-1.546-3.002-.349-1.186-.938-3.282-1.75-5.88l4.09 4.09a.5.5 0 10.706-.707l-4.09-4.09zm30.228 3.435a.5.5 0 00-.492.508v6.75a.5.5 0 101 0V34.5a.498.498 0 00-.508-.508zm-10.492 1.51V37.5a.5.5 0 101 0v-1.982c1.752 3.337 3.005 5.445 3.537 6.689-1.026 1.923-1.808 3.27-2.361 4.3-.8 1.491-1.176 2.475-1.176 3.794 0 .368.03.727.086 1.078l-4.21-4.207-.001-.002c-.723-.83-.875-1.689-.875-2.87 0-1.14.279-1.87 1.057-3.32.603-1.124 1.675-3.05 2.943-5.478zm-14.506.492a.5.5 0 00-.348.86l1 1a.5.5 0 10.707-.707l-1-1a.5.5 0 00-.359-.153zm8.998.998a.5.5 0 00-.492.508v2a.5.5 0 101 0v-2a.498.498 0 00-.508-.508zm6 2a.5.5 0 00-.492.508v6a.5.5 0 101 0v-6a.498.498 0 00-.508-.508zM12.307 41c1.18 0 2.037.153 2.867.875.001.001.003 0 .004.002l4.209 4.209a6.926 6.926 0 00-1.08-.086c-1.319 0-2.303.376-3.793 1.176-1.031.553-2.378 1.335-4.301 2.361-1.244-.532-3.352-1.785-6.69-3.537h1.983a.5.5 0 100-1H3.508c2.427-1.268 4.353-2.34 5.478-2.943 1.45-.778 2.18-1.057 3.32-1.057zm18.699.502V46.5a.5.5 0 101 0v-4.982c1.752 3.337 3.005 5.445 3.537 6.689-1.027 1.925-1.808 3.272-2.361 4.303-.8 1.49-1.176 2.471-1.176 3.79 0 .368.04.735.105 1.098l-4.228-4.226c-.725-.831-.877-1.69-.877-2.871 0-1.142.279-1.87 1.057-3.32.503-.94 1.366-2.51 2.353-4.366a.5.5 0 00.188-.351c.136-.259.259-.488.402-.762zM7.506 45a.5.5 0 100 1h6a.501.501 0 100-1h-6zm10.8 2c1.18 0 2.041.154 2.872.877l4.207 4.209A6.926 6.926 0 0024.307 52c-1.319 0-2.303.376-3.793 1.176-1.031.553-2.378 1.335-4.301 2.361-1.244-.532-3.352-1.785-6.69-3.537h5.983a.501.501 0 100-1H9.508c.275-.144.504-.267.764-.404a.502.502 0 00.351-.186c1.854-.987 3.425-1.85 4.363-2.353 1.45-.778 2.18-1.057 3.32-1.057zm18.7.502V56.5a.5.5 0 101 0v-8.998c1.269 2.43 2.34 4.356 2.943 5.48.778 1.45 1.057 2.176 1.057 3.319 0 1.122-.368 2.256-1.102 3.093-.733.838-1.823 1.407-3.398 1.407a5.762 5.762 0 01-.828-.063c-1.137-.164-1.974-.663-2.57-1.343-.734-.838-1.102-1.972-1.102-3.094 0-1.143.279-1.87 1.057-3.319.504-.939 1.367-2.51 2.355-4.369a.5.5 0 00.186-.35c.136-.258.259-.487.402-.761zm-5.508.49a.5.5 0 00-.492.508v3a.5.5 0 101 0v-3a.498.498 0 00-.508-.508zM17.506 51a.501.501 0 100 1h2a.501.501 0 100-1h-2zm31.992.992a.5.5 0 00-.492.508v2a.5.5 0 101 0v-2a.498.498 0 00-.508-.508zM24.307 53c1.18 0 2.04.152 2.87.877l4.227 4.228A6.155 6.155 0 0030.307 58c-1.32 0-2.302.376-3.791 1.176-1.03.552-2.38 1.334-4.305 2.361-1.24-.53-3.352-1.786-6.687-3.537h1.982a.501.501 0 100-1h-1.998c.275-.144.504-.267.764-.404a.502.502 0 00.351-.186c1.854-.987 3.425-1.85 4.363-2.353 1.45-.778 2.18-1.057 3.32-1.057zm34.199 0a2.507 2.507 0 00-2.5 2.5v10c0 1.375 1.125 2.5 2.5 2.5h3c1.375 0 2.5-1.125 2.5-2.5v-10c0-1.375-1.125-2.5-2.5-2.5h-3zm0 1h3c.835 0 1.5.665 1.5 1.5v10c0 .835-.665 1.5-1.5 1.5h-3c-.835 0-1.5-.665-1.5-1.5v-10c0-.835.665-1.5 1.5-1.5zm-9.008 1.992a.5.5 0 00-.492.508v1a.5.5 0 101 0v-1a.498.498 0 00-.508-.508zM19.506 57a.501.501 0 100 1h6a.501.501 0 100-1h-6zm29.992 1.992a.5.5 0 00-.492.508v6c0 .835-.665 1.5-1.5 1.5h-1a.501.501 0 100 1h1c1.375 0 2.5-1.125 2.5-2.5v-6a.498.498 0 00-.508-.508zM30.307 59c1.122 0 2.256.368 3.094 1.102.837.733 1.406 1.823 1.406 3.398 0 1.575-.569 2.665-1.407 3.398-.837.734-1.97 1.102-3.093 1.102-1.143 0-1.87-.28-3.319-1.057-1.096-.588-3.236-1.754-5.492-2.943h4.01a.501.501 0 100-1h-4.01c.325-.171.474-.255.791-.424.105-.019.2-.07.274-.146 1.754-.935 3.544-1.9 4.427-2.373 1.45-.778 2.176-1.057 3.319-1.057zm5.16 2.46c.294.105.606.187.935.243L44.7 70h-1.414l-7.57-7.572a5.723 5.723 0 00-.248-.967zM27.506 63a.501.501 0 100 1h3a.501.501 0 100-1h-3zm8.281.914L41.871 70h-8.865v-1.654a5.18 5.18 0 001.053-.696c.965-.845 1.63-2.114 1.728-3.736z" fill="#F2994A" stroke="#F2994A" stroke-width=".5"/></svg>