<svg width="74" height="56" viewBox="0 0 74 56" fill="none" xmlns="http://www.w3.org/2000/svg"><path d="M9.612 1c-2.84 0-5.16 2.32-5.16 5.16a.86.86 0 101.72 0c0-1.91 1.53-3.44 3.44-3.44h31.82c1.91 0 3.44 1.53 3.44 3.44v28.382h-38.7v-6.02h10.32a.86.86 0 100-1.72H5.445a.862.862 0 00-.27 0H1.872a.86.86 0 100 1.72h2.58v18.06c0 .94.78 1.72 1.72 1.72h6.02c.017 0 .034 0 .05-.002.429 3.867 3.71 6.882 7.69 6.882 3.98 0 7.26-3.015 7.69-6.88h17.611a.429.429 0 00.14 0h4.71c.429 3.865 3.71 6.88 7.69 6.88 3.979 0 7.26-3.015 7.689-6.882a.843.843 0 00.05.002h2.582c2.84 0 5.157-2.322 5.158-5.16V27.013a5.161 5.161 0 00-.613-2.427L66.56 13.3c-1.186-2.248-3.52-3.694-6.072-3.699H46.592V6.16c0-2.84-2.32-5.16-5.16-5.16H9.612zM5.3 8.73a.862.862 0 00-.124.012H1.872a.86.86 0 100 1.72h2.58v1.72a.86.86 0 101.72 0v-1.72h20.64a.86.86 0 100-1.72H5.445a.86.86 0 00-.146-.012zm40.433 2.59h14.755c1.905.004 3.663 1.09 4.555 2.787l.005.008 6.079 11.287a3.44 3.44 0 01.406 1.618v4.082h-16.77c-.718 0-1.29-.572-1.29-1.29v-12.9c0-.718.572-1.29 1.29-1.29h4.3a.43.43 0 100-.86h-4.3c-1.182 0-2.15.967-2.15 2.15v12.9c0 1.182.968 2.15 2.15 2.15h16.77v6.02h-3.01c-1.182 0-2.15.967-2.15 2.15v1.72c0 1.182.968 2.15 2.15 2.15h2.891a3.416 3.416 0 01-3.32 2.58h-2.58l-.051.001c-.428-3.866-3.71-6.881-7.69-6.881-3.979 0-7.26 3.014-7.69 6.88h-4.35V35.04a.435.435 0 000-.14V11.32zM5.3 14.75a.863.863 0 00-.124.012H1.872a.86.86 0 100 1.72h2.58v1.72a.86.86 0 101.72 0v-1.72h17.2a.86.86 0 100-1.72H5.445a.862.862 0 00-.146-.012zm55.483.012a.43.43 0 100 .86h.86a.43.43 0 100-.86h-.86zm2.58 0a.43.43 0 100 .86h.86a.43.43 0 100-.86h-.86zM5.3 20.77a.863.863 0 00-.124.012H1.872a.86.86 0 100 1.72h2.58v1.72a.86.86 0 101.72 0v-1.72h13.76a.86.86 0 100-1.72H5.445a.862.862 0 00-.146-.012zm.873 14.632h38.7v11.18h-17.25c-.43-3.866-3.71-6.88-7.69-6.88-3.98 0-7.261 3.015-7.69 6.881a.843.843 0 00-.05-.001h-6.02v-2.58h3.01c1.183 0 2.15-.968 2.15-2.15v-1.72c0-1.183-.967-2.15-2.15-2.15h-3.01v-2.58zm0 3.44h3.01c.718 0 1.29.572 1.29 1.29v1.72c0 .718-.572 1.29-1.29 1.29h-3.01v-4.3zm62.35 0h3.01v4.3h-3.01c-.718 0-1.29-.572-1.29-1.29v-1.72c0-.718.572-1.29 1.29-1.29zm-48.59 1.72a6.873 6.873 0 016.88 6.88 6.873 6.873 0 01-6.88 6.88 6.87 6.87 0 01-6.875-6.78.864.864 0 000-.208 6.87 6.87 0 016.875-6.772zm37.84 0a6.87 6.87 0 016.875 6.779.864.864 0 000 .208 6.87 6.87 0 01-6.875 6.773 6.873 6.873 0 01-6.88-6.88 6.873 6.873 0 016.88-6.88zm-37.84 3.44c-1.11 0-1.998.432-2.578 1.085-.58.653-.862 1.507-.862 2.355 0 .848.281 1.702.862 2.355.58.653 1.467 1.085 2.578 1.085 1.111 0 1.998-.432 2.579-1.085.58-.653.861-1.507.861-2.355 0-.848-.281-1.702-.861-2.355s-1.468-1.085-2.579-1.085zm37.84 0c-1.11 0-1.998.432-2.578 1.085-.58.653-.862 1.507-.862 2.355 0 .848.282 1.702.862 2.355.58.653 1.467 1.085 2.578 1.085 1.111 0 1.998-.432 2.579-1.085.58-.653.861-1.507.861-2.355 0-.848-.281-1.702-.861-2.355s-1.468-1.085-2.579-1.085zm-37.84.86c.896 0 1.514.32 1.937.796.423.476.643 1.127.643 1.784s-.22 1.308-.643 1.783c-.423.476-1.04.797-1.937.797-.896 0-1.514-.32-1.936-.797-.423-.475-.644-1.126-.644-1.783s.22-1.308.644-1.784c.422-.476 1.04-.796 1.936-.796zm37.84 0c.896 0 1.514.32 1.937.796.423.476.643 1.127.643 1.784s-.22 1.308-.643 1.783c-.423.476-1.04.797-1.937.797-.896 0-1.514-.32-1.936-.797-.423-.475-.644-1.126-.644-1.783s.22-1.308.644-1.784c.422-.476 1.04-.796 1.936-.796z" fill="#F2994A" stroke="#F2994A"/></svg>