<svg width="72" height="76" viewBox="0 0 72 76" fill="none" xmlns="http://www.w3.org/2000/svg"><path d="M35.595 0a1.188 1.188 0 00-.935.513l-6.765 9.772-3.217-3.913a1.188 1.188 0 00-1.867.042l-10.688 14.25a1.188 1.188 0 00.951 1.9h3.563l-5.701 7.6a1.188 1.188 0 00.95 1.9h3.357l-5.446 6.352a1.188 1.188 0 00.902 1.96h9.5v3.562h-19a1.188 1.188 0 00-1.187 1.188v4.571a1.188 1.188 0 00.406 1.072l19 16.625a1.188 1.188 0 001.02.271l5.045-1.04 1.967 3.937c.092.184.23.34.4.454l7.126 4.783a1.188 1.188 0 001.27.032l11.876-7.125c.194-.116.35-.285.452-.487l2.046-4.093h5.204c.298 0 .584-.112.803-.313l14.25-13.063a1.187 1.187 0 00.385-1.18v-4.444a1.188 1.188 0 00-1.188-1.188h-19v-3.562h9.5a1.187 1.187 0 00.903-1.96l-5.446-6.353h3.356a1.188 1.188 0 00.95-1.9l-5.7-7.6h3.562a1.188 1.188 0 00.951-1.9L48.463 6.414a1.188 1.188 0 00-1.867-.041l-3.217 3.913L36.613.513a1.188 1.188 0 00-1.018-.512zm.042 3.273l8.421 12.165H27.215l8.422-12.165zM23.806 9.048l2.683 3.266-2.516 3.637a1.189 1.189 0 00.976 1.862h3.563l-1.781 2.375H15.449l8.357-11.14zm23.662 0l8.356 11.14h-11.28l-1.782-2.375h3.562a1.188 1.188 0 00.977-1.862l-2.517-3.637 2.684-3.266zM31.48 17.813h8.312l5.344 7.125h-19l5.344-7.125zm-11.875 4.75h5.343l-2.138 2.85a1.188 1.188 0 00.95 1.9h3.357l-2.037 2.375H14.26l5.345-7.125zm26.718 0h5.344l5.344 7.125h-10.82l-2.036-2.375h3.356a1.188 1.188 0 00.95-1.9l-2.138-2.85zm-16.077 4.75h10.78l5.09 5.938H25.157l5.09-5.938zm-11.875 4.75h4.673l-1.373 1.603a1.188 1.188 0 00.902 1.96h9.5V38H13.281l5.09-5.938zm29.856 0h4.674l5.09 5.938H39.2v-2.375h9.5a1.187 1.187 0 00.903-1.96l-1.373-1.603zM34.45 35.626h2.375v8.312H34.45v-8.312zm-11.875 4.75h2.375v3.562h-2.375v-3.562zm4.75 0h4.75v3.562h-4.75v-3.562zm11.875 0h4.75v3.562H39.2v-3.562zm7.125 0H48.7v3.562h-2.375v-3.562zM2.387 46.313h66.5v3.256h-9.5c-.656 0-1.188-.349-1.188.307 0 .655.532 1.187 1.188 1.187h7.635l-6.448 5.91v-2.347a1.19 1.19 0 00-1.187-1.188 1.19 1.19 0 00-1.188 1.188V57c0 .614.476 1.104 1.074 1.164l-3.91 3.586h-5.476a1.188 1.188 0 00-1.062.656l-2.22 4.442-10.933 6.559-6.237-4.189-2.236-4.47a1.188 1.188 0 00-1.301-.633l-5.36 1.102-8.162-7.141c.41-.188.698-.598.698-1.076v-2.375a1.19 1.19 0 00-1.187-1.188 1.19 1.19 0 00-1.188 1.188v1.985l-6.34-5.548h43.153c.655 0 1.187-.532 1.187-1.187 0-.656-.532-.306-1.187-.306H2.387v-3.257zm49.875 3.256c-.656 0-1.188-.349-1.188.307 0 .655.532 1.187 1.188 1.187h2.375c.655 0 1.187-.532 1.187-1.187 0-.656-.532-.306-1.187-.306h-2.375zm-34.438 3.87a1.19 1.19 0 00-1.187 1.187V57a1.19 1.19 0 001.187 1.187A1.19 1.19 0 0019.012 57v-2.375a1.19 1.19 0 00-1.188-1.188zm5.938 0a1.19 1.19 0 00-1.188 1.187V57a1.19 1.19 0 001.188 1.187A1.19 1.19 0 0024.949 57v-2.375a1.19 1.19 0 00-1.187-1.188zm5.937 0a1.19 1.19 0 00-1.187 1.187V57a1.19 1.19 0 001.187 1.187A1.19 1.19 0 0030.887 57v-2.375a1.19 1.19 0 00-1.188-1.188zm5.938 0a1.19 1.19 0 00-1.188 1.187V57a1.19 1.19 0 001.188 1.187A1.19 1.19 0 0036.824 57v-2.375a1.19 1.19 0 00-1.187-1.188zm5.937 0a1.19 1.19 0 00-1.187 1.187V57a1.19 1.19 0 001.187 1.187A1.19 1.19 0 0042.762 57v-2.375a1.19 1.19 0 00-1.188-1.188zm5.938 0a1.19 1.19 0 00-1.188 1.187V57a1.19 1.19 0 001.188 1.187A1.19 1.19 0 0048.699 57v-2.375a1.19 1.19 0 00-1.187-1.188zm5.937 0a1.19 1.19 0 00-1.187 1.187V57a1.19 1.19 0 001.187 1.187A1.19 1.19 0 0054.637 57v-2.375a1.19 1.19 0 00-1.188-1.188z" fill="#F2994A"/></svg>