<svg width="78" height="62" viewBox="0 0 78 62" fill="none" xmlns="http://www.w3.org/2000/svg"><path d="M71.219 37.625h-.008c-2.696-6.465-9.05-10.75-16.117-10.75a17.27 17.27 0 00-5.375.864v-7.811c0-.698-.183-1.386-.505-1.954L41.19 2.687h3.153V0H29.562a4.036 4.036 0 00-4.03 4.031V17.47h-10.75C6.631 17.469 0 24.1 0 32.25v12.094a6.726 6.726 0 006.719 6.718h.107a9.469 9.469 0 00-.107 1.344c0 5.187 4.22 9.407 9.406 9.407 5.187 0 9.406-4.22 9.406-9.407 0-.457-.044-.903-.107-1.343h13.551c2.724 6.54 8.998 10.75 16.119 10.75 7.068 0 13.42-4.286 16.117-10.75h.008a6.726 6.726 0 006.719-6.72 6.726 6.726 0 00-6.72-6.718zm-2.966 0H41.937c2.502-4.877 7.599-8.063 13.157-8.063 5.595 0 10.661 3.174 13.16 8.063zm-7.784 10.75h-10.75v-8.063h10.75v8.063zm-21.5 0a4.036 4.036 0 01-4.032-4.031 4.036 4.036 0 014.032-4.032h8.062v8.063H38.97zm8.062-28.448v6.948H29.563c-.74 0-1.344-.603-1.344-1.344V9.406h13.437v-.05l5.2 9.904c.115.204.175.434.175.666zM29.563 2.687h8.594l2.117 4.032H28.218V4.03c0-.74.603-1.343 1.343-1.343zM2.688 37.626H4.03l.002 4.031H2.687v-4.031zm13.437 21.5a6.726 6.726 0 01-6.719-6.719 6.726 6.726 0 016.719-6.718 6.726 6.726 0 016.719 6.718 6.726 6.726 0 01-6.719 6.719zm0-16.125c-3.742 0-6.973 2.202-8.486 5.375h-.92a4.036 4.036 0 01-4.032-4.031h1.344a2.69 2.69 0 002.688-2.688v-4.031a2.69 2.69 0 00-2.688-2.688H2.688V32.25c0-.454.03-.902.079-1.344h9.327V28.22H3.393a11.97 11.97 0 011.34-2.688H14.78v-2.687H7.197a12.033 12.033 0 017.584-2.688h10.75v5.375a4.036 4.036 0 004.032 4.032H45.84a17.487 17.487 0 00-6.863 8.062h-.01a6.726 6.726 0 00-6.718 6.719c0 1.518.525 2.905 1.379 4.031H24.61C23.098 45.202 19.867 43 16.125 43zm38.969 16.125c-5.641 0-10.654-3.123-13.162-8.063h26.322c-2.499 4.888-7.565 8.063-13.16 8.063zm16.125-10.75h-8.063v-8.063h8.063a4.036 4.036 0 014.031 4.032 4.036 4.036 0 01-4.031 4.031z" fill="#F2994A"/></svg>