<svg width="22" height="22" viewBox="0 0 22 22" fill="none" xmlns="http://www.w3.org/2000/svg"><path d="M6.752.688C3.423.688.688 3.418.688 6.752v8.496c0 3.329 2.731 6.065 6.064 6.065h8.496c3.329 0 6.065-2.732 6.065-6.065V6.752c0-3.329-2.732-6.064-6.065-6.064H6.752zm0 1.875h8.496a4.184 4.184 0 014.19 4.189v8.496a4.184 4.184 0 01-4.19 4.19H6.752a4.184 4.184 0 01-4.19-4.19V6.752a4.184 4.184 0 014.19-4.19zm9.785 2.05a.846.846 0 00-.85.85c0 .472.378.85.85.85.473 0 .85-.378.85-.85a.846.846 0 00-.85-.85zM11 5.375c-3.094 0-5.625 2.53-5.625 5.625s2.53 5.625 5.625 5.625 5.625-2.53 5.625-5.625c0-3.094-2.53-5.625-5.625-5.625zm0 1.875A3.734 3.734 0 0114.75 11 3.734 3.734 0 0111 14.75 3.734 3.734 0 017.25 11 3.734 3.734 0 0111 7.25z" fill="#F2994A"/></svg>