<svg width="18" height="26" viewBox="0 0 18 26" fill="none" xmlns="http://www.w3.org/2000/svg"><path d="M14.403 14.885l.028.041a.697.697 0 01.51-.112.68.68 0 01.436.275h0c.218.303.145.7-.168.912a10.93 10.93 0 01-3.325 1.507l.013.049-.013-.049-1.206.321-.085.023.063.062.884.858h0l3.76 3.647a.63.63 0 010 .927.675.675 0 01-.48.192.674.674 0 01-.479-.192l-5.307-5.148L9 18.164l-.034.034-5.307 5.148a.675.675 0 01-.48.192.675.675 0 01-.48-.192.63.63 0 010-.927l4.645-4.505.063-.062-.085-.023-1.207-.32a10.95 10.95 0 01-3.311-1.5.631.631 0 01-.17-.91l.01-.014v0a.681.681 0 01.912-.166v0l.022.015A9.673 9.673 0 009 16.579a9.655 9.655 0 005.432-1.653l-.028-.041zm0 0a.746.746 0 01.546-.12.729.729 0 01.469.295l-11.813-.167a9.623 9.623 0 005.394 1.636 9.609 9.609 0 005.404-1.644zm-.845-1.21h-.007l-.013.013A8.046 8.046 0 019 15.068a8.064 8.064 0 01-4.535-1.376c-1.005-.679-2.409-.434-3.107.542-.7.976-.447 2.34.558 3.018h0c.784.528 1.664.848 2.534 1.165l.127.046L1.6 21.349a2.133 2.133 0 000 3.067c.433.42 1.009.634 1.578.634.57 0 1.145-.215 1.578-.634L9 20.299l4.243 4.117a2.27 2.27 0 001.579.634c.57 0 1.145-.215 1.578-.634a2.133 2.133 0 000-3.067l-2.898-2.812c.904-.338 1.785-.746 2.597-1.295h0a2.14 2.14 0 00.554-3.02 2.235 2.235 0 00-1.44-.888 2.269 2.269 0 00-1.654.341zM8.999.95c-3.634 0-6.598 2.873-6.598 6.403 0 3.53 2.964 6.403 6.598 6.403 3.635 0 6.6-2.873 6.6-6.403 0-3.53-2.965-6.403-6.6-6.403zm0 1.512c2.797 0 5.044 2.182 5.044 4.89 0 2.71-2.247 4.892-5.044 4.892-2.796 0-5.043-2.182-5.043-4.891s2.247-4.891 5.043-4.891zm0 1.312c-2.026 0-3.688 1.609-3.688 3.579 0 1.97 1.662 3.58 3.688 3.58 2.027 0 3.689-1.61 3.689-3.58s-1.662-3.58-3.689-3.58zm0 1.511c1.188 0 2.133.92 2.133 2.068 0 1.149-.944 2.068-2.133 2.068-1.188 0-2.133-.92-2.133-2.068 0-1.149.945-2.068 2.133-2.068z" fill="#F2994A" stroke="#F2994A" stroke-width=".1"/></svg>