<svg width="24" height="21" viewBox="0 0 24 21" fill="none" xmlns="http://www.w3.org/2000/svg"><path d="M21.692.002a2.627 2.627 0 00-.828.199h-.004c-.253.1-1.456.61-3.282 1.38l-6.551 2.774c-4.7 1.99-9.32 3.95-9.32 3.95l.055-.022s-.32.105-.652.335c-.17.112-.357.265-.52.505-.163.24-.294.61-.246.99.08.645.496 1.032.794 1.245.301.216.59.317.59.317h.006l4.333 1.467c.194.628 1.32 4.35 1.59 5.207.16.513.316.834.51 1.078.094.125.205.23.336.313a.995.995 0 00.219.094l-.045-.01c.014.003.024.014.034.017.035.01.06.014.104.021.687.21 1.238-.22 1.238-.22l.031-.024 2.558-2.342 4.288 3.308.097.041c.894.394 1.799.175 2.277-.212.482-.39.669-.889.669-.889l.031-.08 3.314-17.068c.093-.422.118-.816.014-1.2a1.612 1.612 0 00-.694-.934 1.654 1.654 0 00-.946-.24zm-.09 1.83c-.003.056.007.049-.017.157v.01l-3.283 16.89c-.014.025-.038.077-.104.13-.07.056-.125.09-.412-.025l-5.245-4.043-3.168 2.904.666-4.274 8.568-8.03c.354-.331.236-.401.236-.401.024-.404-.534-.119-.534-.119l-10.804 6.73-.003-.016L2.323 9.99v-.003c-.003 0-.01-.004-.014-.004.004 0 .028-.01.028-.01l.028-.014.028-.01L11.717 6c2.353-.996 4.724-2 6.547-2.774a879.96 879.96 0 013.248-1.366c.073-.028.038-.028.09-.028z" fill="#F2994A"/></svg>