<svg width="30" height="31" viewBox="0 0 30 31" fill="none" xmlns="http://www.w3.org/2000/svg"><path d="M11.29 0C9.906 0 8.75 1.157 8.75 2.54v1.21H0v2.5h8.75v1.21c0 1.373 1.133 2.52 2.5 2.54h.04l1.132.04h.039C13.843 10.04 15 8.881 15 7.5V6.29l15-.04v-2.5l-15 .04V2.577C15 1.206 13.862.058 12.5.04h-.04L11.329 0h-.039zm-.04 2.5h.04l1.132.04h.039c.03 0 .039.009.039.038V7.5c0 .015.005.034 0 .04h-.04l-1.132-.04h-.039c-.03 0-.039-.01-.039-.04V2.54c0-.016-.005-.035 0-.04zM21.29 10c-1.383 0-2.54 1.157-2.54 2.54v1.21H0v2.5h18.75v1.21c0 1.373 1.133 2.52 2.5 2.54h.04l1.132.04h.039c1.382 0 2.539-1.158 2.539-2.54v-1.21l5-.04v-2.5l-5 .04v-1.212c0-1.372-1.133-2.52-2.5-2.539h-.04L21.329 10h-.039zm-.04 2.5h.04l1.132.04h.039c.03 0 .039.009.039.038V17.5c0 .015.005.034 0 .04h-.04l-1.132-.04h-.039c-.03 0-.039-.01-.039-.04v-4.92c0-.016-.005-.035 0-.04zM6.29 20c-1.383 0-2.54 1.157-2.54 2.54v1.21H0v2.5h3.75v1.21c0 1.373 1.133 2.52 2.5 2.54h.04l1.132.04h.039C8.843 30.04 10 28.881 10 27.5v-1.21l20-.04v-2.5l-20 .04v-1.212c0-1.372-1.133-2.52-2.5-2.539h-.04L6.329 20H6.29zm-.04 2.5h.04l1.132.04h.039c.03 0 .039.009.039.038V27.5c0 .015.005.034 0 .04h-.04l-1.132-.04H6.29c-.03 0-.039-.01-.039-.04v-4.92c0-.016-.005-.035 0-.04z" fill="#fff"/></svg>