<svg width="13" height="22" viewBox="0 0 13 22" fill="none" xmlns="http://www.w3.org/2000/svg"><path d="M4.093 7.807V5.942c0-1.571.485-2.868 1.391-3.76C6.39 1.293 7.673.85 9.14.85c1.287 0 2.696.104 3.092.156m-8.14 6.8l8.12-6.651m-8.12 6.652H1.607h0a.592.592 0 00-.417.17.582.582 0 00-.173.414v3.479a.587.587 0 00.59.584h2.487V7.807zm8.14-6.801l-.02.149m.02-.15s0 0 0 0l-.02.15m.02-.15a.591.591 0 01.513.58h0v3.328a.583.583 0 01-.174.414c-.11.11-.26.17-.416.17H9.518a.72.72 0 00-.73.72v1.59m3.425-6.652a.433.433 0 01.382.43v3.328a.432.432 0 01-.13.307.442.442 0 01-.31.128H9.518a.868.868 0 00-.88.87v1.589h.15m0 0v.15l3.803.489.149.019a.58.58 0 00-.343-.607.594.594 0 00-.242-.051H8.789zM1.167 11.87V8.39v3.479zm0 0c0 .115.046.226.129.307m-.129-.307l.129.307m0 0a.442.442 0 00.31.127m-.31-.127l.31.127m0 0h2.488-2.487zm2.638 8.261v-8.11 8.11zm0 0c0 .115.046.226.129.308m-.13-.308l.13.308m0 0a.442.442 0 00.31.127m-.31-.127l.31.127m0 0H8.2m-3.516 0H8.2m0 0a.442.442 0 00.31-.127L8.2 21zm.59-8.546v-.15h-.15v.15h.15zm2.777-10.32v2.194H9.518c-1.048 0-1.909.85-1.909 1.89V8.39a.592.592 0 00.59.585h3.288l-.292 2.309H8.2a.592.592 0 00-.416.17.582.582 0 00-.174.415v8.11H5.272v-8.11 0a.582.582 0 00-.173-.414.592.592 0 00-.416-.171H2.195V8.976h2.488a.592.592 0 00.416-.17.582.582 0 00.173-.415v0-2.449c0-1.337.395-2.292 1.042-2.929.648-.636 1.593-.993 2.826-.993.97 0 1.913.07 2.425.115z" fill="#FFAF17" stroke="#FFAF17" stroke-width=".3"/></svg>