<svg width="84" height="47" viewBox="0 0 84 47" fill="none" xmlns="http://www.w3.org/2000/svg"><path d="M5.226 24.016h-.5V4.726h58.033v19.29H5.226zm-.5 9.952v-2.113H.5v9.452h8.052l.14.271.484.939h0c.236.458.875 1.3 1.41 1.84l-.356.351.355-.352c2.841 2.868 7.343 2.86 10.214-.031h0c.517-.52 1.144-1.349 1.38-1.808h0l.485-.939.14-.27H44.68l.14.27.484.939h0c.236.458.875 1.3 1.41 1.84l-.356.351.355-.352c2.841 2.868 7.344 2.86 10.215-.031h0c.517-.52 1.143-1.349 1.38-1.808h0l.484-.939.14-.27h4.428l3.623-.001V36.08h8.84v4.9h4.225v-4.9h2.613v-4.226H62.76v5.226h-3.826l-.14-.272-.484-.938.444-.23-.444.23c-1.013-1.963-3.158-3.513-5.4-3.89-2.962-.498-6.186 1.142-7.604 3.89l-.444-.23.444.23-.484.938-.14.271H22.804l-.14-.27-.485-.939.445-.23-.444.23c-1.014-1.963-3.159-3.513-5.401-3.89-2.961-.498-6.185 1.142-7.603 3.89l-.485.938-.14.271H6.738l-1.51.001h-.501v-3.113zm44.912 7.395h0c-1.547-1.547-1.075-4.177.943-5.02l.192.46-.192-.46c3.13-1.309 5.814 2.601 3.395 5.02h0c-1.255 1.255-3.084 1.255-4.338 0zm-30.926-2.828h0c.567 3.024-2.998 5.034-5.204 2.828l.354-.353-.354.353c-1.546-1.547-1.075-4.177.943-5.02 1.77-.74 3.91.318 4.261 2.192zm20.03-10.293h28.242V.5H.5v27.742h38.242z" fill="url(#paint0_linear_270_1761)" stroke="#fff"/><defs><linearGradient id="paint0_linear_270_1761" x1="41.581" y1="0" x2="41.581" y2="47" gradientUnits="userSpaceOnUse"><stop stop-color="#FFAF17"/><stop offset="1" stop-color="#F2994A"/></linearGradient></defs></svg>