<svg width="79" height="47" viewBox="0 0 79 47" fill="none" xmlns="http://www.w3.org/2000/svg"><path d="M42.97 36.44h0-1.251s0 0 0 0c-.133 0-.28-.017-.43-.079a1.116 1.116 0 01-.382-.269c-.197-.206-.376-.517-.582-.914h0c-1.083-2.086-3.374-3.732-5.772-4.133-3.168-.53-6.613 1.215-8.128 4.133h0c-.206.397-.385.708-.582.914a1.116 1.116 0 01-.383.269 1.11 1.11 0 01-.429.08 1.11 1.11 0 01-.429-.08 1.116 1.116 0 01-.382-.269c-.198-.206-.377-.517-.583-.914h0c-1.082-2.086-3.374-3.732-5.772-4.133-3.15-.526-6.62 1.23-8.127 4.133l-.444-.23.444.23-.516.993-.14.27H5.063v-5.529H.5V40.97h8.582l.14.27.516.993h0c.253.488.935 1.382 1.505 1.954l-.354.353.354-.353c3.037 3.047 7.852 3.037 10.92-.034h0c.552-.552 1.22-1.43 1.474-1.92h0c.206-.397.385-.708.583-.915.107-.112.232-.206.382-.268.15-.062.296-.08.43-.08.132 0 .278.018.428.08.15.062.275.156.383.268.197.207.376.518.582.915h0c.253.488.935 1.382 1.505 1.954l-.354.353.354-.353c3.038 3.047 7.852 3.037 10.92-.034h0c.552-.552 1.221-1.43 1.475-1.92h0c.206-.397.385-.708.582-.915.108-.112.232-.206.383-.268.15-.062.296-.08.428-.08 0 0 0 0 0 0h3.752v-4.53h-2.5zm-17.939 5.032c-.353 0-.53.185-.95.992h1.9c-.419-.807-.596-.992-.95-.992zm6.059-.49h0c-1.634-1.625-1.133-4.384.993-5.267 1.863-.774 4.119.333 4.49 2.298h0c.6 3.184-3.166 5.273-5.483 2.969zm-11.204-2.969h0c.6 3.184-3.166 5.273-5.484 2.969l.32-.323-.32.323c-1.633-1.625-1.132-4.384.994-5.267 1.862-.774 4.119.333 4.49 2.298zM5.563 22.618h-.5V5.029h68.875v17.589H5.561zm38.937 4.53h34V.5H.5v26.647h44zm20.094 11.558v-7.794H60.03V46.5h4.563v-7.794z" fill="url(#paint0_linear_270_1750)" stroke="#fff"/><defs><linearGradient id="paint0_linear_270_1750" x1="39.5" y1="0" x2="39.5" y2="47" gradientUnits="userSpaceOnUse"><stop stop-color="#FFAF17"/><stop offset="1" stop-color="#F2994A"/></linearGradient></defs></svg>