<svg width="23" height="20" viewBox="0 0 23 20" fill="none" xmlns="http://www.w3.org/2000/svg"><path d="M12.64 18.164v-6.46c0-1.386 1.23-2.496 2.708-2.496 1.4 0 2.542 1.005 2.665 2.282a.54.54 0 01.042.214m-5.415 6.46l5.265-6.46m-5.265 6.46H9.22V6.949h3.42v.975c0 .12.04.236.112.332l.12-.09m-.232 9.998l1.069-9.85m4.346 3.39v.001l-.15-.001m.15 0v0h-.15m.15 0v6.46m-.15-6.46v6.46h.15m0 0v.15h3.42v-.15m-3.42 0h3.42m0 0h.15V11.49c0-1.594-.5-2.759-1.27-3.528-.769-.77-1.817-1.163-3.014-1.163-2.36 0-3.74 1.41-3.74 1.41m7.874 9.955V11.49c0-1.561-.49-2.685-1.226-3.422-.737-.737-1.745-1.119-2.908-1.119-1.15 0-2.06.343-2.683.687a5.11 5.11 0 00-.71.47 3.583 3.583 0 00-.226.195l-.01.01-.003.003h0L13.6 8.21m0 0l.108.105M13.6 8.21a.475.475 0 01-.237.13.505.505 0 01-.275-.016.462.462 0 01-.217-.157m.837.148l-.919-.39c0 .087.029.171.082.242m.837.148a.625.625 0 01-.312.171.655.655 0 01-.358-.02.61.61 0 01-.287-.209l.12-.09M3.953 5.238h.003c.841 0 1.57-.226 2.098-.639.529-.414.836-1.016.836-1.66v-.034C6.81 1.622 5.573.683 3.955.683c-.81 0-1.53.212-2.064.607-.536.397-.87.992-.87 1.648 0 1.28 1.234 2.217 2.78 2.28.049.012.1.02.151.02zm-2.322.558h0a.637.637 0 00-.43.165l.101.11-.101-.11a.56.56 0 00-.185.412V18.74a.56.56 0 00.185.413.637.637 0 00.43.164h4.65a.635.635 0 00.43-.165.56.56 0 00.185-.412V6.373v0a.56.56 0 00-.185-.412.637.637 0 00-.43-.165h0-4.65zm6.975 0h0a.637.637 0 00-.43.165.56.56 0 00-.185.412V18.74a.56.56 0 00.184.413.637.637 0 00.43.164h4.65c.16 0 .314-.058.43-.165a.56.56 0 00.185-.412v-7.036c0-.735.644-1.343 1.478-1.343.833 0 1.477.608 1.477 1.343v7.036a.56.56 0 00.185.413.637.637 0 00.43.164h4.65c.16 0 .314-.058.43-.165a.56.56 0 00.185-.412v-7.25c0-1.792-.575-3.227-1.558-4.21-.982-.983-2.348-1.484-3.806-1.484-1.664 0-2.743.502-3.47.976v-.4 0a.56.56 0 00-.185-.411.637.637 0 00-.43-.165h-4.65zm-4.65-3.97c.586 0 1.004.132 1.278.335.269.199.41.474.434.793a.954.954 0 01-.395.768c-.271.213-.705.373-1.317.373-.581 0-1.013-.144-1.296-.359-.28-.212-.42-.496-.42-.798 0-.298.13-.545.408-.751.28-.207.722-.36 1.308-.36zm1.71 5.123v11.215h-3.42V6.949h3.42z" fill="#FFAF17" stroke="#FFAF17" stroke-width=".3"/></svg>