<svg width="276" height="79" viewBox="0 0 276 79" fill="none" xmlns="http://www.w3.org/2000/svg"><g clip-path="url(#clip0_270_3906)"><path d="M11.868 9.525c0 1.282-.322 2.243-.92 2.838-.598.595-1.564.915-2.898.915H2.806c-.92 0-1.886-.092-2.806-.275V10.44h7.222c.322 0 .552-.091.736-.274a.929.929 0 00.276-.686v-.778c0-.778-.414-1.145-1.196-1.145h-4.83V4.766h4.416c.782 0 1.196-.412 1.196-1.19v-.412c0-.778-.414-1.19-1.196-1.19H.184V-.817h7.452c1.334 0 2.3.274 2.898.87.598.594.92 1.51.92 2.7 0 .777-.184 1.464-.552 1.967-.368.504-.874.87-1.472 1.053.276.091.598.183.874.366s.552.412.782.686c.23.275.414.641.552 1.053.138.412.23.87.23 1.418v.23zm4.324 3.661h-3.91L17.618-.817h4.002l5.336 14.003h-3.91l-.92-2.517h-5.014l-.92 2.517zm1.794-5.08h3.22l-1.61-4.713-1.61 4.714zm9.936-8.923h8.05c1.334 0 2.3.274 2.898.87.598.594.92 1.51.92 2.7 0 .777-.184 1.464-.506 1.967-.368.504-.782.87-1.288 1.053.276.091.598.229.874.366.276.183.552.412.782.686.23.275.414.641.552 1.053.138.412.23.915.23 1.464 0 1.327-.322 2.288-.92 2.883-.598.595-1.564.915-2.898.915h-8.648V-.817h-.046zm8.28 4.027c0-.778-.414-1.19-1.196-1.19h-3.404v2.792h3.404c.782 0 1.196-.412 1.196-1.19V3.21zm.598 5.583c0-.778-.414-1.19-1.196-1.19h-4.002v2.792h4.002c.782 0 1.196-.412 1.196-1.19v-.412zm18.078.595c0 1.419-.322 2.425-.966 3.066-.644.64-1.656.961-3.082.961h-5.014c-1.426 0-2.438-.32-3.082-.96-.644-.642-.966-1.648-.966-3.067V2.981c0-1.418.322-2.425.966-3.066.644-.64 1.656-.96 3.082-.96h5.014c1.426 0 2.438.32 3.082.96.644.64.966 1.648.966 3.066v6.407zm-3.634-6.407c0-.778-.414-1.19-1.196-1.19h-3.404c-.782 0-1.196.412-1.196 1.19v6.407c0 .778.414 1.19 1.196 1.19h3.404c.782 0 1.196-.412 1.196-1.19V2.981zm7.268-3.798h10.534v11.212h1.518v5.4H67.16l-.184-2.609h-7.82l-.184 2.609h-3.404v-5.4h1.288c.23-.229.414-.504.552-.824.138-.275.276-.595.414-.961.138-.366.184-.778.23-1.236l.46-8.191zm6.9 11.212v-8.42h-3.726l-.322 4.988c-.046.503-.092.96-.23 1.372-.138.412-.23.778-.368 1.099-.138.366-.322.64-.506.96h5.152zM5.153 38.166c-1.748 0-3.036-.412-3.864-1.236C.46 36.106.047 34.825.047 33.086v-8.512c0-1.876.414-3.203 1.288-4.073.874-.824 2.208-1.281 4.094-1.281h9.706v3.752H6.487c-1.058 0-1.61.55-1.61 1.602v8.558c0 .412.138.732.368.96.23.23.552.367.966.367h4.048a4.87 4.87 0 001.426-.23h3.404v3.525c-1.196.228-2.392.32-3.588.32H8.235c-1.104.092-2.162.092-3.082.092zm28.566-.092h-4.876v-15.01H22.08v15.01h-4.876V19.311h16.468v18.763h.046zm18.216 0h-14.95V19.311h14.95v3.753h-10.12v3.615h7.958v3.753h-7.958v3.89h10.12v3.752zm2.162 0V19.311h4.876v15.01h6.762v-15.01h4.876v15.01h2.024v7.23h-4.6l-.276-3.477H54.097z" fill="#333"/><path d="M78.11 38.074h-5.245l7.13-18.762h5.382l7.13 18.762h-5.244l-1.196-3.34h-6.762l-1.196 3.34zm2.437-6.818h4.324L82.71 24.94l-2.162 6.316zm13.34-11.944h10.81c1.748 0 3.036.412 3.864 1.19.828.777 1.242 2.013 1.242 3.615 0 1.052-.23 1.968-.69 2.608a3.72 3.72 0 01-1.748 1.419c.414.091.782.275 1.196.503.414.23.736.55 1.058.961.276.412.552.87.736 1.419.184.55.276 1.19.276 1.968 0 1.739-.414 3.02-1.242 3.844-.828.824-2.116 1.235-3.864 1.235H93.887V19.312zm11.04 5.354c0-1.053-.552-1.602-1.61-1.602h-4.6v3.753h4.6c1.058 0 1.61-.55 1.61-1.602v-.55zm.828 7.505c0-1.052-.552-1.602-1.61-1.602h-5.428v3.753h5.382c1.058 0 1.61-.55 1.61-1.602v-.549h.046zm15.916 5.903h-4.876v-15.01h-5.658v-3.752h16.192v3.752h-5.658v15.01zm24.518-5.08c0 1.877-.414 3.25-1.288 4.074-.874.87-2.208 1.281-4.094 1.281h-6.762c-1.886 0-3.266-.412-4.094-1.281-.874-.87-1.288-2.197-1.288-4.073V24.39c0-1.876.414-3.249 1.288-4.072.874-.87 2.208-1.282 4.094-1.282h6.762c1.886 0 3.266.412 4.094 1.282.874.869 1.288 2.196 1.288 4.072v8.604zm-4.83-8.603c0-1.052-.552-1.601-1.61-1.601h-4.6c-1.058 0-1.61.549-1.61 1.601v8.604c0 1.052.552 1.601 1.61 1.601h4.6c1.058 0 1.61-.549 1.61-1.601V24.39z" fill="#FFAF17"/><path d="M158.057 38.074h-4.876v-15.01h-5.658v-3.752h16.238v3.752h-5.658v15.01h-.046zm22.54 0h-14.95V19.312h14.95v3.752h-10.12v3.616h7.958v3.752h-7.958v3.89h10.12v3.752zm13.064-18.762h5.382l-6.072 9.381 6.21 9.381h-5.382l-3.772-5.903-3.772 5.903h-5.382l6.21-9.381-6.072-9.381h5.382l3.68 5.903 3.588-5.903zm23.368 18.762h-4.876v-7.642h-6.762v7.642h-4.83V19.312h4.876v7.367h6.762v-7.367h4.876v18.762h-.046zm19.688 0h-4.876V26.542l-6.486 11.532h-5.106V19.312h4.876v11.532l6.486-11.532h5.106v18.762zm14.536-9.518l5.244 9.518h-5.106l-4.186-7.642h-2.438v7.642h-4.876V19.312h4.876v7.367h2.438l2.714-5.08c.414-.731.874-1.372 1.472-1.83.598-.457 1.334-.732 2.3-.732.322 0 .598 0 .874.046s.552.046.782.091c.276.046.506.092.736.138v3.615h-1.058c-.276 0-.506.091-.736.274a2.75 2.75 0 00-.506.55l-2.53 4.805z" fill="#333"/><path d="M261.512 38.074h-5.244l7.13-18.762h5.382l7.13 18.762h-5.244l-1.196-3.34h-6.762l-1.196 3.34zm2.438-6.818h4.324l-2.162-6.316-2.162 6.316zm-60.539 14.591h3.726c1.104 0 1.886.229 2.346.732.506.504.736 1.282.736 2.334v.458c0 1.098-.23 1.876-.736 2.334-.506.503-1.288.732-2.346.732h-6.532v-10.8h8.602v2.15h-5.796v2.06zm4.048 3.112c0-.595-.322-.915-.92-.915h-3.082v2.334h3.082c.598 0 .92-.32.92-.916v-.503zm12.374 1.236c0 .778-.23 1.373-.644 1.83-.46.458-1.058.64-1.84.64h-3.588c-.782 0-1.38-.228-1.84-.64-.46-.457-.644-1.052-.644-1.83v-3.57c0-.778.23-1.373.644-1.83.46-.458 1.058-.641 1.84-.641h3.588c.782 0 1.38.229 1.84.64.46.458.644 1.053.644 1.831v3.57zm-2.714-3.341c0-.412-.23-.595-.598-.595h-1.84c-.414 0-.598.229-.598.595v3.066c0 .412.184.595.598.595h1.84c.414 0 .598-.183.598-.595v-3.066zm12.052-5.537l.23 2.15-4.83.55c-.506.045-.782.32-.782.778v.915c.322-.046.598-.137.92-.137.276-.046.552-.092.874-.092.322-.046.598-.046.874-.046h.69c.69 0 1.288.23 1.702.641.414.412.644.961.644 1.693v2.471c0 .778-.23 1.373-.644 1.83-.46.459-1.058.642-1.84.642h-3.45c-.782 0-1.38-.23-1.84-.641-.46-.458-.644-1.053-.644-1.83v-5.492c0-.732.23-1.373.736-1.876.506-.504 1.196-.824 2.024-.916l5.336-.64zm-3.036 9.244c.414 0 .598-.183.598-.595v-1.922a.518.518 0 00-.138-.366.524.524 0 00-.368-.138h-1.196c-.23 0-.414 0-.598.046s-.414.092-.598.138v2.288c0 .411.184.594.598.594h1.702v-.045zm7.268 1.922v2.608h-2.714v-10.8h2.392l.138.778c.276-.183.552-.32.874-.457.276-.092.552-.23.92-.32.322-.092.69-.138 1.012-.138h.69c.69 0 1.288.229 1.702.64.414.413.644.962.644 1.694v3.57c0 .777-.23 1.372-.644 1.83-.46.458-1.058.64-1.84.64h-3.174v-.045zm0-2.06h2.346c.414 0 .598-.183.598-.594V46.99a.518.518 0 00-.138-.366.524.524 0 00-.368-.137h-.552c-.184 0-.414 0-.598.046-.23.045-.414.045-.598.091-.23.046-.414.092-.644.138v3.66h-.046zm12.42-6.132h2.852l-3.082 8.466c-.322.824-.69 1.419-1.15 1.83-.46.413-1.104.642-1.932.642h-.644c-.23 0-.46 0-.644-.046-.23-.046-.46-.046-.736-.092v-2.013h1.38c.414 0 .644-.092.782-.32.138-.23.092-.504-.092-.916l-3.174-7.55h2.852l1.932 5.308 1.656-5.309zm8.694.046h2.852v8.192h-2.714v-4.485l-2.622 4.485h-2.852v-8.192h2.714v4.485l2.622-4.485zm-2.07-.778c-1.334 0-2.024-.686-2.024-2.014v-.457h2.024v.366c0 .137.046.275.138.366.092.092.23.137.368.137h.46a.524.524 0 00.368-.137.518.518 0 00.138-.366v-.366h2.024v.457c0 1.328-.69 2.014-2.024 2.014h-1.472zm6.348 3.204c0-.779.23-1.373.644-1.785.46-.412 1.058-.641 1.84-.641h4.968v2.105h-4.094c-.414 0-.598.183-.598.595v2.975a.52.52 0 00.138.366.526.526 0 00.369.137h1.334c.505 0 .919 0 1.379-.046.507-.046 1.012-.091 1.472-.137v2.014c-.598.091-1.15.137-1.748.137a9.322 9.322 0 01-1.656.137h-1.702c-.69 0-1.288-.229-1.702-.64-.414-.412-.644-.962-.644-1.694v-3.523zm12.558 2.654h-1.15v3.066h-2.714V44.29h2.714v3.02h1.243l.873-1.693c.092-.183.23-.366.368-.549.138-.183.322-.32.506-.457.184-.138.414-.23.644-.32a2.16 2.16 0 01.782-.138h.46c.138 0 .276.046.414.046l.369.091v2.105h-.552a.934.934 0 00-.507.138c-.138.091-.23.183-.276.32l-.781 1.556 2.346 4.073h-2.945l-1.794-3.066z" fill="#333"/></g><path d="M6.762 63h-.66v-7.256H1.676V63h-.66v-7.82h5.746V63zm6.537-2.847c0 .906-.2 1.626-.602 2.16-.4.53-.938.794-1.611.794-.795 0-1.404-.279-1.826-.837v2.964h-.64V57.19h.597l.032.821c.419-.62 1.026-.929 1.82-.929.695 0 1.24.263 1.634.79.397.526.596 1.256.596 2.191v.091zm-.645-.112c0-.742-.152-1.327-.456-1.757-.305-.43-.729-.644-1.273-.644-.394 0-.732.094-1.015.284-.283.19-.5.466-.65.828v2.787c.154.333.374.587.66.763a1.91 1.91 0 001.015.263c.541 0 .962-.215 1.263-.645.304-.433.456-1.06.456-1.88zm1.719-.033c0-.558.107-1.061.322-1.509.219-.448.525-.795.919-1.042.397-.25.847-.376 1.348-.376.773 0 1.4.272 1.88.816.48.541.72 1.26.72 2.154v.134c0 .563-.11 1.07-.328 1.52-.215.448-.52.794-.913 1.037a2.511 2.511 0 01-1.348.365c-.77 0-1.397-.27-1.88-.81-.48-.545-.72-1.265-.72-2.16v-.129zm.645.177c0 .695.179 1.266.537 1.714.361.444.834.666 1.418.666.58 0 1.049-.222 1.407-.666.361-.448.542-1.037.542-1.767v-.124c0-.444-.082-.85-.247-1.219a1.966 1.966 0 00-.693-.854 1.76 1.76 0 00-1.02-.306c-.573 0-1.04.226-1.402.677-.362.447-.542 1.035-.542 1.761v.118zm9.694-2.997h.645V63h-.645v-4.775L21.576 63h-.64v-5.812h.64v4.78l3.136-4.78zm5.774 1.537c0-.351-.13-.622-.392-.811-.261-.19-.621-.285-1.08-.285-.415 0-.771.107-1.068.322-.294.211-.44.48-.44.806h-.64c0-.484.206-.883.618-1.198.415-.315.925-.473 1.53-.473.667 0 1.186.144 1.558.43.373.287.559.693.559 1.22 0 .279-.086.531-.258.757-.172.225-.422.4-.752.526.745.204 1.117.666 1.117 1.386 0 .523-.202.936-.607 1.24-.404.305-.941.457-1.611.457-.648 0-1.185-.163-1.611-.489-.426-.326-.64-.752-.64-1.278h.645c0 .35.154.645.462.88.311.234.693.35 1.144.35.49 0 .874-.102 1.15-.306a.996.996 0 00.418-.843c0-.39-.127-.672-.381-.844-.254-.172-.643-.258-1.166-.258h-.886v-.558h.994c.892-.022 1.337-.365 1.337-1.031zM32.726 63v-5.812h2.132c.738 0 1.304.133 1.698.398.394.261.59.646.59 1.155 0 .29-.087.55-.263.779-.175.225-.431.39-.768.494.38.071.684.234.913.488.233.255.35.55.35.887 0 .512-.19.91-.57 1.192-.376.28-.91.419-1.6.419h-2.482zm.64-2.675v2.138h1.863c.483 0 .856-.093 1.117-.28.262-.186.392-.454.392-.805a.9.9 0 00-.392-.768c-.261-.19-.634-.285-1.117-.285h-1.864zm0-.537h1.627c1.01-.014 1.514-.358 1.514-1.031 0-.355-.14-.612-.419-.774-.275-.164-.685-.247-1.23-.247h-1.493v2.052zm5.091.22c0-.558.108-1.061.322-1.509.219-.448.525-.795.919-1.042.397-.25.847-.376 1.348-.376.773 0 1.4.272 1.88.816.48.541.72 1.26.72 2.154v.134c0 .563-.11 1.07-.328 1.52-.215.448-.52.794-.913 1.037a2.511 2.511 0 01-1.348.365c-.77 0-1.397-.27-1.88-.81-.48-.545-.72-1.265-.72-2.16v-.129zm.645.177c0 .695.179 1.266.537 1.714.361.444.834.666 1.418.666.58 0 1.049-.222 1.407-.666.361-.448.542-1.037.542-1.767v-.124c0-.444-.082-.85-.247-1.219a1.966 1.966 0 00-.693-.854 1.76 1.76 0 00-1.02-.306c-.573 0-1.04.226-1.402.677-.362.447-.542 1.035-.542 1.761v.118zm5.355 2.273l.284-.371c.451-.612.711-1.508.779-2.686l.102-2.213h3.432v5.27h.602v2.25h-.64V63H44.65v1.708h-.618l.006-2.25h.419zm.74 0h3.213V57.79h-2.176l-.07 1.51c-.064 1.385-.386 2.438-.966 3.158zm7.848.107c.447 0 .822-.125 1.122-.376.305-.254.47-.582.495-.983h.617a1.834 1.834 0 01-.333.972 2.09 2.09 0 01-.816.682 2.436 2.436 0 01-1.085.247c-.763 0-1.368-.265-1.816-.794-.444-.53-.666-1.243-.666-2.138v-.194c0-.573.1-1.08.301-1.52.2-.44.487-.78.86-1.02.376-.24.814-.36 1.316-.36.637 0 1.162.19 1.573.57.416.379.638.878.666 1.498h-.617c-.029-.455-.194-.822-.495-1.101-.297-.28-.673-.42-1.127-.42-.58 0-1.032.21-1.354.63-.319.418-.478 1.005-.478 1.761v.188c0 .741.16 1.32.478 1.735.322.415.775.623 1.359.623zm7.697-4.829h-2.116V63h-.645v-5.264h-2.036v-.547h4.797v.547zM61.87 63v-5.812h2.132c.738 0 1.303.133 1.697.398.394.261.591.646.591 1.155 0 .29-.088.55-.263.779-.176.225-.432.39-.768.494.38.071.684.234.913.488.233.255.349.55.349.887 0 .512-.19.91-.57 1.192-.375.28-.909.419-1.6.419H61.87zm.639-2.675v2.138h1.864c.483 0 .855-.093 1.117-.28.261-.186.392-.454.392-.805a.9.9 0 00-.392-.768c-.262-.19-.634-.285-1.117-.285h-1.864zm0-.537h1.627c1.01-.014 1.515-.358 1.515-1.031 0-.355-.14-.612-.42-.774-.275-.164-.685-.247-1.229-.247h-1.493v2.052zm5.092.22c0-.558.107-1.061.322-1.509.218-.448.524-.795.918-1.042.398-.25.847-.376 1.349-.376.773 0 1.4.272 1.88.816.48.541.72 1.26.72 2.154v.134c0 .563-.11 1.07-.329 1.52a2.402 2.402 0 01-.913 1.037 2.51 2.51 0 01-1.348.365c-.77 0-1.396-.27-1.88-.81-.48-.545-.72-1.265-.72-2.16v-.129zm.644.177c0 .695.18 1.266.537 1.714.362.444.835.666 1.418.666.58 0 1.05-.222 1.407-.666.362-.448.543-1.037.543-1.767v-.124c0-.444-.083-.85-.247-1.219a1.966 1.966 0 00-.693-.854 1.76 1.76 0 00-1.02-.306c-.573 0-1.04.226-1.402.677-.362.447-.543 1.035-.543 1.761v.118zM81.26 63h-.644v-5.258h-3.132V63h-.644v-5.812h4.42V63zm6.397-2.847c0 .906-.2 1.626-.601 2.16-.401.53-.939.794-1.612.794-.795 0-1.403-.279-1.826-.837v2.964h-.639V57.19h.596l.032.821c.42-.62 1.026-.929 1.821-.929.695 0 1.24.263 1.633.79.397.526.596 1.256.596 2.191v.091zm-.644-.112c0-.742-.153-1.327-.457-1.757-.304-.43-.729-.644-1.273-.644-.394 0-.732.094-1.015.284-.283.19-.5.466-.65.828v2.787c.154.333.374.587.66.763.287.175.626.263 1.016.263.54 0 .961-.215 1.262-.645.304-.433.457-1.06.457-1.88zm5.892-2.852h.644V63h-.644v-4.775L89.767 63h-.64v-5.812h.64v4.78l3.137-4.78zm2.411 0h.645v5.269h3.131v-5.27h.645v5.27h.591l-.049 2.266h-.59V63h-4.373v-5.812zm8.471 5.918c-.494 0-.942-.121-1.343-.365a2.495 2.495 0 01-.929-1.015 3.19 3.19 0 01-.333-1.466v-.231c0-.559.107-1.062.322-1.51a2.58 2.58 0 01.908-1.052 2.218 2.218 0 011.256-.387c.706 0 1.264.242 1.676.725.416.48.623 1.137.623 1.971v.36h-4.146v.124c0 .659.188 1.208.564 1.649.379.437.856.655 1.428.655.344 0 .647-.063.908-.188.265-.125.505-.326.72-.602l.403.306c-.473.684-1.159 1.026-2.057 1.026zm-.119-5.478c-.483 0-.891.177-1.224.532-.33.354-.53.83-.602 1.428h3.486v-.07c-.018-.558-.177-1.013-.478-1.364-.301-.35-.695-.526-1.182-.526zM111.681 63h-.644v-5.258h-3.132V63h-.644v-5.812h4.42V63zm6.188 0h-.645v-2.664h-3.131V63h-.645v-5.812h.645v2.605h3.131v-2.605h.645V63zm1.369-2.992c0-.558.108-1.061.323-1.509.218-.448.524-.795.918-1.042.397-.25.847-.376 1.348-.376.774 0 1.4.272 1.88.816.48.541.72 1.26.72 2.154v.134a3.43 3.43 0 01-.328 1.52 2.412 2.412 0 01-.913 1.037 2.51 2.51 0 01-1.348.365c-.77 0-1.397-.27-1.88-.81-.48-.545-.72-1.265-.72-2.16v-.129zm.645.177c0 .695.179 1.266.537 1.714.362.444.834.666 1.418.666.58 0 1.049-.222 1.407-.666.362-.448.543-1.037.543-1.767v-.124c0-.444-.083-.85-.247-1.219a1.97 1.97 0 00-.693-.854 1.763 1.763 0 00-1.021-.306c-.573 0-1.04.226-1.402.677-.361.447-.542 1.035-.542 1.761v.118zm9.695-2.997h.644V63h-.644v-4.775L126.441 63h-.639v-5.812h.639v4.78l3.137-4.78zm-.033-2.094c0 .411-.141.745-.424.999-.279.254-.655.381-1.128.381-.465 0-.841-.125-1.128-.376-.283-.254-.424-.589-.424-1.004h.548c0 .297.087.524.263.682.179.157.426.236.741.236s.561-.082.736-.247c.179-.165.269-.388.269-.671h.547zM5.011 70.736H2.895V76H2.25v-5.264H.215v-.547H5.01v.547zm2.88 5.371c-.495 0-.943-.121-1.344-.365a2.5 2.5 0 01-.929-1.015 3.19 3.19 0 01-.333-1.466v-.231c0-.559.108-1.062.322-1.51.219-.447.521-.798.908-1.052a2.222 2.222 0 011.257-.387c.705 0 1.264.242 1.676.725.415.48.623 1.137.623 1.971v.36H5.924v.124c0 .659.188 1.208.564 1.649.38.437.856.655 1.429.655.344 0 .646-.063.908-.188.265-.125.505-.326.72-.602l.402.306c-.472.684-1.158 1.026-2.057 1.026zm-.119-5.478c-.483 0-.892.177-1.225.532-.33.354-.53.83-.601 1.428h3.486v-.07c-.018-.558-.178-1.013-.478-1.364-.301-.35-.695-.526-1.182-.526zm5.376 1.917l1.569-2.358h.762l-1.97 2.852L15.564 76h-.757l-1.654-2.46L11.499 76h-.757l2.052-2.96-1.971-2.852h.757l1.568 2.358zM21.135 76h-.644v-2.664h-3.132V76h-.644v-5.811h.644v2.605h3.132v-2.605h.644V76zm5.543-5.811h.645V76h-.645v-4.775L23.541 76h-.639v-5.811h.64v4.78l3.136-4.78zm3.948 3.147h-.892V76h-.65v-5.811h.65v2.578h.881l2.133-2.578h.81l-2.384 2.82L33.822 76h-.849l-2.347-2.664zm7.944-3.147h.644V76h-.644v-4.775L35.433 76h-.64v-5.811h.64v4.78l3.137-4.78zM43.683 76v-5.811h2.132c.738 0 1.304.132 1.698.397.394.261.59.646.59 1.155 0 .29-.087.55-.263.778-.175.226-.431.39-.768.495.38.071.684.234.913.488.233.255.35.55.35.887 0 .512-.19.91-.57 1.192-.376.28-.91.419-1.6.419h-2.482zm.64-2.675v2.138h1.863c.483 0 .856-.093 1.117-.28.262-.186.392-.454.392-.805a.9.9 0 00-.392-.768c-.261-.19-.634-.285-1.117-.285h-1.864zm0-.537h1.627c1.01-.014 1.514-.358 1.514-1.031 0-.355-.14-.613-.419-.774-.275-.164-.685-.247-1.23-.247h-1.493v2.052zm12.949-4.044h-4.05v2.83h1.94c.533 0 .995.09 1.385.269.39.175.687.43.892.763.207.329.311.72.311 1.17 0 .691-.231 1.236-.693 1.633-.462.394-1.1.591-1.917.591h-2.584v-7.82h4.716v.564zm-4.05 3.394v3.303h1.934c.605 0 1.078-.148 1.418-.445.34-.301.51-.711.51-1.23 0-.495-.165-.887-.494-1.177-.33-.293-.792-.444-1.386-.45h-1.982zm8.38 3.97c-.495 0-.943-.122-1.344-.366a2.5 2.5 0 01-.929-1.015 3.19 3.19 0 01-.333-1.466v-.231c0-.559.107-1.062.322-1.51.219-.447.521-.798.908-1.052a2.222 2.222 0 011.257-.387c.705 0 1.264.242 1.676.725.415.48.623 1.137.623 1.971v.36h-4.147v.124c0 .659.188 1.208.564 1.649.38.437.856.655 1.429.655.344 0 .646-.063.908-.188.265-.125.505-.326.72-.602l.402.306c-.473.684-1.158 1.026-2.057 1.026zm-.12-5.48c-.483 0-.89.178-1.224.533-.33.354-.53.83-.601 1.428h3.486v-.07c-.018-.558-.178-1.013-.478-1.364-.301-.35-.695-.526-1.182-.526zm8.02-.44V76h-.645v-5.258h-2.379l-.102 2.175c-.043.806-.124 1.421-.242 1.848-.118.422-.293.734-.526.934-.233.2-.543.301-.93.301h-.246v-.57l.198-.01c.37-.007.634-.186.795-.537.161-.351.267-.978.317-1.88l.118-2.814h3.642zM74.9 76c-.065-.183-.106-.453-.124-.811a2.26 2.26 0 01-.864.682 2.648 2.648 0 01-1.107.236c-.558 0-1.011-.155-1.359-.467a1.526 1.526 0 01-.515-1.181c0-.566.234-1.014.703-1.343.473-.33 1.13-.494 1.972-.494h1.165v-.661c0-.415-.129-.741-.387-.978-.254-.24-.626-.36-1.117-.36-.447 0-.818.115-1.112.344-.293.23-.44.505-.44.827l-.645-.005c0-.462.215-.861.645-1.198.43-.34.958-.51 1.584-.51.648 0 1.159.163 1.531.489.376.322.57.773.58 1.353v2.75c0 .563.06.983.177 1.263V76H74.9zm-2.02-.462c.43 0 .813-.104 1.15-.311.34-.208.587-.486.741-.833v-1.278h-1.15c-.64.007-1.142.125-1.503.354-.362.226-.543.537-.543.935 0 .326.12.596.36.81.243.216.559.323.945.323zm8.922-2.385c0 .906-.2 1.626-.602 2.16-.4.53-.938.794-1.611.794-.795 0-1.404-.279-1.826-.838v2.965h-.64V70.19h.597l.032.821c.419-.62 1.026-.929 1.82-.929.695 0 1.24.263 1.634.79.397.526.596 1.256.596 2.191v.091zm-.645-.113c0-.74-.152-1.326-.456-1.756-.305-.43-.729-.644-1.273-.644-.394 0-.733.094-1.015.284-.283.19-.5.466-.65.827v2.788c.154.333.374.587.66.763.287.175.625.263 1.016.263.54 0 .96-.215 1.262-.645.304-.433.456-1.06.456-1.88zm3.851 2.036l1.698-4.887h.692l-2.481 6.8-.129.3c-.319.706-.81 1.058-1.477 1.058-.154 0-.319-.025-.494-.075l-.005-.532.332.032c.316 0 .57-.078.763-.236.197-.154.364-.42.5-.8l.284-.784-2.191-5.763h.704l1.804 4.887zm5.463.489c.447 0 .822-.125 1.122-.376.305-.254.47-.582.494-.983h.618a1.834 1.834 0 01-.333.972c-.204.29-.476.518-.816.682a2.436 2.436 0 01-1.085.247c-.763 0-1.368-.265-1.816-.794-.444-.53-.666-1.243-.666-2.138v-.194c0-.572.1-1.08.301-1.52.2-.44.487-.78.86-1.02.375-.24.814-.36 1.315-.36.638 0 1.162.19 1.574.57.415.379.637.879.666 1.498h-.618c-.028-.455-.193-.822-.494-1.101-.297-.28-.673-.42-1.128-.42-.58 0-1.03.21-1.353.63-.319.418-.478 1.005-.478 1.761v.188c0 .741.16 1.32.478 1.735.322.415.775.623 1.359.623zm7.342-5.376h.644V76h-.644v-4.775L94.676 76h-.639v-5.811h.64v4.78l3.136-4.78z" fill="#333"/><defs><clipPath id="clip0_270_3906"><path fill="#fff" d="M0 0h276v54H0z"/></clipPath></defs></svg>