<svg width="38" height="42" viewBox="0 0 38 42" fill="none" xmlns="http://www.w3.org/2000/svg"><path d="M.625.313v37.374h21.753l-2.875-2.874H3.5V3.186h14.375v8.626H26.5v10.062h2.875V9.78L19.908.313H.625zM20.75 5.22l3.717 3.718H20.75V5.22zm-6.752 8.033c-1.091-.039-1.876.582-2.106 1.614-.293 1.314.4 3.7 1.58 6.132-.038.135-.08.272-.123.413a31.49 31.49 0 01-1.536 4.051c-1.868.59-3.481 1.33-4.374 2.111-1.189 1.037-1.411 2.292-.61 3.336.488.671 1.162 1.027 1.89 1.027.288 0 .584-.056.885-.168 1.28-.484 2.659-2.32 3.843-4.644a29.773 29.773 0 013.546-.71c.977 1.101 1.98 1.925 2.906 2.252 1.333.468 2.575.047 3.327-1.123l.009-.015c.739-1.194.264-2.146-.424-2.639-.907-.65-2.724-.815-4.824-.651-.776-1.032-1.516-2.258-2.145-3.476.552-2.15.783-4.122.511-5.374-.417-1.926-1.81-2.136-2.353-2.136h-.002zm.053 2.23c.098.228.171.651.163 1.285-.138-.535-.197-.978-.163-1.286zm.893 8.164c.194.31.397.612.6.907-.34.06-.686.13-1.027.202.148-.367.292-.739.427-1.11zm14.473 1.103v10.063h-5.75L30.855 42l7.187-7.188h-5.75V24.75h-2.875zm-9.58 1.463c.668.013 1.181.09 1.463.233-.008.016-.02.033-.03.053-.182.282-.26.398-.778.135a4.1 4.1 0 01-.655-.421zM10.3 28.25c-.635.98-1.176 1.564-1.474 1.634-.001-.001-.043-.028-.13-.146-.074-.098-.2-.26.394-.738a6.585 6.585 0 011.21-.75z" fill="#DA6803"/></svg>