<svg width="20" height="20" viewBox="0 0 20 20" fill="none" xmlns="http://www.w3.org/2000/svg"><path d="M4.492.25c-.393 0-.78.14-1.102.398l-.047.024-.023.023L.976 3.11 1 3.133a2.35 2.35 0 00-.633 2.531c.003.006-.003.018 0 .024.636 1.819 2.262 5.332 5.437 8.507 3.188 3.188 6.747 4.75 8.508 5.438h.024a2.692 2.692 0 002.601-.516l2.367-2.367c.622-.621.622-1.7 0-2.32l-3.046-3.047-.024-.047c-.621-.621-1.723-.621-2.344 0l-1.5 1.5a12.131 12.131 0 01-3.07-2.11C8.092 9.556 7.466 8.208 7.234 7.68l1.5-1.5c.63-.63.642-1.679-.023-2.297l.023-.024-.07-.07-3-3.094L5.64.672 5.593.648A1.767 1.767 0 004.492.25zm0 1.5c.056 0 .111.026.164.07l3 3.07.07.07c-.006-.005.044.074-.047.165L5.804 7l-.351.328.164.469s.861 2.305 2.672 4.031l.164.14c1.743 1.592 3.797 2.462 3.797 2.462l.468.21 2.227-2.226c.129-.129.105-.129.234 0l3.07 3.07c.13.13.13.082 0 .211l-2.296 2.297c-.346.296-.712.358-1.149.211-1.699-.668-5-2.118-7.945-5.062-2.968-2.968-4.518-6.334-5.086-7.97-.114-.304-.032-.755.234-.984l.047-.046 2.274-2.32a.263.263 0 01.164-.071z" fill="#fff"/></svg>