<svg width="36" height="36" viewBox="0 0 36 36" fill="none" xmlns="http://www.w3.org/2000/svg"><path d="M7.938.75v10.063H5.063C2.697 10.813.75 12.76.75 15.125V29.5h7.188v5.75h20.125V29.5h7.187V15.125c0-2.364-1.949-4.313-4.313-4.313h-2.875V.75H7.938zm2.875 2.875h14.374v7.188H10.813V3.625zm-5.75 10.063h25.875c.814 0 1.437.623 1.437 1.437v11.5h-4.313v-5.75H7.938v5.75H3.625v-11.5c0-.814.623-1.438 1.438-1.438zM6.5 15.124a1.44 1.44 0 00-1.438 1.438A1.44 1.44 0 006.5 18a1.44 1.44 0 001.438-1.438A1.44 1.44 0 006.5 15.126zm4.313 8.625h14.374v8.625H10.813V23.75z" fill="#F2994A"/></svg>