<svg width="20" height="23" viewBox="0 0 20 23" fill="none" xmlns="http://www.w3.org/2000/svg"><path d="M18.362 5.621h0a.74.74 0 01.49.237.757.757 0 01.198.51V9.63a.752.752 0 01-.194.504.74.74 0 01-.48.241l-.004-.05.004.05a5.85 5.85 0 01-.545.028c-1.36 0-2.596-.493-3.596-1.274v6.217c0 3.693-2.982 6.704-6.643 6.704-3.66 0-6.642-3.01-6.642-6.704S3.932 8.64 7.592 8.64c.13 0 .241.008.334.015l.078.006a.74.74 0 01.494.234.75.75 0 01.201.513v2.934h-.05l9.713-6.722zm0 0c-2.152-.156-3.867-1.847-4.091-4a.751.751 0 00-.24-.478.738.738 0 00-.498-.193h0m4.829 4.671L13.533.95m0 0h-2.778a.739.739 0 00-.525.219M13.534.95l-3.303.219m0 0a.752.752 0 00-.217.528m.217-.528l-.217.528m0 0h.05-.05zm1.482.75c0 .186 0 .506-.002.935a22310.184 22310.184 0 00-.017 7.735l-.005 2.102-.003 1.578v.556l-.001.026v.005m.028-12.937l-.028 12.937m.028-12.937h1.489c.515 2.29 2.29 4.038 4.582 4.493v1.907c-1.443-.09-2.706-.823-3.453-1.97 0 0 0 0 0 0l-.042.027m-2.576-4.457l-4.28 9.182v-1.42c-2.67.202-4.781 2.388-4.781 5.137 0 2.884 2.302 5.207 5.158 5.207 2.857 0 5.159-2.323 5.159-5.207V7.289v0h.05a.702.702 0 01.493-.67.686.686 0 01.777.285m-2.604 8.48v-.001a.067.067 0 00-.05-.022v.023m.05 0h0v.001h0a.079.079 0 01-.05.023v-.024m0 0h-.05.05zm2.654-8.48c.757 1.162 2.036 1.903 3.495 1.993l-3.495-1.993z" fill="#FFAF17" stroke="#FFAF17" stroke-width=".1"/></svg>