<svg width="26" height="16" viewBox="0 0 26 16" fill="none" xmlns="http://www.w3.org/2000/svg"><path d="M11.635.5c-.898-.002-1.7.047-2.416.392l-.002.002c-.35.168-.596.383-.792.638-.098.127-.198.241-.252.531a.875.875 0 00.113.635c.155.254.466.399.665.425.139.018.451.148.48.187l.002.003s.12.31.156.586c.035.275.033.5.033.5a14.991 14.991 0 00.018 1.536 6.229 6.229 0 01-.093.798c-.302-.328-.748-.92-1.392-2.014a57.958 57.958 0 01-1.283-2.302c-.03-.095-.136-.39-.548-.687a2.067 2.067 0 00-.886-.374.867.867 0 00-.166-.016l-3.35.001s-.2-.011-.441.021c-.241.033-.603.06-.953.466l-.002.001c-.312.366-.293.77-.255 1 .038.228.122.401.122.401a.77.77 0 00.005.01s2.74 5.646 5.836 8.97c2.249 2.414 4.556 2.455 6.46 2.455h1.421c.363 0 .69-.013 1.054-.22.363-.208.608-.713.608-1.063 0-.367.056-.656.124-.804.048-.104.087-.142.146-.172l.04.027c.141.098.375.32.629.597.508.555 1.085 1.316 1.859 1.837.555.374 1.079.54 1.477.6.25.038.444.03.581.02l3.174.013c.019 0 .037 0 .056-.002 0 0 .547.007 1.116-.327.284-.166.62-.482.728-.943.11-.461-.028-.939-.295-1.375v-.002a6.866 6.866 0 00-.544-.807c-.379-.484-.985-1.162-1.964-2.056h-.002c-.497-.454-.833-.775-.97-.953-.138-.179-.093-.085-.084-.13.02-.091.616-.935 1.831-2.525.738-.968 1.257-1.695 1.598-2.3.342-.604.589-1.127.417-1.768l-.002-.003a1.262 1.262 0 00-.498-.682 1.565 1.565 0 00-.597-.23c-.363-.07-.679-.057-.973-.057-.616 0-3.348.02-3.573.02-.266 0-.706.12-.9.233-.489.289-.63.667-.63.667a.885.885 0 00-.024.05s-.564 1.224-1.29 2.435c-.735 1.227-1.278 1.813-1.606 2.084-.01-.049-.008-.01-.014-.077-.029-.343.004-.816.004-1.279 0-1.244.107-2.116.05-2.886-.03-.385-.102-.782-.36-1.147-.26-.365-.69-.602-1.114-.702-.255-.06-.546-.218-1.599-.228h-.002c-.321-.003-.631-.01-.93-.01zm.915 1.676c.931.01.7.06 1.217.182.16.038.121.038.117.033-.003-.006.044.08.062.32.036.48-.055 1.433-.055 2.762 0 .363-.045.88.002 1.42.046.538.182 1.23.84 1.647.311.198.673.21.982.135.31-.075.59-.232.885-.463.59-.463 1.247-1.244 2.073-2.623a28.96 28.96 0 001.353-2.554l.011-.008h.014c.317 0 3-.022 3.573-.022.134 0 .183.008.289.012-.029.094.003.034-.123.257-.264.467-.751 1.162-1.472 2.107-1.184 1.55-1.919 2.157-2.135 3.187-.108.514.095 1.085.392 1.47.297.386.673.716 1.17 1.17.922.841 1.463 1.453 1.773 1.85.155.199.253.342.314.44.06.096.045.086.124.214.052.085.033.033.042.059l-.233.063-3.125-.013a.873.873 0 00-.168.016s.008.01-.16-.016c-.166-.025-.432-.096-.774-.327-.413-.278-.991-.958-1.557-1.576-.283-.31-.566-.606-.916-.848-.351-.242-.876-.47-1.443-.295a2.12 2.12 0 00-1.27 1.115c-.166.36-.18.736-.205 1.11-.029.002.004 0-.032 0h-1.42c-1.931 0-3.302.13-5.206-1.914-2.56-2.75-4.907-7.325-5.29-8.079l2.948-.002c.052.02.163.06.17.066l.003.003c-.108-.077.005.03.005.03.01.026.022.05.035.074 0 0 .584 1.118 1.322 2.374.725 1.23 1.253 1.999 1.763 2.507.255.254.513.457.857.572.344.115.788.073 1.087-.088.61-.327.692-.81.792-1.233.099-.423.138-.873.157-1.305.037-.836-.015-1.56-.018-1.605 0-.016.004-.318-.045-.705-.05-.396-.106-.88-.471-1.368l-.002-.002c-.002-.003-.006-.003-.008-.006.483-.068.897-.152 1.756-.143zm7.497.816l-.011.026h-.004l.015-.026z" fill="#FFAF17"/></svg>