<svg width="26" height="20" viewBox="0 0 26 20" fill="none" xmlns="http://www.w3.org/2000/svg"><path d="M13 .625c-3.53 0-6.65.366-8.555.645C2.871 1.5 1.6 2.687 1.311 4.258A31.923 31.923 0 00.813 10c0 2.45.252 4.405.498 5.742a3.71 3.71 0 003.134 2.988c1.912.279 5.043.645 8.555.645 3.512 0 6.643-.366 8.555-.645a3.71 3.71 0 003.134-2.988c.246-1.34.498-3.3.498-5.742 0-2.443-.248-4.402-.498-5.742C24.4 2.687 23.13 1.5 21.555 1.27 19.65.99 16.53.625 13 .625zM13 2.5c3.406 0 6.449.348 8.291.615.791.117 1.41.714 1.553 1.494.227 1.238.468 3.073.468 5.391 0 2.315-.241 4.153-.468 5.39a1.835 1.835 0 01-1.553 1.495c-1.85.267-4.907.615-8.291.615-3.384 0-6.445-.348-8.291-.615a1.84 1.84 0 01-1.553-1.494A29.893 29.893 0 012.687 10c0-2.325.242-4.153.47-5.39a1.84 1.84 0 011.552-1.495A59.129 59.129 0 0113 2.5zm-2.813 2.139V15.36l1.407-.79 6.562-3.75 1.407-.82-1.407-.82-6.562-3.75-1.406-.791zm1.876 3.222L15.783 10l-3.72 2.139V7.86z" fill="#FFAF17"/></svg>