<svg width="289" height="119" viewBox="0 0 289 119" fill="none" xmlns="http://www.w3.org/2000/svg">
<path d="M58.7694 85.84H5.48938V65.68L40.0494 5.19999H68.8494L34.2894 65.68H58.7694V44.08H84.6894V65.68H94.7694V85.84H84.6894V106H58.7694V85.84ZM161.066 32.56C161.066 26.8 158.186 23.92 152.426 23.92H136.586C130.826 23.92 127.946 26.8 127.946 32.56V78.64C127.946 84.4 130.826 87.28 136.586 87.28H152.426C158.186 87.28 161.066 84.4 161.066 78.64V32.56ZM186.986 78.64C186.986 88.72 184.682 96.064 180.074 100.672C175.562 105.184 168.266 107.44 158.186 107.44H130.826C120.746 107.44 113.402 105.184 108.794 100.672C104.282 96.064 102.026 88.72 102.026 78.64V32.56C102.026 22.48 104.282 15.184 108.794 10.672C113.402 6.06399 120.746 3.75999 130.826 3.75999H158.186C168.266 3.75999 175.562 6.06399 180.074 10.672C184.682 15.184 186.986 22.48 186.986 32.56V78.64ZM248.894 85.84H195.614V65.68L230.174 5.19999H258.974L224.414 65.68H248.894V44.08H274.814V65.68H284.894V85.84H274.814V106H248.894V85.84Z" fill="white"/>
<path d="M58.7694 85.84H63.7694V80.84H58.7694V85.84ZM5.48938 85.84H0.489375V90.84H5.48938V85.84ZM5.48938 65.68L1.14816 63.1993L0.489375 64.3522V65.68H5.48938ZM40.0494 5.19999V0.199993H37.1478L35.7082 2.7193L40.0494 5.19999ZM68.8494 5.19999L73.1906 7.68069L77.4653 0.199993H68.8494V5.19999ZM34.2894 65.68L29.9482 63.1993L25.6735 70.68H34.2894V65.68ZM58.7694 65.68V70.68H63.7694V65.68H58.7694ZM58.7694 44.08V39.08H53.7694V44.08H58.7694ZM84.6894 44.08H89.6894V39.08H84.6894V44.08ZM84.6894 65.68H79.6894V70.68H84.6894V65.68ZM94.7694 65.68H99.7694V60.68H94.7694V65.68ZM94.7694 85.84V90.84H99.7694V85.84H94.7694ZM84.6894 85.84V80.84H79.6894V85.84H84.6894ZM84.6894 106V111H89.6894V106H84.6894ZM58.7694 106H53.7694V111H58.7694V106ZM58.7694 80.84H5.48938V90.84H58.7694V80.84ZM10.4894 85.84V65.68H0.489375V85.84H10.4894ZM9.83059 68.1607L44.3906 7.68069L35.7082 2.7193L1.14816 63.1993L9.83059 68.1607ZM40.0494 10.2H68.8494V0.199993H40.0494V10.2ZM64.5082 2.7193L29.9482 63.1993L38.6306 68.1607L73.1906 7.68069L64.5082 2.7193ZM34.2894 70.68H58.7694V60.68H34.2894V70.68ZM63.7694 65.68V44.08H53.7694V65.68H63.7694ZM58.7694 49.08H84.6894V39.08H58.7694V49.08ZM79.6894 44.08V65.68H89.6894V44.08H79.6894ZM84.6894 70.68H94.7694V60.68H84.6894V70.68ZM89.7694 65.68V85.84H99.7694V65.68H89.7694ZM94.7694 80.84H84.6894V90.84H94.7694V80.84ZM79.6894 85.84V106H89.6894V85.84H79.6894ZM84.6894 101H58.7694V111H84.6894V101ZM63.7694 106V85.84H53.7694V106H63.7694ZM180.074 100.672L176.538 97.1365L176.538 97.1365L180.074 100.672ZM108.794 100.672L105.221 104.17L105.258 104.208L105.296 104.245L108.794 100.672ZM108.794 10.672L105.258 7.13646L105.258 7.13646L108.794 10.672ZM180.074 10.672L176.501 14.1701L176.538 14.2077L176.576 14.2445L180.074 10.672ZM166.066 32.56C166.066 28.9093 165.15 25.2529 162.441 22.5445C159.733 19.8361 156.076 18.92 152.426 18.92V28.92C154.535 28.92 155.198 29.4439 155.37 29.6155C155.542 29.7871 156.066 30.4507 156.066 32.56H166.066ZM152.426 18.92H136.586V28.92H152.426V18.92ZM136.586 18.92C132.935 18.92 129.278 19.8361 126.57 22.5445C123.862 25.2529 122.946 28.9093 122.946 32.56H132.946C132.946 30.4507 133.47 29.7871 133.641 29.6155C133.813 29.4439 134.476 28.92 136.586 28.92V18.92ZM122.946 32.56V78.64H132.946V32.56H122.946ZM122.946 78.64C122.946 82.2907 123.862 85.9471 126.57 88.6555C129.278 91.3639 132.935 92.28 136.586 92.28V82.28C134.476 82.28 133.813 81.7561 133.641 81.5845C133.47 81.4129 132.946 80.7493 132.946 78.64H122.946ZM136.586 92.28H152.426V82.28H136.586V92.28ZM152.426 92.28C156.076 92.28 159.733 91.3639 162.441 88.6555C165.15 85.9471 166.066 82.2907 166.066 78.64H156.066C156.066 80.7493 155.542 81.4129 155.37 81.5845C155.198 81.7561 154.535 82.28 152.426 82.28V92.28ZM166.066 78.64V32.56H156.066V78.64H166.066ZM181.986 78.64C181.986 88.1016 179.805 93.8697 176.538 97.1365L183.609 104.208C189.558 98.2583 191.986 89.3384 191.986 78.64H181.986ZM176.538 97.1365C173.384 100.291 167.683 102.44 158.186 102.44V112.44C168.848 112.44 177.74 110.077 183.609 104.208L176.538 97.1365ZM158.186 102.44H130.826V112.44H158.186V102.44ZM130.826 102.44C121.34 102.44 115.556 100.296 112.292 97.0994L105.296 104.245C111.247 110.072 120.151 112.44 130.826 112.44V102.44ZM112.366 97.1739C109.17 93.9093 107.026 88.1254 107.026 78.64H97.0256C97.0256 89.3146 99.3936 98.2187 105.221 104.17L112.366 97.1739ZM107.026 78.64V32.56H97.0256V78.64H107.026ZM107.026 32.56C107.026 23.0623 109.175 17.362 112.329 14.2075L105.258 7.13646C99.3885 13.006 97.0256 21.8977 97.0256 32.56H107.026ZM112.329 14.2075C115.596 10.9408 121.364 8.75999 130.826 8.75999V-1.24001C120.127 -1.24001 111.207 1.18722 105.258 7.13646L112.329 14.2075ZM130.826 8.75999H158.186V-1.24001H130.826V8.75999ZM158.186 8.75999C167.659 8.75999 173.344 10.9457 176.501 14.1701L183.646 7.17387C177.779 1.18227 168.872 -1.24001 158.186 -1.24001V8.75999ZM176.576 14.2445C179.8 17.4018 181.986 23.0865 181.986 32.56H191.986C191.986 21.8735 189.563 12.9662 183.572 7.09944L176.576 14.2445ZM181.986 32.56V78.64H191.986V32.56H181.986ZM248.894 85.84H253.894V80.84H248.894V85.84ZM195.614 85.84H190.614V90.84H195.614V85.84ZM195.614 65.68L191.273 63.1993L190.614 64.3522V65.68H195.614ZM230.174 5.19999V0.199993H227.273L225.833 2.7193L230.174 5.19999ZM258.974 5.19999L263.316 7.68069L267.59 0.199993H258.974V5.19999ZM224.414 65.68L220.073 63.1993L215.798 70.68H224.414V65.68ZM248.894 65.68V70.68H253.894V65.68H248.894ZM248.894 44.08V39.08H243.894V44.08H248.894ZM274.814 44.08H279.814V39.08H274.814V44.08ZM274.814 65.68H269.814V70.68H274.814V65.68ZM284.894 65.68H289.894V60.68H284.894V65.68ZM284.894 85.84V90.84H289.894V85.84H284.894ZM274.814 85.84V80.84H269.814V85.84H274.814ZM274.814 106V111H279.814V106H274.814ZM248.894 106H243.894V111H248.894V106ZM248.894 80.84H195.614V90.84H248.894V80.84ZM200.614 85.84V65.68H190.614V85.84H200.614ZM199.956 68.1607L234.516 7.68069L225.833 2.7193L191.273 63.1993L199.956 68.1607ZM230.174 10.2H258.974V0.199993H230.174V10.2ZM254.633 2.7193L220.073 63.1993L228.756 68.1607L263.316 7.68069L254.633 2.7193ZM224.414 70.68H248.894V60.68H224.414V70.68ZM253.894 65.68V44.08H243.894V65.68H253.894ZM248.894 49.08H274.814V39.08H248.894V49.08ZM269.814 44.08V65.68H279.814V44.08H269.814ZM274.814 70.68H284.894V60.68H274.814V70.68ZM279.894 65.68V85.84H289.894V65.68H279.894ZM284.894 80.84H274.814V90.84H284.894V80.84ZM269.814 85.84V106H279.814V85.84H269.814ZM274.814 101H248.894V111H274.814V101ZM253.894 106V85.84H243.894V106H253.894Z" fill="#D7D7D8"/>
</svg>
