<svg width="62" height="66" viewBox="0 0 62 66" fill="none" xmlns="http://www.w3.org/2000/svg">
<path d="M11.6016 0.692495C11.3571 0.696317 11.1241 0.796988 10.9537 0.972413C10.7834 1.14784 10.6896 1.38369 10.6929 1.62819V3.47435H7.0006C3.44275 3.47435 0.539062 6.37804 0.539062 9.93588V62.5513C0.539062 64.0697 1.78986 65.3205 3.30829 65.3205H58.6929C60.2113 65.3205 61.4621 64.0697 61.4621 62.5513V9.93588C61.4621 6.37804 58.5584 3.47435 55.0006 3.47435H51.3083V1.62819C51.31 1.50469 51.2869 1.38211 51.2403 1.26771C51.1938 1.1533 51.1248 1.04939 51.0374 0.962145C50.9499 0.874894 50.8459 0.806072 50.7314 0.759755C50.6169 0.713438 50.4943 0.690567 50.3708 0.692495C50.1263 0.696317 49.8933 0.796988 49.7229 0.972413C49.5526 1.14784 49.4588 1.38369 49.4621 1.62819V3.47435H45.7698V1.62819C45.7715 1.50469 45.7484 1.38211 45.7019 1.26771C45.6553 1.1533 45.5863 1.04939 45.4989 0.962145C45.4115 0.874894 45.3074 0.806072 45.1929 0.759755C45.0784 0.713438 44.9558 0.690567 44.8323 0.692495C44.5878 0.696317 44.3548 0.796988 44.1845 0.972413C44.0141 1.14784 43.9203 1.38369 43.9237 1.62819V3.47435H40.2314V1.62819C40.2331 1.50469 40.2099 1.38211 40.1634 1.26771C40.1169 1.1533 40.0478 1.04939 39.9604 0.962145C39.873 0.874894 39.769 0.806072 39.6545 0.759755C39.54 0.713438 39.4174 0.690567 39.2939 0.692495C39.0494 0.696317 38.8164 0.796988 38.646 0.972413C38.4757 1.14784 38.3819 1.38369 38.3852 1.62819V3.47435H34.6929V1.62819C34.6946 1.50469 34.6715 1.38211 34.6249 1.26771C34.5784 1.1533 34.5094 1.04939 34.422 0.962145C34.3346 0.874894 34.2305 0.806072 34.116 0.759755C34.0015 0.713438 33.8789 0.690567 33.7554 0.692495C33.5109 0.696317 33.2779 0.796988 33.1076 0.972413C32.9372 1.14784 32.8434 1.38369 32.8467 1.62819V3.47435H29.1544V1.62819C29.1561 1.50469 29.133 1.38211 29.0865 1.26771C29.04 1.1533 28.9709 1.04939 28.8835 0.962145C28.7961 0.874894 28.6921 0.806072 28.5776 0.759755C28.4631 0.713438 28.3404 0.690567 28.2169 0.692495C27.9724 0.696317 27.7394 0.796988 27.5691 0.972413C27.3987 1.14784 27.3049 1.38369 27.3083 1.62819V3.47435H23.616V1.62819C23.6177 1.50469 23.5946 1.38211 23.548 1.26771C23.5015 1.1533 23.4325 1.04939 23.345 0.962145C23.2576 0.874894 23.1536 0.806072 23.0391 0.759755C22.9246 0.713438 22.802 0.690567 22.6785 0.692495C22.434 0.696317 22.201 0.796988 22.0306 0.972413C21.8603 1.14784 21.7665 1.38369 21.7698 1.62819V3.47435H18.0775V1.62819C18.0792 1.50469 18.0561 1.38211 18.0096 1.26771C17.963 1.1533 17.894 1.04939 17.8066 0.962145C17.7192 0.874894 17.6151 0.806072 17.5006 0.759755C17.3861 0.713438 17.2635 0.690567 17.14 0.692495C16.8955 0.696317 16.6625 0.796988 16.4922 0.972413C16.3218 1.14784 16.228 1.38369 16.2314 1.62819V3.47435H12.5391V1.62819C12.5408 1.50469 12.5176 1.38211 12.4711 1.26771C12.4246 1.1533 12.3555 1.04939 12.2681 0.962145C12.1807 0.874894 12.0767 0.806072 11.9622 0.759755C11.8477 0.713438 11.7251 0.690567 11.6016 0.692495V0.692495ZM7.0006 5.3205H10.6929V7.16665C10.6912 7.28897 10.7138 7.41041 10.7594 7.52392C10.805 7.63743 10.8727 7.74075 10.9586 7.82786C11.0445 7.91497 11.1468 7.98414 11.2597 8.03135C11.3725 8.07856 11.4937 8.10288 11.616 8.10288C11.7383 8.10288 11.8594 8.07856 11.9723 8.03135C12.0851 7.98414 12.1875 7.91497 12.2734 7.82786C12.3592 7.74075 12.427 7.63743 12.4726 7.52392C12.5182 7.41041 12.5408 7.28897 12.5391 7.16665V5.3205H16.2314V7.16665C16.2296 7.28897 16.2522 7.41041 16.2978 7.52392C16.3435 7.63743 16.4112 7.74075 16.4971 7.82786C16.583 7.91497 16.6853 7.98414 16.7981 8.03135C16.911 8.07856 17.0321 8.10288 17.1544 8.10288C17.2768 8.10288 17.3979 8.07856 17.5107 8.03135C17.6236 7.98414 17.7259 7.91497 17.8118 7.82786C17.8977 7.74075 17.9654 7.63743 18.011 7.52392C18.0567 7.41041 18.0793 7.28897 18.0775 7.16665V5.3205H21.7698V7.16665C21.7681 7.28897 21.7907 7.41041 21.8363 7.52392C21.8819 7.63743 21.9496 7.74075 22.0355 7.82786C22.1214 7.91497 22.2238 7.98414 22.3366 8.03135C22.4495 8.07856 22.5706 8.10288 22.6929 8.10288C22.8152 8.10288 22.9363 8.07856 23.0492 8.03135C23.1621 7.98414 23.2644 7.91497 23.3503 7.82786C23.4362 7.74075 23.5039 7.63743 23.5495 7.52392C23.5951 7.41041 23.6177 7.28897 23.616 7.16665V5.3205H27.3083V7.16665C27.3066 7.28897 27.3292 7.41041 27.3748 7.52392C27.4204 7.63743 27.4881 7.74075 27.574 7.82786C27.6599 7.91497 27.7622 7.98414 27.8751 8.03135C27.9879 8.07856 28.109 8.10288 28.2314 8.10288C28.3537 8.10288 28.4748 8.07856 28.5877 8.03135C28.7005 7.98414 28.8029 7.91497 28.8887 7.82786C28.9746 7.74075 29.0423 7.63743 29.088 7.52392C29.1336 7.41041 29.1562 7.28897 29.1544 7.16665V5.3205H32.8467V7.16665C32.845 7.28897 32.8676 7.41041 32.9132 7.52392C32.9588 7.63743 33.0266 7.74075 33.1124 7.82786C33.1983 7.91497 33.3007 7.98414 33.4135 8.03135C33.5264 8.07856 33.6475 8.10288 33.7698 8.10288C33.8922 8.10288 34.0133 8.07856 34.1261 8.03135C34.239 7.98414 34.3413 7.91497 34.4272 7.82786C34.5131 7.74075 34.5808 7.63743 34.6264 7.52392C34.672 7.41041 34.6946 7.28897 34.6929 7.16665V5.3205H38.3852V7.16665C38.3835 7.28897 38.4061 7.41041 38.4517 7.52392C38.4973 7.63743 38.565 7.74075 38.6509 7.82786C38.7368 7.91497 38.8391 7.98414 38.952 8.03135C39.0648 8.07856 39.186 8.10288 39.3083 8.10288C39.4306 8.10288 39.5517 8.07856 39.6646 8.03135C39.7774 7.98414 39.8798 7.91497 39.9657 7.82786C40.0515 7.74075 40.1193 7.63743 40.1649 7.52392C40.2105 7.41041 40.2331 7.28897 40.2314 7.16665V5.3205H43.9237V7.16665C43.9219 7.28897 43.9445 7.41041 43.9902 7.52392C44.0358 7.63743 44.1035 7.74075 44.1894 7.82786C44.2753 7.91497 44.3776 7.98414 44.4905 8.03135C44.6033 8.07856 44.7244 8.10288 44.8467 8.10288C44.9691 8.10288 45.0902 8.07856 45.203 8.03135C45.3159 7.98414 45.4182 7.91497 45.5041 7.82786C45.59 7.74075 45.6577 7.63743 45.7033 7.52392C45.749 7.41041 45.7716 7.28897 45.7698 7.16665V5.3205H49.4621V7.16665C49.4604 7.28897 49.483 7.41041 49.5286 7.52392C49.5742 7.63743 49.6419 7.74075 49.7278 7.82786C49.8137 7.91497 49.9161 7.98414 50.0289 8.03135C50.1418 8.07856 50.2629 8.10288 50.3852 8.10288C50.5075 8.10288 50.6286 8.07856 50.7415 8.03135C50.8544 7.98414 50.9567 7.91497 51.0426 7.82786C51.1285 7.74075 51.1962 7.63743 51.2418 7.52392C51.2874 7.41041 51.31 7.28897 51.3083 7.16665V5.3205H55.0006C57.5609 5.3205 59.616 7.37558 59.616 9.93588V17.3205H56.3852C56.324 17.3196 56.2633 17.3309 56.2066 17.3537C56.1498 17.3765 56.0982 17.4104 56.0546 17.4533C56.011 17.4963 55.9765 17.5475 55.9529 17.6039C55.9293 17.6603 55.9171 17.7209 55.9171 17.782C55.9171 17.8432 55.9293 17.9038 55.9529 17.9602C55.9765 18.0166 56.011 18.0678 56.0546 18.1107C56.0982 18.1537 56.1498 18.1875 56.2066 18.2103C56.2633 18.2331 56.324 18.2444 56.3852 18.2436H59.616V62.5513C59.616 63.0728 59.2145 63.4743 58.6929 63.4743H3.30829C2.78673 63.4743 2.38522 63.0728 2.38522 62.5513V18.2436H50.8467C50.9079 18.2444 50.9686 18.2331 51.0254 18.2103C51.0821 18.1875 51.1338 18.1537 51.1773 18.1107C51.2209 18.0678 51.2555 18.0166 51.2791 17.9602C51.3027 17.9038 51.3149 17.8432 51.3149 17.782C51.3149 17.7209 51.3027 17.6603 51.2791 17.6039C51.2555 17.5475 51.2209 17.4963 51.1773 17.4533C51.1338 17.4104 51.0821 17.3765 51.0254 17.3537C50.9686 17.3309 50.9079 17.3196 50.8467 17.3205H2.38522V9.93588C2.38522 7.37558 4.44029 5.3205 7.0006 5.3205ZM9.30829 9.01281C8.03925 9.01281 7.0006 10.0515 7.0006 11.3205C7.0006 12.5895 8.03925 13.6282 9.30829 13.6282C10.5773 13.6282 11.616 12.5895 11.616 11.3205C11.616 10.0515 10.5773 9.01281 9.30829 9.01281ZM52.6929 9.01281C51.4239 9.01281 50.3852 10.0515 50.3852 11.3205C50.3852 12.5895 51.4239 13.6282 52.6929 13.6282C53.9619 13.6282 55.0006 12.5895 55.0006 11.3205C55.0006 10.0515 53.9619 9.01281 52.6929 9.01281ZM9.30829 9.93588C10.0785 9.93588 10.6929 10.5503 10.6929 11.3205C10.6929 12.0907 10.0785 12.7051 9.30829 12.7051C8.53812 12.7051 7.92368 12.0907 7.92368 11.3205C7.92368 10.5503 8.53812 9.93588 9.30829 9.93588ZM52.6929 9.93588C53.4631 9.93588 54.0775 10.5503 54.0775 11.3205C54.0775 12.0907 53.4631 12.7051 52.6929 12.7051C51.9227 12.7051 51.3083 12.0907 51.3083 11.3205C51.3083 10.5503 51.9227 9.93588 52.6929 9.93588ZM52.6929 17.3205C52.6317 17.3196 52.571 17.3309 52.5143 17.3537C52.4575 17.3765 52.4059 17.4104 52.3623 17.4533C52.3187 17.4963 52.2842 17.5475 52.2606 17.6039C52.2369 17.6603 52.2248 17.7209 52.2248 17.782C52.2248 17.8432 52.2369 17.9038 52.2606 17.9602C52.2842 18.0166 52.3187 18.0678 52.3623 18.1107C52.4059 18.1537 52.4575 18.1875 52.5143 18.2103C52.571 18.2331 52.6317 18.2444 52.6929 18.2436H54.5391C54.6002 18.2444 54.6609 18.2331 54.7177 18.2103C54.7744 18.1875 54.8261 18.1537 54.8697 18.1107C54.9132 18.0678 54.9478 18.0166 54.9714 17.9602C54.995 17.9038 55.0072 17.8432 55.0072 17.782C55.0072 17.7209 54.995 17.6603 54.9714 17.6039C54.9478 17.5475 54.9132 17.4963 54.8697 17.4533C54.8261 17.4104 54.7744 17.3765 54.7177 17.3537C54.6609 17.3309 54.6002 17.3196 54.5391 17.3205H52.6929ZM22.2476 26.5459C22.1728 26.5438 22.0985 26.5599 22.0313 26.5929C21.9641 26.6258 21.9059 26.6747 21.8618 26.7352L16.7145 33.5987L15.2308 31.3722C15.1976 31.3207 15.1545 31.2764 15.1041 31.2417C15.0536 31.207 14.9967 31.1828 14.9368 31.1703C14.8769 31.1578 14.8151 31.1574 14.7549 31.169C14.6948 31.1807 14.6377 31.2042 14.5867 31.2381C14.5358 31.2721 14.4921 31.3158 14.4582 31.3668C14.4244 31.4178 14.401 31.4751 14.3894 31.5352C14.3779 31.5953 14.3784 31.6571 14.391 31.7171C14.4036 31.777 14.428 31.8338 14.4627 31.8842L16.3089 34.6534C16.3498 34.7149 16.4048 34.7658 16.4694 34.8016C16.534 34.8374 16.6063 34.8572 16.6801 34.8594C16.7539 34.8615 16.8272 34.8458 16.8937 34.8138C16.9603 34.7817 17.0182 34.7341 17.0625 34.6751L22.601 27.2904C22.6534 27.223 22.686 27.1423 22.6953 27.0574C22.7045 26.9724 22.6901 26.8866 22.6534 26.8094C22.6168 26.7322 22.5595 26.6667 22.4878 26.6202C22.4162 26.5737 22.333 26.5479 22.2476 26.5459ZM12.0775 27.4743C11.9551 27.4744 11.8377 27.523 11.7512 27.6095C11.6646 27.6961 11.616 27.8135 11.616 27.9359V37.1666C11.616 37.2891 11.6646 37.4064 11.7512 37.493C11.8377 37.5795 11.9551 37.6282 12.0775 37.6282H21.3083C21.4307 37.6282 21.5481 37.5795 21.6346 37.493C21.7212 37.4064 21.7698 37.2891 21.7698 37.1666V31.6282C21.7707 31.567 21.7594 31.5063 21.7366 31.4495C21.7138 31.3928 21.6799 31.3411 21.637 31.2976C21.594 31.254 21.5429 31.2194 21.4864 31.1958C21.43 31.1722 21.3695 31.1601 21.3083 31.1601C21.2471 31.1601 21.1866 31.1722 21.1301 31.1958C21.0737 31.2194 21.0225 31.254 20.9796 31.2976C20.9367 31.3411 20.9028 31.3928 20.88 31.4495C20.8572 31.5063 20.8459 31.567 20.8468 31.6282V36.7051H12.5391V28.3974H18.5391C18.6002 28.3983 18.6609 28.387 18.7177 28.3642C18.7745 28.3414 18.8261 28.3075 18.8697 28.2646C18.9132 28.2216 18.9478 28.1705 18.9714 28.114C18.995 28.0576 19.0072 27.997 19.0072 27.9359C19.0072 27.8747 18.995 27.8142 18.9714 27.7577C18.9478 27.7013 18.9132 27.6501 18.8697 27.6072C18.8261 27.5642 18.7745 27.5304 18.7177 27.5076C18.6609 27.4848 18.6002 27.4735 18.5391 27.4743H12.0775ZM25.9237 30.2436C25.8625 30.2427 25.8018 30.254 25.745 30.2768C25.6883 30.2996 25.6366 30.3335 25.5931 30.3764C25.5495 30.4194 25.5149 30.4705 25.4913 30.527C25.4677 30.5834 25.4556 30.6439 25.4556 30.7051C25.4556 30.7663 25.4677 30.8268 25.4913 30.8833C25.5149 30.9397 25.5495 30.9909 25.5931 31.0338C25.6366 31.0767 25.6883 31.1106 25.745 31.1334C25.8018 31.1562 25.8625 31.1675 25.9237 31.1666H49.9237C49.9848 31.1675 50.0455 31.1562 50.1023 31.1334C50.1591 31.1106 50.2107 31.0767 50.2543 31.0338C50.2978 30.9909 50.3324 30.9397 50.356 30.8833C50.3796 30.8268 50.3918 30.7663 50.3918 30.7051C50.3918 30.6439 50.3796 30.5834 50.356 30.527C50.3324 30.4705 50.2978 30.4194 50.2543 30.3764C50.2107 30.3335 50.1591 30.2996 50.1023 30.2768C50.0455 30.254 49.9848 30.2427 49.9237 30.2436H25.9237ZM25.9237 33.9359C25.8625 33.935 25.8018 33.9463 25.745 33.9691C25.6883 33.9919 25.6366 34.0258 25.5931 34.0687C25.5495 34.1117 25.5149 34.1628 25.4913 34.2193C25.4677 34.2757 25.4556 34.3363 25.4556 34.3974C25.4556 34.4586 25.4677 34.5191 25.4913 34.5756C25.5149 34.632 25.5495 34.6832 25.5931 34.7261C25.6366 34.769 25.6883 34.8029 25.745 34.8257C25.8018 34.8485 25.8625 34.8598 25.9237 34.859H38.8467C38.9079 34.8598 38.9686 34.8485 39.0254 34.8257C39.0821 34.8029 39.1338 34.769 39.1773 34.7261C39.2209 34.6832 39.2555 34.632 39.2791 34.5756C39.3027 34.5191 39.3149 34.4586 39.3149 34.3974C39.3149 34.3363 39.3027 34.2757 39.2791 34.2193C39.2555 34.1628 39.2209 34.1117 39.1773 34.0687C39.1338 34.0258 39.0821 33.9919 39.0254 33.9691C38.9686 33.9463 38.9079 33.935 38.8467 33.9359H25.9237ZM41.616 33.9359C41.5548 33.935 41.4941 33.9463 41.4373 33.9691C41.3806 33.9919 41.3289 34.0258 41.2854 34.0687C41.2418 34.1117 41.2072 34.1628 41.1836 34.2193C41.16 34.2757 41.1479 34.3363 41.1479 34.3974C41.1479 34.4586 41.16 34.5191 41.1836 34.5756C41.2072 34.632 41.2418 34.6832 41.2854 34.7261C41.3289 34.769 41.3806 34.8029 41.4373 34.8257C41.4941 34.8485 41.5548 34.8598 41.616 34.859H46.2314C46.2925 34.8598 46.3532 34.8485 46.41 34.8257C46.4667 34.8029 46.5184 34.769 46.562 34.7261C46.6055 34.6832 46.6401 34.632 46.6637 34.5756C46.6873 34.5191 46.6995 34.4586 46.6995 34.3974C46.6995 34.3363 46.6873 34.2757 46.6637 34.2193C46.6401 34.1628 46.6055 34.1117 46.562 34.0687C46.5184 34.0258 46.4667 33.9919 46.41 33.9691C46.3532 33.9463 46.2925 33.935 46.2314 33.9359H41.616ZM22.2476 43.1612C22.1728 43.1591 22.0985 43.1753 22.0313 43.2082C21.9641 43.2412 21.9059 43.2901 21.8618 43.3505L16.7145 50.2141L15.2308 47.9876C15.1976 47.9361 15.1545 47.8917 15.1041 47.8571C15.0536 47.8224 14.9967 47.7981 14.9368 47.7857C14.8769 47.7732 14.8151 47.7728 14.7549 47.7844C14.6948 47.7961 14.6377 47.8196 14.5867 47.8535C14.5358 47.8875 14.4921 47.9312 14.4582 47.9822C14.4244 48.0332 14.401 48.0905 14.3894 48.1506C14.3779 48.2107 14.3784 48.2725 14.391 48.3324C14.4036 48.3924 14.428 48.4492 14.4627 48.4996L16.3089 51.2688C16.3498 51.3303 16.4048 51.3811 16.4694 51.417C16.534 51.4528 16.6063 51.4726 16.6801 51.4747C16.7539 51.4769 16.8272 51.4612 16.8937 51.4292C16.9603 51.3971 17.0182 51.3495 17.0625 51.2904L22.601 43.9058C22.6534 43.8384 22.686 43.7577 22.6953 43.6727C22.7045 43.5878 22.6901 43.502 22.6534 43.4248C22.6168 43.3476 22.5595 43.2821 22.4878 43.2356C22.4162 43.189 22.333 43.1633 22.2476 43.1612V43.1612ZM12.0775 44.0897C11.9551 44.0897 11.8377 44.1384 11.7512 44.2249C11.6646 44.3115 11.616 44.4289 11.616 44.5513V53.782C11.616 53.9044 11.6646 54.0218 11.7512 54.1084C11.8377 54.1949 11.9551 54.2436 12.0775 54.2436H21.3083C21.4307 54.2436 21.5481 54.1949 21.6346 54.1084C21.7212 54.0218 21.7698 53.9044 21.7698 53.782V48.2436C21.7707 48.1824 21.7594 48.1217 21.7366 48.0649C21.7138 48.0082 21.6799 47.9565 21.637 47.913C21.594 47.8694 21.5429 47.8348 21.4864 47.8112C21.43 47.7876 21.3695 47.7755 21.3083 47.7755C21.2471 47.7755 21.1866 47.7876 21.1301 47.8112C21.0737 47.8348 21.0225 47.8694 20.9796 47.913C20.9367 47.9565 20.9028 48.0082 20.88 48.0649C20.8572 48.1217 20.8459 48.1824 20.8468 48.2436V53.3205H12.5391V45.0128H18.5391C18.6002 45.0137 18.6609 45.0024 18.7177 44.9796C18.7745 44.9568 18.8261 44.9229 18.8697 44.8799C18.9132 44.837 18.9478 44.7858 18.9714 44.7294C18.995 44.673 19.0072 44.6124 19.0072 44.5513C19.0072 44.4901 18.995 44.4295 18.9714 44.3731C18.9478 44.3167 18.9132 44.2655 18.8697 44.2226C18.8261 44.1796 18.7745 44.1458 18.7177 44.123C18.6609 44.1002 18.6002 44.0889 18.5391 44.0897H12.0775ZM25.9237 46.859C25.8625 46.8581 25.8018 46.8694 25.745 46.8922C25.6883 46.915 25.6366 46.9489 25.5931 46.9918C25.5495 47.0347 25.5149 47.0859 25.4913 47.1423C25.4677 47.1988 25.4556 47.2593 25.4556 47.3205C25.4556 47.3817 25.4677 47.4422 25.4913 47.4986C25.5149 47.5551 25.5495 47.6062 25.5931 47.6492C25.6366 47.6921 25.6883 47.726 25.745 47.7488C25.8018 47.7716 25.8625 47.7829 25.9237 47.782H49.9237C49.9848 47.7829 50.0455 47.7716 50.1023 47.7488C50.1591 47.726 50.2107 47.6921 50.2543 47.6492C50.2978 47.6062 50.3324 47.5551 50.356 47.4986C50.3796 47.4422 50.3918 47.3817 50.3918 47.3205C50.3918 47.2593 50.3796 47.1988 50.356 47.1423C50.3324 47.0859 50.2978 47.0347 50.2543 46.9918C50.2107 46.9489 50.1591 46.915 50.1023 46.8922C50.0455 46.8694 49.9848 46.8581 49.9237 46.859H25.9237ZM25.9237 50.5513C25.8625 50.5504 25.8018 50.5617 25.745 50.5845C25.6883 50.6073 25.6366 50.6412 25.5931 50.6841C25.5495 50.7271 25.5149 50.7782 25.4913 50.8347C25.4677 50.8911 25.4556 50.9516 25.4556 51.0128C25.4556 51.074 25.4677 51.1345 25.4913 51.1909C25.5149 51.2474 25.5495 51.2985 25.5931 51.3415C25.6366 51.3844 25.6883 51.4183 25.745 51.4411C25.8018 51.4639 25.8625 51.4752 25.9237 51.4743H38.8467C38.9079 51.4752 38.9686 51.4639 39.0254 51.4411C39.0821 51.4183 39.1338 51.3844 39.1773 51.3415C39.2209 51.2985 39.2555 51.2474 39.2791 51.1909C39.3027 51.1345 39.3149 51.074 39.3149 51.0128C39.3149 50.9516 39.3027 50.8911 39.2791 50.8347C39.2555 50.7782 39.2209 50.7271 39.1773 50.6841C39.1338 50.6412 39.0821 50.6073 39.0254 50.5845C38.9686 50.5617 38.9079 50.5504 38.8467 50.5513H25.9237ZM41.616 50.5513C41.5548 50.5504 41.4941 50.5617 41.4373 50.5845C41.3806 50.6073 41.3289 50.6412 41.2854 50.6841C41.2418 50.7271 41.2072 50.7782 41.1836 50.8347C41.16 50.8911 41.1479 50.9516 41.1479 51.0128C41.1479 51.074 41.16 51.1345 41.1836 51.1909C41.2072 51.2474 41.2418 51.2985 41.2854 51.3415C41.3289 51.3844 41.3806 51.4183 41.4373 51.4411C41.4941 51.4639 41.5548 51.4752 41.616 51.4743H46.2314C46.2925 51.4752 46.3532 51.4639 46.41 51.4411C46.4667 51.4183 46.5184 51.3844 46.562 51.3415C46.6055 51.2985 46.6401 51.2474 46.6637 51.1909C46.6873 51.1345 46.6995 51.074 46.6995 51.0128C46.6995 50.9516 46.6873 50.8911 46.6637 50.8347C46.6401 50.7782 46.6055 50.7271 46.562 50.6841C46.5184 50.6412 46.4667 50.6073 46.41 50.5845C46.3532 50.5617 46.2925 50.5504 46.2314 50.5513H41.616Z" fill="#F2994A" stroke="#F2994A"/>
</svg>
