<svg width="74" height="74" viewBox="0 0 74 74" fill="none" xmlns="http://www.w3.org/2000/svg">
<path d="M45.1686 1.00237C44.3203 0.959947 43.5104 1.48976 43.2342 2.32024C42.1511 5.45592 40.3526 6.93495 37.5228 7.14819C35.7705 7.27529 34.421 6.94134 33.315 6.17286C32.2091 5.40439 31.3074 4.15671 30.6252 2.30401C30.6252 2.30281 30.6252 2.30161 30.6252 2.3004C30.2792 1.37206 29.2663 0.849238 28.3086 1.10153C24.4902 2.01936 20.8449 3.54558 17.5133 5.62481C17.5121 5.62541 17.5109 5.62601 17.5097 5.62661C16.675 6.15187 16.3673 7.24323 16.8048 8.12712C17.5698 9.75423 17.8313 11.1688 17.6665 12.4269C17.5012 13.6892 16.9169 14.8379 15.8096 15.964C15.809 15.9646 15.8084 15.9652 15.8078 15.9658C14.69 17.1072 13.5456 17.7146 12.2815 17.8984C11.0218 18.0816 9.59635 17.8342 7.94393 17.0781C7.04892 16.6475 5.95288 16.9766 5.44162 17.8281C3.40674 21.1869 1.92608 24.8518 1.05535 28.6811C0.820807 29.6355 1.35122 30.6305 2.27586 30.9653C5.58979 32.1719 6.98874 34.0017 7.06416 37.0642C7.0963 38.6709 6.73198 39.9214 5.98066 40.9601C5.22872 41.9997 4.05268 42.8538 2.34978 43.5147C2.34857 43.5153 2.34737 43.5159 2.34617 43.5165C1.44272 43.8715 0.930161 44.8531 1.15631 45.7971C1.15691 45.7989 1.15751 45.8007 1.15811 45.8025C2.08532 49.6005 3.61723 53.2236 5.69581 56.5347L5.69762 56.5365C6.19218 57.3699 7.25245 57.7065 8.13683 57.3099C11.3531 55.8745 13.6303 56.2198 15.8223 58.3465C18.0766 60.5445 18.4584 62.8429 17.0428 66.1077C17.0416 66.1107 17.0404 66.1137 17.0392 66.1167C16.6701 66.9961 16.9914 68.0289 17.7945 68.5433C17.8005 68.5469 17.8065 68.5505 17.8126 68.5541C21.1508 70.5892 24.7946 72.0717 28.6043 72.9494C28.7574 72.99 28.9148 73.0059 29.073 72.998C29.8165 72.9691 30.4867 72.5387 30.8253 71.8767C30.8949 71.7565 30.9588 71.6326 31.0056 71.5017C31.0075 71.4969 31.0093 71.4921 31.011 71.4873C31.8778 68.9262 34.2379 67.1804 36.9405 67.101C36.9743 67.0999 37.008 67.0969 37.0415 67.092C39.7739 67.0725 42.2163 68.7666 43.1548 71.334L43.1458 71.3052C43.5574 72.5564 44.945 73.2335 46.1854 72.7925C49.614 71.9134 52.8985 70.5506 55.9368 68.7344C55.9496 68.7269 55.9623 68.719 55.9747 68.7109C56.101 68.627 56.2108 68.5557 56.2668 68.5252C56.3011 68.5063 56.3342 68.4853 56.3659 68.4621L56.4506 68.4008C57.2296 67.8819 57.5347 66.8676 57.1718 66.0049C57.1694 65.9995 57.167 65.9941 57.1646 65.9887C55.8461 63.017 56.0766 60.8507 57.8839 58.7666C57.8863 58.7642 57.8887 58.7618 57.8911 58.7594C59.0065 57.4481 60.1703 56.7315 61.4733 56.4734C62.7763 56.2153 64.2721 56.421 66.0362 57.1747C66.0422 57.1771 66.0482 57.1795 66.0543 57.1819C66.9326 57.5366 67.9536 57.2059 68.4592 56.4049C68.4604 56.4031 68.4616 56.4013 68.4628 56.3995C70.5278 53.0777 72.0386 49.4431 72.9374 45.6366V45.6348C73.1781 44.6825 72.6526 43.6848 71.7314 43.3434C68.474 42.0904 67.0867 40.2636 67.0206 37.2247C66.9878 35.6272 67.3526 34.3791 68.1059 33.3396C68.8592 32.3001 70.0379 31.4423 71.7458 30.7796L71.7259 30.7868C72.5586 30.4857 73.0741 29.6361 72.9645 28.7586C72.8173 27.2599 72.0494 25.0237 71.1292 22.8003C70.206 20.5695 69.2178 18.5116 68.2663 17.4333C68.2657 17.4327 68.2651 17.4321 68.2645 17.4315C67.6923 16.787 66.7527 16.5953 65.9731 16.9628C64.3623 17.7175 62.9638 17.9676 61.7167 17.7939C60.469 17.62 59.3293 17.027 58.2066 15.9135C58.206 15.9135 58.2054 15.9135 58.2048 15.9135C57.0739 14.7969 56.4724 13.6523 56.2938 12.3836C56.1152 11.1148 56.3682 9.67722 57.1357 8.01174C57.1363 8.00994 57.1369 8.00814 57.1375 8.00633C57.5385 7.12028 57.2213 6.05579 56.4002 5.53467C56.3978 5.53285 56.3954 5.53105 56.393 5.52926C53.0425 3.4535 49.373 1.94351 45.5328 1.05646C45.4114 1.02625 45.2898 1.00843 45.1686 1.00237ZM45.0875 2.84666C45.0929 2.84791 45.0983 2.84911 45.1037 2.85026C48.7496 3.69078 52.2312 5.12607 55.4122 7.09591C55.467 7.13165 55.4827 7.18546 55.4555 7.24554C54.5853 9.13658 54.2268 10.9421 54.4657 12.6396C54.7049 14.3385 55.5521 15.8859 56.9068 17.2242H56.9086V17.226C58.2509 18.5566 59.786 19.3883 61.4625 19.6219C63.1397 19.8556 64.9151 19.4966 66.7592 18.6322C66.7598 18.6322 66.7604 18.6322 66.761 18.6322C66.8063 18.6108 66.8483 18.6208 66.8818 18.6574H66.8836C67.4074 19.2518 68.537 21.3644 69.4237 23.507C70.3109 25.6506 71.0392 27.9773 71.1328 28.9551C71.1338 28.966 71.135 28.9768 71.1364 28.9876C71.1408 29.0203 71.1278 29.0394 71.0968 29.0507C71.0901 29.0536 71.0835 29.0566 71.0769 29.0597C69.1332 29.8139 67.6197 30.8645 66.6113 32.2561C65.603 33.6476 65.1353 35.3525 65.1745 37.2625C65.1745 37.2631 65.1745 37.2637 65.1745 37.2643C65.2542 40.9288 67.3566 43.6414 71.0805 45.0705C71.0841 45.0718 71.0877 45.073 71.0914 45.0741C71.1429 45.0932 71.1607 45.1291 71.1472 45.1823C71.146 45.1877 71.1448 45.1931 71.1436 45.1985C70.2916 48.8133 68.8581 52.2661 66.898 55.4205H66.8962C66.8605 55.4755 66.806 55.4939 66.7448 55.4692C64.749 54.6194 62.8626 54.3153 61.1145 54.6615C59.3624 55.0086 57.805 56.0132 56.4867 57.5623L56.4849 57.5641C54.2769 60.1157 53.9698 63.3269 55.4699 66.7206C55.494 66.7778 55.4783 66.8304 55.4266 66.8648C55.4169 66.8713 55.4073 66.8779 55.3978 66.8847L55.2968 66.9586L55.2842 66.9676C55.1776 67.0311 55.0749 67.0933 54.9904 67.1497H54.9886C52.0807 68.8878 48.9352 70.1952 45.6517 71.0294C45.6237 71.0365 45.596 71.0449 45.5688 71.0546C45.2824 71.1572 44.995 71.0173 44.9 70.7283C44.8965 70.7186 44.8929 70.709 44.8891 70.6994C43.6862 67.4088 40.5393 65.2272 37.0379 65.2477C36.956 65.2453 36.8752 65.2579 36.7945 65.2711C33.3716 65.4109 30.3736 67.6336 29.2677 70.8815C29.2572 70.911 29.2426 70.9378 29.2262 70.9645C29.212 70.9879 29.1987 71.012 29.1866 71.0366C29.1526 71.1047 29.0864 71.1412 29.0117 71.1483C25.4033 70.316 21.9508 68.9118 18.7879 66.9856C18.7334 66.9486 18.7151 66.8923 18.741 66.8306C20.3526 63.1048 19.8055 59.6501 17.1113 57.0232C17.1107 57.0232 17.1101 57.0232 17.1095 57.0232C14.4742 54.4654 11.0579 53.9843 7.38325 55.6243C7.38265 55.6249 7.38205 55.6255 7.38145 55.6261C7.33935 55.645 7.3094 55.6351 7.2859 55.5954C7.2812 55.5881 7.27639 55.5809 7.27148 55.5738C5.29235 52.4259 3.83412 48.9802 2.95192 45.368V45.3662C2.93799 45.3049 2.96329 45.2578 3.02223 45.2346C4.95881 44.4824 6.46874 43.4333 7.4752 42.0418C8.48236 40.6494 8.94941 38.942 8.91024 37.0227C8.91025 37.0209 8.91025 37.0191 8.91024 37.0173C8.81951 33.3324 6.69113 30.6088 2.90685 29.2309C2.90625 29.2303 2.90565 29.2297 2.90505 29.2291C2.85322 29.2104 2.83405 29.1745 2.84736 29.121C2.84862 29.115 2.84982 29.109 2.85096 29.1029C3.6777 25.461 5.08543 21.9757 7.02089 18.7818C7.02209 18.7806 7.02329 18.7794 7.02449 18.7782C7.05322 18.7303 7.0932 18.7179 7.14348 18.7421C7.14827 18.7446 7.15307 18.747 7.1579 18.7493C9.0472 19.6171 10.8516 19.9732 12.5483 19.7265C14.2451 19.4797 15.7882 18.6222 17.1257 17.2566C18.4528 15.9065 19.275 14.3571 19.4964 12.6666C19.7178 10.9757 19.3462 9.18623 18.467 7.32306C18.4646 7.31824 18.4622 7.31343 18.4598 7.30864C18.4353 7.25917 18.4473 7.21905 18.494 7.18966C21.6613 5.2135 25.1272 3.76057 28.7575 2.88993C28.7647 2.88821 28.7719 2.88641 28.7791 2.88452C28.8351 2.86967 28.8743 2.88978 28.8945 2.94401C29.667 5.04075 30.7717 6.65336 32.2622 7.68904C33.7532 8.72512 35.5908 9.13868 37.6562 8.98887C37.6574 8.98887 37.6586 8.98887 37.6598 8.98887C41.1396 8.72738 43.7342 6.53601 44.9829 2.91156C44.9841 2.90856 44.9853 2.90556 44.9865 2.90255C45.0032 2.85235 45.0361 2.83388 45.0875 2.84666ZM37.0649 12.27C36.3174 12.2661 35.5735 12.2968 34.8348 12.3601C25.9703 13.1205 17.8954 18.6472 14.1961 27.246C9.26383 38.7109 13.6485 52.0611 24.4145 58.379C35.1805 64.6968 48.9732 62.0132 56.5768 52.116C64.1806 42.2185 63.2235 28.1959 54.3431 19.4218C54.3004 19.3778 54.2492 19.3428 54.1927 19.3188C54.1363 19.2948 54.0756 19.2823 54.0142 19.282C53.9528 19.2817 53.892 19.2937 53.8353 19.3172C53.7786 19.3408 53.7272 19.3754 53.684 19.419C53.6409 19.4626 53.6069 19.5144 53.584 19.5714C53.5611 19.6283 53.5498 19.6893 53.5507 19.7506C53.5516 19.812 53.5648 19.8726 53.5894 19.9288C53.6141 19.985 53.6497 20.0357 53.6941 20.078C62.2485 28.53 63.1694 42.0195 55.8449 51.5535C48.5205 61.0872 35.2526 63.6682 24.8814 57.5821C14.5103 51.496 10.2941 38.6558 15.0452 27.612C19.7965 16.568 32.0225 10.7915 43.5731 14.1377C43.6324 14.1588 43.6954 14.1676 43.7582 14.1634C43.821 14.1593 43.8824 14.1423 43.9384 14.1136C43.9944 14.0849 44.044 14.045 44.084 13.9964C44.124 13.9478 44.1537 13.8916 44.1712 13.8311C44.1887 13.7706 44.1936 13.7072 44.1857 13.6447C44.1778 13.5823 44.1571 13.5221 44.1251 13.4679C44.0931 13.4137 44.0503 13.3667 43.9994 13.3296C43.9485 13.2926 43.8905 13.2664 43.8291 13.2525C41.5808 12.6012 39.3075 12.2818 37.0649 12.27ZM50.9304 16.6959C50.9148 16.6957 50.8991 16.6963 50.8835 16.6977C50.7879 16.7045 50.6967 16.7409 50.6227 16.8019C50.5487 16.8628 50.4955 16.9453 50.4705 17.0379C50.4456 17.1305 50.45 17.2285 50.4833 17.3185C50.5166 17.4084 50.5771 17.4857 50.6564 17.5397C51.0011 17.7824 51.3394 18.0337 51.6696 18.2932C51.7173 18.3306 51.7719 18.3583 51.8303 18.3746C51.8887 18.3909 51.9497 18.3955 52.0099 18.3883C52.07 18.381 52.1282 18.3619 52.181 18.3322C52.2338 18.3024 52.2803 18.2625 52.3177 18.2148C52.3551 18.1671 52.3827 18.1125 52.399 18.0541C52.4154 17.9957 52.42 17.9347 52.4127 17.8745C52.4054 17.8143 52.3864 17.7562 52.3566 17.7034C52.3268 17.6505 52.287 17.6041 52.2393 17.5667C51.8962 17.2971 51.5462 17.0363 51.1882 16.7843C51.1131 16.7295 51.0233 16.6988 50.9304 16.6959ZM35.4928 19.5119C34.6496 19.5127 33.9647 20.2271 34.0001 21.0696L34.943 42.7413C34.943 42.7419 34.943 42.7425 34.943 42.7431C34.9813 43.5344 35.6435 44.1639 36.4357 44.1637H37.5535C38.3481 44.1638 39.0114 43.5298 39.0462 42.7359C39.0462 42.7347 39.0462 42.7335 39.0462 42.7323L39.2896 35.9483C39.2941 35.8259 39.2498 35.7067 39.1665 35.617C39.0831 35.5272 38.9676 35.4743 38.8452 35.4697C38.7228 35.4652 38.6036 35.5095 38.5139 35.5928C38.4241 35.6761 38.3711 35.7916 38.3665 35.914L38.1232 42.6962C38.1096 43.006 37.8636 43.2407 37.5535 43.2407H36.4357C36.1266 43.2408 35.881 43.0068 35.866 42.698L34.9232 21.0299C34.9093 20.6992 35.1619 20.4353 35.4928 20.435H38.4963C38.827 20.435 39.0805 20.6996 39.066 21.0299L38.774 27.731C38.7688 27.8534 38.8124 27.9728 38.8952 28.063C38.978 28.1533 39.0933 28.2069 39.2157 28.2122C39.338 28.2174 39.4575 28.1739 39.5478 28.0911C39.638 28.0083 39.6917 27.893 39.697 27.7707L39.9873 21.0696C40.0243 20.2266 39.3401 19.5119 38.4963 19.5119H35.4928ZM39.1165 30.3253C39.1009 30.3251 39.0852 30.3257 39.0696 30.3271C38.9557 30.3355 38.849 30.3859 38.7701 30.4685C38.6911 30.5511 38.6456 30.66 38.6424 30.7742L38.5504 32.8871C38.5448 32.9493 38.5518 33.012 38.5711 33.0714C38.5904 33.1308 38.6216 33.1857 38.6627 33.2327C38.7038 33.2797 38.754 33.3179 38.8103 33.3449C38.8666 33.3719 38.9279 33.3873 38.9903 33.3899C39.0527 33.3926 39.115 33.3826 39.1734 33.3605C39.2318 33.3384 39.2851 33.3047 39.3301 33.2614C39.3751 33.2181 39.4109 33.1661 39.4352 33.1086C39.4596 33.0511 39.472 32.9892 39.4717 32.9267L39.5636 30.8138C39.5673 30.7522 39.5585 30.6904 39.5378 30.6322C39.5172 30.574 39.485 30.5206 39.4434 30.475C39.4017 30.4295 39.3513 30.3927 39.2951 30.367C39.239 30.3413 39.1782 30.3271 39.1165 30.3253V30.3253ZM36.9946 48.3985C36.0196 48.3985 35.2302 48.7807 34.7158 49.3594C34.2014 49.9382 33.9532 50.6926 33.9532 51.4399C33.9532 52.1872 34.2014 52.9398 34.7158 53.5186C35.2302 54.0973 36.0196 54.4795 36.9946 54.4795C37.9696 54.4795 38.7589 54.0973 39.2734 53.5186C39.7878 52.9398 40.036 52.1872 40.036 51.4399C40.036 50.6926 39.7878 49.9382 39.2734 49.3594C38.7589 48.7807 37.9696 48.3985 36.9946 48.3985ZM36.9946 49.3216C37.7389 49.3216 38.2394 49.584 38.5847 49.9724C38.9299 50.3608 39.1129 50.8977 39.1129 51.4399C39.1129 51.9821 38.9299 52.5172 38.5847 52.9056C38.2394 53.294 37.7389 53.5564 36.9946 53.5564C36.2503 53.5564 35.7498 53.294 35.4045 52.9056C35.0593 52.5172 34.8763 51.9821 34.8763 51.4399C34.8763 50.8977 35.0593 50.3608 35.4045 49.9724C35.7498 49.584 36.2503 49.3216 36.9946 49.3216Z" fill="#F2994A" stroke="#F2994A"/>
</svg>
