<svg width="67" height="76" viewBox="0 0 67 76" fill="none" xmlns="http://www.w3.org/2000/svg">
<path d="M33.5709 1.07715C30.1835 1.07715 27.4171 3.84353 27.4171 7.23099C27.4171 10.4586 29.9304 13.1165 33.0976 13.3608V16.6984C33.0967 16.7612 33.1083 16.8235 33.1316 16.8817C33.155 16.9399 33.1898 16.9929 33.2338 17.0375C33.2779 17.0822 33.3303 17.1177 33.3882 17.1419C33.4461 17.1661 33.5082 17.1786 33.5709 17.1786C33.6337 17.1786 33.6958 17.1661 33.7536 17.1419C33.8115 17.1177 33.864 17.0822 33.908 17.0375C33.9521 16.9929 33.9868 16.9399 34.0102 16.8817C34.0336 16.8235 34.0452 16.7612 34.0443 16.6984V13.3608C37.2115 13.1165 39.7248 10.4586 39.7248 7.23099C39.7248 3.84353 36.9584 1.07715 33.5709 1.07715ZM33.5709 2.97064C35.9351 2.97064 37.8313 4.86685 37.8313 7.23099C37.8313 9.59514 35.9351 11.4913 33.5709 11.4913C31.2068 11.4913 29.3106 9.59514 29.3106 7.23099C29.3106 4.86685 31.2068 2.97064 33.5709 2.97064ZM6.92338 16.4618C3.53591 16.4618 0.769531 19.2281 0.769531 22.6156C0.769531 26.0031 3.53591 28.7695 6.92338 28.7695C9.02307 28.7695 10.8821 27.7049 11.9936 26.0901L14.8857 27.7598C14.9945 27.8226 15.1239 27.8396 15.2452 27.807C15.3666 27.7744 15.4701 27.6949 15.5328 27.586C15.5956 27.4771 15.6126 27.3478 15.58 27.2264C15.5474 27.1051 15.4679 27.0016 15.359 26.9388L12.4652 25.2672C12.8527 24.4625 13.0772 23.5653 13.0772 22.6156C13.0772 19.2281 10.3108 16.4618 6.92338 16.4618ZM60.2185 16.4618C56.831 16.4618 54.0646 19.2281 54.0646 22.6156C54.0646 23.5653 54.2891 24.4625 54.6767 25.2672L51.7828 26.9388C51.7289 26.9699 51.6817 27.0113 51.6438 27.0607C51.6058 27.11 51.578 27.1663 51.5619 27.2264C51.5457 27.2865 51.5416 27.3492 51.5497 27.4109C51.5578 27.4726 51.5779 27.5321 51.609 27.586C51.6401 27.6399 51.6815 27.6872 51.7308 27.7251C51.7802 27.763 51.8365 27.7908 51.8966 27.807C51.9567 27.8231 52.0194 27.8273 52.0811 27.8192C52.1428 27.8111 52.2023 27.7909 52.2562 27.7598L55.1482 26.0901C56.2598 27.7049 58.1188 28.7695 60.2185 28.7695C63.6059 28.7695 66.3723 26.0031 66.3723 22.6156C66.3723 19.2281 63.6059 16.4618 60.2185 16.4618ZM33.5635 18.1112C33.5014 18.1121 33.44 18.1253 33.3829 18.15C33.3259 18.1747 33.2742 18.2104 33.231 18.255C33.1877 18.2997 33.1536 18.3524 33.1308 18.4102C33.1079 18.468 33.0966 18.5298 33.0976 18.5919V19.5387C33.0967 19.6014 33.1083 19.6637 33.1316 19.7219C33.155 19.7801 33.1898 19.8331 33.2338 19.8778C33.2779 19.9224 33.3303 19.9579 33.3882 19.9821C33.4461 20.0063 33.5082 20.0188 33.5709 20.0188C33.6337 20.0188 33.6958 20.0063 33.7536 19.9821C33.8115 19.9579 33.864 19.9224 33.908 19.8778C33.9521 19.8331 33.9868 19.7801 34.0102 19.7219C34.0336 19.6637 34.0452 19.6014 34.0443 19.5387V18.5919C34.0453 18.5285 34.0335 18.4656 34.0097 18.4068C33.9859 18.348 33.9505 18.2946 33.9057 18.2498C33.8609 18.2049 33.8075 18.1696 33.7487 18.1457C33.6899 18.1219 33.6269 18.1102 33.5635 18.1112V18.1112ZM6.92338 18.3553C9.28752 18.3553 11.1837 20.2515 11.1837 22.6156C11.1837 24.9798 9.28752 26.876 6.92338 26.876C4.55923 26.876 2.66302 24.9798 2.66302 22.6156C2.66302 20.2515 4.55923 18.3553 6.92338 18.3553ZM60.2185 18.3553C62.5826 18.3553 64.4788 20.2515 64.4788 22.6156C64.4788 24.9798 62.5826 26.876 60.2185 26.876C57.8543 26.876 55.9581 24.9798 55.9581 22.6156C55.9581 20.2515 57.8543 18.3553 60.2185 18.3553ZM33.5709 22.8523C29.1377 22.8523 25.5236 26.4664 25.5236 30.8996C25.5236 33.2966 26.5853 35.4478 28.2566 36.924C23.3836 39.4778 20.0474 45.3469 19.8431 52.1737C19.8394 52.298 19.8603 52.4219 19.9045 52.5382C19.9487 52.6544 20.0154 52.7609 20.1007 52.8514C20.1861 52.9419 20.2884 53.0147 20.4019 53.0657C20.5154 53.1166 20.6378 53.1448 20.7621 53.1484C20.8865 53.152 21.0103 53.1312 21.1266 53.0869C21.2429 53.0427 21.3493 52.976 21.4398 52.8906C21.5303 52.8053 21.6031 52.7029 21.654 52.5894C21.7049 52.4759 21.733 52.3535 21.7366 52.2291C21.9377 45.5081 25.4943 39.9926 30.1075 38.1518C31.1586 38.6566 32.3304 38.947 33.5709 38.947C34.8115 38.947 35.9833 38.6566 37.0343 38.1518C41.6473 39.9918 45.2042 45.5081 45.4052 52.2291C45.4089 52.3535 45.4369 52.4759 45.4879 52.5894C45.5388 52.7029 45.6116 52.8053 45.7021 52.8906C45.7926 52.976 45.899 53.0427 46.0153 53.0869C46.1315 53.1312 46.2554 53.152 46.3797 53.1484C46.5041 53.1448 46.6265 53.1166 46.74 53.0657C46.8535 53.0147 46.9558 52.9419 47.0411 52.8514C47.1265 52.7609 47.1932 52.6544 47.2374 52.5382C47.2816 52.4219 47.3024 52.298 47.2987 52.1737C47.0945 45.3468 43.7586 39.4753 38.8853 36.9222C40.556 35.4459 41.6183 33.2961 41.6183 30.8996C41.6183 26.4664 38.0041 22.8523 33.5709 22.8523ZM33.5709 24.7458C36.9808 24.7458 39.7248 27.4897 39.7248 30.8996C39.7248 33.1772 38.4973 35.1535 36.6682 36.2177C36.667 36.2184 36.6657 36.2188 36.6645 36.2195C36.5712 36.2537 36.4838 36.3024 36.4056 36.3638C35.5577 36.8028 34.5954 37.0535 33.5709 37.0535C32.5426 37.0535 31.5772 36.8003 30.727 36.3582C30.6543 36.3025 30.574 36.2577 30.4885 36.2251C28.6515 35.1629 27.4171 33.1831 27.4171 30.8996C27.4171 27.4897 30.161 24.7458 33.5709 24.7458ZM16.7255 27.819C16.623 27.8251 16.5253 27.8644 16.447 27.9309C16.3688 27.9974 16.3143 28.0875 16.2918 28.1877C16.2692 28.2878 16.2799 28.3926 16.3221 28.4862C16.3643 28.5798 16.4358 28.6572 16.5258 28.7066L17.3468 29.18C17.4007 29.211 17.4602 29.2312 17.5219 29.2393C17.5836 29.2474 17.6463 29.2432 17.7064 29.2271C17.7665 29.2109 17.8228 29.1831 17.8722 29.1452C17.9215 29.1073 17.9629 29.06 17.994 29.0061C18.0251 28.9522 18.0452 28.8927 18.0533 28.831C18.0614 28.7693 18.0573 28.7066 18.0411 28.6465C18.025 28.5864 17.9972 28.5301 17.9593 28.4808C17.9214 28.4314 17.8741 28.39 17.8202 28.359L16.9992 27.8856C16.9308 27.8448 16.8532 27.8219 16.7736 27.819C16.7576 27.8182 16.7415 27.8182 16.7255 27.819ZM50.3535 27.819C50.2789 27.8243 50.2067 27.8471 50.1427 27.8856L49.3217 28.359C49.2678 28.39 49.2205 28.4314 49.1826 28.4808C49.1447 28.5301 49.1169 28.5864 49.1007 28.6465C49.0846 28.7066 49.0804 28.7693 49.0885 28.831C49.0966 28.8927 49.1168 28.9522 49.1478 29.0061C49.1789 29.06 49.2203 29.1073 49.2697 29.1452C49.319 29.1831 49.3753 29.2109 49.4354 29.2271C49.4955 29.2432 49.5582 29.2474 49.6199 29.2393C49.6816 29.2312 49.7411 29.211 49.795 29.18L50.616 28.7066C50.7068 28.6564 50.7786 28.5778 50.8204 28.4828C50.8622 28.3879 50.8716 28.2818 50.8473 28.181C50.8229 28.0802 50.7661 27.9901 50.6855 27.9247C50.605 27.8593 50.5052 27.8222 50.4015 27.819C50.3855 27.8182 50.3695 27.8182 50.3535 27.819ZM17.5558 46.7539C17.4819 46.7594 17.4103 46.7822 17.3468 46.8205L16.5258 47.2939C16.4719 47.3249 16.4246 47.3663 16.3867 47.4157C16.3488 47.465 16.321 47.5214 16.3049 47.5815C16.2887 47.6416 16.2846 47.7042 16.2927 47.7659C16.3008 47.8276 16.3209 47.8871 16.352 47.941C16.3831 47.995 16.4245 48.0422 16.4738 48.0801C16.5232 48.118 16.5795 48.1459 16.6396 48.162C16.6997 48.1781 16.7624 48.1823 16.8241 48.1742C16.8858 48.1661 16.9453 48.1459 16.9992 48.1149L17.8202 47.6415C17.9111 47.5912 17.983 47.5125 18.0247 47.4173C18.0664 47.3222 18.0757 47.216 18.0511 47.1151C18.0265 47.0141 17.9694 46.9241 17.8886 46.8588C17.8077 46.7936 17.7077 46.7567 17.6038 46.7539C17.5878 46.7531 17.5718 46.7531 17.5558 46.7539V46.7539ZM49.5232 46.7539C49.4206 46.7597 49.3226 46.7987 49.2441 46.865C49.1656 46.9314 49.1108 47.0215 49.088 47.1218C49.0652 47.222 49.0757 47.327 49.1179 47.4207C49.16 47.5145 49.2316 47.592 49.3217 47.6415L50.1427 48.1149C50.1966 48.1459 50.2561 48.1661 50.3178 48.1742C50.3795 48.1823 50.4422 48.1781 50.5023 48.162C50.5624 48.1459 50.6187 48.118 50.668 48.0801C50.7174 48.0422 50.7588 47.995 50.7899 47.941C50.8209 47.8871 50.8411 47.8276 50.8492 47.7659C50.8573 47.7042 50.8531 47.6416 50.837 47.5815C50.8208 47.5214 50.793 47.465 50.7551 47.4157C50.7172 47.3663 50.6699 47.3249 50.616 47.2939L49.795 46.8205C49.7272 46.78 49.6503 46.7571 49.5713 46.7539C49.5553 46.7531 49.5392 46.7531 49.5232 46.7539V46.7539ZM6.92338 47.231C3.53591 47.231 0.769531 49.9974 0.769531 53.3848C0.769531 56.7723 3.53591 59.5387 6.92338 59.5387C10.3108 59.5387 13.0772 56.7723 13.0772 53.3848C13.0772 52.4352 12.8527 51.538 12.4652 50.7332L15.359 49.0616C15.4498 49.0114 15.5216 48.9328 15.5634 48.8379C15.6052 48.7429 15.6146 48.6369 15.5902 48.536C15.5659 48.4352 15.5091 48.3451 15.4285 48.2797C15.348 48.2143 15.2482 48.1772 15.1445 48.174C15.1285 48.1732 15.1125 48.1732 15.0965 48.174C15.0219 48.1793 14.9497 48.2021 14.8857 48.2406L11.9936 49.9104C10.8821 48.2955 9.02307 47.231 6.92338 47.231ZM60.2185 47.231C58.1188 47.231 56.2598 48.2955 55.1482 49.9104L52.2562 48.2406C52.1878 48.1998 52.1102 48.1769 52.0306 48.174C52.0146 48.1732 51.9985 48.1732 51.9825 48.174C51.88 48.1801 51.7823 48.2194 51.7041 48.2859C51.6258 48.3524 51.5713 48.4425 51.5488 48.5427C51.5263 48.6429 51.5369 48.7477 51.5791 48.8413C51.6213 48.9349 51.6928 49.0122 51.7828 49.0616L54.6767 50.7332C54.2891 51.538 54.0646 52.4352 54.0646 53.3848C54.0646 56.7723 56.831 59.5387 60.2185 59.5387C63.6059 59.5387 66.3723 56.7723 66.3723 53.3848C66.3723 49.9974 63.6059 47.231 60.2185 47.231ZM6.92338 49.1245C9.28752 49.1245 11.1837 51.0207 11.1837 53.3848C11.1837 55.749 9.28752 57.6452 6.92338 57.6452C4.55923 57.6452 2.66302 55.749 2.66302 53.3848C2.66302 51.0207 4.55923 49.1245 6.92338 49.1245ZM60.2185 49.1245C62.5826 49.1245 64.4788 51.0207 64.4788 53.3848C64.4788 55.749 62.5826 57.6452 60.2185 57.6452C57.8543 57.6452 55.9581 55.749 55.9581 53.3848C55.9581 51.0207 57.8543 49.1245 60.2185 49.1245ZM33.5635 55.981C33.5014 55.982 33.44 55.9952 33.3829 56.0198C33.3259 56.0445 33.2742 56.0802 33.231 56.1249C33.1877 56.1695 33.1536 56.2222 33.1308 56.28C33.1079 56.3378 33.0966 56.3996 33.0976 56.4618V57.4085C33.0967 57.4712 33.1083 57.5335 33.1316 57.5917C33.155 57.6499 33.1898 57.7029 33.2338 57.7476C33.2779 57.7923 33.3303 57.8277 33.3882 57.8519C33.4461 57.8761 33.5082 57.8886 33.5709 57.8886C33.6337 57.8886 33.6958 57.8761 33.7536 57.8519C33.8115 57.8277 33.864 57.7923 33.908 57.7476C33.9521 57.7029 33.9868 57.6499 34.0102 57.5917C34.0336 57.5335 34.0452 57.4712 34.0443 57.4085V56.4618C34.0453 56.3983 34.0335 56.3354 34.0097 56.2766C33.9859 56.2178 33.9505 56.1644 33.9057 56.1196C33.8609 56.0747 33.8075 56.0394 33.7487 56.0156C33.6899 55.9918 33.6269 55.98 33.5635 55.981V55.981ZM33.5635 58.8212C33.5014 58.8222 33.44 58.8354 33.3829 58.8601C33.3259 58.8848 33.2742 58.9205 33.231 58.9651C33.1877 59.0097 33.1536 59.0625 33.1308 59.1203C33.1079 59.1781 33.0966 59.2398 33.0976 59.302V62.6396C29.9304 62.8839 27.4171 65.5419 27.4171 68.7694C27.4171 72.1569 30.1835 74.9233 33.5709 74.9233C36.9584 74.9233 39.7248 72.1569 39.7248 68.7694C39.7248 65.5419 37.2115 62.8839 34.0443 62.6396V59.302C34.0453 59.2386 34.0335 59.1756 34.0097 59.1168C33.9859 59.0581 33.9505 59.0047 33.9057 58.9598C33.8609 58.915 33.8075 58.8796 33.7487 58.8558C33.6899 58.832 33.6269 58.8202 33.5635 58.8212V58.8212ZM33.5709 64.5091C35.9351 64.5091 37.8313 66.4053 37.8313 68.7694C37.8313 71.1336 35.9351 73.0298 33.5709 73.0298C31.2068 73.0298 29.3106 71.1336 29.3106 68.7694C29.3106 66.4053 31.2068 64.5091 33.5709 64.5091Z" fill="#F2994A" stroke="#F2994A"/>
</svg>
