<svg width="74" height="74" viewBox="0 0 74 74" fill="none" xmlns="http://www.w3.org/2000/svg">
<path d="M37.0074 1C36.7445 1 36.4818 1.09893 36.3023 1.29981L29.5287 8.86181L19.7606 5.80999C19.5086 5.7304 19.2358 5.76156 19.0056 5.89328C18.7753 6.02499 18.6118 6.24812 18.554 6.50586L16.3498 16.335L6.52067 18.5373C6.26293 18.5951 6.04259 18.7587 5.90993 18.987C5.77727 19.2154 5.74525 19.4901 5.82295 19.7421L8.8322 29.5139L1.31277 36.2893C1.11283 36.4684 1 36.7244 1 36.9926C1 37.2608 1.11378 37.5177 1.31277 37.6977L8.8322 44.4732L5.82295 54.2431C5.74525 54.4951 5.77542 54.7698 5.90808 54.9981C6.04074 55.2275 6.26293 55.3901 6.52067 55.4479L16.3498 57.6502L18.5521 67.4793C18.6099 67.7371 18.7744 67.9593 19.0037 68.0919C19.233 68.2255 19.5076 68.2557 19.7606 68.1752L29.5268 65.1234L36.3023 72.6854C36.4823 72.8863 36.7383 73 37.0074 73C37.2765 73 37.5334 72.8854 37.7125 72.6835L44.4861 65.1234L54.2542 68.1733C54.5043 68.2558 54.7818 68.2237 55.0111 68.0901C55.2414 67.9584 55.4049 67.7352 55.4627 67.4775L57.665 57.6502L67.4941 55.446C67.7519 55.3882 67.9713 55.2265 68.1049 54.9981C68.2375 54.7698 68.2696 54.4951 68.1919 54.2431L65.1826 44.4713L72.702 37.6959C72.901 37.5168 73.0148 37.2608 73.0148 36.9926C73.0148 36.7244 72.9019 36.4675 72.7039 36.2875L65.1826 29.512L68.1919 19.7421C68.2696 19.4901 68.2394 19.2154 68.1067 18.987C67.9741 18.7577 67.7519 18.5951 67.4941 18.5373L57.6669 16.335L55.4627 6.50586C55.4049 6.24812 55.2423 6.02593 55.013 5.89328C54.7836 5.76062 54.5062 5.7304 54.256 5.80999L44.488 8.86181L37.7125 1.29981C37.533 1.09893 37.2703 1 37.0074 1ZM37.0074 3.35225L43.4812 10.5774C43.7294 10.8541 44.117 10.9613 44.4695 10.8495L53.8378 7.9235L55.9476 17.3344C56.0272 17.6925 56.3056 17.9728 56.6638 18.0524L66.0783 20.1622L63.1931 29.5342C63.0851 29.8867 63.1913 30.2678 63.4651 30.5151L70.6514 36.9926L63.4651 43.4682C63.1913 43.7155 63.0869 44.0985 63.1949 44.451L66.0802 53.8211L56.6656 55.9328C56.3075 56.0124 56.0272 56.2908 55.9476 56.649L53.8378 66.0598L44.4713 63.1339C44.1188 63.0202 43.7294 63.1283 43.4812 63.4059L37.0074 70.6329L30.5336 63.4059C30.3507 63.2012 30.092 63.0913 29.8266 63.0913C29.7319 63.0913 29.6373 63.1054 29.5453 63.1357L20.1789 66.0617L18.0691 56.6508C17.9885 56.2927 17.7082 56.0124 17.351 55.9328L7.93646 53.8229L10.8217 44.451C10.9307 44.0985 10.8235 43.7174 10.5497 43.4701L3.36336 36.9926L10.5497 30.517C10.8235 30.2697 10.9288 29.8867 10.8199 29.5342L7.93461 20.1641L17.351 18.0524C17.7092 17.9728 17.9876 17.6944 18.0672 17.3362L20.177 7.92535L29.5435 10.8513C29.8979 10.9631 30.2854 10.8569 30.5336 10.5793L37.0074 3.35225ZM37.0093 7.84577C36.8737 7.84577 36.7458 7.90359 36.6558 8.00308L33.4263 11.6101C33.2519 11.8053 33.2681 12.1039 33.4633 12.2782C33.6575 12.4535 33.957 12.4373 34.1314 12.2431L37.0074 9.03023L42.4929 15.1542C42.6142 15.2926 42.8108 15.3442 42.987 15.2912L51.0413 12.7724L52.1332 17.6323C52.1825 17.8531 52.3771 18.0043 52.5941 18.0043C52.6282 18.0043 52.6626 17.9989 52.6996 17.9914C52.9554 17.9336 53.1155 17.6809 53.0586 17.425L51.8556 12.0617C51.8263 11.9328 51.7445 11.8217 51.6299 11.7563C51.5143 11.689 51.3774 11.6749 51.2505 11.7138L42.9963 14.2955L37.3609 8.00308C37.2709 7.90359 37.1438 7.84577 37.0093 7.84577ZM22.5719 11.6971C22.5073 11.7041 22.4441 11.7232 22.3868 11.7563C22.2721 11.8217 22.1904 11.9337 22.161 12.0635L20.3122 20.2992L16.5312 21.1487C16.2753 21.2074 16.1162 21.4601 16.174 21.715C16.2232 21.9358 16.4178 22.0851 16.6348 22.0851C16.6699 22.0851 16.7052 22.0816 16.7403 22.0759L20.8137 21.1579C20.9928 21.1181 21.1311 20.977 21.1709 20.7989L22.9735 12.7742L31.0278 15.293C31.2059 15.3451 31.3996 15.2944 31.5237 15.1561L32.2566 14.3381C32.431 14.1429 32.4148 13.8425 32.2196 13.6681C32.0263 13.4938 31.724 13.5128 31.5497 13.7051L31.0204 14.2973L22.7643 11.7138C22.7018 11.6953 22.6364 11.6901 22.5719 11.6971ZM53.1141 19.0111C53.0538 18.9998 52.9921 18.9997 52.9291 19.013C52.6732 19.0717 52.5122 19.3234 52.57 19.5793L52.8439 20.797C52.8847 20.9761 53.0248 21.1163 53.203 21.1561L61.248 22.9679L58.7754 31.0167C58.7214 31.1929 58.7731 31.3839 58.9105 31.5071L59.8785 32.3806C59.9694 32.4631 60.084 32.5028 60.1968 32.5028C60.3257 32.5028 60.4546 32.4497 60.5484 32.3455C60.7247 32.1512 60.7075 31.8508 60.5133 31.6755L59.7693 31.0056L62.3047 22.7569C62.3436 22.6319 62.3276 22.4931 62.2622 22.3794C62.1959 22.2657 62.0866 22.1857 61.9568 22.1573L53.7026 20.2992L53.4954 19.372C53.4513 19.1808 53.2952 19.0449 53.1141 19.0111ZM14.8137 21.5743C14.7531 21.5636 14.6907 21.565 14.6268 21.5799L12.0598 22.1573C11.931 22.1857 11.819 22.2675 11.7526 22.3812C11.6863 22.4959 11.6703 22.6328 11.7101 22.7588L14.2548 31.0056L7.99938 36.641C7.89894 36.731 7.84207 36.858 7.84207 36.9926C7.84207 37.1272 7.89894 37.2533 7.99938 37.3442L14.2548 42.9796L13.9624 43.9272C13.8856 44.1774 14.0268 44.4427 14.277 44.5194C14.3234 44.5336 14.3694 44.5398 14.4158 44.5398C14.6186 44.5398 14.8048 44.4094 14.8692 44.2067L15.2505 42.9704C15.3045 42.7932 15.2509 42.6013 15.1135 42.4781L9.02282 36.9926L15.1135 31.5089C15.2509 31.3858 15.3036 31.1939 15.2486 31.0167L12.7668 22.9698L14.8341 22.5034C15.0899 22.4456 15.2509 22.1929 15.1931 21.9371C15.1497 21.7452 14.9955 21.6064 14.8137 21.5743ZM52.7088 25.6218C52.0929 25.619 51.4762 25.8344 51.0043 26.2788L34.6144 42.739L24.8612 32.8711C23.8975 31.9946 22.3963 32.0647 21.5151 33.0302C21.0897 33.4983 20.8732 34.1046 20.9025 34.7366C20.9319 35.3686 21.2056 35.9503 21.6576 36.3597L33.0432 47.7471C33.48 48.145 34.0472 48.3634 34.6385 48.3634C35.2459 48.3634 35.8225 48.1346 36.2745 47.7082L54.269 29.7138C54.7295 29.2788 54.9912 28.6894 55.0093 28.0574C55.0273 27.4244 54.7983 26.8235 54.3634 26.364C53.9284 25.9035 53.3418 25.6398 52.7088 25.6218ZM52.6811 26.5713C53.061 26.5826 53.4143 26.7387 53.6749 27.0154C53.9355 27.2912 54.0721 27.6524 54.0617 28.0315C54.0513 28.4114 53.8944 28.7645 53.6083 29.0345L35.6138 47.029C35.0898 47.5217 34.1968 47.5143 33.6983 47.0623L22.3109 35.6749C22.0304 35.42 21.8662 35.0712 21.8482 34.6922C21.8302 34.3131 21.9616 33.9492 22.2165 33.6687C22.4999 33.3579 22.8894 33.2005 23.277 33.2005C23.6124 33.2005 23.9455 33.318 24.206 33.554L34.2776 43.744C34.3657 43.8331 34.4866 43.8846 34.6126 43.8846H34.6144C34.7395 43.8846 34.8603 43.8349 34.9494 43.7458L51.6669 26.9581C51.9426 26.6965 52.3096 26.5532 52.6811 26.5713ZM62.0845 33.2819C61.9635 33.2884 61.8446 33.3412 61.7569 33.4374C61.5807 33.6316 61.5978 33.9302 61.7921 34.1055L62.7822 34.9994C62.8732 35.0818 62.9859 35.1215 63.0987 35.1215C63.2285 35.1215 63.3575 35.0685 63.4503 34.9642C63.6266 34.77 63.6113 34.4714 63.417 34.2961L62.4269 33.4041C62.3298 33.3159 62.2056 33.2754 62.0845 33.2819ZM64.9439 35.86C64.8229 35.8664 64.7044 35.9183 64.6163 36.0154C64.44 36.2097 64.4572 36.5101 64.6514 36.6854L64.992 36.9926L58.9124 42.4762C58.775 42.5994 58.7223 42.7923 58.7773 42.9685L61.2498 51.0173L60.132 51.2671C59.8762 51.3259 59.7152 51.5776 59.773 51.8334C59.8222 52.0542 60.0187 52.2054 60.2357 52.2054C60.2698 52.2054 60.3052 52.201 60.3393 52.1925L61.955 51.8279C62.0838 51.7985 62.1959 51.7177 62.2622 51.6039C62.3276 51.4902 62.3436 51.3543 62.3047 51.2283L59.7693 42.9796L66.0173 37.3442C66.1168 37.2542 66.1727 37.1272 66.1727 36.9926C66.1727 36.858 66.1168 36.731 66.0173 36.641L65.2862 35.9821C65.1891 35.8935 65.0648 35.8536 64.9439 35.86ZM13.7754 45.5059C13.5913 45.5236 13.4296 45.6507 13.372 45.839L13.0777 46.7903C13.001 47.0404 13.1422 47.3057 13.3923 47.3825C13.4388 47.3967 13.4847 47.4028 13.5312 47.4028C13.7339 47.4028 13.922 47.2734 13.9846 47.0697L14.2788 46.1184C14.3556 45.8683 14.2144 45.603 13.9642 45.5262C13.901 45.5061 13.8368 45.4999 13.7754 45.5059ZM12.889 48.3837C12.7051 48.4012 12.5412 48.5285 12.4837 48.7168L11.7101 51.2283C11.6712 51.3533 11.6863 51.4911 11.7526 51.6058C11.819 51.7195 11.9291 51.8004 12.058 51.8297L20.3122 53.6878L22.161 61.9235C22.1904 62.0524 22.2721 62.1635 22.3868 62.2289C22.5015 62.2961 22.6393 62.3093 22.7643 62.2714L31.0204 59.6897L36.6539 65.9821C36.7439 66.0816 36.8728 66.1394 37.0074 66.1394C37.142 66.1394 37.27 66.0816 37.359 65.9821L38.8192 64.3516C38.9945 64.1564 38.9765 63.8579 38.7822 63.6835C38.5889 63.5092 38.2894 63.5244 38.1141 63.7187L37.0074 64.955L31.5219 58.8328C31.3978 58.6945 31.2059 58.6428 31.0278 58.6959L22.9716 61.2147L21.1709 53.19C21.1301 53.0109 20.99 52.8717 20.8118 52.831L12.7668 51.0191L13.3886 48.9981C13.4654 48.748 13.326 48.4827 13.0759 48.4059C13.0131 48.3853 12.9503 48.3779 12.889 48.3837ZM58.4072 51.6946C58.3467 51.6837 58.2837 51.6836 58.2202 51.6983L53.203 52.8291C53.0229 52.8689 52.8847 53.0082 52.8439 53.1863L51.0413 61.2128L42.987 58.694C42.8117 58.6419 42.6151 58.6926 42.4929 58.831L40.768 60.7557C40.5927 60.9509 40.6108 61.2513 40.8051 61.4257C41.0003 61.601 41.2979 61.5829 41.4732 61.3886L42.9944 59.6897L51.2505 62.2714C51.2959 62.2847 51.3437 62.2918 51.3911 62.2918C51.4736 62.2918 51.5559 62.2725 51.6299 62.2289C51.7445 62.1635 51.8263 62.0515 51.8556 61.9217L53.7026 53.686L58.4275 52.6218C58.6834 52.564 58.8434 52.3123 58.7847 52.0574C58.7421 51.8662 58.5886 51.7274 58.4072 51.6946Z" fill="#F2994A" stroke="#F2994A"/>
</svg>
