<svg width="68" height="69" viewBox="0 0 68 69" fill="none" xmlns="http://www.w3.org/2000/svg">
<path d="M63.1 1C62.6639 1 62.3255 1.09523 62.3255 1.09523C62.3231 1.09582 62.3207 1.09642 62.3184 1.09703L48.4159 3.96484C48.1791 4.01426 47.9712 4.15499 47.8373 4.35656C47.4419 4.54884 47.0741 4.78974 46.743 5.06992C46.7359 5.06975 46.7287 5.06975 46.7215 5.06992C46.6548 5.0729 46.5896 5.09035 46.5303 5.12107C46.471 5.15179 46.4192 5.19504 46.3783 5.24781L24.1455 27.2H24C21.7962 27.2 20.0282 28.8025 19.5869 30.88H5.6C3.07045 30.88 1 32.9504 1 35.48V44.68C1 47.2095 3.07045 49.28 5.6 49.28H13.88V52.04H9.28C4.71816 52.04 1 55.7582 1 60.32C1 64.8818 4.71816 68.6 9.28 68.6H42.4C46.9618 68.6 50.68 64.8818 50.68 60.32C50.68 55.7582 46.9618 52.04 42.4 52.04H37.8V49.28H46.08C48.2946 49.28 50.157 47.6926 50.5866 45.6H56.2H62.64V50.4569L60.5089 51.1667C60.3942 51.2049 60.2881 51.2653 60.1968 51.3445C60.1054 51.4237 60.0306 51.5202 59.9765 51.6283C59.9224 51.7364 59.8902 51.8542 59.8816 51.9748C59.873 52.0953 59.8883 52.2165 59.9265 52.3312C59.9647 52.4458 60.0252 52.5519 60.1044 52.6432C60.1836 52.7346 60.2801 52.8094 60.3882 52.8634C60.4964 52.9175 60.6141 52.9497 60.7347 52.9583C60.8553 52.9668 60.9764 52.9515 61.0911 52.9133L62.64 52.3976V55.9769L60.5089 56.6867C60.3942 56.7249 60.2881 56.7853 60.1968 56.8645C60.1054 56.9437 60.0306 57.0402 59.9765 57.1483C59.9224 57.2564 59.8902 57.3742 59.8816 57.4948C59.873 57.6153 59.8883 57.7365 59.9265 57.8512C59.9647 57.9658 60.0252 58.0719 60.1044 58.1632C60.1836 58.2546 60.2801 58.3294 60.3882 58.3834C60.4964 58.4375 60.6141 58.4697 60.7347 58.4783C60.8553 58.4868 60.9764 58.4715 61.0911 58.4333L62.64 57.9176V61.4969L60.5089 62.2067C60.3942 62.2449 60.2881 62.3053 60.1968 62.3845C60.1054 62.4637 60.0306 62.5602 59.9765 62.6683C59.9224 62.7764 59.8902 62.8941 59.8816 63.0147C59.873 63.1353 59.8883 63.2565 59.9265 63.3711C59.9647 63.4858 60.0252 63.5919 60.1044 63.6832C60.1836 63.7746 60.2801 63.8494 60.3882 63.9034C60.4964 63.9575 60.6141 63.9897 60.7347 63.9983C60.8553 64.0068 60.9764 63.9915 61.0911 63.9533L62.64 63.4376V65.84C62.6383 65.9619 62.6608 66.0829 62.7063 66.1961C62.7517 66.3092 62.8192 66.4122 62.9048 66.499C62.9904 66.5858 63.0924 66.6547 63.2049 66.7018C63.3174 66.7489 63.4381 66.7731 63.56 66.7731C63.6819 66.7731 63.8026 66.7489 63.9151 66.7018C64.0276 66.6547 64.1296 66.5858 64.2152 66.499C64.3008 66.4122 64.3683 66.3092 64.4137 66.1961C64.4592 66.0829 64.4817 65.9619 64.48 65.84V62.823L66.6111 62.1133C66.7258 62.0751 66.8318 62.0146 66.9232 61.9354C67.0145 61.8562 67.0894 61.7598 67.1435 61.6517C67.1976 61.5436 67.2298 61.4258 67.2384 61.3052C67.247 61.1846 67.2317 61.0635 67.1935 60.9488C67.1552 60.8341 67.0948 60.7281 67.0156 60.6368C66.9363 60.5454 66.8399 60.4706 66.7318 60.4165C66.6236 60.3625 66.5059 60.3303 66.3853 60.3217C66.2647 60.3132 66.1436 60.3285 66.0289 60.3667L64.48 60.8824V57.303L66.6111 56.5933C66.7258 56.5551 66.8318 56.4946 66.9232 56.4154C67.0145 56.3362 67.0894 56.2398 67.1435 56.1317C67.1976 56.0236 67.2298 55.9058 67.2384 55.7852C67.247 55.6646 67.2317 55.5435 67.1935 55.4288C67.1552 55.3141 67.0948 55.2081 67.0156 55.1168C66.9363 55.0254 66.8399 54.9506 66.7318 54.8965C66.6236 54.8425 66.5059 54.8103 66.3853 54.8017C66.2647 54.7932 66.1436 54.8085 66.0289 54.8467L64.48 55.3624V51.783L66.6111 51.0733C66.7258 51.0351 66.8318 50.9746 66.9232 50.8954C67.0145 50.8162 67.0894 50.7198 67.1435 50.6117C67.1976 50.5036 67.2298 50.3858 67.2384 50.2652C67.247 50.1446 67.2317 50.0235 67.1935 49.9088C67.1552 49.7941 67.0948 49.6881 67.0156 49.5968C66.9363 49.5054 66.8399 49.4306 66.7318 49.3765C66.6236 49.3225 66.5059 49.2903 66.3853 49.2817C66.2647 49.2732 66.1436 49.2885 66.0289 49.3267L64.48 49.8424V45.6H64.94C66.205 45.6 67.24 44.565 67.24 43.3V40.54C67.24 39.275 66.205 38.24 64.94 38.24H64.48V19.4H64.94C65.6967 19.4 66.32 18.7767 66.32 18.02V17.1C66.32 16.3433 65.6967 15.72 64.94 15.72H64.02V7.51547L64.8537 6.91172L64.8016 6.94586C65.7077 6.37942 66.32 5.36698 66.32 4.22C66.32 2.45251 64.8675 1 63.1 1ZM63.1 2.84C63.8735 2.84 64.48 3.44645 64.48 4.22C64.48 4.71798 64.2208 5.13933 63.8259 5.38617C63.8088 5.39699 63.792 5.40838 63.7756 5.42031L55.6609 11.2943C55.543 11.3796 55.4469 11.4917 55.3807 11.6213C55.3145 11.7509 55.28 11.8944 55.28 12.04V43.76H50.68V41.5337C50.6881 41.4843 50.6881 41.4339 50.68 41.3845V12.597C50.6896 12.5207 50.6896 12.4434 50.68 12.367V12.04C50.68 11.796 50.583 11.562 50.4105 11.3895C50.238 11.217 50.004 11.12 49.76 11.12C48.225 11.12 47 9.895 47 8.36C47 7.13377 47.7948 6.12262 48.8957 5.75633C49.1015 5.68762 49.2763 5.54843 49.3894 5.36333C49.5025 5.17823 49.5466 4.95912 49.5138 4.74469L49.6468 5.58922L62.6831 2.8993L62.6903 2.8975C62.7052 2.89553 63.1235 2.84 63.1 2.84ZM63.1 8.18031V15.72H57.12V12.509L63.1 8.18031ZM45.169 8.2432C45.1679 8.28287 45.16 8.31997 45.16 8.36C45.16 10.427 46.5679 12.1193 48.4537 12.6941L32.7993 27.2L26 27L45.169 8.2432ZM48.5 15.2223L48.84 36.2562L39.1656 28.0715V28.0697C38.5017 27.5087 37.6592 27.2 36.7884 27.2H35.1155L48.5 15.2223ZM57.12 16.64H64.94C65.1989 16.64 65.4 16.841 65.4 17.1V18.02C65.4 18.2789 65.1989 18.48 64.94 18.48H63.7019C63.6503 18.4714 63.598 18.4672 63.5456 18.4674C63.501 18.4684 63.4566 18.4726 63.4127 18.48H57.12V16.64ZM57.12 19.4H62.64V38.24H57.12V19.4ZM24 29.04H36.7884C37.2239 29.04 37.6445 29.1949 37.9779 29.4766V29.4748L48.1895 38.116C48.6016 38.466 48.84 38.9793 48.84 39.5194V41H37.34C35.5564 41 34.12 39.5636 34.12 37.78C34.121 37.7184 34.1095 37.6572 34.0864 37.6001C34.0633 37.543 34.0289 37.4911 33.9853 37.4475C33.9417 37.4039 33.8898 37.3695 33.8327 37.3464C33.7756 37.3233 33.7144 37.3118 33.6528 37.3128C33.5924 37.3138 33.5328 37.3266 33.4773 37.3506C33.4219 37.3746 33.3717 37.4092 33.3296 37.4526C33.2876 37.496 33.2545 37.5472 33.2323 37.6034C33.21 37.6596 33.1991 37.7196 33.2 37.78C33.2 40.0609 35.0591 41.92 37.34 41.92H48.84V44.68C48.84 46.215 47.615 47.44 46.08 47.44H5.6C4.06499 47.44 2.84 46.215 2.84 44.68V35.48C2.84 33.945 4.06499 32.72 5.6 32.72H20.32C20.564 32.72 20.798 32.623 20.9705 32.4505C21.143 32.278 21.24 32.044 21.24 31.8C21.24 30.265 22.465 29.04 24 29.04ZM33.6528 29.9528C33.5924 29.9538 33.5328 29.9666 33.4773 29.9906C33.4219 30.0146 33.3717 30.0492 33.3296 30.0926C33.2876 30.136 33.2545 30.1872 33.2323 30.2434C33.21 30.2996 33.1991 30.3596 33.2 30.42V31.34C33.1991 31.401 33.2104 31.4615 33.2331 31.518C33.2559 31.5746 33.2896 31.6261 33.3324 31.6695C33.3752 31.7129 33.4262 31.7474 33.4824 31.7709C33.5387 31.7944 33.599 31.8065 33.66 31.8065C33.721 31.8065 33.7813 31.7944 33.8376 31.7709C33.8938 31.7474 33.9448 31.7129 33.9876 31.6695C34.0304 31.6261 34.0641 31.5746 34.0869 31.518C34.1096 31.4615 34.1209 31.401 34.12 31.34V30.42C34.121 30.3584 34.1095 30.2972 34.0864 30.2401C34.0633 30.183 34.0289 30.1311 33.9853 30.0875C33.9417 30.0439 33.8898 30.0095 33.8327 29.9864C33.7756 29.9633 33.7144 29.9518 33.6528 29.9528ZM33.6528 33.6328C33.5924 33.6338 33.5328 33.6466 33.4773 33.6706C33.4219 33.6946 33.3717 33.7292 33.3296 33.7726C33.2876 33.816 33.2545 33.8672 33.2323 33.9234C33.21 33.9796 33.1991 34.0396 33.2 34.1V35.94C33.1991 36.0009 33.2104 36.0615 33.2331 36.118C33.2559 36.1746 33.2896 36.2261 33.3324 36.2695C33.3752 36.3129 33.4262 36.3474 33.4824 36.3709C33.5387 36.3944 33.599 36.4065 33.66 36.4065C33.721 36.4065 33.7813 36.3944 33.8376 36.3709C33.8938 36.3474 33.9448 36.3129 33.9876 36.2695C34.0304 36.2261 34.0641 36.1746 34.0869 36.118C34.1096 36.0615 34.1209 36.0009 34.12 35.94V34.1C34.121 34.0384 34.1095 33.9772 34.0864 33.9201C34.0633 33.863 34.0289 33.8111 33.9853 33.7675C33.9417 33.7239 33.8898 33.6895 33.8327 33.6664C33.7756 33.6433 33.7144 33.6318 33.6528 33.6328ZM6.06 35.48C5.99904 35.4791 5.93852 35.4904 5.88196 35.5131C5.82539 35.5359 5.77391 35.5696 5.7305 35.6124C5.68709 35.6552 5.65262 35.7062 5.62909 35.7624C5.60556 35.8187 5.59345 35.879 5.59345 35.94C5.59345 36.001 5.60556 36.0613 5.62909 36.1175C5.65262 36.1738 5.68709 36.2248 5.7305 36.2676C5.77391 36.3104 5.82539 36.3441 5.88196 36.3669C5.93852 36.3896 5.99904 36.4009 6.06 36.4H15.26C15.321 36.4009 15.3815 36.3896 15.438 36.3669C15.4946 36.3441 15.5461 36.3104 15.5895 36.2676C15.6329 36.2248 15.6674 36.1738 15.6909 36.1175C15.7144 36.0613 15.7266 36.001 15.7266 35.94C15.7266 35.879 15.7144 35.8187 15.6909 35.7624C15.6674 35.7062 15.6329 35.6552 15.5895 35.6124C15.5461 35.5696 15.4946 35.5359 15.438 35.5131C15.3815 35.4904 15.321 35.4791 15.26 35.48H6.06ZM6.06 38.24C5.99904 38.2391 5.93852 38.2504 5.88196 38.2731C5.82539 38.2959 5.77391 38.3296 5.7305 38.3724C5.68709 38.4152 5.65262 38.4662 5.62909 38.5224C5.60556 38.5787 5.59345 38.639 5.59345 38.7C5.59345 38.761 5.60556 38.8213 5.62909 38.8775C5.65262 38.9338 5.68709 38.9848 5.7305 39.0276C5.77391 39.0704 5.82539 39.1041 5.88196 39.1269C5.93852 39.1496 5.99904 39.1609 6.06 39.16H11.58C11.641 39.1609 11.7015 39.1496 11.758 39.1269C11.8146 39.1041 11.8661 39.0704 11.9095 39.0276C11.9529 38.9848 11.9874 38.9338 12.0109 38.8775C12.0344 38.8213 12.0466 38.761 12.0466 38.7C12.0466 38.639 12.0344 38.5787 12.0109 38.5224C11.9874 38.4662 11.9529 38.4152 11.9095 38.3724C11.8661 38.3296 11.8146 38.2959 11.758 38.2731C11.7015 38.2504 11.641 38.2391 11.58 38.24H6.06ZM14.34 38.24C14.279 38.2391 14.2185 38.2504 14.162 38.2731C14.1054 38.2959 14.0539 38.3296 14.0105 38.3724C13.9671 38.4152 13.9326 38.4662 13.9091 38.5224C13.8856 38.5787 13.8734 38.639 13.8734 38.7C13.8734 38.761 13.8856 38.8213 13.9091 38.8775C13.9326 38.9338 13.9671 38.9848 14.0105 39.0276C14.0539 39.0704 14.1054 39.1041 14.162 39.1269C14.2185 39.1496 14.279 39.1609 14.34 39.16H15.26C15.321 39.1609 15.3815 39.1496 15.438 39.1269C15.4946 39.1041 15.5461 39.0704 15.5895 39.0276C15.6329 38.9848 15.6674 38.9338 15.6909 38.8775C15.7144 38.8213 15.7266 38.761 15.7266 38.7C15.7266 38.639 15.7144 38.5787 15.6909 38.5224C15.6674 38.4662 15.6329 38.4152 15.5895 38.3724C15.5461 38.3296 15.4946 38.2959 15.438 38.2731C15.3815 38.2504 15.321 38.2391 15.26 38.24H14.34ZM57.12 39.16H63.4055C63.5048 39.1764 63.6062 39.1764 63.7055 39.16H64.94C65.7082 39.16 66.32 39.7718 66.32 40.54V43.3C66.32 44.0682 65.7082 44.68 64.94 44.68H63.7019C63.6503 44.6714 63.598 44.6672 63.5456 44.6674C63.501 44.6684 63.4566 44.6726 63.4127 44.68H57.12V39.16ZM6.06 41C5.99904 40.9991 5.93852 41.0104 5.88196 41.0331C5.82539 41.0559 5.77391 41.0896 5.7305 41.1324C5.68709 41.1752 5.65262 41.2262 5.62909 41.2824C5.60556 41.3387 5.59345 41.399 5.59345 41.46C5.59345 41.521 5.60556 41.5813 5.62909 41.6376C5.65262 41.6938 5.68709 41.7448 5.7305 41.7876C5.77391 41.8304 5.82539 41.8641 5.88196 41.8869C5.93852 41.9096 5.99904 41.9209 6.06 41.92H15.26C15.321 41.9209 15.3815 41.9096 15.438 41.8869C15.4946 41.8641 15.5461 41.8304 15.5895 41.7876C15.6329 41.7448 15.6674 41.6938 15.6909 41.6376C15.7144 41.5813 15.7266 41.521 15.7266 41.46C15.7266 41.399 15.7144 41.3387 15.6909 41.2824C15.6674 41.2262 15.6329 41.1752 15.5895 41.1324C15.5461 41.0896 15.4946 41.0559 15.438 41.0331C15.3815 41.0104 15.321 40.9991 15.26 41H6.06ZM6.06 43.76C5.99904 43.7591 5.93852 43.7704 5.88196 43.7931C5.82539 43.8159 5.77391 43.8496 5.7305 43.8924C5.68709 43.9352 5.65262 43.9862 5.62909 44.0424C5.60556 44.0987 5.59345 44.159 5.59345 44.22C5.59345 44.281 5.60556 44.3413 5.62909 44.3975C5.65262 44.4538 5.68709 44.5048 5.7305 44.5476C5.77391 44.5904 5.82539 44.6241 5.88196 44.6469C5.93852 44.6696 5.99904 44.6809 6.06 44.68H7.9C7.96095 44.6809 8.02147 44.6696 8.07804 44.6469C8.1346 44.6241 8.18609 44.5904 8.2295 44.5476C8.27291 44.5048 8.30738 44.4538 8.33091 44.3975C8.35443 44.3413 8.36655 44.281 8.36655 44.22C8.36655 44.159 8.35443 44.0987 8.33091 44.0424C8.30738 43.9862 8.27291 43.9352 8.2295 43.8924C8.18609 43.8496 8.1346 43.8159 8.07804 43.7931C8.02147 43.7704 7.96095 43.7591 7.9 43.76H6.06ZM10.66 43.76C10.599 43.7591 10.5385 43.7704 10.482 43.7931C10.4254 43.8159 10.3739 43.8496 10.3305 43.8924C10.2871 43.9352 10.2526 43.9862 10.2291 44.0424C10.2056 44.0987 10.1934 44.159 10.1934 44.22C10.1934 44.281 10.2056 44.3413 10.2291 44.3975C10.2526 44.4538 10.2871 44.5048 10.3305 44.5476C10.3739 44.5904 10.4254 44.6241 10.482 44.6469C10.5385 44.6696 10.599 44.6809 10.66 44.68H15.26C15.321 44.6809 15.3815 44.6696 15.438 44.6469C15.4946 44.6241 15.5461 44.5904 15.5895 44.5476C15.6329 44.5048 15.6674 44.4538 15.6909 44.3975C15.7144 44.3413 15.7266 44.281 15.7266 44.22C15.7266 44.159 15.7144 44.0987 15.6909 44.0424C15.6674 43.9862 15.6329 43.9352 15.5895 43.8924C15.5461 43.8496 15.4946 43.8159 15.438 43.7931C15.3815 43.7704 15.321 43.7591 15.26 43.76H10.66ZM15.72 49.28H35.96V52.04H15.72V49.28ZM9.28 53.88H13.88H37.8H42.4C45.9673 53.88 48.84 56.7527 48.84 60.32C48.84 63.8873 45.9673 66.76 42.4 66.76H9.28C5.71271 66.76 2.84 63.8873 2.84 60.32C2.84 56.7527 5.71271 53.88 9.28 53.88ZM9.28 56.64C8.09167 56.64 7.14277 57.1022 6.5218 57.8008C5.90082 58.4994 5.6 59.4128 5.6 60.32C5.6 61.2272 5.90082 62.1406 6.5218 62.8392C7.14277 63.5378 8.09167 64 9.28 64C10.4683 64 11.4172 63.5378 12.0382 62.8392C12.6592 62.1406 12.96 61.2272 12.96 60.32C12.96 59.4128 12.6592 58.4994 12.0382 57.8008C11.4172 57.1022 10.4683 56.64 9.28 56.64ZM20.32 56.64C19.1317 56.64 18.1828 57.1022 17.5618 57.8008C16.9408 58.4994 16.64 59.4128 16.64 60.32C16.64 61.2272 16.9408 62.1406 17.5618 62.8392C18.1828 63.5378 19.1317 64 20.32 64C21.5083 64 22.4572 63.5378 23.0782 62.8392C23.6992 62.1406 24 61.2272 24 60.32C24 59.4128 23.6992 58.4994 23.0782 57.8008C22.4572 57.1022 21.5083 56.64 20.32 56.64ZM31.36 56.64C30.1717 56.64 29.2228 57.1022 28.6018 57.8008C27.9808 58.4994 27.68 59.4128 27.68 60.32C27.68 61.2272 27.9808 62.1406 28.6018 62.8392C29.2228 63.5378 30.1717 64 31.36 64C32.5483 64 33.4972 63.5378 34.1182 62.8392C34.7392 62.1406 35.04 61.2272 35.04 60.32C35.04 59.4128 34.7392 58.4994 34.1182 57.8008C33.4972 57.1022 32.5483 56.64 31.36 56.64ZM42.4 56.64C41.2117 56.64 40.2628 57.1022 39.6418 57.8008C39.0208 58.4994 38.72 59.4128 38.72 60.32C38.72 61.2272 39.0208 62.1406 39.6418 62.8392C40.2628 63.5378 41.2117 64 42.4 64C43.5883 64 44.5372 63.5378 45.1582 62.8392C45.7792 62.1406 46.08 61.2272 46.08 60.32C46.08 59.4128 45.7792 58.4994 45.1582 57.8008C44.5372 57.1022 43.5883 56.64 42.4 56.64ZM9.28 57.56C10.2383 57.56 10.8994 57.9028 11.3518 58.4117C11.8042 58.9206 12.04 59.6172 12.04 60.32C12.04 61.0228 11.8042 61.7194 11.3518 62.2283C10.8994 62.7372 10.2383 63.08 9.28 63.08C8.32167 63.08 7.66056 62.7372 7.2082 62.2283C6.75584 61.7194 6.52 61.0228 6.52 60.32C6.52 59.6172 6.75584 58.9206 7.2082 58.4117C7.66056 57.9028 8.32167 57.56 9.28 57.56ZM20.32 57.56C21.2783 57.56 21.9394 57.9028 22.3918 58.4117C22.8442 58.9206 23.08 59.6172 23.08 60.32C23.08 61.0228 22.8442 61.7194 22.3918 62.2283C21.9394 62.7372 21.2783 63.08 20.32 63.08C19.3617 63.08 18.7006 62.7372 18.2482 62.2283C17.7958 61.7194 17.56 61.0228 17.56 60.32C17.56 59.6172 17.7958 58.9206 18.2482 58.4117C18.7006 57.9028 19.3617 57.56 20.32 57.56ZM31.36 57.56C32.3183 57.56 32.9794 57.9028 33.4318 58.4117C33.8842 58.9206 34.12 59.6172 34.12 60.32C34.12 61.0228 33.8842 61.7194 33.4318 62.2283C32.9794 62.7372 32.3183 63.08 31.36 63.08C30.4017 63.08 29.7406 62.7372 29.2882 62.2283C28.8358 61.7194 28.6 61.0228 28.6 60.32C28.6 59.6172 28.8358 58.9206 29.2882 58.4117C29.7406 57.9028 30.4017 57.56 31.36 57.56ZM42.4 57.56C43.3583 57.56 44.0194 57.9028 44.4718 58.4117C44.9242 58.9206 45.16 59.6172 45.16 60.32C45.16 61.0228 44.9242 61.7194 44.4718 62.2283C44.0194 62.7372 43.3583 63.08 42.4 63.08C41.4417 63.08 40.7806 62.7372 40.3282 62.2283C39.8758 61.7194 39.64 61.0228 39.64 60.32C39.64 59.6172 39.8758 58.9206 40.3282 58.4117C40.7806 57.9028 41.4417 57.56 42.4 57.56Z" fill="#F2994A" stroke="#F2994A" stroke-width="0.6"/>
</svg>
