<svg width="69" height="73" viewBox="0 0 69 73" fill="none" xmlns="http://www.w3.org/2000/svg">
<path d="M41.0059 1C39.361 1 38.0059 2.35503 38.0059 4V5.73047L31.1427 17.4961C31.0533 17.649 31.0061 17.8229 31.0059 18V19V39.3809C30.6887 40.0138 30.4051 40.556 30.1231 41.0977C29.3525 39.5519 28.0653 37.4949 25.9688 33.3047C25.931 33.2112 25.8658 33.1314 25.7818 33.0756C25.6978 33.0198 25.5989 32.9907 25.4981 32.9922C25.3971 32.9939 25.2991 33.0262 25.2168 33.0848C25.1345 33.1434 25.0719 33.2255 25.0372 33.3203C24.7072 33.9797 24.4153 34.5384 24.1231 35.0996C23.3524 33.5537 22.0669 31.4996 19.9688 27.3047C19.931 27.2112 19.8658 27.1314 19.7818 27.0756C19.6978 27.0198 19.5989 26.9907 19.4981 26.9922C19.3971 26.9939 19.2991 27.0262 19.2168 27.0848C19.1345 27.1434 19.0719 27.2255 19.0372 27.3203C17.4061 30.5793 16.3058 32.4715 15.5098 33.916C15.3129 33.643 15.0965 33.3835 14.8594 33.1465C13.9288 32.2158 13.0067 31.8081 11.4317 31.3457C9.8631 30.8852 7.57966 30.3283 3.7071 29.0391C3.64209 29.0095 3.5715 28.9942 3.50007 28.9941C3.41579 28.994 3.33286 29.0152 3.25897 29.0558C3.18508 29.0963 3.12263 29.1548 3.07742 29.226C3.03221 29.2971 3.00571 29.3785 3.00039 29.4626C2.99506 29.5467 3.01107 29.6308 3.04694 29.707C4.33459 33.5756 4.89138 35.8581 5.35163 37.4258C5.81402 39.0008 6.22174 39.9228 7.15241 40.8535C7.39047 41.0909 7.65362 41.303 7.9278 41.5C6.48223 42.2964 4.58793 43.399 1.32233 45.0332C1.22739 45.0693 1.14568 45.1335 1.0881 45.2172C1.03052 45.3008 0.999789 45.4001 1 45.5017C1.00021 45.6032 1.03136 45.7023 1.08929 45.7858C1.14722 45.8692 1.22919 45.933 1.32429 45.9688H1.32624C5.50499 48.0603 7.55993 49.3476 9.10359 50.1172C8.52933 50.4161 7.96049 50.7141 7.28327 51.0527C7.20021 51.0943 7.13035 51.1581 7.08152 51.2371C7.0327 51.3161 7.00684 51.4071 7.00684 51.5C7.00684 51.5929 7.0327 51.6839 7.08152 51.7629C7.13035 51.8419 7.20021 51.9057 7.28327 51.9473C11.4952 54.0532 13.5538 55.3445 15.1036 56.1172C14.5293 56.4161 13.9605 56.7141 13.2833 57.0527C13.2002 57.0943 13.1303 57.1581 13.0815 57.2371C13.0327 57.3161 13.0068 57.4071 13.0068 57.5C13.0068 57.5929 13.0327 57.6839 13.0815 57.7629C13.1303 57.8419 13.2002 57.9057 13.2833 57.9473C17.496 60.0536 19.5534 61.3442 21.1036 62.1172C20.5384 62.4113 19.9802 62.703 19.3165 63.0352C19.3145 63.0358 19.3126 63.0364 19.3106 63.0371C19.2178 63.0748 19.1384 63.1395 19.0828 63.2229C19.0272 63.3063 18.9979 63.4044 18.9988 63.5046C18.9996 63.6048 19.0305 63.7024 19.0875 63.7849C19.1445 63.8673 19.225 63.9307 19.3184 63.9668C19.3204 63.9675 19.3223 63.9681 19.3243 63.9688C22.9645 65.7909 25.0346 67.0293 26.5157 67.8242C28.0052 68.6236 28.9872 69 30.3067 69C30.5399 69 30.773 68.9699 31.0059 68.9434V71C31.006 71.2652 31.1113 71.5195 31.2989 71.7071C31.4864 71.8946 31.7407 72 32.0059 72H54.0059H67.0059C67.2711 72 67.5255 71.8946 67.713 71.7071C67.9005 71.5195 68.0059 71.2652 68.0059 71V18.5371C68.0068 18.5202 68.0068 18.5032 68.0059 18.4863V18C68.0058 17.8229 67.9586 17.649 67.8692 17.4961L61.0059 5.73047V4C61.0059 2.35503 59.6509 1 58.0059 1H41.0059ZM41.0059 3H43.0059V6H40.0059V4C40.0059 3.43497 40.4409 3 41.0059 3ZM44.0059 3H47.0059V6H44.0059V3ZM48.0059 3H51.0059V6H48.0059V3ZM52.0059 3H55.0059V6H52.0059V3ZM56.0059 3H58.0059C58.571 3 59.0059 3.43497 59.0059 4V6H56.0059V3ZM39.5802 7H43.4259C43.4795 7.00882 43.5343 7.00882 43.588 7H47.4259C47.4795 7.00882 47.5343 7.00882 47.588 7H51.4259C51.4795 7.00882 51.5343 7.00882 51.588 7H55.4259C55.4795 7.00882 55.5343 7.00882 55.588 7H58.6973L53.1973 18H33.1622L39.5802 7ZM59.6387 7.35352L64.5958 15.8516L57.793 11.0898C57.7873 11.0858 57.7814 11.0819 57.7755 11.0781L59.6387 7.35352ZM57.3223 11.9824L65.8009 17.918L65.8497 18H54.3145L57.3223 11.9824ZM33.0059 19H53.0059V70H46.1134L37.8966 61.7832C39.5296 61.6895 40.807 61.0226 41.6563 60.0527C42.573 59.0059 43.0059 57.6402 43.0059 56.3008C43.0059 54.9812 42.6296 53.9993 41.8302 52.5098C41.0339 51.0261 39.8001 48.9684 37.9727 45.3164C37.9366 45.2201 37.8716 45.1373 37.7867 45.0793C37.7017 45.0213 37.601 44.9909 37.4981 44.9922C37.3971 44.9939 37.2991 45.0262 37.2168 45.0848C37.1345 45.1434 37.0719 45.2255 37.0372 45.3203C36.7072 45.9797 36.4152 46.5384 36.1231 47.0996C35.495 45.8394 34.4871 44.1311 33.0059 41.3066V19ZM54.0059 19H66.0059V70H54.0059V19ZM37.5059 21C36.1309 21 35.0059 22.125 35.0059 23.5V28.5C35.005 28.5663 35.0172 28.632 35.0419 28.6935C35.0667 28.755 35.1033 28.811 35.1499 28.8582C35.1964 28.9053 35.2518 28.9428 35.3129 28.9684C35.3741 28.9939 35.4397 29.0071 35.5059 29.0071C35.5722 29.0071 35.6378 28.9939 35.6989 28.9684C35.7601 28.9428 35.8155 28.9053 35.862 28.8582C35.9085 28.811 35.9452 28.755 35.9699 28.6935C35.9946 28.632 36.0069 28.5663 36.0059 28.5V23.5C36.0059 22.665 36.6709 22 37.5059 22H47.5059C48.341 22 49.0059 22.665 49.0059 23.5V50.5C49.005 50.5663 49.0172 50.632 49.0419 50.6935C49.0667 50.755 49.1033 50.811 49.1499 50.8582C49.1964 50.9053 49.2518 50.9428 49.3129 50.9684C49.3741 50.9939 49.4397 51.0071 49.5059 51.0071C49.5722 51.0071 49.6378 50.9939 49.6989 50.9684C49.7601 50.9428 49.8155 50.9053 49.862 50.8582C49.9085 50.811 49.9452 50.755 49.9699 50.6935C49.9946 50.632 50.0069 50.5663 50.0059 50.5V23.5C50.0059 22.125 48.8809 21 47.5059 21H37.5059ZM56.5059 24C56.4397 23.9991 56.3739 24.0113 56.3124 24.036C56.2509 24.0607 56.195 24.0974 56.1478 24.1439C56.1006 24.1904 56.0631 24.2459 56.0376 24.307C56.012 24.3681 55.9988 24.4337 55.9988 24.5C55.9988 24.5663 56.012 24.6319 56.0376 24.693C56.0631 24.7541 56.1006 24.8096 56.1478 24.8561C56.195 24.9026 56.2509 24.9393 56.3124 24.964C56.3739 24.9887 56.4397 25.0009 56.5059 25H63.5059C63.5722 25.0009 63.638 24.9887 63.6995 24.964C63.7609 24.9393 63.8169 24.9026 63.8641 24.8561C63.9113 24.8096 63.9487 24.7541 63.9743 24.693C63.9999 24.6319 64.0131 24.5663 64.0131 24.5C64.0131 24.4337 63.9999 24.3681 63.9743 24.307C63.9487 24.2459 63.9113 24.1904 63.8641 24.1439C63.8169 24.0974 63.7609 24.0607 63.6995 24.036C63.638 24.0113 63.5722 23.9991 63.5059 24H56.5059ZM57.5059 27C57.4397 26.9991 57.3739 27.0113 57.3124 27.036C57.2509 27.0607 57.195 27.0974 57.1478 27.1439C57.1006 27.1904 57.0631 27.2459 57.0376 27.307C57.012 27.3681 56.9988 27.4337 56.9988 27.5C56.9988 27.5663 57.012 27.6319 57.0376 27.693C57.0631 27.7541 57.1006 27.8096 57.1478 27.8561C57.195 27.9026 57.2509 27.9393 57.3124 27.964C57.3739 27.9887 57.4397 28.0009 57.5059 28H63.5059C63.5722 28.0009 63.638 27.9887 63.6995 27.964C63.7609 27.9393 63.8169 27.9026 63.8641 27.8561C63.9113 27.8096 63.9487 27.7541 63.9743 27.693C63.9999 27.6319 64.0131 27.5663 64.0131 27.5C64.0131 27.4337 63.9999 27.3681 63.9743 27.307C63.9487 27.2459 63.9113 27.1904 63.8641 27.1439C63.8169 27.0974 63.7609 27.0607 63.6995 27.036C63.638 27.0113 63.5722 26.9991 63.5059 27H57.5059ZM19.0059 29.5V35.5C19.005 35.5663 19.0172 35.632 19.0419 35.6935C19.0666 35.755 19.1033 35.811 19.1499 35.8582C19.1964 35.9053 19.2518 35.9428 19.3129 35.9684C19.3741 35.9939 19.4397 36.0071 19.5059 36.0071C19.5722 36.0071 19.6378 35.9939 19.6989 35.9684C19.7601 35.9428 19.8155 35.9053 19.862 35.8582C19.9085 35.811 19.9452 35.755 19.9699 35.6935C19.9946 35.632 20.0069 35.5663 20.0059 35.5V29.5156C21.7554 32.8508 23.0144 34.9704 23.543 36.2031C22.5158 38.1282 21.7351 39.4764 21.1817 40.5078C20.382 41.9982 20.0059 42.982 20.0059 44.3008C20.0059 44.6697 20.0364 45.029 20.0919 45.3809L15.8829 41.1719C15.8818 41.1707 15.882 41.1692 15.8809 41.168C15.1588 40.3381 15.0059 39.4803 15.0059 38.3008C15.0059 37.1595 15.2847 36.4301 16.0626 34.9805C16.6663 33.8552 17.7379 31.9282 19.0059 29.5ZM35.4981 29.9922C35.4325 29.9932 35.3676 30.0072 35.3074 30.0332C35.2471 30.0593 35.1926 30.097 35.1469 30.1442C35.1011 30.1913 35.0652 30.247 35.041 30.3081C35.0168 30.3691 35.0049 30.4343 35.0059 30.5V32.5C35.005 32.5663 35.0172 32.632 35.0419 32.6935C35.0667 32.755 35.1033 32.811 35.1499 32.8582C35.1964 32.9053 35.2518 32.9428 35.3129 32.9684C35.3741 32.9939 35.4397 33.0071 35.5059 33.0071C35.5722 33.0071 35.6378 32.9939 35.6989 32.9684C35.7601 32.9428 35.8155 32.9053 35.862 32.8582C35.9085 32.811 35.9452 32.755 35.9699 32.6935C35.9946 32.632 36.0069 32.5663 36.0059 32.5V30.5C36.007 30.433 35.9946 30.3665 35.9694 30.3044C35.9443 30.2424 35.9069 30.186 35.8595 30.1386C35.8122 30.0912 35.7558 30.0539 35.6937 30.0287C35.6316 30.0036 35.5651 29.9911 35.4981 29.9922ZM59.5059 30C59.4397 29.9991 59.3739 30.0113 59.3124 30.036C59.2509 30.0607 59.195 30.0974 59.1478 30.1439C59.1006 30.1904 59.0631 30.2459 59.0376 30.307C59.012 30.3681 58.9988 30.4337 58.9988 30.5C58.9988 30.5663 59.012 30.6319 59.0376 30.693C59.0631 30.7541 59.1006 30.8096 59.1478 30.8561C59.195 30.9026 59.2509 30.9393 59.3124 30.964C59.3739 30.9887 59.4397 31.0009 59.5059 31H63.5059C63.5722 31.0009 63.638 30.9887 63.6995 30.964C63.7609 30.9393 63.8169 30.9026 63.8641 30.8561C63.9113 30.8096 63.9487 30.7541 63.9743 30.693C63.9999 30.6319 64.0131 30.5663 64.0131 30.5C64.0131 30.4337 63.9999 30.3681 63.9743 30.307C63.9487 30.2459 63.9113 30.1904 63.8641 30.1439C63.8169 30.0974 63.7609 30.0607 63.6995 30.036C63.638 30.0113 63.5722 29.9991 63.5059 30H59.5059ZM5.2696 30.5566C7.86839 31.3688 9.96339 31.9581 11.1505 32.3066C12.6819 32.7563 13.3421 33.0432 14.1524 33.8535C14.4739 34.175 14.7426 34.5441 14.9669 34.9336C14.3272 36.1852 14.0059 37.1177 14.0059 38.3008C14.0059 38.9968 14.101 39.6609 14.3048 40.2988C13.6669 40.0951 13.0027 40 12.3067 40C11.1216 40 10.1885 40.3229 8.93366 40.9648C8.54551 40.7409 8.18096 40.4672 7.85944 40.1465C7.04912 39.3362 6.76218 38.676 6.31257 37.1445C5.96407 35.9575 5.37469 33.8625 4.56257 31.2637L8.65241 35.3535C8.69849 35.4015 8.75367 35.4398 8.81473 35.4662C8.8758 35.4926 8.94151 35.5065 9.00803 35.5072C9.07455 35.5079 9.14053 35.4953 9.20212 35.4701C9.2637 35.445 9.31965 35.4078 9.36669 35.3608C9.41373 35.3137 9.45091 35.2578 9.47605 35.1962C9.5012 35.1346 9.5138 35.0686 9.51313 35.0021C9.51245 34.9356 9.49851 34.8699 9.47212 34.8088C9.44573 34.7477 9.40743 34.6926 9.35944 34.6465L5.2696 30.5566ZM35.4981 33.9922C35.4325 33.9932 35.3676 34.0072 35.3074 34.0332C35.2471 34.0593 35.1926 34.097 35.1469 34.1442C35.1011 34.1913 35.0652 34.247 35.041 34.3081C35.0168 34.3691 35.0049 34.4343 35.0059 34.5V41.25C35.005 41.3163 35.0172 41.382 35.0419 41.4435C35.0667 41.505 35.1033 41.561 35.1499 41.6082C35.1964 41.6553 35.2518 41.6928 35.3129 41.7184C35.3741 41.7439 35.4397 41.7571 35.5059 41.7571C35.5722 41.7571 35.6378 41.7439 35.6989 41.7184C35.7601 41.6928 35.8155 41.6553 35.862 41.6082C35.9085 41.561 35.9452 41.505 35.9699 41.4435C35.9946 41.382 36.0069 41.3163 36.0059 41.25V34.5C36.007 34.433 35.9946 34.3665 35.9694 34.3044C35.9443 34.2424 35.9069 34.186 35.8595 34.1386C35.8122 34.0912 35.7558 34.0539 35.6937 34.0287C35.6316 34.0036 35.5651 33.9911 35.4981 33.9922ZM25.0059 35.502V37.5C25.005 37.5663 25.0172 37.632 25.0419 37.6935C25.0666 37.755 25.1033 37.811 25.1499 37.8582C25.1964 37.9053 25.2518 37.9428 25.3129 37.9684C25.3741 37.9939 25.4397 38.0071 25.5059 38.0071C25.5722 38.0071 25.6378 37.9939 25.6989 37.9684C25.7601 37.9428 25.8155 37.9053 25.862 37.8582C25.9085 37.811 25.9452 37.755 25.9699 37.6935C25.9946 37.632 26.0069 37.5663 26.0059 37.5V35.5176C27.7578 38.8554 29.011 40.963 29.543 42.207C28.5167 44.1304 27.7348 45.477 27.1817 46.5078C26.382 47.9982 26.0059 48.982 26.0059 50.3008C26.0059 50.669 26.0366 51.0277 26.0919 51.3789L21.8829 47.1719L21.8809 47.1699C21.1577 46.3396 21.0059 45.481 21.0059 44.3008C21.0059 43.1595 21.2847 42.4301 22.0626 40.9805C22.6662 39.8555 23.7382 37.9291 25.0059 35.502ZM10.5001 35.9941C10.4005 35.9942 10.3032 36.0239 10.2206 36.0796C10.138 36.1353 10.074 36.2143 10.0366 36.3067C9.99927 36.399 9.99034 36.5004 10.011 36.5978C10.0316 36.6952 10.0809 36.7843 10.1524 36.8535L11.1524 37.8535C11.1985 37.9015 11.2537 37.9398 11.3147 37.9662C11.3758 37.9926 11.4415 38.0065 11.508 38.0072C11.5745 38.0079 11.6405 37.9953 11.7021 37.9701C11.7637 37.945 11.8197 37.9078 11.8667 37.8608C11.9137 37.8137 11.9509 37.7578 11.9761 37.6962C12.0012 37.6346 12.0138 37.5686 12.0131 37.5021C12.0125 37.4356 11.9985 37.3699 11.9721 37.3088C11.9457 37.2477 11.9074 37.1926 11.8594 37.1465L10.8594 36.1465C10.8128 36.0983 10.757 36.06 10.6952 36.0338C10.6335 36.0076 10.5671 35.9941 10.5001 35.9941ZM19.4981 36.9922C19.4325 36.9932 19.3676 37.0072 19.3074 37.0332C19.2471 37.0593 19.1926 37.097 19.1468 37.1442C19.1011 37.1913 19.0652 37.247 19.041 37.3081C19.0168 37.3691 19.0049 37.4343 19.0059 37.5V39.5C19.005 39.5663 19.0172 39.632 19.0419 39.6935C19.0666 39.755 19.1033 39.811 19.1499 39.8582C19.1964 39.9053 19.2518 39.9428 19.3129 39.9684C19.3741 39.9939 19.4397 40.0071 19.5059 40.0071C19.5722 40.0071 19.6378 39.9939 19.6989 39.9684C19.7601 39.9428 19.8155 39.9053 19.862 39.8582C19.9085 39.811 19.9452 39.755 19.9699 39.6935C19.9946 39.632 20.0069 39.5663 20.0059 39.5V37.5C20.007 37.433 19.9946 37.3665 19.9694 37.3044C19.9443 37.2424 19.9069 37.186 19.8595 37.1386C19.8122 37.0912 19.7558 37.0539 19.6937 37.0287C19.6316 37.0036 19.5651 36.9911 19.4981 36.9922ZM25.4981 38.9922C25.4325 38.9932 25.3676 39.0072 25.3074 39.0332C25.2471 39.0593 25.1926 39.097 25.1469 39.1442C25.1011 39.1913 25.0652 39.247 25.041 39.3081C25.0168 39.3691 25.0049 39.4343 25.0059 39.5V45.5C25.005 45.5663 25.0172 45.632 25.0419 45.6935C25.0666 45.755 25.1033 45.811 25.1499 45.8582C25.1964 45.9053 25.2518 45.9428 25.3129 45.9684C25.3741 45.9939 25.4397 46.0071 25.5059 46.0071C25.5722 46.0071 25.6378 45.9939 25.6989 45.9684C25.7601 45.9428 25.8155 45.9053 25.862 45.8582C25.9085 45.811 25.9452 45.755 25.9699 45.6935C25.9946 45.632 26.0069 45.5663 26.0059 45.5V39.5C26.007 39.433 25.9946 39.3665 25.9694 39.3044C25.9443 39.2424 25.9069 39.186 25.8595 39.1386C25.8122 39.0912 25.7558 39.0539 25.6937 39.0287C25.6316 39.0036 25.5651 38.9911 25.4981 38.9922ZM12.3067 41C13.4862 41 14.3441 41.1529 15.1739 41.875C15.1751 41.8761 15.1766 41.8758 15.1778 41.877L19.3868 46.0859C19.035 46.0305 18.6756 46 18.3067 46C16.988 46 16.0041 46.3761 14.5137 47.1758C13.4829 47.7289 12.1363 48.5107 10.213 49.5371C8.9689 49.0051 6.86131 47.7519 3.52351 46H5.50593C5.57218 46.0009 5.63797 45.9887 5.69945 45.964C5.76093 45.9393 5.81689 45.9026 5.86408 45.8561C5.91126 45.8096 5.94873 45.7541 5.97431 45.693C5.99988 45.6319 6.01305 45.5663 6.01305 45.5C6.01305 45.4337 5.99988 45.3681 5.97431 45.307C5.94873 45.2459 5.91126 45.1904 5.86408 45.1439C5.81689 45.0974 5.76093 45.0607 5.69945 45.036C5.63797 45.0113 5.57218 44.9991 5.50593 45H3.50788C5.935 43.7323 7.86147 42.6602 8.9864 42.0566C10.436 41.2788 11.1655 41 12.3067 41ZM31.0059 41.502V46.5C31.005 46.5663 31.0172 46.632 31.0419 46.6935C31.0666 46.755 31.1033 46.811 31.1499 46.8582C31.1964 46.9053 31.2518 46.9428 31.3129 46.9684C31.3741 46.9939 31.4397 47.0071 31.5059 47.0071C31.5722 47.0071 31.6378 46.9939 31.6989 46.9684C31.7601 46.9428 31.8155 46.9053 31.862 46.8582C31.9085 46.811 31.9452 46.755 31.9699 46.6935C31.9946 46.632 32.0069 46.5663 32.0059 46.5V41.5176C33.7578 44.8554 35.011 46.963 35.543 48.207C34.5161 50.1321 33.7348 51.4793 33.1817 52.5098C32.3823 53.9993 32.0059 54.9812 32.0059 56.3008C32.0059 56.6676 32.0454 57.0348 32.1114 57.3984L27.8829 53.1719C27.158 52.3409 27.0059 51.482 27.0059 50.3008C27.0059 49.1595 27.2847 48.4301 28.0626 46.9805C28.5664 46.0415 29.429 44.4704 30.4161 42.6152C30.4698 42.5726 30.5141 42.5194 30.5464 42.4589C30.5786 42.3985 30.5981 42.332 30.6036 42.2637C30.7404 42.0051 30.8626 41.7763 31.0059 41.502ZM7.50593 45C7.43967 44.9991 7.37389 45.0113 7.31241 45.036C7.25092 45.0607 7.19496 45.0974 7.14778 45.1439C7.10059 45.1904 7.06312 45.2459 7.03755 45.307C7.01198 45.3681 6.99881 45.4337 6.99881 45.5C6.99881 45.5663 7.01198 45.6319 7.03755 45.693C7.06312 45.7541 7.10059 45.8096 7.14778 45.8561C7.19496 45.9026 7.25092 45.9393 7.31241 45.964C7.37389 45.9887 7.43967 46.0009 7.50593 46H13.5059C13.5722 46.0009 13.638 45.9887 13.6995 45.964C13.7609 45.9393 13.8169 45.9026 13.8641 45.8561C13.9113 45.8096 13.9487 45.7541 13.9743 45.693C13.9999 45.6319 14.0131 45.5663 14.0131 45.5C14.0131 45.4337 13.9999 45.3681 13.9743 45.307C13.9487 45.2459 13.9113 45.1904 13.8641 45.1439C13.8169 45.0974 13.7609 45.0607 13.6995 45.036C13.638 45.0113 13.5722 44.9991 13.5059 45H7.50593ZM18.3067 47C19.4869 47 20.3475 47.1537 21.1778 47.877L25.3848 52.0859C25.0336 52.0307 24.6749 52 24.3067 52C22.988 52 22.0041 52.3761 20.5137 53.1758C19.4829 53.7289 18.1363 54.5107 16.213 55.5371C14.9689 55.0051 12.8613 53.7519 9.52351 52H15.5059C15.5722 52.0009 15.638 51.9887 15.6995 51.964C15.7609 51.9393 15.8169 51.9026 15.8641 51.8561C15.9113 51.8096 15.9487 51.7541 15.9743 51.693C15.9999 51.6319 16.0131 51.5663 16.0131 51.5C16.0131 51.4337 15.9999 51.3681 15.9743 51.307C15.9487 51.2459 15.9113 51.1904 15.8641 51.1439C15.8169 51.0974 15.7609 51.0607 15.6995 51.036C15.638 51.0113 15.5722 50.9991 15.5059 51H9.50788C9.7831 50.8563 10.0122 50.733 10.2716 50.5957C10.3397 50.5904 10.4061 50.5713 10.4666 50.5394C10.527 50.5074 10.5803 50.4635 10.6231 50.4102C12.4775 49.4234 14.0477 48.5603 14.9864 48.0566C16.436 47.2788 17.1655 47 18.3067 47ZM37.0059 47.502V56.5C37.005 56.5663 37.0172 56.632 37.0419 56.6935C37.0667 56.755 37.1033 56.811 37.1499 56.8582C37.1964 56.9053 37.2518 56.9428 37.3129 56.9684C37.3741 56.9939 37.4397 57.0071 37.5059 57.0071C37.5722 57.0071 37.6378 56.9939 37.6989 56.9684C37.7601 56.9428 37.8155 56.9053 37.862 56.8582C37.9085 56.811 37.9452 56.755 37.9699 56.6935C37.9946 56.632 38.0069 56.5663 38.0059 56.5V47.502C39.2745 49.9315 40.3457 51.8578 40.9493 52.9824C41.7269 54.4312 42.0059 55.1583 42.0059 56.3008C42.0059 57.4234 41.6379 58.5569 40.9044 59.3945C40.1708 60.2322 39.081 60.8008 37.5059 60.8008C37.2355 60.8008 36.9847 60.7781 36.7423 60.7461C36.721 60.7421 36.6994 60.7395 36.6778 60.7383C35.5412 60.5739 34.7038 60.0755 34.1075 59.3945C33.374 58.5569 33.0059 57.4234 33.0059 56.3008C33.0059 55.1583 33.285 54.4312 34.0626 52.9824C34.5667 52.0432 35.43 50.4711 36.418 48.6133C36.4711 48.5707 36.515 48.5177 36.5469 48.4576C36.5788 48.3975 36.5981 48.3315 36.6036 48.2637C36.7404 48.0051 36.8627 47.7763 37.0059 47.502ZM31.4981 47.9922C31.4325 47.9932 31.3676 48.0072 31.3074 48.0332C31.2471 48.0593 31.1926 48.097 31.1469 48.1442C31.1011 48.1913 31.0652 48.247 31.041 48.3081C31.0168 48.3691 31.0049 48.4343 31.0059 48.5V51.5C31.005 51.5663 31.0172 51.632 31.0419 51.6935C31.0666 51.755 31.1033 51.811 31.1499 51.8582C31.1964 51.9053 31.2518 51.9428 31.3129 51.9684C31.3741 51.9939 31.4397 52.0071 31.5059 52.0071C31.5722 52.0071 31.6378 51.9939 31.6989 51.9684C31.7601 51.9428 31.8155 51.9053 31.862 51.8582C31.9085 51.811 31.9452 51.755 31.9699 51.6935C31.9946 51.632 32.0069 51.5663 32.0059 51.5V48.5C32.007 48.433 31.9946 48.3665 31.9694 48.3044C31.9443 48.2424 31.9069 48.186 31.8595 48.1386C31.8122 48.0912 31.7558 48.0539 31.6937 48.0287C31.6316 48.0036 31.5651 47.9911 31.4981 47.9922ZM17.5059 51C17.4397 50.9991 17.3739 51.0113 17.3124 51.036C17.2509 51.0607 17.195 51.0974 17.1478 51.1439C17.1006 51.1904 17.0631 51.2459 17.0376 51.307C17.012 51.3681 16.9988 51.4337 16.9988 51.5C16.9988 51.5663 17.012 51.6319 17.0376 51.693C17.0631 51.7541 17.1006 51.8096 17.1478 51.8561C17.195 51.9026 17.2509 51.9393 17.3124 51.964C17.3739 51.9887 17.4397 52.0009 17.5059 52H19.5059C19.5722 52.0009 19.638 51.9887 19.6995 51.964C19.7609 51.9393 19.8169 51.9026 19.8641 51.8561C19.9113 51.8096 19.9487 51.7541 19.9743 51.693C19.9999 51.6319 20.0131 51.5663 20.0131 51.5C20.0131 51.4337 19.9999 51.3681 19.9743 51.307C19.9487 51.2459 19.9113 51.1904 19.8641 51.1439C19.8169 51.0974 19.7609 51.0607 19.6995 51.036C19.638 51.0113 19.5722 50.9991 19.5059 51H17.5059ZM49.4981 51.9922C49.4325 51.9932 49.3676 52.0072 49.3074 52.0332C49.2471 52.0593 49.1926 52.097 49.1469 52.1442C49.1011 52.1913 49.0652 52.247 49.041 52.3081C49.0168 52.3691 49.0049 52.4343 49.0059 52.5V54.5C49.005 54.5663 49.0172 54.632 49.0419 54.6935C49.0667 54.755 49.1033 54.811 49.1499 54.8582C49.1964 54.9053 49.2518 54.9428 49.3129 54.9684C49.3741 54.9939 49.4397 55.0071 49.5059 55.0071C49.5722 55.0071 49.6378 54.9939 49.6989 54.9684C49.7601 54.9428 49.8155 54.9053 49.862 54.8582C49.9085 54.811 49.9452 54.755 49.9699 54.6935C49.9946 54.632 50.0069 54.5663 50.0059 54.5V52.5C50.007 52.433 49.9946 52.3665 49.9694 52.3044C49.9443 52.2424 49.9069 52.186 49.8595 52.1386C49.8122 52.0912 49.7558 52.0539 49.6937 52.0287C49.6316 52.0036 49.5651 51.9911 49.4981 51.9922ZM24.3067 53C25.4879 53 26.3468 53.1521 27.1778 53.877L31.4044 58.1055C31.0407 58.0395 30.6735 58 30.3067 58C28.9872 58 28.0052 58.3764 26.5157 59.1758C25.4869 59.728 24.1359 60.5105 22.211 61.5371C20.9718 61.0066 18.8593 59.7505 15.5235 58H17.5059C17.5722 58.0009 17.638 57.9887 17.6995 57.964C17.7609 57.9393 17.8169 57.9026 17.8641 57.8561C17.9113 57.8096 17.9487 57.7541 17.9743 57.693C17.9999 57.6319 18.0131 57.5663 18.0131 57.5C18.0131 57.4337 17.9999 57.3681 17.9743 57.307C17.9487 57.2459 17.9113 57.1904 17.8641 57.1439C17.8169 57.0974 17.7609 57.0607 17.6995 57.036C17.638 57.0113 17.5722 56.9991 17.5059 57H15.5079C15.7831 56.8563 16.0122 56.733 16.2716 56.5957C16.3397 56.5904 16.4061 56.5713 16.4666 56.5394C16.527 56.5074 16.5803 56.4635 16.6231 56.4102C18.4775 55.4234 20.0477 54.5603 20.9864 54.0566C22.436 53.2788 23.1655 53 24.3067 53ZM58.5059 53C57.131 53 56.0059 54.125 56.0059 55.5V65.5C56.0059 66.875 57.131 68 58.5059 68H61.5059C62.8809 68 64.0059 66.875 64.0059 65.5V55.5C64.0059 54.125 62.8809 53 61.5059 53H58.5059ZM58.5059 54H61.5059C62.341 54 63.0059 54.665 63.0059 55.5V65.5C63.0059 66.335 62.341 67 61.5059 67H58.5059C57.6709 67 57.0059 66.335 57.0059 65.5V55.5C57.0059 54.665 57.6709 54 58.5059 54ZM49.4981 55.9922C49.4325 55.9932 49.3676 56.0072 49.3074 56.0332C49.2471 56.0593 49.1926 56.097 49.1469 56.1442C49.1011 56.1913 49.0652 56.247 49.041 56.3081C49.0168 56.3691 49.0049 56.4343 49.0059 56.5V57.5C49.005 57.5663 49.0172 57.632 49.0419 57.6935C49.0667 57.755 49.1033 57.811 49.1499 57.8582C49.1964 57.9053 49.2518 57.9428 49.3129 57.9684C49.3741 57.9939 49.4397 58.0071 49.5059 58.0071C49.5722 58.0071 49.6378 57.9939 49.6989 57.9684C49.7601 57.9428 49.8155 57.9053 49.862 57.8582C49.9085 57.811 49.9452 57.755 49.9699 57.6935C49.9946 57.632 50.0069 57.5663 50.0059 57.5V56.5C50.007 56.433 49.9946 56.3665 49.9694 56.3044C49.9443 56.2424 49.9069 56.186 49.8595 56.1386C49.8122 56.0912 49.7558 56.0539 49.6937 56.0287C49.6316 56.0036 49.5651 55.9911 49.4981 55.9922ZM19.5059 57C19.4397 56.9991 19.3739 57.0113 19.3124 57.036C19.2509 57.0607 19.195 57.0974 19.1478 57.1439C19.1006 57.1904 19.0631 57.2459 19.0376 57.307C19.012 57.3681 18.9988 57.4337 18.9988 57.5C18.9988 57.5663 19.012 57.6319 19.0376 57.693C19.0631 57.7541 19.1006 57.8096 19.1478 57.8561C19.195 57.9026 19.2509 57.9393 19.3124 57.964C19.3739 57.9887 19.4397 58.0009 19.5059 58H25.5059C25.5722 58.0009 25.638 57.9887 25.6995 57.964C25.7609 57.9393 25.8169 57.9026 25.8641 57.8561C25.9113 57.8096 25.9487 57.7541 25.9743 57.693C25.9999 57.6319 26.0131 57.5663 26.0131 57.5C26.0131 57.4337 25.9999 57.3681 25.9743 57.307C25.9487 57.2459 25.9113 57.1904 25.8641 57.1439C25.8169 57.0974 25.7609 57.0607 25.6995 57.036C25.638 57.0113 25.5722 56.9991 25.5059 57H19.5059ZM49.4981 58.9922C49.4325 58.9932 49.3676 59.0072 49.3074 59.0332C49.2471 59.0593 49.1926 59.097 49.1469 59.1442C49.1011 59.1913 49.0652 59.247 49.041 59.3081C49.0168 59.3691 49.0049 59.4343 49.0059 59.5V65.5C49.0059 66.335 48.341 67 47.5059 67H46.5059C46.4397 66.9991 46.3739 67.0113 46.3124 67.036C46.2509 67.0607 46.195 67.0974 46.1478 67.1439C46.1006 67.1904 46.0631 67.2459 46.0376 67.307C46.012 67.3681 45.9988 67.4337 45.9988 67.5C45.9988 67.5663 46.012 67.6319 46.0376 67.693C46.0631 67.7541 46.1006 67.8096 46.1478 67.8561C46.195 67.9026 46.2509 67.9393 46.3124 67.964C46.3739 67.9887 46.4397 68.0009 46.5059 68H47.5059C48.8809 68 50.0059 66.875 50.0059 65.5V59.5C50.007 59.433 49.9946 59.3665 49.9694 59.3044C49.9443 59.2424 49.9069 59.186 49.8595 59.1386C49.8122 59.0912 49.7558 59.0539 49.6937 59.0287C49.6316 59.0036 49.5651 58.9911 49.4981 58.9922ZM30.3067 59C31.4293 59 32.5628 59.368 33.4005 60.1016C34.2381 60.8351 34.8067 61.9249 34.8067 63.5C34.8067 65.0751 34.2381 66.1649 33.4005 66.8984C32.5628 67.632 31.4293 68 30.3067 68C29.1643 68 28.4371 67.7209 26.9884 66.9434C25.8923 66.3551 23.7522 65.1885 21.4962 64H25.5059C25.5722 64.0009 25.638 63.9887 25.6995 63.964C25.7609 63.9393 25.8169 63.9026 25.8641 63.8561C25.9113 63.8096 25.9487 63.7541 25.9743 63.693C25.9999 63.6319 26.0131 63.5663 26.0131 63.5C26.0131 63.4337 25.9999 63.3681 25.9743 63.307C25.9487 63.2459 25.9113 63.1904 25.8641 63.1439C25.8169 63.0974 25.7609 63.0607 25.6995 63.036C25.638 63.0113 25.5722 62.9991 25.5059 63H21.4962C21.8211 62.8288 21.9699 62.7448 22.2872 62.5762C22.3915 62.5575 22.4873 62.5062 22.5606 62.4297C24.3151 61.4952 26.1047 60.5309 26.9884 60.0566C28.4371 59.2791 29.1643 59 30.3067 59ZM35.4669 61.4609C35.7609 61.5648 36.0731 61.6465 36.4024 61.7031L44.6993 70H43.2852L35.7149 62.4277C35.6582 62.087 35.574 61.7642 35.4669 61.4609ZM27.5059 63C27.4397 62.9991 27.3739 63.0113 27.3124 63.036C27.2509 63.0607 27.195 63.0974 27.1478 63.1439C27.1006 63.1904 27.0631 63.2459 27.0376 63.307C27.012 63.3681 26.9988 63.4337 26.9988 63.5C26.9988 63.5663 27.012 63.6319 27.0376 63.693C27.0631 63.7541 27.1006 63.8096 27.1478 63.8561C27.195 63.9026 27.2509 63.9393 27.3124 63.964C27.3739 63.9887 27.4397 64.0009 27.5059 64H30.5059C30.5722 64.0009 30.638 63.9887 30.6995 63.964C30.7609 63.9393 30.8169 63.9026 30.8641 63.8561C30.9113 63.8096 30.9487 63.7541 30.9743 63.693C30.9999 63.6319 31.0131 63.5663 31.0131 63.5C31.0131 63.4337 30.9999 63.3681 30.9743 63.307C30.9487 63.2459 30.9113 63.1904 30.8641 63.1439C30.8169 63.0974 30.7609 63.0607 30.6995 63.036C30.638 63.0113 30.5722 62.9991 30.5059 63H27.5059ZM35.7872 63.9141L41.8712 70H33.0059V68.3457C33.3782 68.1538 33.7367 67.9323 34.0587 67.6504C35.0239 66.8051 35.6884 65.5359 35.7872 63.9141Z" fill="#F2994A" stroke="#F2994A" stroke-width="0.5"/>
</svg>
