<svg width="74" height="56" viewBox="0 0 74 56" fill="none" xmlns="http://www.w3.org/2000/svg">
<path d="M9.61225 1C6.77285 1 4.45225 3.3206 4.45225 6.16C4.45064 6.27396 4.47169 6.38711 4.51419 6.49286C4.55668 6.59861 4.61977 6.69486 4.69979 6.77602C4.77981 6.85718 4.87516 6.92162 4.9803 6.96561C5.08544 7.0096 5.19828 7.03225 5.31225 7.03225C5.42622 7.03225 5.53906 7.0096 5.6442 6.96561C5.74934 6.92162 5.84469 6.85718 5.92471 6.77602C6.00472 6.69486 6.06782 6.59861 6.11031 6.49286C6.15281 6.38711 6.17386 6.27396 6.17225 6.16C6.17225 4.25048 7.70273 2.72 9.61225 2.72H41.4323C43.3418 2.72 44.8722 4.25048 44.8722 6.16V10.0014C44.8719 10.0115 44.8719 10.0216 44.8722 10.0317V10.46V34.5417H6.17225V28.5217H16.4922C16.6062 28.5233 16.7194 28.5022 16.8251 28.4597C16.9309 28.4173 17.0271 28.3542 17.1083 28.2741C17.1894 28.1941 17.2539 28.0988 17.2979 27.9936C17.3418 27.8885 17.3645 27.7757 17.3645 27.6617C17.3645 27.5477 17.3418 27.4349 17.2979 27.3297C17.2539 27.2246 17.1894 27.1292 17.1083 27.0492C17.0271 26.9692 16.9309 26.9061 16.8251 26.8636C16.7194 26.8211 16.6062 26.8001 16.4922 26.8017H5.44494C5.39666 26.7936 5.34777 26.7897 5.29881 26.7899C5.25715 26.7908 5.21561 26.7948 5.17451 26.8017H1.87225C1.75829 26.8001 1.64514 26.8211 1.53939 26.8636C1.43364 26.9061 1.33739 26.9692 1.25623 27.0492C1.17507 27.1292 1.11063 27.2246 1.06664 27.3297C1.02265 27.4349 1 27.5477 1 27.6617C1 27.7757 1.02265 27.8885 1.06664 27.9936C1.11063 28.0988 1.17507 28.1941 1.25623 28.2741C1.33739 28.3542 1.43364 28.4173 1.53939 28.4597C1.64514 28.5022 1.75829 28.5233 1.87225 28.5217H4.45225V46.5817C4.45225 47.5217 5.23221 48.3017 6.17225 48.3017H12.1922C12.2091 48.3016 12.2259 48.3011 12.2426 48.3C12.6708 52.1667 15.9529 55.1817 19.9322 55.1817C23.9111 55.1817 27.1929 52.1675 27.6219 48.3017H45.2334C45.2795 48.3093 45.3266 48.3093 45.3728 48.3017H50.0826C50.5116 52.1675 53.7934 55.1817 57.7723 55.1817C61.7516 55.1817 65.0337 52.1667 65.4619 48.3C65.4786 48.3011 65.4954 48.3016 65.5123 48.3017H68.0939C70.9333 48.3017 73.2512 45.9805 73.2523 43.1417V27.0167C73.2523 27.0156 73.2523 27.0144 73.2523 27.0133C73.2492 26.169 73.0418 25.3345 72.6392 24.5862L66.5604 13.2987C65.3741 11.0506 63.0408 9.60492 60.4883 9.6C60.4877 9.6 60.4872 9.6 60.4866 9.6H46.5923V6.16C46.5923 3.3206 44.2716 1 41.4323 1H9.61225ZM5.29881 8.72992C5.25715 8.73083 5.21561 8.73476 5.17451 8.74168H1.87225C1.75829 8.74007 1.64514 8.76112 1.53939 8.80362C1.43364 8.84612 1.33739 8.90921 1.25623 8.98922C1.17507 9.06924 1.11063 9.16459 1.06664 9.26973C1.02265 9.37487 1 9.48771 1 9.60168C1 9.71565 1.02265 9.82849 1.06664 9.93363C1.11063 10.0388 1.17507 10.1341 1.25623 10.2141C1.33739 10.2942 1.43364 10.3572 1.53939 10.3997C1.64514 10.4422 1.75829 10.4633 1.87225 10.4617H4.45225V12.1817C4.45064 12.2956 4.47169 12.4088 4.51419 12.5145C4.55668 12.6203 4.61977 12.7165 4.69979 12.7977C4.77981 12.8789 4.87516 12.9433 4.9803 12.9873C5.08544 13.0313 5.19828 13.0539 5.31225 13.0539C5.42622 13.0539 5.53906 13.0313 5.6442 12.9873C5.74934 12.9433 5.84469 12.8789 5.92471 12.7977C6.00472 12.7165 6.06782 12.6203 6.11031 12.5145C6.15281 12.4088 6.17386 12.2956 6.17225 12.1817V10.4617H26.8122C26.9262 10.4633 27.0394 10.4422 27.1451 10.3997C27.2509 10.3572 27.3471 10.2942 27.4283 10.2141C27.5094 10.1341 27.5739 10.0388 27.6179 9.93363C27.6618 9.82849 27.6845 9.71565 27.6845 9.60168C27.6845 9.48771 27.6618 9.37487 27.6179 9.26973C27.5739 9.16459 27.5094 9.06924 27.4283 8.98922C27.3471 8.90921 27.2509 8.84612 27.1451 8.80362C27.0394 8.76112 26.9262 8.74007 26.8122 8.74168H5.44494C5.39666 8.73361 5.34777 8.72968 5.29881 8.72992ZM45.7323 11.32H60.4866C62.3923 11.3243 64.1495 12.4103 65.0419 14.1066C65.0436 14.1094 65.0453 14.1122 65.047 14.115L71.1258 25.4025C71.3917 25.8973 71.5302 26.4528 71.5322 27.02V31.1017H54.7622C54.0441 31.1017 53.4723 30.5298 53.4723 29.8117V16.9117C53.4723 16.1936 54.0441 15.6217 54.7622 15.6217H59.0623C59.1192 15.6225 59.1758 15.612 59.2287 15.5907C59.2816 15.5695 59.3297 15.5379 59.3703 15.4979C59.4108 15.4579 59.4431 15.4102 59.4651 15.3577C59.487 15.3051 59.4984 15.2487 59.4984 15.1917C59.4984 15.1347 59.487 15.0783 59.4651 15.0257C59.4431 14.9731 59.4108 14.9255 59.3703 14.8855C59.3297 14.8454 59.2816 14.8139 59.2287 14.7927C59.1758 14.7714 59.1192 14.7609 59.0623 14.7617H54.7622C53.5798 14.7617 52.6123 15.7292 52.6123 16.9117V29.8117C52.6123 30.9942 53.5798 31.9617 54.7622 31.9617H71.5322V37.9817H68.5222C67.3398 37.9817 66.3723 38.9492 66.3723 40.1317V41.8517C66.3723 43.0342 67.3398 44.0017 68.5222 44.0017H71.413C71.0324 45.4881 69.7042 46.5817 68.0939 46.5817H65.5123C65.4954 46.5818 65.4786 46.5823 65.4619 46.5834C65.0337 42.7167 61.7516 39.7017 57.7723 39.7017C53.7934 39.7017 50.5116 42.7158 50.0826 46.5817H45.7323V35.0406C45.7398 34.9944 45.7398 34.9473 45.7323 34.9011V11.32ZM5.29881 14.7499C5.25715 14.7508 5.21561 14.7548 5.17451 14.7617H1.87225C1.75829 14.7601 1.64514 14.7811 1.53939 14.8236C1.43364 14.8661 1.33739 14.9292 1.25623 15.0092C1.17507 15.0892 1.11063 15.1846 1.06664 15.2897C1.02265 15.3949 1 15.5077 1 15.6217C1 15.7357 1.02265 15.8485 1.06664 15.9536C1.11063 16.0588 1.17507 16.1541 1.25623 16.2341C1.33739 16.3142 1.43364 16.3772 1.53939 16.4197C1.64514 16.4622 1.75829 16.4833 1.87225 16.4817H4.45225V18.2017C4.45064 18.3156 4.47169 18.4288 4.51419 18.5345C4.55668 18.6403 4.61977 18.7365 4.69979 18.8177C4.77981 18.8989 4.87516 18.9633 4.9803 19.0073C5.08544 19.0513 5.19828 19.0739 5.31225 19.0739C5.42622 19.0739 5.53906 19.0513 5.6442 19.0073C5.74934 18.9633 5.84469 18.8989 5.92471 18.8177C6.00472 18.7365 6.06782 18.6403 6.11031 18.5345C6.15281 18.4288 6.17386 18.3156 6.17225 18.2017V16.4817H23.3722C23.4862 16.4833 23.5994 16.4622 23.7051 16.4197C23.8109 16.3772 23.9071 16.3142 23.9883 16.2341C24.0694 16.1541 24.1339 16.0588 24.1779 15.9536C24.2218 15.8485 24.2445 15.7357 24.2445 15.6217C24.2445 15.5077 24.2218 15.3949 24.1779 15.2897C24.1339 15.1846 24.0694 15.0892 23.9883 15.0092C23.9071 14.9292 23.8109 14.8661 23.7051 14.8236C23.5994 14.7811 23.4862 14.7601 23.3722 14.7617H5.44494C5.39666 14.7536 5.34777 14.7497 5.29881 14.7499ZM60.7822 14.7617C60.7253 14.7609 60.6687 14.7714 60.6158 14.7927C60.5629 14.8139 60.5148 14.8454 60.4742 14.8855C60.4337 14.9255 60.4014 14.9731 60.3794 15.0257C60.3575 15.0783 60.3461 15.1347 60.3461 15.1917C60.3461 15.2487 60.3575 15.3051 60.3794 15.3577C60.4014 15.4102 60.4337 15.4579 60.4742 15.4979C60.5148 15.5379 60.5629 15.5695 60.6158 15.5907C60.6687 15.612 60.7253 15.6225 60.7822 15.6217H61.6423C61.6992 15.6225 61.7558 15.612 61.8087 15.5907C61.8616 15.5695 61.9097 15.5379 61.9503 15.4979C61.9908 15.4579 62.0231 15.4102 62.0451 15.3577C62.067 15.3051 62.0784 15.2487 62.0784 15.1917C62.0784 15.1347 62.067 15.0783 62.0451 15.0257C62.0231 14.9731 61.9908 14.9255 61.9503 14.8855C61.9097 14.8454 61.8616 14.8139 61.8087 14.7927C61.7558 14.7714 61.6992 14.7609 61.6423 14.7617H60.7822ZM63.3623 14.7617C63.3053 14.7609 63.2487 14.7714 63.1958 14.7927C63.1429 14.8139 63.0948 14.8454 63.0542 14.8855C63.0137 14.9255 62.9814 14.9731 62.9594 15.0257C62.9375 15.0783 62.9261 15.1347 62.9261 15.1917C62.9261 15.2487 62.9375 15.3051 62.9594 15.3577C62.9814 15.4102 63.0137 15.4579 63.0542 15.4979C63.0948 15.5379 63.1429 15.5695 63.1958 15.5907C63.2487 15.612 63.3053 15.6225 63.3623 15.6217H64.2223C64.2792 15.6225 64.3358 15.612 64.3887 15.5907C64.4416 15.5695 64.4897 15.5379 64.5303 15.4979C64.5708 15.4579 64.6031 15.4102 64.6251 15.3577C64.647 15.3051 64.6584 15.2487 64.6584 15.1917C64.6584 15.1347 64.647 15.0783 64.6251 15.0257C64.6031 14.9731 64.5708 14.9255 64.5303 14.8855C64.4897 14.8454 64.4416 14.8139 64.3887 14.7927C64.3358 14.7714 64.2792 14.7609 64.2223 14.7617H63.3623ZM5.29881 20.7699C5.25715 20.7708 5.21561 20.7748 5.17451 20.7817H1.87225C1.75829 20.7801 1.64514 20.8011 1.53939 20.8436C1.43364 20.8861 1.33739 20.9492 1.25623 21.0292C1.17507 21.1092 1.11063 21.2046 1.06664 21.3097C1.02265 21.4149 1 21.5277 1 21.6417C1 21.7557 1.02265 21.8685 1.06664 21.9736C1.11063 22.0788 1.17507 22.1741 1.25623 22.2541C1.33739 22.3342 1.43364 22.3973 1.53939 22.4397C1.64514 22.4822 1.75829 22.5033 1.87225 22.5017H4.45225V24.2217C4.45064 24.3356 4.47169 24.4488 4.51419 24.5545C4.55668 24.6603 4.61977 24.7565 4.69979 24.8377C4.77981 24.9189 4.87516 24.9833 4.9803 25.0273C5.08544 25.0713 5.19828 25.0939 5.31225 25.0939C5.42622 25.0939 5.53906 25.0713 5.6442 25.0273C5.74934 24.9833 5.84469 24.9189 5.92471 24.8377C6.00472 24.7565 6.06782 24.6603 6.11031 24.5545C6.15281 24.4488 6.17386 24.3356 6.17225 24.2217V22.5017H19.9322C20.0462 22.5033 20.1594 22.4822 20.2651 22.4397C20.3709 22.3973 20.4671 22.3342 20.5483 22.2541C20.6294 22.1741 20.6939 22.0788 20.7379 21.9736C20.7818 21.8685 20.8045 21.7557 20.8045 21.6417C20.8045 21.5277 20.7818 21.4149 20.7379 21.3097C20.6939 21.2046 20.6294 21.1092 20.5483 21.0292C20.4671 20.9492 20.3709 20.8861 20.2651 20.8436C20.1594 20.8011 20.0462 20.7801 19.9322 20.7817H5.44494C5.39666 20.7736 5.34777 20.7697 5.29881 20.7699ZM6.17225 35.4017H44.8722V46.5817H27.6219C27.1929 42.7158 23.9111 39.7017 19.9322 39.7017C15.9529 39.7017 12.6708 42.7167 12.2426 46.5834C12.2259 46.5823 12.2091 46.5818 12.1922 46.5817H6.17225V44.0017H9.18225C10.3647 44.0017 11.3322 43.0342 11.3322 41.8517V40.1317C11.3322 38.9492 10.3647 37.9817 9.18225 37.9817H6.17225V35.4017ZM6.17225 38.8417H9.18225C9.90036 38.8417 10.4722 39.4136 10.4722 40.1317V41.8517C10.4722 42.5698 9.90036 43.1417 9.18225 43.1417H6.17225V38.8417ZM68.5222 38.8417H71.5322V43.1417H68.5222C67.8041 43.1417 67.2323 42.5698 67.2323 41.8517V40.1317C67.2323 39.4136 67.8041 38.8417 68.5222 38.8417ZM19.9322 40.5617C23.7371 40.5617 26.8122 43.6369 26.8122 47.4417C26.8122 51.2465 23.7371 54.3217 19.9322 54.3217C16.1615 54.3217 13.1117 51.3001 13.0573 47.5425C13.0657 47.4733 13.0657 47.4034 13.0573 47.3342C13.1152 43.5797 16.1637 40.5617 19.9322 40.5617ZM57.7723 40.5617C61.543 40.5617 64.5928 43.5833 64.6472 47.3409C64.6388 47.4101 64.6388 47.48 64.6472 47.5492C64.5893 51.3037 61.5407 54.3217 57.7723 54.3217C53.9674 54.3217 50.8923 51.2465 50.8923 47.4417C50.8923 43.6369 53.9674 40.5617 57.7723 40.5617ZM19.9322 44.0017C18.8214 44.0017 17.9344 44.4337 17.3539 45.0868C16.7735 45.7398 16.4922 46.5936 16.4922 47.4417C16.4922 48.2897 16.7735 49.1436 17.3539 49.7966C17.9344 50.4496 18.8214 50.8817 19.9322 50.8817C21.0431 50.8817 21.9301 50.4496 22.5106 49.7966C23.091 49.1436 23.3722 48.2897 23.3722 47.4417C23.3722 46.5936 23.091 45.7398 22.5106 45.0868C21.9301 44.4337 21.0431 44.0017 19.9322 44.0017ZM57.7723 44.0017C56.6614 44.0017 55.7744 44.4337 55.1939 45.0868C54.6135 45.7398 54.3323 46.5936 54.3323 47.4417C54.3323 48.2897 54.6135 49.1436 55.1939 49.7966C55.7744 50.4496 56.6614 50.8817 57.7723 50.8817C58.8831 50.8817 59.7701 50.4496 60.3506 49.7966C60.931 49.1436 61.2122 48.2897 61.2122 47.4417C61.2122 46.5936 60.931 45.7398 60.3506 45.0868C59.7701 44.4337 58.8831 44.0017 57.7723 44.0017ZM19.9322 44.8617C20.8281 44.8617 21.4461 45.1821 21.8689 45.6579C22.2918 46.1336 22.5122 46.7847 22.5122 47.4417C22.5122 48.0986 22.2918 48.7498 21.8689 49.2255C21.4461 49.7012 20.8281 50.0217 19.9322 50.0217C19.0364 50.0217 18.4184 49.7012 17.9956 49.2255C17.5727 48.7498 17.3522 48.0986 17.3522 47.4417C17.3522 46.7847 17.5727 46.1336 17.9956 45.6579C18.4184 45.1821 19.0364 44.8617 19.9322 44.8617ZM57.7723 44.8617C58.6681 44.8617 59.2861 45.1821 59.7089 45.6579C60.1318 46.1336 60.3522 46.7847 60.3522 47.4417C60.3522 48.0986 60.1318 48.7498 59.7089 49.2255C59.2861 49.7012 58.6681 50.0217 57.7723 50.0217C56.8764 50.0217 56.2584 49.7012 55.8356 49.2255C55.4127 48.7498 55.1922 48.0986 55.1922 47.4417C55.1922 46.7847 55.4127 46.1336 55.8356 45.6579C56.2584 45.1821 56.8764 44.8617 57.7723 44.8617Z" fill="#F2994A" stroke="#F2994A"/>
</svg>
