<svg width="72" height="76" viewBox="0 0 72 76" fill="none" xmlns="http://www.w3.org/2000/svg">
<path d="M35.5951 0.000694135C35.4101 0.00738885 35.2293 0.0572218 35.067 0.146217C34.9047 0.235212 34.7655 0.360905 34.6604 0.513267L27.8949 10.2846L24.678 6.37191C24.5645 6.23375 24.4213 6.12299 24.2591 6.0479C24.0968 5.9728 23.9197 5.9353 23.741 5.93819C23.56 5.94132 23.3821 5.98578 23.2209 6.06819C23.0597 6.15059 22.9194 6.26876 22.8109 6.41366L12.1234 20.6637C11.9912 20.8402 11.9108 21.05 11.8911 21.2696C11.8714 21.4893 11.9133 21.71 12.012 21.9072C12.1107 22.1044 12.2624 22.2702 12.45 22.3861C12.6376 22.5019 12.8538 22.5633 13.0743 22.5632H16.6368L10.9359 30.1637C10.8037 30.3402 10.7233 30.55 10.7036 30.7696C10.6839 30.9893 10.7258 31.21 10.8245 31.4072C10.9232 31.6044 11.0749 31.7702 11.2625 31.8861C11.4501 32.0019 11.6663 32.0633 11.8868 32.0632H15.2429L9.79712 38.4159C9.64948 38.5884 9.55439 38.7996 9.52311 39.0244C9.49182 39.2493 9.52566 39.4785 9.6206 39.6847C9.71555 39.891 9.86763 40.0657 10.0588 40.1881C10.25 40.3106 10.4723 40.3757 10.6993 40.3757H20.1993V43.9382H1.19934C0.884403 43.9382 0.582377 44.0634 0.359684 44.286C0.136991 44.5087 0.01187 44.8108 0.0118385 45.1257V49.6971C-0.0163781 49.8955 0.00603986 50.0977 0.0770061 50.2851C0.147972 50.4724 0.26518 50.6388 0.417722 50.7686L19.4177 67.3936C19.5554 67.5145 19.7191 67.6019 19.8962 67.649C20.0732 67.6961 20.2587 67.7015 20.4382 67.665L25.4828 66.6259L27.4496 70.5619C27.5417 70.7456 27.68 70.9022 27.8508 71.0164L34.9758 75.7989C35.1628 75.9242 35.3816 75.9938 35.6066 75.9996C35.8316 76.0053 36.0537 75.947 36.2468 75.8314L48.1218 68.7064C48.3159 68.5904 48.4728 68.4214 48.5741 68.2193L50.6197 64.1257H55.8243C56.1216 64.1254 56.4079 64.0137 56.6268 63.8126L70.8768 50.7501C71.0437 50.608 71.168 50.4225 71.2359 50.2141C71.3039 50.0058 71.3128 49.7827 71.2618 49.5695V48.6882V45.1257C71.2618 44.8108 71.1367 44.5087 70.914 44.286C70.6913 44.0634 70.3893 43.9382 70.0743 43.9382H51.0743V40.3757H60.5743C60.8014 40.3757 61.0237 40.3106 61.2149 40.1881C61.4061 40.0657 61.5581 39.891 61.6531 39.6847C61.748 39.4785 61.7818 39.2493 61.7506 39.0244C61.7193 38.7996 61.6242 38.5884 61.4766 38.4159L56.0308 32.0632H59.3868C59.6074 32.0633 59.8235 32.0019 60.0112 31.8861C60.1988 31.7702 60.3504 31.6044 60.4492 31.4072C60.5479 31.21 60.5897 30.9893 60.5701 30.7696C60.5504 30.55 60.47 30.3402 60.3378 30.1637L54.6368 22.5632H58.1993C58.4199 22.5633 58.636 22.5019 58.8237 22.3861C59.0113 22.2702 59.1629 22.1044 59.2617 21.9072C59.3604 21.71 59.4022 21.4893 59.3826 21.2696C59.3629 21.05 59.2825 20.8402 59.1503 20.6637L48.4628 6.41366C48.3554 6.27028 48.2171 6.15304 48.058 6.0707C47.899 5.98836 47.7233 5.94306 47.5443 5.93819C47.3636 5.93353 47.1842 5.97018 47.0198 6.04534C46.8554 6.1205 46.7104 6.23219 46.5957 6.37191L43.3788 10.2846L36.6133 0.513267C36.5002 0.349294 36.3476 0.216406 36.1697 0.126834C35.9918 0.0372624 35.7942 -0.00611502 35.5951 0.000694135ZM35.6368 3.27328L44.0583 15.4382H27.2153L35.6368 3.27328ZM23.8059 9.04842L26.4894 12.314L23.9729 15.9508C23.8499 16.129 23.7779 16.3374 23.7647 16.5535C23.7516 16.7696 23.7978 16.9853 23.8984 17.177C23.9989 17.3688 24.15 17.5294 24.3352 17.6416C24.5204 17.7537 24.7328 17.813 24.9493 17.8132H28.5118L26.7306 20.1882H15.4493L23.8059 9.04842ZM47.4678 9.04842L55.8243 20.1882H44.5431L42.7618 17.8132H46.3243C46.5409 17.813 46.7532 17.7537 46.9385 17.6416C47.1237 17.5294 47.2748 17.3688 47.3753 17.177C47.4759 16.9853 47.5221 16.7696 47.5089 16.5535C47.4958 16.3374 47.4238 16.129 47.3008 15.9508L44.7843 12.314L47.4678 9.04842ZM31.4806 17.8132H39.7931L45.1368 24.9382H26.1368L31.4806 17.8132ZM19.6056 22.5632H24.9493L22.8109 25.4137C22.6787 25.5902 22.5983 25.8 22.5786 26.0196C22.5589 26.2393 22.6008 26.46 22.6995 26.6572C22.7982 26.8544 22.9499 27.0202 23.1375 27.1361C23.3251 27.2519 23.5413 27.3133 23.7618 27.3132H27.1179L25.0815 29.6882H14.2618L19.6056 22.5632ZM46.3243 22.5632H51.6681L57.0118 29.6882H46.1921L44.1558 27.3132H47.5118C47.7324 27.3133 47.9485 27.2519 48.1362 27.1361C48.3238 27.0202 48.4754 26.8544 48.5742 26.6572C48.6729 26.46 48.7147 26.2393 48.6951 26.0196C48.6754 25.8 48.595 25.5902 48.4628 25.4137L46.3243 22.5632ZM30.2467 27.3132H41.027L46.1179 33.2507H25.1558L30.2467 27.3132ZM18.3717 32.0632H23.0452L21.6721 33.6659C21.5245 33.8384 21.4294 34.0496 21.3981 34.2744C21.3668 34.4993 21.4007 34.7285 21.4956 34.9347C21.5906 35.141 21.7426 35.3157 21.9338 35.4381C22.125 35.5606 22.3473 35.6257 22.5743 35.6257H32.0743V38.0007H13.2808L18.3717 32.0632ZM48.2285 32.0632H52.902L57.9929 38.0007H49.8868H45.1368H39.1993V35.6257H48.6993C48.9264 35.6257 49.1487 35.5606 49.3399 35.4381C49.5311 35.3157 49.6831 35.141 49.7781 34.9347C49.873 34.7285 49.9068 34.4993 49.8756 34.2744C49.8443 34.0496 49.7492 33.8384 49.6016 33.6659L48.2285 32.0632ZM34.4493 35.6257H36.8243V43.9382H34.4493V35.6257ZM22.5743 40.3757H24.9493V43.9382H22.5743V40.3757ZM27.3243 40.3757H32.0743V43.9382H27.3243V40.3757ZM39.1993 40.3757H43.9493V43.9382H39.1993V40.3757ZM46.3243 40.3757H48.6993V43.9382H46.3243V40.3757ZM2.38684 46.3132H68.8868V49.5695H59.3868C58.7313 49.5695 58.1993 49.2202 58.1993 49.8757C58.1993 50.5312 58.7313 51.0632 59.3868 51.0632H67.0221L60.5743 56.9729V54.6257C60.5743 53.9714 60.0411 53.4382 59.3868 53.4382C58.7325 53.4382 58.1993 53.9714 58.1993 54.6257V57.0007C58.1993 57.6147 58.6746 58.1048 59.2732 58.165L55.3628 61.7507H49.8868C49.6663 61.7507 49.4501 61.8121 49.2625 61.928C49.0749 62.0439 48.9232 62.2098 48.8246 62.4071L46.605 66.8486L35.6716 73.4077L29.4349 69.219L27.1991 64.7496C27.0823 64.5155 26.8914 64.3265 26.6561 64.212C26.4208 64.0975 26.1543 64.0639 25.8979 64.1164L20.538 65.2181L12.3762 58.0769C12.7857 57.8892 13.0743 57.4794 13.0743 57.0007V54.6257C13.0743 53.9714 12.5412 53.4382 11.8868 53.4382C11.2325 53.4382 10.6993 53.9714 10.6993 54.6257V56.611L4.35827 51.0632H47.5118C48.1673 51.0632 48.6993 50.5312 48.6993 49.8757C48.6993 49.2202 48.1673 49.5695 47.5118 49.5695H2.38684V46.3132ZM52.2618 49.5695C51.6063 49.5695 51.0743 49.2202 51.0743 49.8757C51.0743 50.5312 51.6063 51.0632 52.2618 51.0632H54.6368C55.2923 51.0632 55.8243 50.5312 55.8243 49.8757C55.8243 49.2202 55.2923 49.5695 54.6368 49.5695H52.2618ZM17.8243 53.4382C17.17 53.4382 16.6368 53.9714 16.6368 54.6257V57.0007C16.6368 57.655 17.17 58.1882 17.8243 58.1882C18.4787 58.1882 19.0118 57.655 19.0118 57.0007V54.6257C19.0118 53.9714 18.4787 53.4382 17.8243 53.4382ZM23.7618 53.4382C23.1075 53.4382 22.5743 53.9714 22.5743 54.6257V57.0007C22.5743 57.655 23.1075 58.1882 23.7618 58.1882C24.4162 58.1882 24.9493 57.655 24.9493 57.0007V54.6257C24.9493 53.9714 24.4162 53.4382 23.7618 53.4382ZM29.6993 53.4382C29.045 53.4382 28.5118 53.9714 28.5118 54.6257V57.0007C28.5118 57.655 29.045 58.1882 29.6993 58.1882C30.3537 58.1882 30.8868 57.655 30.8868 57.0007V54.6257C30.8868 53.9714 30.3537 53.4382 29.6993 53.4382ZM35.6368 53.4382C34.9825 53.4382 34.4493 53.9714 34.4493 54.6257V57.0007C34.4493 57.655 34.9825 58.1882 35.6368 58.1882C36.2912 58.1882 36.8243 57.655 36.8243 57.0007V54.6257C36.8243 53.9714 36.2912 53.4382 35.6368 53.4382ZM41.5743 53.4382C40.92 53.4382 40.3868 53.9714 40.3868 54.6257V57.0007C40.3868 57.655 40.92 58.1882 41.5743 58.1882C42.2286 58.1882 42.7618 57.655 42.7618 57.0007V54.6257C42.7618 53.9714 42.2286 53.4382 41.5743 53.4382ZM47.5118 53.4382C46.8575 53.4382 46.3243 53.9714 46.3243 54.6257V57.0007C46.3243 57.655 46.8575 58.1882 47.5118 58.1882C48.1661 58.1882 48.6993 57.655 48.6993 57.0007V54.6257C48.6993 53.9714 48.1661 53.4382 47.5118 53.4382ZM53.4493 53.4382C52.795 53.4382 52.2618 53.9714 52.2618 54.6257V57.0007C52.2618 57.655 52.795 58.1882 53.4493 58.1882C54.1036 58.1882 54.6368 57.655 54.6368 57.0007V54.6257C54.6368 53.9714 54.1036 53.4382 53.4493 53.4382Z" fill="#F2994A"/>
</svg>
