<svg width="78" height="62" viewBox="0 0 78 62" fill="none" xmlns="http://www.w3.org/2000/svg">
<path d="M71.2188 37.625H71.2107C68.5151 31.1602 62.1619 26.875 55.0938 26.875C53.2394 26.875 51.4307 27.1787 49.7188 27.739V19.9278C49.7188 19.2304 49.536 18.5424 49.2135 17.974L41.1913 2.6875H44.3438V0H29.5625C27.3399 0 25.5312 1.80869 25.5312 4.03125V17.4688H14.7812C6.63141 17.4688 0 24.1002 0 32.25V34.9375V44.3438C0 48.0485 3.01403 51.0625 6.71875 51.0625H6.82625C6.76309 51.5033 6.71875 51.9494 6.71875 52.4062C6.71875 57.5931 10.9381 61.8125 16.125 61.8125C21.3119 61.8125 25.5312 57.5931 25.5312 52.4062C25.5312 51.9494 25.4869 51.5033 25.4237 51.0625H38.9688H38.9755C41.6993 57.6039 47.9732 61.8125 55.0938 61.8125C62.1619 61.8125 68.5138 57.5273 71.2107 51.0625H71.2188C74.9235 51.0625 77.9375 48.0485 77.9375 44.3438C77.9375 40.639 74.9235 37.625 71.2188 37.625ZM68.2531 37.625H41.9371C44.4392 32.7485 49.536 29.5625 55.0938 29.5625C60.6891 29.5625 65.7551 32.7364 68.2531 37.625ZM60.4688 48.375H49.7188V40.3125H60.4688V48.375ZM38.9688 48.375C36.7462 48.375 34.9375 46.5663 34.9375 44.3438C34.9375 42.1212 36.7462 40.3125 38.9688 40.3125H47.0312V48.375H38.9688ZM47.0312 19.9265V26.875H29.5625C28.8221 26.875 28.2188 26.2717 28.2188 25.5312V9.40625H41.6562V9.35519L46.8552 19.26C46.9708 19.4642 47.0312 19.694 47.0312 19.9265ZM29.5625 2.6875H38.1571L40.2735 6.71875H28.2188V4.03125C28.2188 3.29084 28.8221 2.6875 29.5625 2.6875ZM2.6875 37.625H4.03125L4.03259 41.6562H2.6875V37.625ZM16.125 59.125C12.4203 59.125 9.40625 56.111 9.40625 52.4062C9.40625 48.7015 12.4203 45.6875 16.125 45.6875C19.8297 45.6875 22.8438 48.7015 22.8438 52.4062C22.8438 56.111 19.8297 59.125 16.125 59.125ZM16.125 43C12.3827 43 9.15228 45.2024 7.63922 48.375H6.71875C4.49619 48.375 2.6875 46.5663 2.6875 44.3438H4.03125C5.51341 44.3438 6.71875 43.1384 6.71875 41.6562V37.625C6.71875 36.1428 5.51341 34.9375 4.03125 34.9375H2.6875V32.25C2.6875 31.7958 2.71706 31.3483 2.76678 30.9062H12.0938V28.2188H3.39297C3.73159 27.2633 4.17637 26.359 4.73269 25.5312H14.7812V22.8438H7.19712C9.27322 21.1667 11.911 20.1562 14.7812 20.1562H25.5312V25.5312C25.5312 27.7538 27.3399 29.5625 29.5625 29.5625H45.8407C42.8267 31.4505 40.3931 34.2401 38.9782 37.625H38.9688C35.264 37.625 32.25 40.639 32.25 44.3438C32.25 45.8622 32.7754 47.2489 33.6287 48.375H24.6108C23.0977 45.2024 19.8673 43 16.125 43ZM55.0938 59.125C49.4527 59.125 44.4405 56.0021 41.9317 51.0625H68.2544C65.7551 55.9497 60.6891 59.125 55.0938 59.125ZM71.2188 48.375H63.1562V40.3125H71.2188C73.4413 40.3125 75.25 42.1212 75.25 44.3438C75.25 46.5663 73.4413 48.375 71.2188 48.375Z" fill="#F2994A"/>
</svg>
