<svg width="66" height="61" viewBox="0 0 66 61" fill="none" xmlns="http://www.w3.org/2000/svg">
<path d="M33.0114 1C30.8536 1 29.1076 2.47424 28.5114 4.44062C28.147 4.34924 27.8063 4.2 27.4114 4.2C25.2536 4.2 23.5076 5.67424 22.9114 7.64062C22.547 7.54924 22.2063 7.4 21.8114 7.4C19.6536 7.4 17.9076 8.87424 17.3114 10.8406C16.947 10.7492 16.6063 10.6 16.2114 10.6C13.8433 10.6 11.8691 12.3374 11.4848 14.6H5.41139C3.43264 14.6 1.81139 16.2212 1.81139 18.2C1.81139 20.1788 3.43264 21.8 5.41139 21.8H5.81139V41.8H1.81139C1.70538 41.7985 1.60013 41.8181 1.50176 41.8576C1.40338 41.8971 1.31385 41.9558 1.23835 42.0303C1.16286 42.1047 1.10291 42.1934 1.06199 42.2912C1.02107 42.389 1 42.494 1 42.6C1 42.706 1.02107 42.811 1.06199 42.9088C1.10291 43.0066 1.16286 43.0953 1.23835 43.1697C1.31385 43.2442 1.40338 43.3029 1.50176 43.3424C1.60013 43.3819 1.70538 43.4015 1.81139 43.4H5.81139V45C5.81139 48.0835 8.32793 50.6 11.4114 50.6H12.8239C12.4345 51.4556 12.2114 52.4013 12.2114 53.4C12.2114 57.1461 15.2653 60.2 19.0114 60.2C22.7575 60.2 25.8114 57.1461 25.8114 53.4C25.8114 52.4013 25.5883 51.4556 25.1989 50.6H40.8239C40.4345 51.4556 40.2114 52.4013 40.2114 53.4C40.2114 57.1461 43.2653 60.2 47.0114 60.2C50.7575 60.2 53.8114 57.1461 53.8114 53.4C53.8114 52.4013 53.5883 51.4556 53.1989 50.6H54.6114C57.6949 50.6 60.2114 48.0835 60.2114 45V43.4H64.2114C64.3174 43.4015 64.4227 43.3819 64.521 43.3424C64.6194 43.3029 64.7089 43.2442 64.7844 43.1697C64.8599 43.0953 64.9199 43.0066 64.9608 42.9088C65.0017 42.811 65.0228 42.706 65.0228 42.6C65.0228 42.494 65.0017 42.389 64.9608 42.2912C64.9199 42.1934 64.8599 42.1047 64.7844 42.0303C64.7089 41.9558 64.6194 41.8971 64.521 41.8576C64.4227 41.8181 64.3174 41.7985 64.2114 41.8H60.2114V21.8H60.6114C62.5901 21.8 64.2114 20.1788 64.2114 18.2C64.2114 16.2212 62.5901 14.6 60.6114 14.6H54.538C54.1537 12.3374 52.1795 10.6 49.8114 10.6C49.4164 10.6 49.0758 10.7492 48.7114 10.8406C48.1152 8.87424 46.3692 7.4 44.2114 7.4C43.8164 7.4 43.4758 7.54924 43.1114 7.64062C42.5152 5.67424 40.7692 4.2 38.6114 4.2C38.2164 4.2 37.8758 4.34924 37.5114 4.44062C36.9152 2.47424 35.1692 1 33.0114 1ZM33.0114 2.6C34.6661 2.6 35.995 3.84374 36.1723 5.45C36.1847 5.56019 36.2198 5.6666 36.2755 5.7625C35.6286 6.23465 35.1282 6.89636 34.8551 7.66563C34.8375 7.71518 34.8298 7.76772 34.8324 7.82026C34.8351 7.87279 34.8481 7.92429 34.8706 7.97181C34.8932 8.01932 34.9249 8.06193 34.9639 8.0972C35.003 8.13246 35.0486 8.1597 35.0981 8.17734C35.1477 8.19499 35.2002 8.2027 35.2527 8.20004C35.3053 8.19738 35.3568 8.1844 35.4043 8.16184C35.4518 8.13928 35.4944 8.10758 35.5297 8.06855C35.565 8.02952 35.5922 7.98393 35.6098 7.93438C35.9052 7.10207 36.532 6.43463 37.3301 6.07969C37.5052 6.00232 37.6862 5.94287 37.8723 5.89687C37.9057 5.88886 37.9385 5.87882 37.9723 5.87188C38.1792 5.82794 38.3919 5.8 38.6114 5.8C38.8175 5.8 39.0183 5.8191 39.213 5.85625H39.2145C40.1871 6.04236 40.9965 6.67094 41.4364 7.525V7.52656C41.5241 7.69708 41.5968 7.87728 41.6536 8.06406V8.06563C41.7101 8.25336 41.7502 8.44922 41.7723 8.65C41.7863 8.7755 41.8297 8.89591 41.8991 9.0014C41.9685 9.10689 42.0619 9.19446 42.1716 9.25694C42.2813 9.31943 42.4043 9.35505 42.5304 9.3609C42.6566 9.36676 42.7823 9.34268 42.8973 9.29063C43.3054 9.10542 43.7446 9 44.2114 9C45.8661 9 47.195 10.2437 47.3723 11.85C47.3863 11.9755 47.4297 12.0959 47.4991 12.2014C47.5685 12.3069 47.6619 12.3945 47.7716 12.4569C47.8813 12.5194 48.0043 12.555 48.1304 12.5609C48.2566 12.5668 48.3823 12.5427 48.4973 12.4906C48.9054 12.3054 49.3446 12.2 49.8114 12.2C51.3093 12.2 52.5463 13.2175 52.9005 14.6H13.1223C13.4764 13.2175 14.7135 12.2 16.2114 12.2C16.6782 12.2 17.1174 12.3054 17.5255 12.4906C17.6405 12.5427 17.7662 12.5668 17.8924 12.5609C18.0185 12.555 18.1414 12.5194 18.2512 12.4569C18.3609 12.3945 18.4543 12.3069 18.5237 12.2014C18.5931 12.0959 18.6365 11.9755 18.6505 11.85C18.6726 11.6492 18.7127 11.4518 18.7692 11.2641C18.8259 11.0773 18.8987 10.8971 18.9864 10.7266V10.725C19.3385 10.0414 19.9278 9.50208 20.6473 9.21875C20.8265 9.14843 21.0158 9.09321 21.2098 9.05625C21.4044 9.01929 21.6051 9 21.8114 9C22.0405 9 22.2632 9.02724 22.4786 9.075C22.499 9.07936 22.5177 9.08744 22.538 9.09219C22.7319 9.13924 22.92 9.20177 23.102 9.28281C24.1132 9.73504 24.8448 10.6938 24.9739 11.8453C24.9798 11.8975 24.996 11.9481 25.0215 11.994C25.047 12.04 25.0813 12.0805 25.1224 12.1132C25.1635 12.1459 25.2107 12.1702 25.2612 12.1847C25.3118 12.1992 25.3646 12.2036 25.4169 12.1977C25.4691 12.1917 25.5196 12.1755 25.5656 12.15C25.6116 12.1246 25.6521 12.0903 25.6848 12.0491C25.7175 12.008 25.7418 11.9608 25.7563 11.9103C25.7708 11.8598 25.7752 11.8069 25.7692 11.7547C25.6409 10.6102 25.0228 9.6208 24.1395 8.975C24.1996 8.87597 24.2374 8.76509 24.2505 8.65C24.4278 7.04374 25.7566 5.8 27.4114 5.8C27.8782 5.8 28.3174 5.90542 28.7255 6.09063C28.8405 6.14268 28.9662 6.16676 29.0924 6.1609C29.2185 6.15505 29.3414 6.11943 29.4512 6.05694C29.5609 5.99446 29.6543 5.90689 29.7237 5.8014C29.7931 5.69591 29.8365 5.5755 29.8505 5.45C30.0278 3.84374 31.3566 2.6 33.0114 2.6ZM35.0395 8.99375C34.9835 8.99525 34.9285 9.00849 34.878 9.03261C34.8274 9.05672 34.7825 9.09117 34.7462 9.13374C34.7098 9.1763 34.6828 9.22603 34.6668 9.2797C34.6509 9.33337 34.6464 9.38979 34.6536 9.44531C34.6878 9.74966 34.7519 10.0459 34.8536 10.3328C34.8708 10.3826 34.8977 10.4285 34.9328 10.4679C34.9678 10.5073 35.0103 10.5393 35.0578 10.5622C35.1052 10.5851 35.1568 10.5984 35.2094 10.6014C35.262 10.6043 35.3147 10.5968 35.3644 10.5793C35.4141 10.5618 35.4599 10.5346 35.4991 10.4994C35.5383 10.4642 35.5701 10.4215 35.5928 10.3739C35.6155 10.3263 35.6285 10.2747 35.6311 10.2221C35.6338 10.1695 35.626 10.1168 35.6083 10.0672C35.5291 9.84371 35.4771 9.60554 35.4489 9.35469C35.439 9.25387 35.3913 9.16056 35.3153 9.09357C35.2393 9.02658 35.1408 8.99091 35.0395 8.99375ZM5.41139 16.2H60.6114C61.7254 16.2 62.6114 17.086 62.6114 18.2C62.6114 19.3141 61.7254 20.2 60.6114 20.2H59.8114H6.61139H5.41139C4.29734 20.2 3.41139 19.3141 3.41139 18.2C3.41139 17.086 4.29734 16.2 5.41139 16.2ZM7.41139 21H58.6114V29.8H7.41139V25.8H48.6114C48.6644 25.8008 48.717 25.791 48.7662 25.7712C48.8154 25.7514 48.8602 25.7221 48.8979 25.6849C48.9357 25.6476 48.9656 25.6033 48.9861 25.5544C49.0066 25.5055 49.0171 25.453 49.0171 25.4C49.0171 25.347 49.0066 25.2945 48.9861 25.2456C48.9656 25.1967 48.9357 25.1524 48.8979 25.1151C48.8602 25.0779 48.8154 25.0486 48.7662 25.0288C48.717 25.009 48.6644 24.9993 48.6114 25H7.41139V21ZM51.0114 25C50.9584 24.9993 50.9058 25.009 50.8566 25.0288C50.8074 25.0486 50.7626 25.0779 50.7249 25.1151C50.6871 25.1524 50.6572 25.1967 50.6367 25.2456C50.6162 25.2945 50.6057 25.347 50.6057 25.4C50.6057 25.453 50.6162 25.5055 50.6367 25.5544C50.6572 25.6033 50.6871 25.6476 50.7249 25.6849C50.7626 25.7221 50.8074 25.7514 50.8566 25.7712C50.9058 25.791 50.9584 25.8008 51.0114 25.8H56.6114C56.6644 25.8008 56.717 25.791 56.7662 25.7712C56.8154 25.7514 56.8602 25.7221 56.8979 25.6849C56.9357 25.6476 56.9656 25.6033 56.9861 25.5544C57.0066 25.5055 57.0171 25.453 57.0171 25.4C57.0171 25.347 57.0066 25.2945 56.9861 25.2456C56.9656 25.1967 56.9357 25.1524 56.8979 25.1151C56.8602 25.0779 56.8154 25.0486 56.7662 25.0288C56.717 25.009 56.6644 24.9993 56.6114 25H51.0114ZM7.41139 30.6H58.6114V34.6H17.4114C17.3584 34.5993 17.3058 34.609 17.2566 34.6288C17.2074 34.6486 17.1626 34.6779 17.1249 34.7151C17.0871 34.7524 17.0571 34.7967 17.0367 34.8456C17.0162 34.8945 17.0057 34.947 17.0057 35C17.0057 35.053 17.0162 35.1055 17.0367 35.1544C17.0571 35.2033 17.0871 35.2476 17.1249 35.2849C17.1626 35.3221 17.2074 35.3514 17.2566 35.3712C17.3058 35.391 17.3584 35.4007 17.4114 35.4H58.6114V39.4H7.41139V30.6ZM9.41139 34.6C9.35839 34.5993 9.30576 34.609 9.25658 34.6288C9.20739 34.6486 9.16262 34.6779 9.12487 34.7151C9.08712 34.7524 9.05715 34.7967 9.03669 34.8456C9.01623 34.8945 9.0057 34.947 9.0057 35C9.0057 35.053 9.01623 35.1055 9.03669 35.1544C9.05715 35.2033 9.08712 35.2476 9.12487 35.2849C9.16262 35.3221 9.20739 35.3514 9.25658 35.3712C9.30576 35.391 9.35839 35.4007 9.41139 35.4H15.0114C15.0644 35.4007 15.117 35.391 15.1662 35.3712C15.2154 35.3514 15.2602 35.3221 15.2979 35.2849C15.3357 35.2476 15.3656 35.2033 15.3861 35.1544C15.4066 35.1055 15.4171 35.053 15.4171 35C15.4171 34.947 15.4066 34.8945 15.3861 34.8456C15.3656 34.7967 15.3357 34.7524 15.2979 34.7151C15.2602 34.6779 15.2154 34.6486 15.1662 34.6288C15.117 34.609 15.0644 34.5993 15.0114 34.6H9.41139ZM7.41139 40.2H58.6114V42.4656C58.5971 42.552 58.5971 42.6402 58.6114 42.7266V44.2H55.8114C55.7584 44.1992 55.7058 44.209 55.6566 44.2288C55.6074 44.2486 55.5626 44.2779 55.5249 44.3151C55.4871 44.3524 55.4571 44.3967 55.4367 44.4456C55.4162 44.4945 55.4057 44.547 55.4057 44.6C55.4057 44.653 55.4162 44.7055 55.4367 44.7544C55.4571 44.8033 55.4871 44.8476 55.5249 44.8849C55.5626 44.9221 55.6074 44.9514 55.6566 44.9712C55.7058 44.991 55.7584 45.0008 55.8114 45H58.6114C58.6114 47.2189 56.8303 49 54.6114 49H52.1848C50.936 47.5342 49.0808 46.6 47.0114 46.6C44.9419 46.6 43.0868 47.5342 41.838 49H24.1848C22.936 47.5342 21.0808 46.6 19.0114 46.6C16.9419 46.6 15.0868 47.5342 13.838 49H11.4114C9.19246 49 7.41139 47.2189 7.41139 45H43.0114C43.0644 45.0008 43.117 44.991 43.1662 44.9712C43.2154 44.9514 43.2602 44.9221 43.2979 44.8849C43.3357 44.8476 43.3656 44.8033 43.3861 44.7544C43.4066 44.7055 43.4171 44.653 43.4171 44.6C43.4171 44.547 43.4066 44.4945 43.3861 44.4456C43.3656 44.3967 43.3357 44.3524 43.2979 44.3151C43.2602 44.2779 43.2154 44.2486 43.1662 44.2288C43.117 44.209 43.0644 44.1992 43.0114 44.2H7.41139V42.7344C7.42567 42.648 7.42567 42.5598 7.41139 42.4734V40.2ZM45.4114 44.2C45.3584 44.1992 45.3058 44.209 45.2566 44.2288C45.2074 44.2486 45.1626 44.2779 45.1249 44.3151C45.0871 44.3524 45.0572 44.3967 45.0367 44.4456C45.0162 44.4945 45.0057 44.547 45.0057 44.6C45.0057 44.653 45.0162 44.7055 45.0367 44.7544C45.0572 44.8033 45.0871 44.8476 45.1249 44.8849C45.1626 44.9221 45.2074 44.9514 45.2566 44.9712C45.3058 44.991 45.3584 45.0008 45.4114 45H50.2114C50.2644 45.0008 50.317 44.991 50.3662 44.9712C50.4154 44.9514 50.4602 44.9221 50.4979 44.8849C50.5357 44.8476 50.5656 44.8033 50.5861 44.7544C50.6066 44.7055 50.6171 44.653 50.6171 44.6C50.6171 44.547 50.6066 44.4945 50.5861 44.4456C50.5656 44.3967 50.5357 44.3524 50.4979 44.3151C50.4602 44.2779 50.4154 44.2486 50.3662 44.2288C50.317 44.209 50.2644 44.1992 50.2114 44.2H45.4114ZM52.6114 44.2C52.5584 44.1992 52.5058 44.209 52.4566 44.2288C52.4074 44.2486 52.3626 44.2779 52.3249 44.3151C52.2871 44.3524 52.2571 44.3967 52.2367 44.4456C52.2162 44.4945 52.2057 44.547 52.2057 44.6C52.2057 44.653 52.2162 44.7055 52.2367 44.7544C52.2571 44.8033 52.2871 44.8476 52.3249 44.8849C52.3626 44.9221 52.4074 44.9514 52.4566 44.9712C52.5058 44.991 52.5584 45.0008 52.6114 45H53.4114C53.4644 45.0008 53.517 44.991 53.5662 44.9712C53.6154 44.9514 53.6602 44.9221 53.6979 44.8849C53.7357 44.8476 53.7656 44.8033 53.7861 44.7544C53.8066 44.7055 53.8171 44.653 53.8171 44.6C53.8171 44.547 53.8066 44.4945 53.7861 44.4456C53.7656 44.3967 53.7357 44.3524 53.6979 44.3151C53.6602 44.2779 53.6154 44.2486 53.5662 44.2288C53.517 44.209 53.4644 44.1992 53.4114 44.2H52.6114ZM19.0114 48.2C21.8928 48.2 24.2114 50.5186 24.2114 53.4C24.2114 56.2814 21.8928 58.6 19.0114 58.6C16.13 58.6 13.8114 56.2814 13.8114 53.4C13.8114 50.5186 16.13 48.2 19.0114 48.2ZM47.0114 48.2C49.8927 48.2 52.2114 50.5186 52.2114 53.4C52.2114 56.2814 49.8927 58.6 47.0114 58.6C44.13 58.6 41.8114 56.2814 41.8114 53.4C41.8114 50.5186 44.13 48.2 47.0114 48.2ZM19.0114 50C17.9114 50 17.0363 50.4269 16.463 51.0719C15.8896 51.7169 15.6114 52.5611 15.6114 53.4C15.6114 54.2389 15.8896 55.0832 16.463 55.7281C17.0363 56.3731 17.9114 56.8 19.0114 56.8C20.1114 56.8 20.9865 56.3731 21.5598 55.7281C22.1331 55.0832 22.4114 54.2389 22.4114 53.4C22.4114 52.5611 22.1331 51.7169 21.5598 51.0719C20.9865 50.4269 20.1114 50 19.0114 50ZM47.0114 50C45.9114 50 45.0363 50.4269 44.463 51.0719C43.8896 51.7169 43.6114 52.5611 43.6114 53.4C43.6114 54.2389 43.8896 55.0832 44.463 55.7281C45.0363 56.3731 45.9114 56.8 47.0114 56.8C48.1114 56.8 48.9865 56.3731 49.5598 55.7281C50.1331 55.0832 50.4114 54.2389 50.4114 53.4C50.4114 52.5611 50.1331 51.7169 49.5598 51.0719C48.9865 50.4269 48.1114 50 47.0114 50ZM19.0114 50.8C19.9114 50.8 20.5363 51.1231 20.963 51.6031C21.3896 52.0832 21.6114 52.7389 21.6114 53.4C21.6114 54.0611 21.3896 54.7169 20.963 55.1969C20.5363 55.6769 19.9114 56 19.0114 56C18.1114 56 17.4865 55.6769 17.0598 55.1969C16.6331 54.7169 16.4114 54.0611 16.4114 53.4C16.4114 52.7389 16.6331 52.0832 17.0598 51.6031C17.4865 51.1231 18.1114 50.8 19.0114 50.8ZM47.0114 50.8C47.9114 50.8 48.5363 51.1231 48.963 51.6031C49.3896 52.0832 49.6114 52.7389 49.6114 53.4C49.6114 54.0611 49.3896 54.7169 48.963 55.1969C48.5363 55.6769 47.9114 56 47.0114 56C46.1114 56 45.4865 55.6769 45.0598 55.1969C44.6331 54.7169 44.4114 54.0611 44.4114 53.4C44.4114 52.7389 44.6331 52.0832 45.0598 51.6031C45.4865 51.1231 46.1114 50.8 47.0114 50.8Z" fill="#F2994A" stroke="#F2994A" stroke-width="0.5"/>
</svg>
