<svg width="70" height="64" viewBox="0 0 70 64" fill="none" xmlns="http://www.w3.org/2000/svg">
<path d="M12.6866 1.00811C12.6293 0.996799 12.5681 0.997263 12.5073 1.00986C12.2643 1.06116 12.1089 1.29948 12.1593 1.54248L12.8958 5.06514C12.9471 5.30814 13.1854 5.46358 13.4284 5.41318C13.6714 5.36188 13.8269 5.12357 13.7765 4.88057L13.04 1.35791C13.0015 1.17566 12.8586 1.04202 12.6866 1.00811ZM20.0062 1.41768C19.8314 1.43261 19.674 1.54912 19.6159 1.72529L18.4909 5.14424C18.4135 5.38094 18.5417 5.63461 18.7775 5.71201C18.8549 5.73721 18.9365 5.74137 19.0112 5.72607C19.1624 5.69367 19.293 5.58389 19.3452 5.42549L20.4702 2.00479C20.5476 1.76809 20.4195 1.51441 20.1837 1.43701C20.1248 1.41789 20.0644 1.4127 20.0062 1.41768ZM5.97003 4.36025C5.85483 4.35373 5.73839 4.39081 5.64659 4.47451C5.46119 4.64011 5.44494 4.92368 5.61144 5.10908L8.01085 7.79326C8.12155 7.91746 8.2868 7.96539 8.438 7.93389C8.5136 7.91859 8.58512 7.88422 8.64542 7.82842C8.83082 7.66282 8.84708 7.37925 8.68058 7.19385L6.28116 4.50967C6.19836 4.41697 6.08523 4.36678 5.97003 4.36025ZM26.3044 5.4958C26.1893 5.4895 26.0715 5.52681 25.9792 5.61006L23.2968 8.00947C23.1114 8.17507 23.0951 8.4604 23.2616 8.6458C23.3723 8.77 23.5376 8.81793 23.6888 8.78643C23.7644 8.77113 23.835 8.73676 23.8962 8.68096L26.5804 6.28154C26.7658 6.11594 26.782 5.83061 26.6155 5.64521C26.5327 5.55206 26.4195 5.5021 26.3044 5.4958ZM15.5167 6.99521C14.9491 6.99724 14.3726 7.05578 13.7958 7.17627C9.18151 8.14017 6.21199 12.6799 7.17589 17.2942C7.51703 18.9242 8.30362 20.3487 9.38194 21.4673C6.97974 22.1848 4.71024 22.9842 2.66359 23.8808C2.50356 23.9511 2.36748 24.0665 2.27196 24.2129C2.17644 24.3593 2.12561 24.5304 2.1257 24.7052V55.8993C2.1257 59.8651 5.3599 63.0993 9.3257 63.0993H61.5257C65.4915 63.0993 68.7257 59.8651 68.7257 55.8993V16.2993C68.7257 16.0606 68.6308 15.8317 68.4621 15.6629C68.2933 15.4942 68.0644 15.3993 67.8257 15.3993H62.4257H51.6257C51.6146 15.3991 51.6034 15.3991 51.5923 15.3993C51.5923 15.3993 43.5454 15.6899 33.4253 16.8899C30.3038 17.2601 26.9825 17.727 23.6378 18.2874C24.1148 16.887 24.2376 15.3457 23.9138 13.7962C23.0704 9.75868 19.49 6.98104 15.5167 6.99521ZM15.5237 8.79346C18.6612 8.78178 21.4862 10.975 22.1525 14.1636C22.4827 15.7438 22.2248 17.3101 21.5337 18.6425C18.0933 19.2649 14.6852 20.0193 11.4491 20.8978C10.2072 19.9488 9.28314 18.5719 8.93898 16.9251C8.17758 13.281 10.5209 9.699 14.165 8.9376C14.6205 8.84242 15.0755 8.79513 15.5237 8.79346ZM1.82863 10.6005C1.65388 10.6152 1.49644 10.7313 1.43839 10.9081C1.36099 11.1448 1.48911 11.3985 1.72491 11.4759L5.14562 12.6009C5.22302 12.6261 5.30295 12.6285 5.37765 12.6132C5.52885 12.5817 5.66119 12.4701 5.71339 12.3126C5.79079 12.0759 5.66091 11.8222 5.42511 11.7448L2.00616 10.6216C1.94721 10.6025 1.88687 10.5956 1.82863 10.6005ZM29.5493 12.1579L26.0249 12.8944C25.7819 12.9457 25.6265 13.1841 25.6769 13.4271C25.7282 13.6701 25.9665 13.8255 26.2095 13.7751L29.7321 13.0403C29.9751 12.9899 30.1332 12.749 30.0819 12.506C30.0306 12.263 29.7923 12.1075 29.5493 12.1579ZM51.6573 17.1993H58.388C53.8004 21.1698 36.6778 37.1849 28.8585 61.2993H9.3257C8.79683 61.2993 8.28742 61.2198 7.80519 61.0796C7.9064 61.0417 7.99063 60.9687 8.04249 60.8739C23.4275 32.6681 49.148 18.4654 51.5026 17.2063C51.5147 17.2059 51.6573 17.1993 51.6573 17.1993ZM59.7819 17.1993H62.4257H64.2327C63.3483 18.5046 61.6618 21.2784 59.6571 26.0587C56.7277 33.0444 53.1353 44.2794 50.4339 61.2993H29.8112C38.424 35.0525 57.9794 18.6688 59.7819 17.1993ZM65.3278 17.1993H66.9257V55.8993C66.9257 58.8923 64.5187 61.2993 61.5257 61.2993H51.348C54.0369 44.4225 57.5971 33.2975 60.4868 26.4067C62.9 20.6523 64.7421 17.9822 65.3278 17.1993ZM49.5005 17.3083C42.8378 21.2031 20.9296 35.3667 7.25148 60.4433C7.21393 60.5124 7.19515 60.5901 7.197 60.6688C7.19885 60.7474 7.22127 60.8242 7.26202 60.8915C5.30023 60.0842 3.9257 58.16 3.9257 55.8993V37.9679C14.0581 26.6862 32.4464 19.8991 37.1958 18.2821C42.6718 17.7143 47.0424 17.4398 49.5005 17.3083ZM5.05948 17.3118C5.00215 17.3005 4.9427 17.301 4.88195 17.3136L1.35753 18.0501C1.11453 18.1014 0.959084 18.3397 1.00948 18.5827C1.06078 18.8257 1.2991 18.9812 1.5421 18.9308L5.06651 18.1942C5.31041 18.1429 5.46586 17.9046 5.41456 17.6616C5.37609 17.4794 5.23148 17.3457 5.05948 17.3118ZM33.3409 18.7163C26.1821 21.4456 12.5634 27.4762 3.9257 36.6284V25.338C11.9339 21.9528 23.5584 19.8895 33.3409 18.7163Z" fill="#F2994A" stroke="#F2994A"/>
</svg>
