<svg width="22" height="22" viewBox="0 0 22 22" fill="none" xmlns="http://www.w3.org/2000/svg">
<path d="M6.75195 0.6875C3.4231 0.6875 0.6875 3.41943 0.6875 6.75195V15.248C0.6875 18.5769 3.41943 21.3125 6.75195 21.3125H15.248C18.5769 21.3125 21.3125 18.5806 21.3125 15.248V6.75195C21.3125 3.4231 18.5806 0.6875 15.248 0.6875H6.75195ZM6.75195 2.5625H15.248C17.5662 2.5625 19.4375 4.43384 19.4375 6.75195V15.248C19.4375 17.5662 17.5662 19.4375 15.248 19.4375H6.75195C4.43384 19.4375 2.5625 17.5662 2.5625 15.248V6.75195C2.5625 4.43384 4.43384 2.5625 6.75195 2.5625ZM16.5371 4.61328C16.0647 4.61328 15.6875 4.99048 15.6875 5.46289C15.6875 5.9353 16.0647 6.3125 16.5371 6.3125C17.0095 6.3125 17.3867 5.9353 17.3867 5.46289C17.3867 4.99048 17.0095 4.61328 16.5371 4.61328ZM11 5.375C7.90552 5.375 5.375 7.90552 5.375 11C5.375 14.0945 7.90552 16.625 11 16.625C14.0945 16.625 16.625 14.0945 16.625 11C16.625 7.90552 14.0945 5.375 11 5.375ZM11 7.25C13.0837 7.25 14.75 8.91626 14.75 11C14.75 13.0837 13.0837 14.75 11 14.75C8.91626 14.75 7.25 13.0837 7.25 11C7.25 8.91626 8.91626 7.25 11 7.25Z" fill="#F2994A"/>
</svg>
