<svg width="23" height="20" viewBox="0 0 23 20" fill="none" xmlns="http://www.w3.org/2000/svg">
<path d="M12.6404 18.1639V11.9168V11.8102V11.7036C12.6404 10.3184 13.8706 9.20796 15.3478 9.20796C16.7487 9.20796 17.89 10.213 18.0132 11.4904C18.0414 11.5582 18.0558 11.6308 18.0551 11.7044M12.6404 18.1639L17.9051 11.7036M12.6404 18.1639H9.2206V6.94912H12.6404V7.92444V7.92449C12.6405 8.04426 12.6802 8.15988 12.7524 8.25609L12.8723 8.16608M12.6404 18.1639L13.7086 8.31426M18.0551 11.7044C18.0551 11.7046 18.0551 11.7048 18.0551 11.705L17.9051 11.7036M18.0551 11.7044V11.7036H17.9051M18.0551 11.7044V18.1639M17.9051 11.7036V18.1639H18.0551M18.0551 18.1639V18.3139H21.475V18.1639M18.0551 18.1639H21.475M21.475 18.1639H21.625V11.4903C21.625 9.89596 21.1244 8.73141 20.3554 7.96192C19.5863 7.19244 18.5375 6.79912 17.3412 6.79912C14.9804 6.79912 13.6014 8.20931 13.6014 8.20931M21.475 18.1639V11.4903C21.475 9.92857 20.9855 8.80462 20.2493 8.06796C19.5123 7.33063 18.5038 6.94912 17.3412 6.94912C16.1914 6.94912 15.2813 7.29239 14.6584 7.63559C14.3469 7.80721 14.1077 7.97857 13.9471 8.10635C13.8669 8.17021 13.8063 8.22311 13.7663 8.25959C13.7463 8.27783 13.7314 8.29195 13.7218 8.30128L13.7112 8.31159L13.7089 8.31388L13.7086 8.31418L13.6014 8.20931M13.6014 8.20931C13.7086 8.31418 13.7086 8.31422 13.7086 8.31426M13.6014 8.20931C13.5385 8.27351 13.4559 8.31871 13.3644 8.33894C13.273 8.35917 13.177 8.35347 13.0891 8.32261C13.0013 8.29175 12.9257 8.23717 12.8723 8.16608M13.7086 8.31426L12.7904 7.92444C12.7904 8.01073 12.819 8.09499 12.8723 8.16608M13.7086 8.31426C13.6244 8.40017 13.5155 8.45916 13.3968 8.4854C13.2783 8.51163 13.1538 8.50432 13.0394 8.46413C12.925 8.42393 12.8244 8.3521 12.7524 8.25609L12.8723 8.16608M3.95336 5.23821L3.95336 5.23823H3.95587C4.79699 5.23823 5.52581 5.01212 6.05352 4.59913C6.58305 4.18473 6.89028 3.58293 6.89028 2.93837L6.89027 2.93706C6.89018 2.9265 6.88977 2.91594 6.88906 2.9054C6.81067 1.62198 5.57379 0.683496 3.95587 0.683496C3.14642 0.683496 2.4263 0.894566 1.89225 1.29021C1.35603 1.68745 1.02146 2.28204 1.02146 2.93837C1.02146 4.21757 2.25639 5.15531 3.80109 5.21747C3.85076 5.23039 3.90192 5.23735 3.95336 5.23821ZM1.63099 5.79617H1.63098C1.47187 5.79619 1.31695 5.85405 1.20083 5.96055L1.30222 6.0711L1.20083 5.96055C1.08427 6.06746 1.01603 6.21536 1.01602 6.37263V6.37265V18.7404C1.01603 18.8976 1.08427 19.0455 1.20083 19.1525C1.31695 19.259 1.47187 19.3168 1.63098 19.3168H6.28075C6.43987 19.3168 6.59479 19.259 6.71091 19.1525C6.82747 19.0455 6.89571 18.8976 6.89573 18.7404V14.7588V6.37265V6.37263C6.89571 6.21536 6.82747 6.06746 6.71091 5.96055C6.59479 5.85405 6.43987 5.79619 6.28076 5.79617H6.28075H1.63099ZM8.60563 5.79617H8.60562C8.44651 5.79619 8.29159 5.85405 8.17547 5.96055C8.05891 6.06746 7.99067 6.21536 7.99065 6.37263V6.37265V18.7404C7.99067 18.8976 8.05891 19.0455 8.17546 19.1525C8.29159 19.259 8.44651 19.3168 8.60562 19.3168H13.2554C13.4145 19.3168 13.5694 19.259 13.6856 19.1525C13.8021 19.0455 13.8703 18.8976 13.8704 18.7404V11.9168V11.8102V11.7036C13.8704 10.9691 14.514 10.3609 15.3478 10.3609C16.1815 10.3609 16.8252 10.9691 16.8252 11.7036V18.7404C16.8252 18.8976 16.8935 19.0455 17.01 19.1525C17.1261 19.259 17.281 19.3168 17.4402 19.3168H22.0899C22.2491 19.3168 22.404 19.259 22.5201 19.1525C22.6366 19.0455 22.7049 18.8976 22.7049 18.7404V11.4903C22.7049 9.69774 22.1301 8.26303 21.1471 7.27948C20.1647 6.2966 18.7989 5.79617 17.3412 5.79617C15.6773 5.79617 14.5985 6.2978 13.8704 6.77217V6.37265V6.37263C13.8703 6.21536 13.8021 6.06746 13.6856 5.96055C13.5694 5.85405 13.4145 5.79619 13.2554 5.79617H8.60563ZM3.95587 1.82645C4.54164 1.82645 4.95977 1.9585 5.23378 2.16104C5.50267 2.3598 5.64446 2.63463 5.66843 2.95376C5.664 3.25826 5.53705 3.51561 5.27288 3.72234C5.00162 3.93462 4.56811 4.09528 3.95587 4.09528C3.37457 4.09528 2.9427 3.95051 2.66007 3.73644C2.37958 3.524 2.24052 3.24023 2.24052 2.93837C2.24052 2.63973 2.37064 2.39259 2.64842 2.1868C2.92802 1.97966 3.37031 1.82645 3.95587 1.82645ZM5.66577 6.94912V14.7588V18.1639H2.24597V6.94912H5.66577Z" fill="#F2994A" stroke="#F2994A" stroke-width="0.3"/>
</svg>
