<svg width="18" height="26" viewBox="0 0 18 26" fill="none" xmlns="http://www.w3.org/2000/svg">
<path d="M14.4029 14.8847L14.4308 14.9261C14.5889 14.8197 14.7704 14.7848 14.9401 14.814C15.1098 14.8432 15.268 14.9372 15.377 15.0889L15.377 15.0889C15.5949 15.392 15.5224 15.7891 15.2091 16.0013C14.1892 16.6914 13.0675 17.1934 11.8844 17.5082L11.8973 17.5565L11.8844 17.5082L10.6778 17.8294L10.5926 17.8521L10.6558 17.9136L11.5398 18.7725L11.5399 18.7726L15.3004 22.4192C15.5704 22.6811 15.5704 23.0836 15.3004 23.3455C15.1644 23.4774 14.9964 23.5382 14.8207 23.5382C14.645 23.5382 14.477 23.4774 14.3411 23.3455L9.03426 18.1976L8.99945 18.1638L8.96463 18.1976L3.65784 23.3455C3.52188 23.4774 3.35386 23.5382 3.17817 23.5382C3.00248 23.5382 2.83447 23.4774 2.69851 23.3455C2.42848 23.0836 2.42848 22.6811 2.69851 22.4192L7.34302 17.9136L7.40641 17.8522L7.32107 17.8294L6.11448 17.5082C4.9357 17.194 3.81888 16.6949 2.80252 16.0096C2.48796 15.7973 2.41538 15.4024 2.63327 15.0985L2.64264 15.0855V15.0844C2.85655 14.7992 3.24852 14.7275 3.55454 14.9187V14.9195L3.57658 14.9344C5.17111 16.0096 7.05167 16.5794 8.99945 16.5794C10.9512 16.5794 12.8355 16.0071 14.4309 14.926L14.4029 14.8847ZM14.4029 14.8847C14.5718 14.771 14.7663 14.7333 14.9486 14.7647C15.1309 14.7961 15.3008 14.8972 15.4176 15.0597L3.60454 14.8929C5.19068 15.9625 7.06147 16.5294 8.99945 16.5294C10.9414 16.5294 12.8158 15.96 14.4029 14.8847ZM13.5577 13.6752H13.5512L13.5384 13.6876C12.2026 14.592 10.6387 15.0676 8.99945 15.0676C7.36279 15.0676 5.80039 14.5932 4.4639 13.692C3.45887 13.013 2.05547 13.2575 1.35677 14.2337C0.656356 15.2104 0.909756 16.5734 1.91517 17.2519L1.91519 17.2519C2.69878 17.7803 3.57851 18.1002 4.44925 18.4167C4.49137 18.432 4.53347 18.4473 4.57554 18.4627L1.59993 21.3492C0.733358 22.1899 0.733358 23.5749 1.59993 24.4155C2.03287 24.8355 2.60856 25.05 3.17817 25.05C3.74779 25.05 4.32347 24.8355 4.75642 24.4155L8.99945 20.2994L13.2425 24.4155C13.6754 24.8355 14.2511 25.05 14.8207 25.05C15.3903 25.05 15.966 24.8355 16.399 24.4155C17.2655 23.5749 17.2655 22.1899 16.399 21.3492L13.5011 18.5368C14.4053 18.1988 15.2863 17.7914 16.098 17.2422L16.098 17.2422C17.1018 16.5622 17.3539 15.1987 16.652 14.2226C16.3015 13.7349 15.7746 13.4314 15.2115 13.334C15.0707 13.3096 14.9279 13.2984 14.7846 13.3002C14.3593 13.3056 13.9316 13.4274 13.5577 13.6752ZM8.99945 0.95C5.36464 0.95 2.40051 3.82326 2.40051 7.35294C2.40051 10.8826 5.36464 13.7559 8.99945 13.7559C12.6343 13.7559 15.5984 10.8826 15.5984 7.35294C15.5984 3.82326 12.6343 0.95 8.99945 0.95ZM8.99945 2.46176C11.7957 2.46176 14.0431 4.64403 14.0431 7.35294C14.0431 10.0619 11.7957 12.2441 8.99945 12.2441C6.20321 12.2441 3.95583 10.0619 3.95583 7.35294C3.95583 4.64403 6.20321 2.46176 8.99945 2.46176ZM8.99945 3.77353C6.97252 3.77353 5.31115 5.38303 5.31115 7.35294C5.31115 9.32286 6.97252 10.9324 8.99945 10.9324C11.0264 10.9324 12.6877 9.32286 12.6877 7.35294C12.6877 5.38303 11.0264 3.77353 8.99945 3.77353ZM8.99945 5.28529C10.1875 5.28529 11.1324 6.20407 11.1324 7.35294C11.1324 8.50181 10.1875 9.42059 8.99945 9.42059C7.81138 9.42059 6.86647 8.50181 6.86647 7.35294C6.86647 6.20407 7.81138 5.28529 8.99945 5.28529Z" fill="#F2994A" stroke="#F2994A" stroke-width="0.1"/>
</svg>
