<svg width="20" height="23" viewBox="0 0 20 23" fill="none" xmlns="http://www.w3.org/2000/svg">
<path d="M18.3617 5.62104L18.3617 5.62104C18.5489 5.63475 18.724 5.71952 18.8516 5.85815C18.9793 5.99677 19.0501 6.17895 19.05 6.368V9.62971C19.05 9.81622 18.9811 9.99609 18.8565 10.134C18.7318 10.272 18.5606 10.3581 18.3762 10.3752L18.3716 10.3255L18.3762 10.3752C18.2032 10.3913 18.0219 10.4027 17.831 10.4027C16.4701 10.4027 15.235 9.91042 14.2348 9.12896V15.3456C14.2348 19.0393 11.2527 22.05 7.59239 22.05C3.93196 22.05 0.95 19.0393 0.95 15.3456C0.950001 11.6519 3.93196 8.64118 7.59239 8.64118C7.72108 8.64118 7.83309 8.64943 7.92616 8.65628C7.95368 8.6583 7.97954 8.66021 8.00369 8.66174C8.1922 8.67368 8.36902 8.75767 8.4982 8.89649C8.62737 9.03529 8.69921 9.21847 8.69922 9.40873V12.343V12.3431H8.64922L18.3617 5.62104ZM18.3617 5.62104C16.2104 5.46525 14.4949 3.77356 14.271 1.62098C14.252 1.4371 14.1662 1.26674 14.0301 1.1428C13.8939 1.01883 13.717 0.950107 13.5334 0.95H13.5334M18.3617 5.62104L13.5334 0.95M13.5334 0.95H10.7548C10.5581 0.950019 10.3696 1.02879 10.2305 1.16889M13.5334 0.95L10.2305 1.16889M10.2305 1.16889C10.0915 1.30896 10.0132 1.4989 10.0128 1.69699M10.2305 1.16889L10.0128 1.69699M10.0128 1.69699L10.0628 1.69709L10.0128 1.69699ZM11.4953 2.44691C11.4949 2.63304 11.4941 2.95313 11.4932 3.38218C11.4906 4.50098 11.4864 6.36069 11.4819 8.51804C11.48 9.40361 11.4779 10.2896 11.4759 11.1167C11.4741 11.8837 11.4724 12.6001 11.4711 13.219C11.4697 13.862 11.4687 14.4118 11.468 14.7965L11.4672 15.2409L11.4671 15.3534L11.467 15.3793L11.467 15.3838M11.4953 2.44691L11.467 15.3838M11.4953 2.44691H12.9837C13.4994 4.73731 15.2732 6.48522 17.5661 6.93987V8.84698C16.1234 8.75717 14.86 8.02373 14.1132 6.87684C14.1132 6.87684 14.1132 6.87684 14.1132 6.87683L14.0713 6.90412M11.4953 2.44691L7.21534 11.6294V10.2086C4.54407 10.4108 2.43389 12.5967 2.43389 15.3456C2.43389 18.2299 4.73609 20.5531 7.59239 20.5531C10.4488 20.5531 12.7509 18.2299 12.7509 15.3456V7.28889V7.28881H12.8009C12.8006 7.1384 12.8485 6.99192 12.9374 6.87116C13.0262 6.75041 13.1513 6.66184 13.2941 6.61861C13.4368 6.57539 13.5895 6.57983 13.7296 6.63127C13.8696 6.68271 13.9894 6.77841 14.0713 6.90412M11.467 15.3838L11.467 15.3826C11.4497 15.3659 11.4323 15.3609 11.417 15.3614C11.417 15.3798 11.417 15.3875 11.417 15.3838M11.467 15.3838L11.467 15.3844L11.467 15.3849L11.467 15.3851L11.467 15.3857C11.467 15.3864 11.4455 15.407 11.4169 15.408C11.417 15.3999 11.417 15.3919 11.417 15.3838M11.417 15.3838H11.367H11.417ZM14.0713 6.90412C14.8276 8.06555 16.1069 8.80717 17.5661 8.89707L14.0713 6.90412Z" fill="#F2994A" stroke="#F2994A" stroke-width="0.1"/>
</svg>
