<svg width="30" height="31" viewBox="0 0 30 31" fill="none" xmlns="http://www.w3.org/2000/svg">
<path d="M11.2891 0C9.90723 0 8.75 1.15723 8.75 2.53906V3.75H0V6.25H8.75V7.46094C8.75 8.83301 9.88281 9.98047 11.25 10C11.2646 10 11.2744 10 11.2891 10L12.4219 10.0391H12.4609C13.8428 10.0391 15 8.88184 15 7.5V6.28906L30 6.25V3.75L15 3.78906V2.57812C15 1.20605 13.8623 0.0585938 12.5 0.0390625H12.4609L11.3281 0H11.2891ZM11.25 2.5H11.2891L12.4219 2.53906H12.4609C12.4902 2.53906 12.5 2.54883 12.5 2.57812V7.5C12.5 7.51465 12.5049 7.53418 12.5 7.53906H12.4609L11.3281 7.5H11.2891C11.2598 7.5 11.25 7.49023 11.25 7.46094V2.53906C11.25 2.52441 11.2451 2.50488 11.25 2.5ZM21.2891 10C19.9072 10 18.75 11.1572 18.75 12.5391V13.75H0V16.25H18.75V17.4609C18.75 18.833 19.8828 19.9805 21.25 20C21.2646 20 21.2744 20 21.2891 20L22.4219 20.0391H22.4609C23.8428 20.0391 25 18.8818 25 17.5V16.2891L30 16.25V13.75L25 13.7891V12.5781C25 11.2061 23.8672 10.0586 22.5 10.0391H22.4609L21.3281 10H21.2891ZM21.25 12.5H21.2891L22.4219 12.5391H22.4609C22.4902 12.5391 22.5 12.5488 22.5 12.5781V17.5C22.5 17.5146 22.5049 17.5342 22.5 17.5391H22.4609L21.3281 17.5H21.2891C21.2598 17.5 21.25 17.4902 21.25 17.4609V12.5391C21.25 12.5244 21.2451 12.5049 21.25 12.5ZM6.28906 20C4.90723 20 3.75 21.1572 3.75 22.5391V23.75H0V26.25H3.75V27.4609C3.75 28.833 4.88281 29.9805 6.25 30C6.26465 30 6.27441 30 6.28906 30L7.42188 30.0391H7.46094C8.84277 30.0391 10 28.8818 10 27.5V26.2891L30 26.25V23.75L10 23.7891V22.5781C10 21.2061 8.86719 20.0586 7.5 20.0391H7.46094L6.32812 20H6.28906ZM6.25 22.5H6.28906L7.42188 22.5391H7.46094C7.49023 22.5391 7.5 22.5488 7.5 22.5781V27.5C7.5 27.5146 7.50488 27.5342 7.5 27.5391H7.46094L6.32812 27.5H6.28906C6.25977 27.5 6.25 27.4902 6.25 27.4609V22.5391C6.25 22.5244 6.24512 22.5049 6.25 22.5Z" fill="#F2994A"/>
</svg>
