<svg width="13" height="22" viewBox="0 0 13 22" fill="none" xmlns="http://www.w3.org/2000/svg">
<path d="M4.09294 7.80652V5.94226C4.09294 4.37095 4.57751 3.07362 5.48396 2.18292C6.38991 1.29271 7.67292 0.85 9.13991 0.85C10.4268 0.85 11.8357 0.953813 12.2321 1.00583M4.09294 7.80652L12.2125 1.15455M4.09294 7.80652H1.60558H1.60556C1.44973 7.80654 1.29997 7.86776 1.18929 7.97724C1.07855 8.08677 1.01603 8.23567 1.01602 8.39129V8.3913V11.8696V11.8696C1.01603 12.0252 1.07855 12.1741 1.18929 12.2836C1.29997 12.3931 1.44973 12.4543 1.60556 12.4543H4.09294V7.80652ZM12.2321 1.00583L12.2125 1.15455M12.2321 1.00583C12.232 1.00582 12.232 1.00582 12.232 1.00582L12.2125 1.15455M12.2321 1.00583C12.3732 1.02429 12.5032 1.09286 12.5976 1.19924C12.692 1.30568 12.7444 1.44271 12.7446 1.5849L12.7446 1.58509L12.7446 4.91306C12.7446 5.06868 12.682 5.21758 12.5713 5.32711C12.4606 5.43659 12.3109 5.49781 12.155 5.49783H9.51766C9.10811 5.49783 8.78854 5.81627 8.78854 6.21739V7.80652M12.2125 1.15455C12.3181 1.16835 12.4151 1.21961 12.4854 1.2988C12.5556 1.37799 12.5944 1.47972 12.5946 1.58509V4.91304C12.5946 5.02835 12.5483 5.13893 12.4658 5.22047C12.3834 5.302 12.2716 5.34781 12.155 5.34783H9.51766C9.02682 5.34783 8.63854 5.73188 8.63854 6.21739V7.80652H8.78854M8.78854 7.80652V7.95652L12.5911 8.44565L12.7399 8.46459C12.7504 8.38204 12.7431 8.29823 12.7183 8.21877C12.6936 8.1393 12.6521 8.06607 12.5966 8.00391C12.5412 7.94174 12.4731 7.89206 12.397 7.85807C12.3209 7.82408 12.2384 7.80653 12.155 7.80652H8.78854ZM1.16602 11.8696V8.3913V11.8696ZM1.16602 11.8696C1.16603 11.9849 1.21234 12.0955 1.29477 12.177M1.16602 11.8696L1.29477 12.177M1.29477 12.177C1.3772 12.2585 1.489 12.3043 1.60558 12.3043M1.29477 12.177L1.60558 12.3043M1.60558 12.3043H4.09294H1.60558ZM4.24294 20.5652V12.4543V20.5652ZM4.24294 20.5652C4.24295 20.6805 4.28926 20.7911 4.37169 20.8726M4.24294 20.5652L4.37169 20.8726M4.37169 20.8726C4.45412 20.9542 4.56592 21 4.6825 21M4.37169 20.8726L4.6825 21M4.6825 21H8.19898M4.6825 21H8.19898M8.19898 21C8.31555 21 8.42735 20.9542 8.50978 20.8726L8.19898 21ZM8.78854 12.4543V12.3043H8.63854V12.4543H8.78854ZM11.5655 2.13484V4.32826H9.51766C8.4705 4.32826 7.60942 5.17764 7.60942 6.21739V8.3913V8.39132C7.60943 8.54694 7.67195 8.69584 7.78269 8.80537C7.89337 8.91485 8.04314 8.97607 8.19896 8.97609H8.19898H11.4869L11.1952 11.2848H8.19898C8.04313 11.2848 7.89337 11.346 7.78269 11.4555C7.67195 11.565 7.60943 11.7139 7.60942 11.8695V11.8696V19.9804H5.27206V11.8696V11.8695C5.27204 11.7139 5.20952 11.565 5.09878 11.4555C4.9881 11.346 4.83834 11.2848 4.68251 11.2848H2.19514V8.97609H4.6825H4.68251C4.83834 8.97607 4.9881 8.91485 5.09878 8.80537C5.20952 8.69584 5.27204 8.54694 5.27206 8.39132V8.3913V5.94226C5.27206 4.60547 5.66672 3.64951 6.31407 3.01341C6.9619 2.37683 7.90726 2.01957 9.13991 2.01957C10.1108 2.01957 11.0533 2.08967 11.5655 2.13484Z" fill="#FFAF17" stroke="#FFAF17" stroke-width="0.3"/>
</svg>
