<svg width="84" height="47" viewBox="0 0 84 47" fill="none" xmlns="http://www.w3.org/2000/svg">
<path d="M5.22597 24.0164H4.72597V23.5164V14.3711V5.22586V4.72586H5.22597H38.7423H62.2587H62.7587V5.22586V14.3711V23.5164V24.0164H62.2587H38.7423H5.22597ZM4.72597 33.9681V31.8551H2.61304H0.500114V36.581V41.3069L4.12368 41.3072L8.24723 41.3077L8.5518 41.3077L8.69148 41.5784L9.17586 42.5169L9.17591 42.517C9.41219 42.9751 10.0511 43.8174 10.5851 44.3565L10.2299 44.7084L10.5851 44.3565C13.4261 47.2244 17.9285 47.2152 20.7993 44.3247L20.7993 44.3246C21.3163 43.8042 21.9427 42.976 22.1795 42.517L22.1795 42.5169L22.6639 41.5784L22.8036 41.3077H23.1082H38.7423H44.3765H44.6811L44.8208 41.5784L45.3051 42.5169L45.3052 42.517C45.5415 42.9751 46.1803 43.8174 46.7144 44.3564L46.3592 44.7084L46.7144 44.3565C49.5554 47.2244 54.0578 47.2152 56.9286 44.3247L56.9286 44.3246C57.4456 43.8042 58.072 42.976 58.3087 42.517L58.3088 42.5169L58.7932 41.5784L58.9329 41.3077L59.2374 41.3077L63.361 41.3072L66.9845 41.3069V39.1939V36.581V36.081H67.4845H71.4039H75.3233H75.8233V36.581V39.0306V40.9802H77.9363H80.0492V39.0306V36.581V36.081H80.5492H81.8556H82.6621V33.9681V31.8551H72.7104H62.7587V33.9681V36.581V37.0811L62.2586 37.081L60.748 37.0807L59.2373 37.0802L58.9328 37.0801L58.7932 36.8095L58.3088 35.871L58.7531 35.6417L58.3088 35.8709C57.2957 33.9078 55.1506 32.3578 52.9081 31.9808C49.9469 31.483 46.7232 33.1231 45.3051 35.8709L44.8608 35.6417L45.3051 35.871L44.8208 36.8095L44.6811 37.0802H44.3765H38.7423H23.1082H22.8036L22.6639 36.8095L22.1795 35.871L22.6238 35.6417L22.1795 35.8709C21.1664 33.9078 19.0213 32.3578 16.7788 31.9808C13.8176 31.483 10.5939 33.1231 9.17587 35.8709L8.69148 36.8095L8.55183 37.0801L8.24733 37.0802L6.73673 37.0807L5.22607 37.081L4.72597 37.0811V36.581V33.9681ZM49.6378 41.3632L49.6377 41.3631C48.0907 39.8159 48.5625 37.1857 50.5806 36.3424L50.7734 36.8038L50.5806 36.3424C53.7113 35.0344 56.3949 38.9443 53.9762 41.3631L53.9762 41.3632C52.7215 42.6176 50.8924 42.6176 49.6378 41.3632ZM18.7121 38.5348L18.7122 38.5349C19.2793 41.5591 15.7144 43.5691 13.5085 41.3631L13.862 41.0096L13.5084 41.3631C11.9615 39.8159 12.4333 37.1857 14.4513 36.3424C16.2208 35.6031 18.3604 36.6608 18.7121 38.5348ZM38.7423 28.2422H66.9845V14.3711V0.5H38.7423H0.500114V14.3711V28.2422H38.7423Z" fill="url(#paint0_linear_270_1761)" stroke="white"/>
<defs>
<linearGradient id="paint0_linear_270_1761" x1="41.5811" y1="0" x2="41.5811" y2="47" gradientUnits="userSpaceOnUse">
<stop stop-color="#FFAF17"/>
<stop offset="1" stop-color="#F2994A"/>
</linearGradient>
</defs>
</svg>
