<svg width="79" height="47" viewBox="0 0 79 47" fill="none" xmlns="http://www.w3.org/2000/svg">
<path d="M42.9702 36.4408H42.97L41.7188 36.4403C41.7187 36.4403 41.7186 36.4403 41.7185 36.4403C41.5857 36.4403 41.4396 36.4227 41.2898 36.361C41.1392 36.299 41.0148 36.2048 40.9071 36.0922C40.7096 35.8858 40.531 35.5746 40.3249 35.1777L40.3248 35.1776C39.2423 33.0924 36.9506 31.446 34.5528 31.0452C31.3847 30.5158 27.9399 32.2598 26.4252 35.1776L26.4251 35.1777C26.219 35.5746 26.0404 35.8858 25.8429 36.0922C25.7352 36.2048 25.6108 36.299 25.4602 36.361C25.3104 36.4227 25.1642 36.4403 25.0312 36.4403C24.8983 36.4403 24.7521 36.4227 24.6023 36.361C24.4517 36.299 24.3273 36.2048 24.2196 36.0922C24.0221 35.8858 23.8435 35.5746 23.6374 35.1777L23.6373 35.1776C22.5548 33.0924 20.2631 31.446 17.8653 31.0452C14.7146 30.5187 11.2441 32.2757 9.73766 35.1776L9.29389 34.9473L9.73765 35.1777L9.22208 36.1707L9.08215 36.4402L8.77848 36.4403L7.17057 36.4408L5.56261 36.4412L5.0625 36.4413V35.9412V33.1765V30.9118H2.78125H0.5V35.9412V40.9706L4.3892 40.9709L8.77838 40.9715L9.08212 40.9715L9.22208 41.2411L9.73765 42.2341L9.7377 42.2342C9.99091 42.7222 10.673 43.6158 11.2429 44.1877L10.8888 44.5406L11.2429 44.1877C14.28 47.2352 19.0946 47.2252 22.1629 44.154L22.163 44.154C22.7148 43.6018 23.3836 42.7231 23.6373 42.2342L23.6374 42.2341C23.8435 41.8372 24.0221 41.526 24.2196 41.3195C24.3273 41.2069 24.4517 41.1127 24.6023 41.0507C24.7521 40.989 24.8983 40.9715 25.0312 40.9715C25.1642 40.9715 25.3104 40.989 25.4602 41.0507C25.6108 41.1127 25.7352 41.2069 25.8429 41.3195C26.0404 41.526 26.219 41.8372 26.4251 42.2341L26.4252 42.2342C26.6784 42.7222 27.3605 43.6158 27.9304 44.1877L27.5763 44.5406L27.9304 44.1877C30.9675 47.2352 35.7821 47.2252 38.8504 44.154L38.8505 44.154C39.4023 43.6018 40.0711 42.7231 40.3248 42.2342L40.3249 42.2341C40.531 41.8372 40.7096 41.526 40.9071 41.3195C41.0148 41.2069 41.1392 41.1127 41.2898 41.0507C41.4396 40.989 41.5857 40.9715 41.7185 40.9715C41.7186 40.9715 41.7187 40.9715 41.7188 40.9715L42.97 40.9709H42.9702L45.4688 40.9706V38.7059V36.4411L42.9702 36.4408ZM25.0312 41.4715C24.6779 41.4715 24.5004 41.657 24.0811 42.4645H25.9814C25.5621 41.657 25.3846 41.4715 25.0312 41.4715ZM31.0899 40.9816L31.0899 40.9816C29.4561 39.3573 29.9572 36.5981 32.083 35.7151C33.9458 34.9414 36.202 36.0477 36.5732 38.0133L36.5732 38.0134C37.1738 41.1967 33.4075 43.2855 31.0899 40.9816ZM19.8857 38.0133L19.8857 38.0134C20.4863 41.1967 16.72 43.2855 14.4024 40.9816L14.7227 40.6594L14.4024 40.9816C12.7686 39.3573 13.2697 36.5981 15.3955 35.7151C17.2583 34.9414 19.5145 36.0477 19.8857 38.0133ZM5.5625 22.6176H5.0625V22.1176V13.8235V5.52941V5.02941H5.5625H44.5H73.4375H73.9375V5.52941V13.8235V22.1176V22.6176H73.4375H44.5H5.5625ZM44.5 27.1471H78.5V13.8235V0.5H44.5H0.5V13.8235V27.1471H44.5ZM64.5938 38.7059V30.9118H62.3125H60.0312V38.7059V46.5H62.3125H64.5938V38.7059Z" fill="url(#paint0_linear_270_1750)" stroke="white"/>
<defs>
<linearGradient id="paint0_linear_270_1750" x1="39.5" y1="0" x2="39.5" y2="47" gradientUnits="userSpaceOnUse">
<stop stop-color="#FFAF17"/>
<stop offset="1" stop-color="#F2994A"/>
</linearGradient>
</defs>
</svg>
