<svg width="276" height="89" viewBox="0 0 276 89" fill="none" xmlns="http://www.w3.org/2000/svg">
<g clip-path="url(#clip0_334_708)">
<path d="M11.868 9.52529C11.868 10.8066 11.546 11.7677 10.948 12.3626C10.35 12.9575 9.384 13.2778 8.05 13.2778H2.806C1.886 13.2778 0.92 13.1863 0 13.0033V10.4405H7.222C7.544 10.4405 7.774 10.349 7.958 10.166C8.142 9.98291 8.234 9.7541 8.234 9.47953V8.70156C8.234 7.92359 7.82 7.55749 7.038 7.55749H2.208V4.76597H6.624C7.406 4.76597 7.82 4.3541 7.82 3.57614V3.16428C7.82 2.38631 7.406 1.97444 6.624 1.97444H0.183997V-0.817085H7.636C8.97 -0.817085 9.936 -0.542504 10.534 0.0524108C11.132 0.647326 11.454 1.56258 11.454 2.75241C11.454 3.53037 11.27 4.21682 10.902 4.72021C10.534 5.2236 10.028 5.5897 9.43 5.77275C9.706 5.86428 10.028 5.9558 10.304 6.13885C10.58 6.3219 10.856 6.55072 11.086 6.82529C11.316 7.09987 11.5 7.46597 11.638 7.87783C11.776 8.28969 11.868 8.74732 11.868 9.29648V9.52529ZM16.192 13.1863H12.282L17.618 -0.817085H21.62L26.956 13.1863H23.046L22.126 10.6694H17.112L16.192 13.1863ZM17.986 8.10664H21.206L19.596 3.39309L17.986 8.10664ZM27.922 -0.817085H35.972C37.306 -0.817085 38.272 -0.542504 38.87 0.0524108C39.468 0.647326 39.79 1.56258 39.79 2.75241C39.79 3.53037 39.606 4.21682 39.284 4.72021C38.916 5.2236 38.502 5.5897 37.996 5.77275C38.272 5.86428 38.594 6.00156 38.87 6.13885C39.146 6.3219 39.422 6.55072 39.652 6.82529C39.882 7.09987 40.066 7.46597 40.204 7.87783C40.342 8.28969 40.434 8.79309 40.434 9.34224C40.434 10.6694 40.112 11.6304 39.514 12.2253C38.916 12.8202 37.95 13.1405 36.616 13.1405H27.968V-0.817085H27.922ZM36.202 3.21004C36.202 2.43207 35.788 2.02021 35.006 2.02021H31.602V4.81173H35.006C35.788 4.81173 36.202 4.39987 36.202 3.6219V3.21004ZM36.8 8.79308C36.8 8.01512 36.386 7.60326 35.604 7.60326H31.602V10.3948H35.604C36.386 10.3948 36.8 9.98292 36.8 9.20495V8.79308ZM54.878 9.388C54.878 10.8066 54.556 11.8134 53.912 12.4541C53.268 13.0948 52.256 13.4151 50.83 13.4151H45.816C44.39 13.4151 43.378 13.0948 42.734 12.4541C42.09 11.8134 41.768 10.8066 41.768 9.388V2.98122C41.768 1.56258 42.09 0.555799 42.734 -0.0848787C43.378 -0.725557 44.39 -1.0459 45.816 -1.0459H50.83C52.256 -1.0459 53.268 -0.725557 53.912 -0.0848787C54.556 0.555799 54.878 1.56258 54.878 2.98122V9.388ZM51.244 2.98122C51.244 2.20326 50.83 1.7914 50.048 1.7914H46.644C45.862 1.7914 45.448 2.20326 45.448 2.98122V9.388C45.448 10.166 45.862 10.5778 46.644 10.5778H50.048C50.83 10.5778 51.244 10.166 51.244 9.388V2.98122ZM58.512 -0.817085H69.046V10.3948H70.564V15.7948H67.16L66.976 13.1863H59.156L58.972 15.7948H55.568V10.3948H56.856C57.086 10.166 57.27 9.8914 57.408 9.57106C57.546 9.29648 57.684 8.97614 57.822 8.61004C57.96 8.24393 58.006 7.83207 58.052 7.37444L58.512 -0.817085ZM65.412 10.3948V1.97444H61.686L61.364 6.96258C61.318 7.46597 61.272 7.92359 61.134 8.33546C60.996 8.74732 60.904 9.11343 60.766 9.43377C60.628 9.79987 60.444 10.0744 60.26 10.3948H65.412Z" fill="#F2F2F3"/>
<path d="M5.15189 38.166C3.40389 38.166 2.1159 37.7541 1.2879 36.9304C0.459897 36.1067 0.0458984 34.8253 0.0458984 33.0863V24.5745C0.0458984 22.6982 0.459893 21.3711 1.33389 20.5016C2.20789 19.6778 3.5419 19.2202 5.4279 19.2202H15.1339V22.9728H6.4859C5.4279 22.9728 4.8759 23.5219 4.8759 24.5745V33.1321C4.8759 33.5439 5.01389 33.8643 5.24389 34.0931C5.47389 34.3219 5.79589 34.4592 6.20989 34.4592H10.2579C10.7639 34.4592 11.2239 34.3677 11.6839 34.2304H15.0879V37.7541C13.8919 37.9829 12.6959 38.0745 11.4999 38.0745H8.23389C7.12989 38.166 6.07189 38.166 5.15189 38.166ZM33.7179 38.0745H28.8419V23.0643H22.0799V38.0745H17.2039V19.3117H33.6719V38.0745H33.7179ZM51.9339 38.0745H36.9839V19.3117H51.9339V23.0643H41.8139V26.6795H49.7719V30.4321H41.8139V34.3219H51.9339V38.0745ZM54.0959 38.0745V19.3117H58.9719V34.3219H65.7339V19.3117H70.6099V34.3219H72.6339V41.5524H68.0339L67.7579 38.0745H54.0959Z" fill="#F2F2F3"/>
<path d="M78.1078 38.0744H72.8638L79.9938 19.3117H85.3758L92.5058 38.0744H87.2618L86.0658 34.7337H79.3038L78.1078 38.0744ZM80.5458 31.2557H84.8698L82.7078 24.9405L80.5458 31.2557ZM93.8858 19.3117H104.696C106.444 19.3117 107.732 19.7235 108.56 20.5015C109.388 21.2795 109.802 22.5151 109.802 24.1168C109.802 25.1693 109.572 26.0846 109.112 26.7252C108.652 27.4117 108.054 27.8693 107.364 28.1439C107.778 28.2354 108.146 28.4185 108.56 28.6473C108.974 28.8761 109.296 29.1964 109.618 29.6083C109.894 30.0202 110.17 30.4778 110.354 31.0269C110.538 31.5761 110.63 32.2168 110.63 32.9947C110.63 34.7337 110.216 36.0151 109.388 36.8388C108.56 37.6625 107.272 38.0744 105.524 38.0744H93.8858V19.3117ZM104.926 24.6659C104.926 23.6134 104.374 23.0642 103.316 23.0642H98.7158V26.8168H103.316C104.374 26.8168 104.926 26.2676 104.926 25.2151V24.6659ZM105.754 32.171C105.754 31.1185 105.202 30.5693 104.144 30.5693H98.7158V34.3218H104.098C105.156 34.3218 105.708 33.7727 105.708 32.7202V32.171H105.754ZM121.67 38.0744H116.794V23.0642H111.136V19.3117H127.328V23.0642H121.67V38.0744ZM146.188 32.9947C146.188 34.871 145.774 36.2439 144.9 37.0676C144.026 37.9371 142.692 38.349 140.806 38.349H134.044C132.158 38.349 130.778 37.9371 129.95 37.0676C129.076 36.1981 128.662 34.871 128.662 32.9947V24.3913C128.662 22.5151 129.076 21.1422 129.95 20.3185C130.824 19.449 132.158 19.0371 134.044 19.0371H140.806C142.692 19.0371 144.072 19.449 144.9 20.3185C145.774 21.188 146.188 22.5151 146.188 24.3913V32.9947ZM141.358 24.3913C141.358 23.3388 140.806 22.7896 139.748 22.7896H135.148C134.09 22.7896 133.538 23.3388 133.538 24.3913V32.9947C133.538 34.0473 134.09 34.5964 135.148 34.5964H139.748C140.806 34.5964 141.358 34.0473 141.358 32.9947V24.3913Z" fill="#FFAF17"/>
<path d="M158.056 38.0744H153.18V23.0642H147.522V19.3117H163.76V23.0642H158.102V38.0744H158.056ZM180.596 38.0744H165.646V19.3117H180.596V23.0642H170.476V26.6795H178.434V30.432H170.476V34.3219H180.596V38.0744ZM193.66 19.3117H199.042L192.97 28.693L199.18 38.0744H193.798L190.026 32.171L186.254 38.0744H180.872L187.082 28.693L181.01 19.3117H186.392L190.072 25.2151L193.66 19.3117ZM217.028 38.0744H212.152V30.432H205.39V38.0744H200.56V19.3117H205.436V26.6795H212.198V19.3117H217.074V38.0744H217.028ZM236.716 38.0744H231.84V26.5422L225.354 38.0744H220.248V19.3117H225.124V30.8439L231.61 19.3117H236.716V38.0744ZM251.252 28.5557L256.496 38.0744H251.39L247.204 30.432H244.766V38.0744H239.89V19.3117H244.766V26.6795H247.204L249.918 21.5998C250.332 20.8676 250.792 20.2269 251.39 19.7693C251.988 19.3117 252.724 19.0371 253.69 19.0371C254.012 19.0371 254.288 19.0371 254.564 19.0829C254.84 19.1286 255.116 19.1286 255.346 19.1744C255.622 19.2202 255.852 19.2659 256.082 19.3117V22.9269H255.024C254.748 22.9269 254.518 23.0185 254.288 23.2015C254.058 23.3846 253.92 23.5676 253.782 23.7507L251.252 28.5557Z" fill="#F2F2F3"/>
<path d="M261.51 38.0742H256.266L263.396 19.3115H268.778L275.908 38.0742H270.664L269.468 34.7336H262.706L261.51 38.0742ZM263.948 31.2556H268.272L266.11 24.9403L263.948 31.2556Z" fill="#F2F2F3"/>
<path d="M203.412 45.8472H207.138C208.242 45.8472 209.024 46.076 209.484 46.5794C209.99 47.0828 210.22 47.8608 210.22 48.9133V49.3709C210.22 50.4692 209.99 51.2472 209.484 51.7048C208.978 52.2082 208.196 52.437 207.138 52.437H200.606V41.637H209.208V43.7879H203.412V45.8472ZM207.46 48.9591C207.46 48.3642 207.138 48.0438 206.54 48.0438H203.458V50.3777H206.54C207.138 50.3777 207.46 50.0574 207.46 49.4625V48.9591ZM219.834 50.1947C219.834 50.9726 219.604 51.5676 219.19 52.0252C218.73 52.4828 218.132 52.6659 217.35 52.6659H213.762C212.98 52.6659 212.382 52.437 211.922 52.0252C211.462 51.5676 211.278 50.9726 211.278 50.1947V46.6252C211.278 45.8472 211.508 45.2523 211.922 44.7947C212.382 44.337 212.98 44.154 213.762 44.154H217.35C218.132 44.154 218.73 44.3828 219.19 44.7947C219.65 45.2523 219.834 45.8472 219.834 46.6252V50.1947ZM217.12 46.854C217.12 46.4421 216.89 46.2591 216.522 46.2591H214.682C214.268 46.2591 214.084 46.4879 214.084 46.854V49.9201C214.084 50.332 214.268 50.515 214.682 50.515H216.522C216.936 50.515 217.12 50.332 217.12 49.9201V46.854ZM229.172 41.3167L229.402 43.4676L224.572 44.0167C224.066 44.0625 223.79 44.337 223.79 44.7947V45.7099C224.112 45.6642 224.388 45.5726 224.71 45.5726C224.986 45.5269 225.262 45.4811 225.584 45.4811C225.906 45.4353 226.182 45.4354 226.458 45.4354H227.148C227.838 45.4354 228.436 45.6642 228.85 46.076C229.264 46.4879 229.494 47.037 229.494 47.7692V50.2404C229.494 51.0184 229.264 51.6133 228.85 52.0709C228.39 52.5286 227.792 52.7116 227.01 52.7116H223.56C222.778 52.7116 222.18 52.4828 221.72 52.0709C221.26 51.6133 221.076 51.0184 221.076 50.2404V44.7489C221.076 44.0167 221.306 43.376 221.812 42.8726C222.318 42.3692 223.008 42.0489 223.836 41.9574L229.172 41.3167ZM226.136 50.5608C226.55 50.5608 226.734 50.3777 226.734 49.9659V48.0438C226.734 47.9065 226.688 47.7692 226.596 47.6777C226.504 47.5862 226.366 47.5404 226.228 47.5404H225.032C224.802 47.5404 224.618 47.5404 224.434 47.5862C224.25 47.632 224.02 47.6777 223.836 47.7235V50.0116C223.836 50.4235 224.02 50.6065 224.434 50.6065H226.136V50.5608ZM233.404 52.4828V55.0913H230.69V44.2913H233.082L233.22 45.0692C233.496 44.8862 233.772 44.7489 234.094 44.6116C234.37 44.5201 234.646 44.3828 235.014 44.2913C235.336 44.1998 235.704 44.154 236.026 44.154H236.716C237.406 44.154 238.004 44.3828 238.418 44.7947C238.832 45.2065 239.062 45.7557 239.062 46.4879V50.0574C239.062 50.8353 238.832 51.4303 238.418 51.8879C237.958 52.3455 237.36 52.5286 236.578 52.5286H233.404V52.4828ZM233.404 50.4235H235.75C236.164 50.4235 236.348 50.2404 236.348 49.8286V46.9913C236.348 46.854 236.302 46.7167 236.21 46.6252C236.118 46.5337 235.98 46.4879 235.842 46.4879H235.29C235.106 46.4879 234.876 46.4879 234.692 46.5337C234.462 46.5794 234.278 46.5794 234.094 46.6252C233.864 46.6709 233.68 46.7167 233.45 46.7625V50.4235H233.404ZM245.824 44.2913H248.676L245.594 52.7574C245.272 53.5811 244.904 54.176 244.444 54.5879C243.984 54.9998 243.34 55.2286 242.512 55.2286H241.868C241.638 55.2286 241.408 55.2286 241.224 55.1828C240.994 55.137 240.764 55.137 240.488 55.0913V53.0777H241.868C242.282 53.0777 242.512 52.9862 242.65 52.7574C242.788 52.5286 242.742 52.254 242.558 51.8421L239.384 44.2913H242.236L244.168 49.5998L245.824 44.2913ZM254.518 44.337H257.37V52.5286H254.656V48.0438L252.034 52.5286H249.182V44.337H251.896V48.8218L254.518 44.337ZM252.448 43.5591C251.114 43.5591 250.424 42.8726 250.424 41.5455V41.0879H252.448V41.454C252.448 41.5913 252.494 41.7286 252.586 41.8201C252.678 41.9116 252.816 41.9574 252.954 41.9574H253.414C253.552 41.9574 253.69 41.9116 253.782 41.8201C253.874 41.7286 253.92 41.5913 253.92 41.454V41.0879H255.944V41.5455C255.944 42.8726 255.254 43.5591 253.92 43.5591H252.448ZM258.796 46.7625C258.796 45.9845 259.026 45.3896 259.44 44.9777C259.9 44.5659 260.498 44.337 261.28 44.337H266.248V46.4421H262.154C261.74 46.4421 261.556 46.6252 261.556 47.037V50.0116C261.556 50.1489 261.602 50.2862 261.694 50.3777C261.786 50.4692 261.924 50.515 262.062 50.515H263.396C263.902 50.515 264.316 50.515 264.776 50.4693C265.282 50.4235 265.788 50.3777 266.248 50.332V52.3455C265.65 52.437 265.098 52.4828 264.5 52.4828C263.994 52.5743 263.442 52.6201 262.844 52.6201H261.142C260.452 52.6201 259.854 52.3913 259.44 51.9794C259.026 51.5676 258.796 51.0184 258.796 50.2862V46.7625ZM271.354 49.4167H270.204V52.4828H267.49V44.2913H270.204V47.3116H271.446L272.32 45.6184C272.412 45.4353 272.55 45.2523 272.688 45.0692C272.826 44.8862 273.01 44.7489 273.194 44.6116C273.378 44.4743 273.608 44.3828 273.838 44.2913C274.068 44.1998 274.344 44.154 274.62 44.154H275.08C275.218 44.154 275.356 44.1998 275.494 44.1998L275.862 44.2913V46.3964H275.31C275.126 46.3964 274.942 46.4421 274.804 46.5337C274.666 46.6252 274.574 46.7167 274.528 46.854L273.746 48.4099L276.092 52.4828H273.148L271.354 49.4167Z" fill="#F2F2F3"/>
</g>
<path d="M6.76221 73H6.10156V65.7437H1.67578V73H1.01514V65.1797H6.76221V73ZM13.2988 70.1533C13.2988 71.0592 13.0983 71.779 12.6973 72.3125C12.2962 72.8424 11.7591 73.1074 11.0859 73.1074C10.291 73.1074 9.68229 72.8281 9.25977 72.2695V75.2344H8.62061V67.1885H9.2168L9.24902 68.0103C9.66797 67.3908 10.2749 67.0811 11.0698 67.0811C11.7645 67.0811 12.3088 67.3442 12.7026 67.8706C13.1001 68.397 13.2988 69.1274 13.2988 70.062V70.1533ZM12.6543 70.0405C12.6543 69.2993 12.5021 68.7139 12.1978 68.2842C11.8934 67.8545 11.4691 67.6396 10.9248 67.6396C10.5309 67.6396 10.1925 67.7345 9.90967 67.9243C9.62679 68.1141 9.41016 68.3898 9.25977 68.7515V71.5391C9.41374 71.8721 9.63395 72.1263 9.92041 72.3018C10.2069 72.4772 10.5452 72.5649 10.9355 72.5649C11.4762 72.5649 11.897 72.3501 12.1978 71.9204C12.5021 71.4871 12.6543 70.8605 12.6543 70.0405ZM14.373 70.0083C14.373 69.4497 14.4805 68.9466 14.6953 68.499C14.9137 68.0514 15.2199 67.7041 15.6138 67.457C16.0112 67.2064 16.4606 67.0811 16.9619 67.0811C17.7354 67.0811 18.362 67.3532 18.8418 67.8975C19.3216 68.4382 19.5615 69.1561 19.5615 70.0513V70.1855C19.5615 70.7477 19.4523 71.2544 19.2339 71.7056C19.019 72.1532 18.7147 72.4987 18.3208 72.7422C17.9269 72.9857 17.4775 73.1074 16.9727 73.1074C16.2028 73.1074 15.5762 72.8371 15.0928 72.2964C14.613 71.7521 14.373 71.0324 14.373 70.1372V70.0083ZM15.0176 70.1855C15.0176 70.8802 15.1966 71.4513 15.5547 71.8989C15.9163 72.3429 16.389 72.5649 16.9727 72.5649C17.5527 72.5649 18.0218 72.3429 18.3799 71.8989C18.7415 71.4513 18.9224 70.8623 18.9224 70.1318V70.0083C18.9224 69.5643 18.84 69.1579 18.6753 68.7891C18.5106 68.4202 18.2796 68.1356 17.9824 67.9351C17.6852 67.731 17.3451 67.6289 16.9619 67.6289C16.389 67.6289 15.9217 67.8545 15.5601 68.3057C15.1984 68.7533 15.0176 69.3405 15.0176 70.0674V70.1855ZM24.7124 67.1885H25.3569V73H24.7124V68.2251L21.5757 73H20.9365V67.1885H21.5757V71.9688L24.7124 67.1885ZM30.4863 68.7246C30.4863 68.3737 30.3556 68.1034 30.0942 67.9136C29.8328 67.7238 29.473 67.6289 29.0146 67.6289C28.5993 67.6289 28.243 67.7363 27.9458 67.9512C27.6522 68.1624 27.5054 68.431 27.5054 68.7568H26.8662C26.8662 68.2734 27.0721 67.8742 27.4839 67.5591C27.8993 67.244 28.4095 67.0864 29.0146 67.0864C29.6807 67.0864 30.1999 67.2297 30.5723 67.5161C30.9447 67.8026 31.1309 68.209 31.1309 68.7354C31.1309 69.0146 31.0449 69.2671 30.873 69.4927C30.7012 69.7183 30.4505 69.8937 30.1211 70.019C30.8659 70.2231 31.2383 70.6851 31.2383 71.4048C31.2383 71.9276 31.036 72.3411 30.6313 72.6455C30.2267 72.9499 29.6896 73.1021 29.02 73.1021C28.3719 73.1021 27.8348 72.9391 27.4087 72.6133C26.9826 72.2874 26.7695 71.8613 26.7695 71.335H27.4141C27.4141 71.6859 27.568 71.9795 27.876 72.2158C28.1875 72.4486 28.5688 72.5649 29.02 72.5649C29.5106 72.5649 29.8937 72.4629 30.1694 72.2588C30.4487 72.0511 30.5884 71.77 30.5884 71.4155C30.5884 71.0252 30.4613 70.7441 30.207 70.5723C29.9528 70.4004 29.5643 70.3145 29.0415 70.3145H28.1553V69.7559H29.1489C30.0405 69.7344 30.4863 69.3906 30.4863 68.7246ZM32.7261 73V67.1885H34.8584C35.596 67.1885 36.1618 67.321 36.5557 67.5859C36.9495 67.8473 37.1465 68.2323 37.1465 68.7407C37.1465 69.0308 37.0588 69.2904 36.8833 69.5195C36.7078 69.7451 36.4518 69.9098 36.1152 70.0137C36.4948 70.0853 36.7992 70.2482 37.0283 70.5024C37.2611 70.7567 37.3774 71.0521 37.3774 71.3887C37.3774 71.9007 37.1877 72.2982 36.8081 72.5811C36.4321 72.8604 35.8986 73 35.2075 73H32.7261ZM33.3652 70.3252V72.4629H35.229C35.7124 72.4629 36.0848 72.3698 36.3462 72.1836C36.6076 71.9974 36.7383 71.7288 36.7383 71.3779C36.7383 71.0557 36.6076 70.7996 36.3462 70.6099C36.0848 70.4201 35.7124 70.3252 35.229 70.3252H33.3652ZM33.3652 69.7881H34.9927C36.0024 69.7738 36.5073 69.43 36.5073 68.7568C36.5073 68.4023 36.3677 68.1445 36.0884 67.9834C35.8127 67.8187 35.4027 67.7363 34.8584 67.7363H33.3652V69.7881ZM38.457 70.0083C38.457 69.4497 38.5645 68.9466 38.7793 68.499C38.9977 68.0514 39.3039 67.7041 39.6978 67.457C40.0952 67.2064 40.5446 67.0811 41.0459 67.0811C41.8193 67.0811 42.446 67.3532 42.9258 67.8975C43.4056 68.4382 43.6455 69.1561 43.6455 70.0513V70.1855C43.6455 70.7477 43.5363 71.2544 43.3179 71.7056C43.103 72.1532 42.7987 72.4987 42.4048 72.7422C42.0109 72.9857 41.5615 73.1074 41.0566 73.1074C40.2868 73.1074 39.6602 72.8371 39.1768 72.2964C38.6969 71.7521 38.457 71.0324 38.457 70.1372V70.0083ZM39.1016 70.1855C39.1016 70.8802 39.2806 71.4513 39.6387 71.8989C40.0003 72.3429 40.473 72.5649 41.0566 72.5649C41.6367 72.5649 42.1058 72.3429 42.4639 71.8989C42.8255 71.4513 43.0063 70.8623 43.0063 70.1318V70.0083C43.0063 69.5643 42.924 69.1579 42.7593 68.7891C42.5946 68.4202 42.3636 68.1356 42.0664 67.9351C41.7692 67.731 41.429 67.6289 41.0459 67.6289C40.473 67.6289 40.0057 67.8545 39.644 68.3057C39.2824 68.7533 39.1016 69.3405 39.1016 70.0674V70.1855ZM44.4565 72.4575L44.7412 72.0869C45.1924 71.4746 45.452 70.5794 45.52 69.4014L45.6221 67.1885H49.0542V72.4575H49.6558V74.708H49.0166V73H44.6499V74.708H44.0322L44.0376 72.4575H44.4565ZM45.1978 72.4575H48.4097V67.79H46.2344L46.1646 69.2993C46.1001 70.6851 45.7778 71.7378 45.1978 72.4575ZM53.0449 72.5649C53.4925 72.5649 53.8667 72.4396 54.1675 72.189C54.4718 71.9347 54.6366 71.6071 54.6616 71.2061H55.2793C55.2614 71.5605 55.1504 71.8846 54.9463 72.1782C54.7422 72.4683 54.4701 72.6956 54.1299 72.8604C53.7933 73.0251 53.4316 73.1074 53.0449 73.1074C52.2822 73.1074 51.6771 72.8424 51.2295 72.3125C50.7855 71.7826 50.5635 71.07 50.5635 70.1748V69.9814C50.5635 69.4085 50.6637 68.9019 50.8643 68.4614C51.0648 68.021 51.3512 67.6808 51.7236 67.4409C52.0996 67.201 52.5382 67.0811 53.0396 67.0811C53.6769 67.0811 54.2015 67.2708 54.6133 67.6504C55.0286 68.0299 55.2507 68.5295 55.2793 69.1489H54.6616C54.633 68.6942 54.4683 68.3271 54.1675 68.0479C53.8703 67.7686 53.4943 67.6289 53.0396 67.6289C52.4595 67.6289 52.0083 67.8384 51.686 68.2573C51.3674 68.6763 51.208 69.2635 51.208 70.019V70.207C51.208 70.9482 51.3674 71.5265 51.686 71.9419C52.0083 72.3573 52.4613 72.5649 53.0449 72.5649ZM60.7417 67.7363H58.6255V73H57.981V67.7363H55.9453V67.1885H60.7417V67.7363ZM61.8696 73V67.1885H64.002C64.7396 67.1885 65.3053 67.321 65.6992 67.5859C66.0931 67.8473 66.29 68.2323 66.29 68.7407C66.29 69.0308 66.2023 69.2904 66.0269 69.5195C65.8514 69.7451 65.5954 69.9098 65.2588 70.0137C65.6383 70.0853 65.9427 70.2482 66.1719 70.5024C66.4046 70.7567 66.521 71.0521 66.521 71.3887C66.521 71.9007 66.3312 72.2982 65.9517 72.5811C65.5757 72.8604 65.0422 73 64.3511 73H61.8696ZM62.5088 70.3252V72.4629H64.3726C64.856 72.4629 65.2284 72.3698 65.4897 72.1836C65.7511 71.9974 65.8818 71.7288 65.8818 71.3779C65.8818 71.0557 65.7511 70.7996 65.4897 70.6099C65.2284 70.4201 64.856 70.3252 64.3726 70.3252H62.5088ZM62.5088 69.7881H64.1362C65.146 69.7738 65.6509 69.43 65.6509 68.7568C65.6509 68.4023 65.5112 68.1445 65.2319 67.9834C64.9562 67.8187 64.5462 67.7363 64.002 67.7363H62.5088V69.7881ZM67.6006 70.0083C67.6006 69.4497 67.708 68.9466 67.9229 68.499C68.1413 68.0514 68.4474 67.7041 68.8413 67.457C69.2388 67.2064 69.6882 67.0811 70.1895 67.0811C70.9629 67.0811 71.5895 67.3532 72.0693 67.8975C72.5492 68.4382 72.7891 69.1561 72.7891 70.0513V70.1855C72.7891 70.7477 72.6799 71.2544 72.4614 71.7056C72.2466 72.1532 71.9422 72.4987 71.5483 72.7422C71.1545 72.9857 70.7051 73.1074 70.2002 73.1074C69.4303 73.1074 68.8037 72.8371 68.3203 72.2964C67.8405 71.7521 67.6006 71.0324 67.6006 70.1372V70.0083ZM68.2451 70.1855C68.2451 70.8802 68.4242 71.4513 68.7822 71.8989C69.1439 72.3429 69.6165 72.5649 70.2002 72.5649C70.7803 72.5649 71.2493 72.3429 71.6074 71.8989C71.9691 71.4513 72.1499 70.8623 72.1499 70.1318V70.0083C72.1499 69.5643 72.0675 69.1579 71.9028 68.7891C71.7381 68.4202 71.5072 68.1356 71.21 67.9351C70.9128 67.731 70.5726 67.6289 70.1895 67.6289C69.6165 67.6289 69.1493 67.8545 68.7876 68.3057C68.4259 68.7533 68.2451 69.3405 68.2451 70.0674V70.1855ZM81.2593 73H80.6147V67.7417H77.4834V73H76.8389V67.1885H81.2593V73ZM87.6562 70.1533C87.6562 71.0592 87.4557 71.779 87.0547 72.3125C86.6536 72.8424 86.1165 73.1074 85.4434 73.1074C84.6484 73.1074 84.0397 72.8281 83.6172 72.2695V75.2344H82.978V67.1885H83.5742L83.6064 68.0103C84.0254 67.3908 84.6323 67.0811 85.4272 67.0811C86.1219 67.0811 86.6662 67.3442 87.0601 67.8706C87.4575 68.397 87.6562 69.1274 87.6562 70.062V70.1533ZM87.0117 70.0405C87.0117 69.2993 86.8595 68.7139 86.5552 68.2842C86.2508 67.8545 85.8265 67.6396 85.2822 67.6396C84.8883 67.6396 84.55 67.7345 84.2671 67.9243C83.9842 68.1141 83.7676 68.3898 83.6172 68.7515V71.5391C83.7712 71.8721 83.9914 72.1263 84.2778 72.3018C84.5643 72.4772 84.9027 72.5649 85.293 72.5649C85.8337 72.5649 86.2544 72.3501 86.5552 71.9204C86.8595 71.4871 87.0117 70.8605 87.0117 70.0405ZM92.9038 67.1885H93.5483V73H92.9038V68.2251L89.7671 73H89.1279V67.1885H89.7671V71.9688L92.9038 67.1885ZM95.3154 67.1885H95.96V72.4575H99.0913V67.1885H99.7358V72.4575H100.327L100.278 74.7241H99.6875V73H95.3154V67.1885ZM103.786 73.1074C103.292 73.1074 102.844 72.9857 102.443 72.7422C102.045 72.4987 101.736 72.1603 101.514 71.7271C101.292 71.2902 101.181 70.8014 101.181 70.2607V70.0298C101.181 69.4712 101.288 68.9681 101.503 68.5205C101.721 68.0729 102.024 67.722 102.411 67.4678C102.797 67.21 103.216 67.0811 103.667 67.0811C104.373 67.0811 104.931 67.3228 105.343 67.8062C105.759 68.286 105.966 68.943 105.966 69.7773V70.1372H101.82V70.2607C101.82 70.9196 102.008 71.4692 102.384 71.9097C102.763 72.3465 103.24 72.5649 103.812 72.5649C104.156 72.5649 104.459 72.5023 104.72 72.377C104.985 72.2516 105.225 72.0511 105.44 71.7754L105.843 72.0815C105.37 72.7655 104.684 73.1074 103.786 73.1074ZM103.667 67.6289C103.184 67.6289 102.776 67.8062 102.443 68.1606C102.113 68.5151 101.913 68.9914 101.841 69.5894H105.327V69.5195C105.309 68.9609 105.15 68.5062 104.849 68.1553C104.548 67.8044 104.154 67.6289 103.667 67.6289ZM111.681 73H111.037V67.7417H107.905V73H107.261V67.1885H111.681V73ZM117.869 73H117.224V70.3359H114.093V73H113.448V67.1885H114.093V69.7935H117.224V67.1885H117.869V73ZM119.238 70.0083C119.238 69.4497 119.346 68.9466 119.561 68.499C119.779 68.0514 120.085 67.7041 120.479 67.457C120.876 67.2064 121.326 67.0811 121.827 67.0811C122.601 67.0811 123.227 67.3532 123.707 67.8975C124.187 68.4382 124.427 69.1561 124.427 70.0513V70.1855C124.427 70.7477 124.318 71.2544 124.099 71.7056C123.884 72.1532 123.58 72.4987 123.186 72.7422C122.792 72.9857 122.343 73.1074 121.838 73.1074C121.068 73.1074 120.441 72.8371 119.958 72.2964C119.478 71.7521 119.238 71.0324 119.238 70.1372V70.0083ZM119.883 70.1855C119.883 70.8802 120.062 71.4513 120.42 71.8989C120.782 72.3429 121.254 72.5649 121.838 72.5649C122.418 72.5649 122.887 72.3429 123.245 71.8989C123.607 71.4513 123.788 70.8623 123.788 70.1318V70.0083C123.788 69.5643 123.705 69.1579 123.541 68.7891C123.376 68.4202 123.145 68.1356 122.848 67.9351C122.55 67.731 122.21 67.6289 121.827 67.6289C121.254 67.6289 120.787 67.8545 120.425 68.3057C120.064 68.7533 119.883 69.3405 119.883 70.0674V70.1855ZM129.578 67.1885H130.222V73H129.578V68.2251L126.441 73H125.802V67.1885H126.441V71.9688L129.578 67.1885ZM129.545 65.0938C129.545 65.5055 129.404 65.8385 129.121 66.0928C128.842 66.347 128.466 66.4741 127.993 66.4741C127.528 66.4741 127.152 66.3488 126.865 66.0981C126.582 65.8439 126.441 65.5091 126.441 65.0938H126.989C126.989 65.391 127.076 65.6183 127.252 65.7759C127.431 65.9334 127.678 66.0122 127.993 66.0122C128.308 66.0122 128.554 65.9299 128.729 65.7651C128.908 65.6004 128.998 65.3766 128.998 65.0938H129.545ZM5.01123 80.7363H2.89502V86H2.25049V80.7363H0.214844V80.1885H5.01123V80.7363ZM7.89014 86.1074C7.396 86.1074 6.9484 85.9857 6.54736 85.7422C6.1499 85.4987 5.84017 85.1603 5.61816 84.7271C5.39616 84.2902 5.28516 83.8014 5.28516 83.2607V83.0298C5.28516 82.4712 5.39258 81.9681 5.60742 81.5205C5.82585 81.0729 6.12842 80.722 6.51514 80.4678C6.90186 80.21 7.3208 80.0811 7.77197 80.0811C8.47738 80.0811 9.03597 80.3228 9.44775 80.8062C9.86312 81.286 10.0708 81.943 10.0708 82.7773V83.1372H5.92432V83.2607C5.92432 83.9196 6.1123 84.4692 6.48828 84.9097C6.86784 85.3465 7.34408 85.5649 7.91699 85.5649C8.26074 85.5649 8.56331 85.5023 8.82471 85.377C9.08968 85.2516 9.32959 85.0511 9.54443 84.7754L9.94727 85.0815C9.47461 85.7655 8.7889 86.1074 7.89014 86.1074ZM7.77197 80.6289C7.28857 80.6289 6.88037 80.8062 6.54736 81.1606C6.21794 81.5151 6.01742 81.9914 5.9458 82.5894H9.43164V82.5195C9.41374 81.9609 9.25439 81.5062 8.95361 81.1553C8.65283 80.8044 8.25895 80.6289 7.77197 80.6289ZM13.1484 82.5464L14.7168 80.1885H15.4795L13.5083 83.0405L15.5654 86H14.8081L13.1538 83.54L11.4995 86H10.7422L12.7939 83.0405L10.8228 80.1885H11.5801L13.1484 82.5464ZM21.1353 86H20.4907V83.3359H17.3594V86H16.7148V80.1885H17.3594V82.7935H20.4907V80.1885H21.1353V86ZM26.6782 80.1885H27.3228V86H26.6782V81.2251L23.5415 86H22.9023V80.1885H23.5415V84.9688L26.6782 80.1885ZM30.626 83.3359H29.7344V86H29.0845V80.1885H29.7344V82.7666H30.6152L32.7476 80.1885H33.5586L31.1738 83.0083L33.8218 86H32.9731L30.626 83.3359ZM38.5698 80.1885H39.2144V86H38.5698V81.2251L35.4331 86H34.7939V80.1885H35.4331V84.9688L38.5698 80.1885ZM43.6831 86V80.1885H45.8154C46.5531 80.1885 47.1188 80.321 47.5127 80.5859C47.9066 80.8473 48.1035 81.2323 48.1035 81.7407C48.1035 82.0308 48.0158 82.2904 47.8403 82.5195C47.6649 82.7451 47.4089 82.9098 47.0723 83.0137C47.4518 83.0853 47.7562 83.2482 47.9854 83.5024C48.2181 83.7567 48.3345 84.0521 48.3345 84.3887C48.3345 84.9007 48.1447 85.2982 47.7651 85.5811C47.3892 85.8604 46.8556 86 46.1646 86H43.6831ZM44.3223 83.3252V85.4629H46.186C46.6694 85.4629 47.0418 85.3698 47.3032 85.1836C47.5646 84.9974 47.6953 84.7288 47.6953 84.3779C47.6953 84.0557 47.5646 83.7996 47.3032 83.6099C47.0418 83.4201 46.6694 83.3252 46.186 83.3252H44.3223ZM44.3223 82.7881H45.9497C46.9595 82.7738 47.4644 82.43 47.4644 81.7568C47.4644 81.4023 47.3247 81.1445 47.0454 80.9834C46.7697 80.8187 46.3597 80.7363 45.8154 80.7363H44.3223V82.7881ZM57.272 78.7437H53.2222V81.5742H55.1611C55.6947 81.5742 56.1566 81.6637 56.5469 81.8428C56.9372 82.0182 57.2344 82.2725 57.4385 82.6055C57.6462 82.9349 57.75 83.3252 57.75 83.7764C57.75 84.4674 57.519 85.0117 57.0571 85.4092C56.5952 85.8031 55.9561 86 55.1396 86H52.5562V78.1797H57.272V78.7437ZM53.2222 82.1382V85.4414H55.1558C55.7609 85.4414 56.2336 85.2928 56.5737 84.9956C56.9139 84.6948 57.084 84.2848 57.084 83.7656C57.084 83.2715 56.9193 82.8794 56.5898 82.5894C56.2604 82.2957 55.7985 82.1453 55.2041 82.1382H53.2222ZM61.6011 86.1074C61.1069 86.1074 60.6593 85.9857 60.2583 85.7422C59.8608 85.4987 59.5511 85.1603 59.3291 84.7271C59.1071 84.2902 58.9961 83.8014 58.9961 83.2607V83.0298C58.9961 82.4712 59.1035 81.9681 59.3184 81.5205C59.5368 81.0729 59.8394 80.722 60.2261 80.4678C60.6128 80.21 61.0317 80.0811 61.4829 80.0811C62.1883 80.0811 62.7469 80.3228 63.1587 80.8062C63.5741 81.286 63.7817 81.943 63.7817 82.7773V83.1372H59.6353V83.2607C59.6353 83.9196 59.8232 84.4692 60.1992 84.9097C60.5788 85.3465 61.055 85.5649 61.6279 85.5649C61.9717 85.5649 62.2743 85.5023 62.5356 85.377C62.8006 85.2516 63.0405 85.0511 63.2554 84.7754L63.6582 85.0815C63.1855 85.7655 62.4998 86.1074 61.6011 86.1074ZM61.4829 80.6289C60.9995 80.6289 60.5913 80.8062 60.2583 81.1606C59.9289 81.5151 59.7284 81.9914 59.6567 82.5894H63.1426V82.5195C63.1247 81.9609 62.9653 81.5062 62.6646 81.1553C62.3638 80.8044 61.9699 80.6289 61.4829 80.6289ZM69.502 80.1885V86H68.8574V80.7417H66.478L66.376 82.917C66.333 83.7227 66.2524 84.3385 66.1343 84.7646C66.0161 85.1872 65.8407 85.4987 65.6079 85.6992C65.3752 85.8997 65.0654 86 64.6787 86H64.4316V85.4307L64.6304 85.4199C64.9992 85.4128 65.2642 85.2337 65.4253 84.8828C65.5864 84.5319 65.6921 83.9053 65.7422 83.0029L65.8604 80.1885H69.502ZM74.8999 86C74.8354 85.8174 74.7943 85.547 74.7764 85.189C74.5508 85.4826 74.2625 85.71 73.9116 85.8711C73.5643 86.0286 73.1955 86.1074 72.8052 86.1074C72.2466 86.1074 71.7936 85.9517 71.4463 85.6401C71.1025 85.3286 70.9307 84.9347 70.9307 84.4585C70.9307 83.8927 71.1652 83.4451 71.6343 83.1157C72.1069 82.7863 72.764 82.6216 73.6055 82.6216H74.771V81.9609C74.771 81.5456 74.6421 81.2197 74.3843 80.9834C74.13 80.7435 73.7576 80.6235 73.2671 80.6235C72.8195 80.6235 72.4489 80.7381 72.1553 80.9673C71.8617 81.1965 71.7148 81.4722 71.7148 81.7944L71.0703 81.7891C71.0703 81.3271 71.2852 80.9279 71.7148 80.5913C72.1445 80.2511 72.6727 80.0811 73.2993 80.0811C73.9474 80.0811 74.4577 80.244 74.8301 80.5698C75.2061 80.8921 75.3994 81.3433 75.4102 81.9233V84.6733C75.4102 85.2355 75.4692 85.6562 75.5874 85.9355V86H74.8999ZM72.8804 85.5381C73.3101 85.5381 73.6932 85.4342 74.0298 85.2266C74.37 85.0189 74.617 84.7414 74.771 84.394V83.1157H73.6216C72.9806 83.1229 72.4793 83.241 72.1177 83.4702C71.756 83.6958 71.5752 84.0073 71.5752 84.4048C71.5752 84.7306 71.6951 85.001 71.9351 85.2158C72.1785 85.4307 72.4937 85.5381 72.8804 85.5381ZM81.8018 83.1533C81.8018 84.0592 81.6012 84.779 81.2002 85.3125C80.7992 85.8424 80.262 86.1074 79.5889 86.1074C78.7939 86.1074 78.1852 85.8281 77.7627 85.2695V88.2344H77.1235V80.1885H77.7197L77.752 81.0103C78.1709 80.3908 78.7778 80.0811 79.5728 80.0811C80.2674 80.0811 80.8117 80.3442 81.2056 80.8706C81.603 81.397 81.8018 82.1274 81.8018 83.062V83.1533ZM81.1572 83.0405C81.1572 82.2993 81.005 81.7139 80.7007 81.2842C80.3963 80.8545 79.972 80.6396 79.4277 80.6396C79.0339 80.6396 78.6955 80.7345 78.4126 80.9243C78.1297 81.1141 77.9131 81.3898 77.7627 81.7515V84.5391C77.9167 84.8721 78.1369 85.1263 78.4233 85.3018C78.7098 85.4772 79.0482 85.5649 79.4385 85.5649C79.9792 85.5649 80.3999 85.3501 80.7007 84.9204C81.005 84.4871 81.1572 83.8605 81.1572 83.0405ZM85.0083 85.0762L86.7056 80.1885H87.3984L84.917 86.9883L84.7881 87.2891C84.4694 87.9945 83.9771 88.3472 83.311 88.3472C83.1571 88.3472 82.9924 88.3221 82.8169 88.272L82.8115 87.7402L83.1445 87.7725C83.4596 87.7725 83.7139 87.6937 83.9072 87.5361C84.1042 87.3822 84.2707 87.1154 84.4067 86.7358L84.6914 85.9517L82.5 80.1885H83.2036L85.0083 85.0762ZM90.4707 85.5649C90.9183 85.5649 91.2925 85.4396 91.5933 85.189C91.8976 84.9347 92.0623 84.6071 92.0874 84.2061H92.7051C92.6872 84.5605 92.5762 84.8846 92.3721 85.1782C92.168 85.4683 91.8958 85.6956 91.5557 85.8604C91.2191 86.0251 90.8574 86.1074 90.4707 86.1074C89.708 86.1074 89.1029 85.8424 88.6553 85.3125C88.2113 84.7826 87.9893 84.07 87.9893 83.1748V82.9814C87.9893 82.4085 88.0895 81.9019 88.29 81.4614C88.4906 81.021 88.777 80.6808 89.1494 80.4409C89.5254 80.201 89.964 80.0811 90.4653 80.0811C91.1027 80.0811 91.6273 80.2708 92.0391 80.6504C92.4544 81.0299 92.6764 81.5295 92.7051 82.1489H92.0874C92.0588 81.6942 91.894 81.3271 91.5933 81.0479C91.2961 80.7686 90.9201 80.6289 90.4653 80.6289C89.8853 80.6289 89.4341 80.8384 89.1118 81.2573C88.7931 81.6763 88.6338 82.2635 88.6338 83.019V83.207C88.6338 83.9482 88.7931 84.5265 89.1118 84.9419C89.4341 85.3573 89.887 85.5649 90.4707 85.5649ZM97.813 80.1885H98.4575V86H97.813V81.2251L94.6763 86H94.0371V80.1885H94.6763V84.9688L97.813 80.1885Z" fill="#F2F2F3"/>
<defs>
<clipPath id="clip0_334_708">
<rect width="276" height="54" fill="white"/>
</clipPath>
</defs>
</svg>
