<svg width="276" height="79" viewBox="0 0 276 79" fill="none" xmlns="http://www.w3.org/2000/svg">
<g clip-path="url(#clip0_270_3906)">
<path d="M11.868 9.52529C11.868 10.8066 11.546 11.7677 10.948 12.3626C10.35 12.9575 9.384 13.2778 8.05 13.2778H2.806C1.886 13.2778 0.92 13.1863 0 13.0033V10.4405H7.222C7.544 10.4405 7.774 10.349 7.958 10.166C8.142 9.98291 8.234 9.7541 8.234 9.47953V8.70156C8.234 7.92359 7.82 7.55749 7.038 7.55749H2.208V4.76597H6.624C7.406 4.76597 7.82 4.3541 7.82 3.57614V3.16428C7.82 2.38631 7.406 1.97444 6.624 1.97444H0.183997V-0.817085H7.636C8.97 -0.817085 9.936 -0.542504 10.534 0.0524108C11.132 0.647326 11.454 1.56258 11.454 2.75241C11.454 3.53037 11.27 4.21682 10.902 4.72021C10.534 5.2236 10.028 5.5897 9.43 5.77275C9.706 5.86428 10.028 5.9558 10.304 6.13885C10.58 6.3219 10.856 6.55072 11.086 6.82529C11.316 7.09987 11.5 7.46597 11.638 7.87783C11.776 8.28969 11.868 8.74732 11.868 9.29648V9.52529ZM16.192 13.1863H12.282L17.618 -0.817085H21.62L26.956 13.1863H23.046L22.126 10.6694H17.112L16.192 13.1863ZM17.986 8.10664H21.206L19.596 3.39309L17.986 8.10664ZM27.922 -0.817085H35.972C37.306 -0.817085 38.272 -0.542504 38.87 0.0524108C39.468 0.647326 39.79 1.56258 39.79 2.75241C39.79 3.53037 39.606 4.21682 39.284 4.72021C38.916 5.2236 38.502 5.5897 37.996 5.77275C38.272 5.86428 38.594 6.00156 38.87 6.13885C39.146 6.3219 39.422 6.55072 39.652 6.82529C39.882 7.09987 40.066 7.46597 40.204 7.87783C40.342 8.28969 40.434 8.79309 40.434 9.34224C40.434 10.6694 40.112 11.6304 39.514 12.2253C38.916 12.8202 37.95 13.1405 36.616 13.1405H27.968V-0.817085H27.922ZM36.202 3.21004C36.202 2.43207 35.788 2.02021 35.006 2.02021H31.602V4.81173H35.006C35.788 4.81173 36.202 4.39987 36.202 3.6219V3.21004ZM36.8 8.79308C36.8 8.01512 36.386 7.60326 35.604 7.60326H31.602V10.3948H35.604C36.386 10.3948 36.8 9.98292 36.8 9.20495V8.79308ZM54.878 9.388C54.878 10.8066 54.556 11.8134 53.912 12.4541C53.268 13.0948 52.256 13.4151 50.83 13.4151H45.816C44.39 13.4151 43.378 13.0948 42.734 12.4541C42.09 11.8134 41.768 10.8066 41.768 9.388V2.98122C41.768 1.56258 42.09 0.555799 42.734 -0.0848787C43.378 -0.725557 44.39 -1.0459 45.816 -1.0459H50.83C52.256 -1.0459 53.268 -0.725557 53.912 -0.0848787C54.556 0.555799 54.878 1.56258 54.878 2.98122V9.388ZM51.244 2.98122C51.244 2.20326 50.83 1.7914 50.048 1.7914H46.644C45.862 1.7914 45.448 2.20326 45.448 2.98122V9.388C45.448 10.166 45.862 10.5778 46.644 10.5778H50.048C50.83 10.5778 51.244 10.166 51.244 9.388V2.98122ZM58.512 -0.817085H69.046V10.3948H70.564V15.7948H67.16L66.976 13.1863H59.156L58.972 15.7948H55.568V10.3948H56.856C57.086 10.166 57.27 9.8914 57.408 9.57106C57.546 9.29648 57.684 8.97614 57.822 8.61004C57.96 8.24393 58.006 7.83207 58.052 7.37444L58.512 -0.817085ZM65.412 10.3948V1.97444H61.686L61.364 6.96258C61.318 7.46597 61.272 7.92359 61.134 8.33546C60.996 8.74732 60.904 9.11343 60.766 9.43377C60.628 9.79987 60.444 10.0744 60.26 10.3948H65.412Z" fill="#333333"/>
<path d="M5.15287 38.1655C3.40487 38.1655 2.11687 37.7536 1.28887 36.9299C0.460874 36.1062 0.046875 34.8248 0.046875 33.0858V24.574C0.046875 22.6977 0.460869 21.3706 1.33487 20.5011C2.20887 19.6774 3.54287 19.2197 5.42887 19.2197H15.1349V22.9723H6.48687C5.42887 22.9723 4.87687 23.5214 4.87687 24.574V33.1316C4.87687 33.5435 5.01487 33.8638 5.24487 34.0926C5.47487 34.3214 5.79687 34.4587 6.21087 34.4587H10.2589C10.7649 34.4587 11.2249 34.3672 11.6849 34.2299H15.0889V37.7536C13.8929 37.9824 12.6969 38.074 11.5009 38.074H8.23487C7.13087 38.1655 6.07287 38.1655 5.15287 38.1655ZM33.7189 38.074H28.8429V23.0638H22.0809V38.074H17.2049V19.3113H33.6729V38.074H33.7189ZM51.9349 38.074H36.9849V19.3113H51.9349V23.0638H41.8149V26.6791H49.7729V30.4316H41.8149V34.3214H51.9349V38.074ZM54.0969 38.074V19.3113H58.9729V34.3214H65.7349V19.3113H70.6109V34.3214H72.6349V41.5519H68.0349L67.7589 38.074H54.0969Z" fill="#333333"/>
<path d="M78.1092 38.0744H72.8652L79.9952 19.3117H85.3772L92.5072 38.0744H87.2632L86.0672 34.7337H79.3052L78.1092 38.0744ZM80.5472 31.2557H84.8712L82.7092 24.9405L80.5472 31.2557ZM93.8872 19.3117H104.697C106.445 19.3117 107.733 19.7235 108.561 20.5015C109.389 21.2795 109.803 22.5151 109.803 24.1168C109.803 25.1693 109.573 26.0846 109.113 26.7252C108.653 27.4117 108.055 27.8693 107.365 28.1439C107.779 28.2354 108.147 28.4185 108.561 28.6473C108.975 28.8761 109.297 29.1964 109.619 29.6083C109.895 30.0202 110.171 30.4778 110.355 31.0269C110.539 31.5761 110.631 32.2168 110.631 32.9947C110.631 34.7337 110.217 36.0151 109.389 36.8388C108.561 37.6625 107.273 38.0744 105.525 38.0744H93.8872V19.3117ZM104.927 24.6659C104.927 23.6134 104.375 23.0642 103.317 23.0642H98.7172V26.8168H103.317C104.375 26.8168 104.927 26.2676 104.927 25.2151V24.6659ZM105.755 32.171C105.755 31.1185 105.203 30.5693 104.145 30.5693H98.7172V34.3218H104.099C105.157 34.3218 105.709 33.7727 105.709 32.7202V32.171H105.755ZM121.671 38.0744H116.795V23.0642H111.137V19.3117H127.329V23.0642H121.671V38.0744ZM146.189 32.9947C146.189 34.871 145.775 36.2439 144.901 37.0676C144.027 37.9371 142.693 38.349 140.807 38.349H134.045C132.159 38.349 130.779 37.9371 129.951 37.0676C129.077 36.1981 128.663 34.871 128.663 32.9947V24.3913C128.663 22.5151 129.077 21.1422 129.951 20.3185C130.825 19.449 132.159 19.0371 134.045 19.0371H140.807C142.693 19.0371 144.073 19.449 144.901 20.3185C145.775 21.188 146.189 22.5151 146.189 24.3913V32.9947ZM141.359 24.3913C141.359 23.3388 140.807 22.7896 139.749 22.7896H135.149C134.091 22.7896 133.539 23.3388 133.539 24.3913V32.9947C133.539 34.0473 134.091 34.5964 135.149 34.5964H139.749C140.807 34.5964 141.359 34.0473 141.359 32.9947V24.3913Z" fill="#FFAF17"/>
<path d="M158.057 38.0744H153.181V23.0642H147.523V19.3117H163.761V23.0642H158.103V38.0744H158.057ZM180.597 38.0744H165.647V19.3117H180.597V23.0642H170.477V26.6795H178.435V30.432H170.477V34.3219H180.597V38.0744ZM193.661 19.3117H199.043L192.971 28.693L199.181 38.0744H193.799L190.027 32.171L186.255 38.0744H180.873L187.083 28.693L181.011 19.3117H186.393L190.073 25.2151L193.661 19.3117ZM217.029 38.0744H212.153V30.432H205.391V38.0744H200.561V19.3117H205.437V26.6795H212.199V19.3117H217.075V38.0744H217.029ZM236.717 38.0744H231.841V26.5422L225.355 38.0744H220.249V19.3117H225.125V30.8439L231.611 19.3117H236.717V38.0744ZM251.253 28.5557L256.497 38.0744H251.391L247.205 30.432H244.767V38.0744H239.891V19.3117H244.767V26.6795H247.205L249.919 21.5998C250.333 20.8676 250.793 20.2269 251.391 19.7693C251.989 19.3117 252.725 19.0371 253.691 19.0371C254.013 19.0371 254.289 19.0371 254.565 19.0829C254.841 19.1286 255.117 19.1286 255.347 19.1744C255.623 19.2202 255.853 19.2659 256.083 19.3117V22.9269H255.025C254.749 22.9269 254.519 23.0185 254.289 23.2015C254.059 23.3846 253.921 23.5676 253.783 23.7507L251.253 28.5557Z" fill="#333333"/>
<path d="M261.512 38.0742H256.268L263.398 19.3115H268.78L275.91 38.0742H270.666L269.47 34.7336H262.708L261.512 38.0742ZM263.95 31.2556H268.274L266.112 24.9403L263.95 31.2556Z" fill="#333333"/>
<path d="M203.411 45.8472H207.137C208.241 45.8472 209.023 46.076 209.483 46.5794C209.989 47.0828 210.219 47.8608 210.219 48.9133V49.3709C210.219 50.4692 209.989 51.2472 209.483 51.7048C208.977 52.2082 208.195 52.437 207.137 52.437H200.605V41.637H209.207V43.7879H203.411V45.8472ZM207.459 48.9591C207.459 48.3642 207.137 48.0438 206.539 48.0438H203.457V50.3777H206.539C207.137 50.3777 207.459 50.0574 207.459 49.4625V48.9591ZM219.833 50.1947C219.833 50.9726 219.603 51.5676 219.189 52.0252C218.729 52.4828 218.131 52.6659 217.349 52.6659H213.761C212.979 52.6659 212.381 52.437 211.921 52.0252C211.461 51.5676 211.277 50.9726 211.277 50.1947V46.6252C211.277 45.8472 211.507 45.2523 211.921 44.7947C212.381 44.337 212.979 44.154 213.761 44.154H217.349C218.131 44.154 218.729 44.3828 219.189 44.7947C219.649 45.2523 219.833 45.8472 219.833 46.6252V50.1947ZM217.119 46.854C217.119 46.4421 216.889 46.2591 216.521 46.2591H214.681C214.267 46.2591 214.083 46.4879 214.083 46.854V49.9201C214.083 50.332 214.267 50.515 214.681 50.515H216.521C216.935 50.515 217.119 50.332 217.119 49.9201V46.854ZM229.171 41.3167L229.401 43.4676L224.571 44.0167C224.065 44.0625 223.789 44.337 223.789 44.7947V45.7099C224.111 45.6642 224.387 45.5726 224.709 45.5726C224.985 45.5269 225.261 45.4811 225.583 45.4811C225.905 45.4353 226.181 45.4354 226.457 45.4354H227.147C227.837 45.4354 228.435 45.6642 228.849 46.076C229.263 46.4879 229.493 47.037 229.493 47.7692V50.2404C229.493 51.0184 229.263 51.6133 228.849 52.0709C228.389 52.5286 227.791 52.7116 227.009 52.7116H223.559C222.777 52.7116 222.179 52.4828 221.719 52.0709C221.259 51.6133 221.075 51.0184 221.075 50.2404V44.7489C221.075 44.0167 221.305 43.376 221.811 42.8726C222.317 42.3692 223.007 42.0489 223.835 41.9574L229.171 41.3167ZM226.135 50.5608C226.549 50.5608 226.733 50.3777 226.733 49.9659V48.0438C226.733 47.9065 226.687 47.7692 226.595 47.6777C226.503 47.5862 226.365 47.5404 226.227 47.5404H225.031C224.801 47.5404 224.617 47.5404 224.433 47.5862C224.249 47.632 224.019 47.6777 223.835 47.7235V50.0116C223.835 50.4235 224.019 50.6065 224.433 50.6065H226.135V50.5608ZM233.403 52.4828V55.0913H230.689V44.2913H233.081L233.219 45.0692C233.495 44.8862 233.771 44.7489 234.093 44.6116C234.369 44.5201 234.645 44.3828 235.013 44.2913C235.335 44.1998 235.703 44.154 236.025 44.154H236.715C237.405 44.154 238.003 44.3828 238.417 44.7947C238.831 45.2065 239.061 45.7557 239.061 46.4879V50.0574C239.061 50.8353 238.831 51.4303 238.417 51.8879C237.957 52.3455 237.359 52.5286 236.577 52.5286H233.403V52.4828ZM233.403 50.4235H235.749C236.163 50.4235 236.347 50.2404 236.347 49.8286V46.9913C236.347 46.854 236.301 46.7167 236.209 46.6252C236.117 46.5337 235.979 46.4879 235.841 46.4879H235.289C235.105 46.4879 234.875 46.4879 234.691 46.5337C234.461 46.5794 234.277 46.5794 234.093 46.6252C233.863 46.6709 233.679 46.7167 233.449 46.7625V50.4235H233.403ZM245.823 44.2913H248.675L245.593 52.7574C245.271 53.5811 244.903 54.176 244.443 54.5879C243.983 54.9998 243.339 55.2286 242.511 55.2286H241.867C241.637 55.2286 241.407 55.2286 241.223 55.1828C240.993 55.137 240.763 55.137 240.487 55.0913V53.0777H241.867C242.281 53.0777 242.511 52.9862 242.649 52.7574C242.787 52.5286 242.741 52.254 242.557 51.8421L239.383 44.2913H242.235L244.167 49.5998L245.823 44.2913ZM254.517 44.337H257.369V52.5286H254.655V48.0438L252.033 52.5286H249.181V44.337H251.895V48.8218L254.517 44.337ZM252.447 43.5591C251.113 43.5591 250.423 42.8726 250.423 41.5455V41.0879H252.447V41.454C252.447 41.5913 252.493 41.7286 252.585 41.8201C252.677 41.9116 252.815 41.9574 252.953 41.9574H253.413C253.551 41.9574 253.689 41.9116 253.781 41.8201C253.873 41.7286 253.919 41.5913 253.919 41.454V41.0879H255.943V41.5455C255.943 42.8726 255.253 43.5591 253.919 43.5591H252.447ZM258.795 46.7625C258.795 45.9845 259.025 45.3896 259.439 44.9777C259.899 44.5659 260.497 44.337 261.279 44.337H266.247V46.4421H262.153C261.739 46.4421 261.555 46.6252 261.555 47.037V50.0116C261.555 50.1489 261.601 50.2862 261.693 50.3777C261.785 50.4692 261.924 50.515 262.062 50.515H263.396C263.901 50.515 264.315 50.515 264.775 50.4693C265.282 50.4235 265.787 50.3777 266.247 50.332V52.3455C265.649 52.437 265.097 52.4828 264.499 52.4828C263.993 52.5743 263.441 52.6201 262.843 52.6201H261.141C260.451 52.6201 259.853 52.3913 259.439 51.9794C259.025 51.5676 258.795 51.0184 258.795 50.2862V46.7625ZM271.353 49.4167H270.203V52.4828H267.489V44.2913H270.203V47.3116H271.446L272.319 45.6184C272.411 45.4353 272.549 45.2523 272.687 45.0692C272.825 44.8862 273.009 44.7489 273.193 44.6116C273.377 44.4743 273.607 44.3828 273.837 44.2913C274.067 44.1998 274.343 44.154 274.619 44.154H275.079C275.217 44.154 275.355 44.1998 275.493 44.1998L275.862 44.2913V46.3964H275.31C275.126 46.3964 274.941 46.4421 274.803 46.5337C274.665 46.6252 274.573 46.7167 274.527 46.854L273.746 48.4099L276.092 52.4828H273.147L271.353 49.4167Z" fill="#333333"/>
</g>
<path d="M6.76221 63H6.10156V55.7437H1.67578V63H1.01514V55.1797H6.76221V63ZM13.2988 60.1533C13.2988 61.0592 13.0983 61.779 12.6973 62.3125C12.2962 62.8424 11.7591 63.1074 11.0859 63.1074C10.291 63.1074 9.68229 62.8281 9.25977 62.2695V65.2344H8.62061V57.1885H9.2168L9.24902 58.0103C9.66797 57.3908 10.2749 57.0811 11.0698 57.0811C11.7645 57.0811 12.3088 57.3442 12.7026 57.8706C13.1001 58.397 13.2988 59.1274 13.2988 60.062V60.1533ZM12.6543 60.0405C12.6543 59.2993 12.5021 58.7139 12.1978 58.2842C11.8934 57.8545 11.4691 57.6396 10.9248 57.6396C10.5309 57.6396 10.1925 57.7345 9.90967 57.9243C9.62679 58.1141 9.41016 58.3898 9.25977 58.7515V61.5391C9.41374 61.8721 9.63395 62.1263 9.92041 62.3018C10.2069 62.4772 10.5452 62.5649 10.9355 62.5649C11.4762 62.5649 11.897 62.3501 12.1978 61.9204C12.5021 61.4871 12.6543 60.8605 12.6543 60.0405ZM14.373 60.0083C14.373 59.4497 14.4805 58.9466 14.6953 58.499C14.9137 58.0514 15.2199 57.7041 15.6138 57.457C16.0112 57.2064 16.4606 57.0811 16.9619 57.0811C17.7354 57.0811 18.362 57.3532 18.8418 57.8975C19.3216 58.4382 19.5615 59.1561 19.5615 60.0513V60.1855C19.5615 60.7477 19.4523 61.2544 19.2339 61.7056C19.019 62.1532 18.7147 62.4987 18.3208 62.7422C17.9269 62.9857 17.4775 63.1074 16.9727 63.1074C16.2028 63.1074 15.5762 62.8371 15.0928 62.2964C14.613 61.7521 14.373 61.0324 14.373 60.1372V60.0083ZM15.0176 60.1855C15.0176 60.8802 15.1966 61.4513 15.5547 61.8989C15.9163 62.3429 16.389 62.5649 16.9727 62.5649C17.5527 62.5649 18.0218 62.3429 18.3799 61.8989C18.7415 61.4513 18.9224 60.8623 18.9224 60.1318V60.0083C18.9224 59.5643 18.84 59.1579 18.6753 58.7891C18.5106 58.4202 18.2796 58.1356 17.9824 57.9351C17.6852 57.731 17.3451 57.6289 16.9619 57.6289C16.389 57.6289 15.9217 57.8545 15.5601 58.3057C15.1984 58.7533 15.0176 59.3405 15.0176 60.0674V60.1855ZM24.7124 57.1885H25.3569V63H24.7124V58.2251L21.5757 63H20.9365V57.1885H21.5757V61.9688L24.7124 57.1885ZM30.4863 58.7246C30.4863 58.3737 30.3556 58.1034 30.0942 57.9136C29.8328 57.7238 29.473 57.6289 29.0146 57.6289C28.5993 57.6289 28.243 57.7363 27.9458 57.9512C27.6522 58.1624 27.5054 58.431 27.5054 58.7568H26.8662C26.8662 58.2734 27.0721 57.8742 27.4839 57.5591C27.8993 57.244 28.4095 57.0864 29.0146 57.0864C29.6807 57.0864 30.1999 57.2297 30.5723 57.5161C30.9447 57.8026 31.1309 58.209 31.1309 58.7354C31.1309 59.0146 31.0449 59.2671 30.873 59.4927C30.7012 59.7183 30.4505 59.8937 30.1211 60.019C30.8659 60.2231 31.2383 60.6851 31.2383 61.4048C31.2383 61.9276 31.036 62.3411 30.6313 62.6455C30.2267 62.9499 29.6896 63.1021 29.02 63.1021C28.3719 63.1021 27.8348 62.9391 27.4087 62.6133C26.9826 62.2874 26.7695 61.8613 26.7695 61.335H27.4141C27.4141 61.6859 27.568 61.9795 27.876 62.2158C28.1875 62.4486 28.5688 62.5649 29.02 62.5649C29.5106 62.5649 29.8937 62.4629 30.1694 62.2588C30.4487 62.0511 30.5884 61.77 30.5884 61.4155C30.5884 61.0252 30.4613 60.7441 30.207 60.5723C29.9528 60.4004 29.5643 60.3145 29.0415 60.3145H28.1553V59.7559H29.1489C30.0405 59.7344 30.4863 59.3906 30.4863 58.7246ZM32.7261 63V57.1885H34.8584C35.596 57.1885 36.1618 57.321 36.5557 57.5859C36.9495 57.8473 37.1465 58.2323 37.1465 58.7407C37.1465 59.0308 37.0588 59.2904 36.8833 59.5195C36.7078 59.7451 36.4518 59.9098 36.1152 60.0137C36.4948 60.0853 36.7992 60.2482 37.0283 60.5024C37.2611 60.7567 37.3774 61.0521 37.3774 61.3887C37.3774 61.9007 37.1877 62.2982 36.8081 62.5811C36.4321 62.8604 35.8986 63 35.2075 63H32.7261ZM33.3652 60.3252V62.4629H35.229C35.7124 62.4629 36.0848 62.3698 36.3462 62.1836C36.6076 61.9974 36.7383 61.7288 36.7383 61.3779C36.7383 61.0557 36.6076 60.7996 36.3462 60.6099C36.0848 60.4201 35.7124 60.3252 35.229 60.3252H33.3652ZM33.3652 59.7881H34.9927C36.0024 59.7738 36.5073 59.43 36.5073 58.7568C36.5073 58.4023 36.3677 58.1445 36.0884 57.9834C35.8127 57.8187 35.4027 57.7363 34.8584 57.7363H33.3652V59.7881ZM38.457 60.0083C38.457 59.4497 38.5645 58.9466 38.7793 58.499C38.9977 58.0514 39.3039 57.7041 39.6978 57.457C40.0952 57.2064 40.5446 57.0811 41.0459 57.0811C41.8193 57.0811 42.446 57.3532 42.9258 57.8975C43.4056 58.4382 43.6455 59.1561 43.6455 60.0513V60.1855C43.6455 60.7477 43.5363 61.2544 43.3179 61.7056C43.103 62.1532 42.7987 62.4987 42.4048 62.7422C42.0109 62.9857 41.5615 63.1074 41.0566 63.1074C40.2868 63.1074 39.6602 62.8371 39.1768 62.2964C38.6969 61.7521 38.457 61.0324 38.457 60.1372V60.0083ZM39.1016 60.1855C39.1016 60.8802 39.2806 61.4513 39.6387 61.8989C40.0003 62.3429 40.473 62.5649 41.0566 62.5649C41.6367 62.5649 42.1058 62.3429 42.4639 61.8989C42.8255 61.4513 43.0063 60.8623 43.0063 60.1318V60.0083C43.0063 59.5643 42.924 59.1579 42.7593 58.7891C42.5946 58.4202 42.3636 58.1356 42.0664 57.9351C41.7692 57.731 41.429 57.6289 41.0459 57.6289C40.473 57.6289 40.0057 57.8545 39.644 58.3057C39.2824 58.7533 39.1016 59.3405 39.1016 60.0674V60.1855ZM44.4565 62.4575L44.7412 62.0869C45.1924 61.4746 45.452 60.5794 45.52 59.4014L45.6221 57.1885H49.0542V62.4575H49.6558V64.708H49.0166V63H44.6499V64.708H44.0322L44.0376 62.4575H44.4565ZM45.1978 62.4575H48.4097V57.79H46.2344L46.1646 59.2993C46.1001 60.6851 45.7778 61.7378 45.1978 62.4575ZM53.0449 62.5649C53.4925 62.5649 53.8667 62.4396 54.1675 62.189C54.4718 61.9347 54.6366 61.6071 54.6616 61.2061H55.2793C55.2614 61.5605 55.1504 61.8846 54.9463 62.1782C54.7422 62.4683 54.4701 62.6956 54.1299 62.8604C53.7933 63.0251 53.4316 63.1074 53.0449 63.1074C52.2822 63.1074 51.6771 62.8424 51.2295 62.3125C50.7855 61.7826 50.5635 61.07 50.5635 60.1748V59.9814C50.5635 59.4085 50.6637 58.9019 50.8643 58.4614C51.0648 58.021 51.3512 57.6808 51.7236 57.4409C52.0996 57.201 52.5382 57.0811 53.0396 57.0811C53.6769 57.0811 54.2015 57.2708 54.6133 57.6504C55.0286 58.0299 55.2507 58.5295 55.2793 59.1489H54.6616C54.633 58.6942 54.4683 58.3271 54.1675 58.0479C53.8703 57.7686 53.4943 57.6289 53.0396 57.6289C52.4595 57.6289 52.0083 57.8384 51.686 58.2573C51.3674 58.6763 51.208 59.2635 51.208 60.019V60.207C51.208 60.9482 51.3674 61.5265 51.686 61.9419C52.0083 62.3573 52.4613 62.5649 53.0449 62.5649ZM60.7417 57.7363H58.6255V63H57.981V57.7363H55.9453V57.1885H60.7417V57.7363ZM61.8696 63V57.1885H64.002C64.7396 57.1885 65.3053 57.321 65.6992 57.5859C66.0931 57.8473 66.29 58.2323 66.29 58.7407C66.29 59.0308 66.2023 59.2904 66.0269 59.5195C65.8514 59.7451 65.5954 59.9098 65.2588 60.0137C65.6383 60.0853 65.9427 60.2482 66.1719 60.5024C66.4046 60.7567 66.521 61.0521 66.521 61.3887C66.521 61.9007 66.3312 62.2982 65.9517 62.5811C65.5757 62.8604 65.0422 63 64.3511 63H61.8696ZM62.5088 60.3252V62.4629H64.3726C64.856 62.4629 65.2284 62.3698 65.4897 62.1836C65.7511 61.9974 65.8818 61.7288 65.8818 61.3779C65.8818 61.0557 65.7511 60.7996 65.4897 60.6099C65.2284 60.4201 64.856 60.3252 64.3726 60.3252H62.5088ZM62.5088 59.7881H64.1362C65.146 59.7738 65.6509 59.43 65.6509 58.7568C65.6509 58.4023 65.5112 58.1445 65.2319 57.9834C64.9562 57.8187 64.5462 57.7363 64.002 57.7363H62.5088V59.7881ZM67.6006 60.0083C67.6006 59.4497 67.708 58.9466 67.9229 58.499C68.1413 58.0514 68.4474 57.7041 68.8413 57.457C69.2388 57.2064 69.6882 57.0811 70.1895 57.0811C70.9629 57.0811 71.5895 57.3532 72.0693 57.8975C72.5492 58.4382 72.7891 59.1561 72.7891 60.0513V60.1855C72.7891 60.7477 72.6799 61.2544 72.4614 61.7056C72.2466 62.1532 71.9422 62.4987 71.5483 62.7422C71.1545 62.9857 70.7051 63.1074 70.2002 63.1074C69.4303 63.1074 68.8037 62.8371 68.3203 62.2964C67.8405 61.7521 67.6006 61.0324 67.6006 60.1372V60.0083ZM68.2451 60.1855C68.2451 60.8802 68.4242 61.4513 68.7822 61.8989C69.1439 62.3429 69.6165 62.5649 70.2002 62.5649C70.7803 62.5649 71.2493 62.3429 71.6074 61.8989C71.9691 61.4513 72.1499 60.8623 72.1499 60.1318V60.0083C72.1499 59.5643 72.0675 59.1579 71.9028 58.7891C71.7381 58.4202 71.5072 58.1356 71.21 57.9351C70.9128 57.731 70.5726 57.6289 70.1895 57.6289C69.6165 57.6289 69.1493 57.8545 68.7876 58.3057C68.4259 58.7533 68.2451 59.3405 68.2451 60.0674V60.1855ZM81.2593 63H80.6147V57.7417H77.4834V63H76.8389V57.1885H81.2593V63ZM87.6562 60.1533C87.6562 61.0592 87.4557 61.779 87.0547 62.3125C86.6536 62.8424 86.1165 63.1074 85.4434 63.1074C84.6484 63.1074 84.0397 62.8281 83.6172 62.2695V65.2344H82.978V57.1885H83.5742L83.6064 58.0103C84.0254 57.3908 84.6323 57.0811 85.4272 57.0811C86.1219 57.0811 86.6662 57.3442 87.0601 57.8706C87.4575 58.397 87.6562 59.1274 87.6562 60.062V60.1533ZM87.0117 60.0405C87.0117 59.2993 86.8595 58.7139 86.5552 58.2842C86.2508 57.8545 85.8265 57.6396 85.2822 57.6396C84.8883 57.6396 84.55 57.7345 84.2671 57.9243C83.9842 58.1141 83.7676 58.3898 83.6172 58.7515V61.5391C83.7712 61.8721 83.9914 62.1263 84.2778 62.3018C84.5643 62.4772 84.9027 62.5649 85.293 62.5649C85.8337 62.5649 86.2544 62.3501 86.5552 61.9204C86.8595 61.4871 87.0117 60.8605 87.0117 60.0405ZM92.9038 57.1885H93.5483V63H92.9038V58.2251L89.7671 63H89.1279V57.1885H89.7671V61.9688L92.9038 57.1885ZM95.3154 57.1885H95.96V62.4575H99.0913V57.1885H99.7358V62.4575H100.327L100.278 64.7241H99.6875V63H95.3154V57.1885ZM103.786 63.1074C103.292 63.1074 102.844 62.9857 102.443 62.7422C102.045 62.4987 101.736 62.1603 101.514 61.7271C101.292 61.2902 101.181 60.8014 101.181 60.2607V60.0298C101.181 59.4712 101.288 58.9681 101.503 58.5205C101.721 58.0729 102.024 57.722 102.411 57.4678C102.797 57.21 103.216 57.0811 103.667 57.0811C104.373 57.0811 104.931 57.3228 105.343 57.8062C105.759 58.286 105.966 58.943 105.966 59.7773V60.1372H101.82V60.2607C101.82 60.9196 102.008 61.4692 102.384 61.9097C102.763 62.3465 103.24 62.5649 103.812 62.5649C104.156 62.5649 104.459 62.5023 104.72 62.377C104.985 62.2516 105.225 62.0511 105.44 61.7754L105.843 62.0815C105.37 62.7655 104.684 63.1074 103.786 63.1074ZM103.667 57.6289C103.184 57.6289 102.776 57.8062 102.443 58.1606C102.113 58.5151 101.913 58.9914 101.841 59.5894H105.327V59.5195C105.309 58.9609 105.15 58.5062 104.849 58.1553C104.548 57.8044 104.154 57.6289 103.667 57.6289ZM111.681 63H111.037V57.7417H107.905V63H107.261V57.1885H111.681V63ZM117.869 63H117.224V60.3359H114.093V63H113.448V57.1885H114.093V59.7935H117.224V57.1885H117.869V63ZM119.238 60.0083C119.238 59.4497 119.346 58.9466 119.561 58.499C119.779 58.0514 120.085 57.7041 120.479 57.457C120.876 57.2064 121.326 57.0811 121.827 57.0811C122.601 57.0811 123.227 57.3532 123.707 57.8975C124.187 58.4382 124.427 59.1561 124.427 60.0513V60.1855C124.427 60.7477 124.318 61.2544 124.099 61.7056C123.884 62.1532 123.58 62.4987 123.186 62.7422C122.792 62.9857 122.343 63.1074 121.838 63.1074C121.068 63.1074 120.441 62.8371 119.958 62.2964C119.478 61.7521 119.238 61.0324 119.238 60.1372V60.0083ZM119.883 60.1855C119.883 60.8802 120.062 61.4513 120.42 61.8989C120.782 62.3429 121.254 62.5649 121.838 62.5649C122.418 62.5649 122.887 62.3429 123.245 61.8989C123.607 61.4513 123.788 60.8623 123.788 60.1318V60.0083C123.788 59.5643 123.705 59.1579 123.541 58.7891C123.376 58.4202 123.145 58.1356 122.848 57.9351C122.55 57.731 122.21 57.6289 121.827 57.6289C121.254 57.6289 120.787 57.8545 120.425 58.3057C120.064 58.7533 119.883 59.3405 119.883 60.0674V60.1855ZM129.578 57.1885H130.222V63H129.578V58.2251L126.441 63H125.802V57.1885H126.441V61.9688L129.578 57.1885ZM129.545 55.0938C129.545 55.5055 129.404 55.8385 129.121 56.0928C128.842 56.347 128.466 56.4741 127.993 56.4741C127.528 56.4741 127.152 56.3488 126.865 56.0981C126.582 55.8439 126.441 55.5091 126.441 55.0938H126.989C126.989 55.391 127.076 55.6183 127.252 55.7759C127.431 55.9334 127.678 56.0122 127.993 56.0122C128.308 56.0122 128.554 55.9299 128.729 55.7651C128.908 55.6004 128.998 55.3766 128.998 55.0938H129.545ZM5.01123 70.7363H2.89502V76H2.25049V70.7363H0.214844V70.1885H5.01123V70.7363ZM7.89014 76.1074C7.396 76.1074 6.9484 75.9857 6.54736 75.7422C6.1499 75.4987 5.84017 75.1603 5.61816 74.7271C5.39616 74.2902 5.28516 73.8014 5.28516 73.2607V73.0298C5.28516 72.4712 5.39258 71.9681 5.60742 71.5205C5.82585 71.0729 6.12842 70.722 6.51514 70.4678C6.90186 70.21 7.3208 70.0811 7.77197 70.0811C8.47738 70.0811 9.03597 70.3228 9.44775 70.8062C9.86312 71.286 10.0708 71.943 10.0708 72.7773V73.1372H5.92432V73.2607C5.92432 73.9196 6.1123 74.4692 6.48828 74.9097C6.86784 75.3465 7.34408 75.5649 7.91699 75.5649C8.26074 75.5649 8.56331 75.5023 8.82471 75.377C9.08968 75.2516 9.32959 75.0511 9.54443 74.7754L9.94727 75.0815C9.47461 75.7655 8.7889 76.1074 7.89014 76.1074ZM7.77197 70.6289C7.28857 70.6289 6.88037 70.8062 6.54736 71.1606C6.21794 71.5151 6.01742 71.9914 5.9458 72.5894H9.43164V72.5195C9.41374 71.9609 9.25439 71.5062 8.95361 71.1553C8.65283 70.8044 8.25895 70.6289 7.77197 70.6289ZM13.1484 72.5464L14.7168 70.1885H15.4795L13.5083 73.0405L15.5654 76H14.8081L13.1538 73.54L11.4995 76H10.7422L12.7939 73.0405L10.8228 70.1885H11.5801L13.1484 72.5464ZM21.1353 76H20.4907V73.3359H17.3594V76H16.7148V70.1885H17.3594V72.7935H20.4907V70.1885H21.1353V76ZM26.6782 70.1885H27.3228V76H26.6782V71.2251L23.5415 76H22.9023V70.1885H23.5415V74.9688L26.6782 70.1885ZM30.626 73.3359H29.7344V76H29.0845V70.1885H29.7344V72.7666H30.6152L32.7476 70.1885H33.5586L31.1738 73.0083L33.8218 76H32.9731L30.626 73.3359ZM38.5698 70.1885H39.2144V76H38.5698V71.2251L35.4331 76H34.7939V70.1885H35.4331V74.9688L38.5698 70.1885ZM43.6831 76V70.1885H45.8154C46.5531 70.1885 47.1188 70.321 47.5127 70.5859C47.9066 70.8473 48.1035 71.2323 48.1035 71.7407C48.1035 72.0308 48.0158 72.2904 47.8403 72.5195C47.6649 72.7451 47.4089 72.9098 47.0723 73.0137C47.4518 73.0853 47.7562 73.2482 47.9854 73.5024C48.2181 73.7567 48.3345 74.0521 48.3345 74.3887C48.3345 74.9007 48.1447 75.2982 47.7651 75.5811C47.3892 75.8604 46.8556 76 46.1646 76H43.6831ZM44.3223 73.3252V75.4629H46.186C46.6694 75.4629 47.0418 75.3698 47.3032 75.1836C47.5646 74.9974 47.6953 74.7288 47.6953 74.3779C47.6953 74.0557 47.5646 73.7996 47.3032 73.6099C47.0418 73.4201 46.6694 73.3252 46.186 73.3252H44.3223ZM44.3223 72.7881H45.9497C46.9595 72.7738 47.4644 72.43 47.4644 71.7568C47.4644 71.4023 47.3247 71.1445 47.0454 70.9834C46.7697 70.8187 46.3597 70.7363 45.8154 70.7363H44.3223V72.7881ZM57.272 68.7437H53.2222V71.5742H55.1611C55.6947 71.5742 56.1566 71.6637 56.5469 71.8428C56.9372 72.0182 57.2344 72.2725 57.4385 72.6055C57.6462 72.9349 57.75 73.3252 57.75 73.7764C57.75 74.4674 57.519 75.0117 57.0571 75.4092C56.5952 75.8031 55.9561 76 55.1396 76H52.5562V68.1797H57.272V68.7437ZM53.2222 72.1382V75.4414H55.1558C55.7609 75.4414 56.2336 75.2928 56.5737 74.9956C56.9139 74.6948 57.084 74.2848 57.084 73.7656C57.084 73.2715 56.9193 72.8794 56.5898 72.5894C56.2604 72.2957 55.7985 72.1453 55.2041 72.1382H53.2222ZM61.6011 76.1074C61.1069 76.1074 60.6593 75.9857 60.2583 75.7422C59.8608 75.4987 59.5511 75.1603 59.3291 74.7271C59.1071 74.2902 58.9961 73.8014 58.9961 73.2607V73.0298C58.9961 72.4712 59.1035 71.9681 59.3184 71.5205C59.5368 71.0729 59.8394 70.722 60.2261 70.4678C60.6128 70.21 61.0317 70.0811 61.4829 70.0811C62.1883 70.0811 62.7469 70.3228 63.1587 70.8062C63.5741 71.286 63.7817 71.943 63.7817 72.7773V73.1372H59.6353V73.2607C59.6353 73.9196 59.8232 74.4692 60.1992 74.9097C60.5788 75.3465 61.055 75.5649 61.6279 75.5649C61.9717 75.5649 62.2743 75.5023 62.5356 75.377C62.8006 75.2516 63.0405 75.0511 63.2554 74.7754L63.6582 75.0815C63.1855 75.7655 62.4998 76.1074 61.6011 76.1074ZM61.4829 70.6289C60.9995 70.6289 60.5913 70.8062 60.2583 71.1606C59.9289 71.5151 59.7284 71.9914 59.6567 72.5894H63.1426V72.5195C63.1247 71.9609 62.9653 71.5062 62.6646 71.1553C62.3638 70.8044 61.9699 70.6289 61.4829 70.6289ZM69.502 70.1885V76H68.8574V70.7417H66.478L66.376 72.917C66.333 73.7227 66.2524 74.3385 66.1343 74.7646C66.0161 75.1872 65.8407 75.4987 65.6079 75.6992C65.3752 75.8997 65.0654 76 64.6787 76H64.4316V75.4307L64.6304 75.4199C64.9992 75.4128 65.2642 75.2337 65.4253 74.8828C65.5864 74.5319 65.6921 73.9053 65.7422 73.0029L65.8604 70.1885H69.502ZM74.8999 76C74.8354 75.8174 74.7943 75.547 74.7764 75.189C74.5508 75.4826 74.2625 75.71 73.9116 75.8711C73.5643 76.0286 73.1955 76.1074 72.8052 76.1074C72.2466 76.1074 71.7936 75.9517 71.4463 75.6401C71.1025 75.3286 70.9307 74.9347 70.9307 74.4585C70.9307 73.8927 71.1652 73.4451 71.6343 73.1157C72.1069 72.7863 72.764 72.6216 73.6055 72.6216H74.771V71.9609C74.771 71.5456 74.6421 71.2197 74.3843 70.9834C74.13 70.7435 73.7576 70.6235 73.2671 70.6235C72.8195 70.6235 72.4489 70.7381 72.1553 70.9673C71.8617 71.1965 71.7148 71.4722 71.7148 71.7944L71.0703 71.7891C71.0703 71.3271 71.2852 70.9279 71.7148 70.5913C72.1445 70.2511 72.6727 70.0811 73.2993 70.0811C73.9474 70.0811 74.4577 70.244 74.8301 70.5698C75.2061 70.8921 75.3994 71.3433 75.4102 71.9233V74.6733C75.4102 75.2355 75.4692 75.6562 75.5874 75.9355V76H74.8999ZM72.8804 75.5381C73.3101 75.5381 73.6932 75.4342 74.0298 75.2266C74.37 75.0189 74.617 74.7414 74.771 74.394V73.1157H73.6216C72.9806 73.1229 72.4793 73.241 72.1177 73.4702C71.756 73.6958 71.5752 74.0073 71.5752 74.4048C71.5752 74.7306 71.6951 75.001 71.9351 75.2158C72.1785 75.4307 72.4937 75.5381 72.8804 75.5381ZM81.8018 73.1533C81.8018 74.0592 81.6012 74.779 81.2002 75.3125C80.7992 75.8424 80.262 76.1074 79.5889 76.1074C78.7939 76.1074 78.1852 75.8281 77.7627 75.2695V78.2344H77.1235V70.1885H77.7197L77.752 71.0103C78.1709 70.3908 78.7778 70.0811 79.5728 70.0811C80.2674 70.0811 80.8117 70.3442 81.2056 70.8706C81.603 71.397 81.8018 72.1274 81.8018 73.062V73.1533ZM81.1572 73.0405C81.1572 72.2993 81.005 71.7139 80.7007 71.2842C80.3963 70.8545 79.972 70.6396 79.4277 70.6396C79.0339 70.6396 78.6955 70.7345 78.4126 70.9243C78.1297 71.1141 77.9131 71.3898 77.7627 71.7515V74.5391C77.9167 74.8721 78.1369 75.1263 78.4233 75.3018C78.7098 75.4772 79.0482 75.5649 79.4385 75.5649C79.9792 75.5649 80.3999 75.3501 80.7007 74.9204C81.005 74.4871 81.1572 73.8605 81.1572 73.0405ZM85.0083 75.0762L86.7056 70.1885H87.3984L84.917 76.9883L84.7881 77.2891C84.4694 77.9945 83.9771 78.3472 83.311 78.3472C83.1571 78.3472 82.9924 78.3221 82.8169 78.272L82.8115 77.7402L83.1445 77.7725C83.4596 77.7725 83.7139 77.6937 83.9072 77.5361C84.1042 77.3822 84.2707 77.1154 84.4067 76.7358L84.6914 75.9517L82.5 70.1885H83.2036L85.0083 75.0762ZM90.4707 75.5649C90.9183 75.5649 91.2925 75.4396 91.5933 75.189C91.8976 74.9347 92.0623 74.6071 92.0874 74.2061H92.7051C92.6872 74.5605 92.5762 74.8846 92.3721 75.1782C92.168 75.4683 91.8958 75.6956 91.5557 75.8604C91.2191 76.0251 90.8574 76.1074 90.4707 76.1074C89.708 76.1074 89.1029 75.8424 88.6553 75.3125C88.2113 74.7826 87.9893 74.07 87.9893 73.1748V72.9814C87.9893 72.4085 88.0895 71.9019 88.29 71.4614C88.4906 71.021 88.777 70.6808 89.1494 70.4409C89.5254 70.201 89.964 70.0811 90.4653 70.0811C91.1027 70.0811 91.6273 70.2708 92.0391 70.6504C92.4544 71.0299 92.6764 71.5295 92.7051 72.1489H92.0874C92.0588 71.6942 91.894 71.3271 91.5933 71.0479C91.2961 70.7686 90.9201 70.6289 90.4653 70.6289C89.8853 70.6289 89.4341 70.8384 89.1118 71.2573C88.7931 71.6763 88.6338 72.2635 88.6338 73.019V73.207C88.6338 73.9482 88.7931 74.5265 89.1118 74.9419C89.4341 75.3573 89.887 75.5649 90.4707 75.5649ZM97.813 70.1885H98.4575V76H97.813V71.2251L94.6763 76H94.0371V70.1885H94.6763V74.9688L97.813 70.1885Z" fill="#333333"/>
<defs>
<clipPath id="clip0_270_3906">
<rect width="276" height="54" fill="white"/>
</clipPath>
</defs>
</svg>
