<svg width="38" height="42" viewBox="0 0 38 42" fill="none" xmlns="http://www.w3.org/2000/svg">
<path d="M0.625 0.3125V37.6875H22.3784L19.5034 34.8125H3.5V3.1875H17.875V11.8125H26.5V21.875H29.375V9.77979L19.9077 0.3125H0.625ZM20.75 5.22021L24.4673 8.9375H20.75V5.22021ZM13.9977 13.2528C12.9066 13.214 12.122 13.8351 11.892 14.8672C11.5987 16.1811 12.2925 18.5668 13.4727 20.999C13.4338 21.1341 13.3922 21.2709 13.3491 21.4117C12.8934 22.9154 12.3582 24.2844 11.8134 25.4631C9.9446 26.0525 8.33177 26.7939 7.43909 27.5745C6.25027 28.6109 6.02771 29.8663 6.82983 30.9099C7.31715 31.5812 7.99055 31.9375 8.71936 31.9375C9.00686 31.9375 9.30332 31.8812 9.60376 31.769C10.8831 31.2846 12.2629 29.4482 13.4474 27.1252C14.6175 26.8133 15.852 26.5716 16.9934 26.4149C17.9695 27.516 18.9735 28.3403 19.8993 28.6666C21.2319 29.1353 22.4745 28.7137 23.2263 27.5436L23.2347 27.5295C23.9736 26.335 23.4994 25.3834 22.8108 24.8904C21.9037 24.2406 20.0875 24.0751 17.9873 24.239C17.2111 23.2069 16.4705 21.9807 15.8423 20.7632C16.3943 18.6127 16.625 16.6415 16.3533 15.3894C15.9364 13.4632 14.5424 13.2528 14.0005 13.2528H13.9977ZM14.051 15.4821C14.1488 15.7106 14.2225 16.134 14.2139 16.7679C14.0759 16.2332 14.0165 15.7897 14.051 15.4821ZM14.9438 23.6466C15.1379 23.9571 15.3406 24.2588 15.5447 24.5535C15.204 24.6138 14.8578 24.6837 14.5171 24.7556C14.6652 24.3891 14.8087 24.0175 14.9438 23.6466ZM29.4171 24.75V34.8125H23.6671L30.8546 42L38.0421 34.8125H32.2921V24.75H29.4171ZM19.8375 26.2128C20.5045 26.2257 21.0185 26.3021 21.3003 26.4458C21.2917 26.4616 21.2809 26.479 21.2694 26.4991C21.0883 26.7809 21.0092 26.897 20.4917 26.6339C20.2775 26.5261 20.0589 26.3838 19.8375 26.2128ZM10.3 28.2511C9.66467 29.2315 9.12361 29.8147 8.82605 29.8851C8.82461 29.8837 8.78315 29.857 8.6969 29.7391C8.62215 29.6414 8.49628 29.4794 9.08997 29.0007C9.41772 28.7348 9.82855 28.4854 10.3 28.2511Z" fill="#F2994A"/>
</svg>
