<svg width="36" height="36" viewBox="0 0 36 36" fill="none" xmlns="http://www.w3.org/2000/svg">
<path d="M7.9375 0.75V10.8125H5.0625C2.69849 10.8125 0.75 12.761 0.75 15.125V29.5H7.9375V35.25H28.0625V29.5H35.25V15.125C35.25 12.761 33.3015 10.8125 30.9375 10.8125H28.0625V0.75H7.9375ZM10.8125 3.625H25.1875V10.8125H10.8125V3.625ZM5.0625 13.6875H30.9375C31.7517 13.6875 32.375 14.3108 32.375 15.125V26.625H28.0625V20.875H7.9375V26.625H3.625V15.125C3.625 14.3108 4.24829 13.6875 5.0625 13.6875ZM6.5 15.125C5.70825 15.125 5.0625 15.7708 5.0625 16.5625C5.0625 17.3542 5.70825 18 6.5 18C7.29175 18 7.9375 17.3542 7.9375 16.5625C7.9375 15.7708 7.29175 15.125 6.5 15.125ZM10.8125 23.75H25.1875V32.375H10.8125V23.75Z" fill="#DA6803"/>
</svg>
