<svg width="30" height="38" viewBox="0 0 30 38" fill="none" xmlns="http://www.w3.org/2000/svg">
<path d="M3.5 0.3125C1.92773 0.3125 0.625 1.61523 0.625 3.1875V34.8125C0.625 36.3848 1.92773 37.6875 3.5 37.6875H26.5C28.0723 37.6875 29.375 36.3848 29.375 34.8125V9.79102L28.9707 9.3418L20.3457 0.716797L19.8965 0.3125H3.5ZM3.5 3.1875H16.4375V10.375C16.4375 11.9473 17.7402 13.25 19.3125 13.25H26.5V34.8125H3.5V3.1875ZM19.3125 3.81641L25.8711 10.375H19.3125V3.81641ZM7.8125 17.5625V20.4375H22.1875V17.5625H7.8125ZM7.8125 21.875V24.75H22.1875V21.875H7.8125ZM7.8125 26.1875V29.0625H15V26.1875H7.8125Z" fill="#F2994A"/>
</svg>
