<svg width="24" height="21" viewBox="0 0 24 21" fill="none" xmlns="http://www.w3.org/2000/svg">
<path d="M21.6921 0.00194058C21.394 0.0158825 21.1133 0.103019 20.8637 0.200612H20.8603C20.6072 0.301691 19.4045 0.810571 17.5778 1.58086C15.7512 2.35464 13.3803 3.35845 11.0268 4.3553C6.32674 6.3455 1.70637 8.30434 1.70637 8.30434L1.76183 8.28343C1.76183 8.28343 1.44295 8.38799 1.1102 8.61803C0.940357 8.72957 0.753185 8.88293 0.590277 9.12343C0.427368 9.36392 0.295654 9.73339 0.344181 10.1133C0.423902 10.7581 0.839839 11.145 1.13793 11.3576C1.43948 11.5737 1.72717 11.6748 1.72717 11.6748H1.7341L6.06678 13.1422C6.26088 13.7696 7.38738 17.4921 7.65773 18.3495C7.81718 18.8618 7.97315 19.1825 8.16726 19.4265C8.26084 19.552 8.37176 19.6565 8.50347 19.7402C8.55547 19.7716 8.61092 19.7959 8.66638 19.8169C8.68371 19.8273 8.70104 19.8308 8.72184 19.8343L8.67678 19.8238C8.69064 19.8273 8.70104 19.8378 8.71144 19.8413C8.7461 19.8517 8.77037 19.8552 8.81543 19.8622C9.50172 20.0713 10.0528 19.6426 10.0528 19.6426L10.084 19.6182L12.642 17.276L16.9297 20.5837L17.0267 20.6255C17.921 21.0194 18.8256 20.7998 19.304 20.4129C19.7858 20.0225 19.9729 19.5241 19.9729 19.5241L20.0041 19.4439L23.3178 2.37555C23.4113 1.95381 23.4356 1.55995 23.3316 1.17655C23.2276 0.793144 22.9607 0.434139 22.6384 0.242438C22.3126 0.0472515 21.9902 -0.0120013 21.6921 0.00194058ZM21.602 1.83181C21.5985 1.88758 21.6089 1.88061 21.5847 1.98866V1.99912L18.3022 18.8897C18.2884 18.9141 18.2641 18.9664 18.1983 19.0187C18.1289 19.0745 18.0735 19.1093 17.7858 18.9943L12.5415 14.9511L9.37347 17.8545L10.039 13.5813C10.039 13.5813 18.2537 5.88194 18.6073 5.55082C18.9608 5.2197 18.843 5.14999 18.843 5.14999C18.8672 4.74567 18.3092 5.03148 18.3092 5.03148L7.50522 11.7619L7.50176 11.7445L2.32335 9.99131V9.98782C2.31988 9.98782 2.31295 9.98434 2.30948 9.98434C2.31295 9.98434 2.33721 9.97388 2.33721 9.97388L2.36494 9.95994L2.39267 9.94948C2.39267 9.94948 7.0165 7.99065 11.7166 6.00044C14.0701 5.0036 16.4409 3.99978 18.2641 3.226C20.0873 2.45571 21.4356 1.89107 21.5119 1.8597C21.5847 1.83181 21.55 1.83181 21.602 1.83181Z" fill="#FFAF17"/>
</svg>
