<svg width="26" height="16" viewBox="0 0 26 16" fill="none" xmlns="http://www.w3.org/2000/svg">
<path d="M11.6353 0.500058C10.7367 0.498037 9.93533 0.547261 9.21866 0.892138L9.217 0.893766C8.86761 1.06249 8.62135 1.2768 8.42527 1.53151C8.32723 1.65886 8.22679 1.77318 8.17298 2.0635C8.14607 2.20866 8.13096 2.4439 8.28584 2.69799C8.44073 2.95208 8.75217 3.09657 8.95143 3.12261C9.08985 3.14067 9.4023 3.27102 9.43112 3.3097L9.43277 3.31295C9.43277 3.31295 9.55394 3.62282 9.5888 3.89863C9.62366 4.17445 9.62199 4.39809 9.62199 4.39809C9.62164 4.42034 9.62219 4.44259 9.62365 4.46479C9.62365 4.46479 9.67288 5.18744 9.64025 5.93387C9.62725 6.23137 9.588 6.49604 9.5473 6.73268C9.24467 6.40519 8.79874 5.81212 8.15472 4.71859C7.44028 3.50479 6.87168 2.41654 6.87168 2.41654C6.84182 2.32172 6.73621 2.02675 6.32394 1.72999C5.87326 1.4044 5.4376 1.3558 5.4376 1.3558C5.38295 1.34506 5.32736 1.33961 5.27162 1.33953L1.92212 1.34116C1.92212 1.34116 1.72129 1.32977 1.48061 1.36231C1.23992 1.39485 0.877503 1.42133 0.527872 1.8276L0.526212 1.82923C0.213743 2.19518 0.232643 2.59966 0.270601 2.82814C0.308554 3.05662 0.393427 3.22998 0.393427 3.22998C0.395065 3.23325 0.396725 3.2365 0.398406 3.23974C0.398406 3.23974 3.13815 8.88581 6.23431 12.2104C8.48268 14.6244 10.7904 14.6654 12.6943 14.6654H14.1151C14.4778 14.6654 14.8059 14.6515 15.1691 14.4441C15.5322 14.2368 15.7766 13.732 15.7766 13.3818C15.7766 13.0148 15.8325 12.7264 15.9011 12.5781C15.9493 12.4738 15.9875 12.4363 16.0471 12.4056C16.0597 12.4135 16.0516 12.4089 16.087 12.4333C16.2284 12.5308 16.462 12.7531 16.716 13.0304C17.224 13.5849 17.8006 14.3455 18.575 14.8671C19.1298 15.2411 19.6539 15.4072 20.0523 15.4675C20.3019 15.5052 20.4957 15.4979 20.6332 15.487L23.8068 15.5C23.8256 15.5001 23.8444 15.4995 23.8632 15.4984C23.8632 15.4984 24.41 15.5046 24.9786 15.1714C25.2629 15.0047 25.5982 14.6888 25.7073 14.2278C25.8163 13.7668 25.6792 13.2891 25.4118 12.853V12.8514C25.4583 12.9269 25.3698 12.7718 25.279 12.6269C25.1883 12.482 25.0565 12.2867 24.8674 12.0445C24.4891 11.56 23.8832 10.8819 22.9038 9.98809H22.9022C22.4047 9.53446 22.0688 9.21329 21.9312 9.03473C21.7935 8.85617 21.8387 8.94997 21.8482 8.90458C21.8672 8.8138 22.4642 7.96967 23.679 6.37964C24.4174 5.41182 24.9356 4.68521 25.2774 4.08084C25.6191 3.47648 25.8656 2.95307 25.694 2.31241L25.6923 2.30916C25.6161 2.02793 25.4081 1.76872 25.1944 1.62749C24.9807 1.48627 24.7781 1.43104 24.5968 1.39647C24.2343 1.32735 23.918 1.33953 23.6242 1.33953C23.0083 1.33953 20.2755 1.36068 20.0506 1.36068C19.7848 1.36068 19.3454 1.47917 19.151 1.59333C18.6622 1.88161 18.5219 2.26035 18.5219 2.26035C18.5131 2.27635 18.5048 2.29263 18.497 2.30916C18.497 2.30916 17.9333 3.53439 17.2073 4.74462C16.4719 5.97218 15.9286 6.55767 15.6006 6.82866C15.5916 6.78047 15.5932 6.8196 15.5874 6.7522C15.558 6.4094 15.5907 5.9357 15.5907 5.47346C15.5907 4.22858 15.6983 3.35731 15.6405 2.58736C15.6116 2.20238 15.5388 1.8054 15.2803 1.4404C15.0218 1.0754 14.5917 0.838277 14.1666 0.737584C13.9115 0.677277 13.6207 0.520418 12.5682 0.509819H12.5665C12.2446 0.506666 11.9349 0.500731 11.6353 0.500058ZM12.5499 2.17576C13.4813 2.18514 13.2493 2.23539 13.7666 2.35797C13.927 2.39596 13.8881 2.39574 13.8844 2.39051C13.8807 2.38526 13.9278 2.47115 13.9458 2.711C13.9819 3.19071 13.891 4.14447 13.891 5.47346C13.891 5.83586 13.8464 6.35301 13.8927 6.89211C13.9389 7.43121 14.0753 8.12306 14.7326 8.54015C15.0441 8.73809 15.4058 8.75057 15.7152 8.67519C16.0245 8.5998 16.3052 8.4428 16.5999 8.21152C17.1892 7.74896 17.8466 6.96829 18.673 5.58897C19.4453 4.30145 20.0071 3.07541 20.0257 3.03475C20.0294 3.03189 20.033 3.02992 20.0373 3.02662C20.0479 3.02673 20.0369 3.02662 20.0506 3.02662C20.3679 3.02662 23.0504 3.00547 23.6242 3.00547C23.7581 3.00547 23.8069 3.01339 23.913 3.01686C23.8842 3.1112 23.9162 3.05103 23.7902 3.27391C23.5258 3.74136 23.0387 4.43606 22.3179 5.38073C21.1336 6.93099 20.3995 7.53846 20.1834 8.56781C20.0753 9.08249 20.2779 9.65298 20.5751 10.0385C20.8724 10.4241 21.2476 10.7544 21.7453 11.2083C22.667 12.0495 23.2077 12.6606 23.518 13.058C23.6731 13.2567 23.7709 13.4002 23.8317 13.4973C23.8924 13.5943 23.8774 13.5841 23.9562 13.712C24.008 13.7972 23.9889 13.7452 23.9976 13.7706C23.8958 13.7988 23.7723 13.8327 23.7653 13.8341L20.6398 13.821C20.5835 13.821 20.5274 13.8265 20.4722 13.8373C20.4722 13.8373 20.48 13.8463 20.3129 13.821C20.1457 13.7958 19.8798 13.7248 19.5377 13.494C19.1249 13.216 18.547 12.5357 17.9808 11.9176C17.6977 11.6085 17.4154 11.3118 17.0646 11.07C16.7138 10.8282 16.1889 10.6008 15.6222 10.7755C15.034 10.9566 14.5761 11.4065 14.3525 11.8899C14.186 12.2497 14.1726 12.6256 14.1466 12.9995C14.1184 13.0015 14.1509 12.9995 14.1151 12.9995H12.6943C10.7638 12.9995 9.39301 13.1303 7.48913 11.0862C4.92819 8.33634 2.58185 3.76098 2.1993 3.0071L5.14714 3.00547C5.19895 3.02496 5.30984 3.06577 5.31644 3.07055L5.31976 3.0738C5.212 2.9966 5.32473 3.10471 5.32473 3.10471C5.33514 3.12965 5.34677 3.15408 5.35959 3.17792C5.35959 3.17792 5.9437 4.29643 6.68246 5.55155C7.40712 6.78201 7.93518 7.55066 8.44519 8.05859C8.70019 8.31256 8.9576 8.51624 9.30165 8.63126C9.6457 8.74627 10.09 8.70409 10.3888 8.54341C10.9994 8.21583 11.0814 7.73265 11.1806 7.31022C11.2799 6.88721 11.3194 6.43658 11.3382 6.00546C11.3748 5.16865 11.3231 4.44444 11.32 4.39972C11.3202 4.38403 11.3241 4.08203 11.2752 3.69527C11.2251 3.29924 11.1693 2.81502 10.8038 2.32706L10.8021 2.32543C10.7996 2.32201 10.7964 2.32225 10.7938 2.31892C11.2772 2.25098 11.6907 2.16734 12.5499 2.17576ZM20.0473 2.99246L20.0357 3.01849C20.0357 3.01849 20.0344 3.01728 20.0324 3.01849C20.0359 3.01177 20.0473 2.99246 20.0473 2.99246Z" fill="#FFAF17"/>
</svg>
