<svg width="26" height="20" viewBox="0 0 26 20" fill="none" xmlns="http://www.w3.org/2000/svg">
<path d="M13 0.625C9.46973 0.625 6.34961 0.991211 4.44531 1.26953C2.87061 1.50024 1.59985 2.68677 1.31055 4.25781C1.06519 5.59448 0.8125 7.55005 0.8125 10C0.8125 12.45 1.06519 14.4055 1.31055 15.7422C1.59985 17.3132 2.87061 18.5034 4.44531 18.7305C6.35693 19.0088 9.48804 19.375 13 19.375C16.512 19.375 19.6431 19.0088 21.5547 18.7305C23.1294 18.5034 24.4001 17.3132 24.6895 15.7422C24.9348 14.4019 25.1875 12.4426 25.1875 10C25.1875 7.55737 24.9385 5.59815 24.6895 4.25781C24.4001 2.68677 23.1294 1.50024 21.5547 1.26953C19.6504 0.991211 16.5303 0.625 13 0.625ZM13 2.5C16.4058 2.5 19.449 2.8479 21.291 3.11523C22.082 3.23242 22.7009 3.82935 22.8438 4.60938C23.0708 5.84717 23.3125 7.68188 23.3125 10C23.3125 12.3145 23.0708 14.1528 22.8438 15.3906C22.7009 16.1707 22.0857 16.7712 21.291 16.8848C19.4417 17.1521 16.3838 17.5 13 17.5C9.61621 17.5 6.55469 17.1521 4.70898 16.8848C3.91797 16.7712 3.29907 16.1707 3.15625 15.3906C2.9292 14.1528 2.6875 12.3218 2.6875 10C2.6875 7.67456 2.9292 5.84717 3.15625 4.60938C3.29907 3.82935 3.91431 3.23242 4.70898 3.11523C6.54736 2.8479 9.59424 2.5 13 2.5ZM10.1875 4.63867V15.3613L11.5938 14.5703L18.1562 10.8203L19.5625 10L18.1562 9.17969L11.5938 5.42969L10.1875 4.63867ZM12.0625 7.86133L15.7832 10L12.0625 12.1387V7.86133Z" fill="#FFAF17"/>
</svg>
